<svg xmlns="http://www.w3.org/2000/svg" width="948.373" height="389.786" viewBox="0 0 948.373 389.786"><circle fill="none" stroke="#FFF" stroke-width="2" stroke-miterlimit="10" cx="587.928" cy="58.112" r="14.888"/><path fill="#FFED00" d="M392.487 276.417c-22.392 0-43.529-5.525-62.822-16.427-25.916-14.639-45.731-34.794-55.8-56.753-11.127-24.271-10.097-49.335 2.979-72.483 10.476-18.543 36.062-40.196 73.695-40.196 12.925 0 26.471 2.575 40.263 7.653l2.983 1.099-.397 3.155c-.866 6.863-1.306 14.108-1.306 21.535 0 18.769 4.49 37.128 13.347 54.569 7.044 13.872 16.848 27.182 29.137 39.561 15.097 15.209 30.068 25.16 37.649 29.74l5.935 3.584-6.073 3.344c-14.666 8.074-44.511 21.619-79.59 21.619-.002 0 .002 0 0 0z"/><path fill="#FFF" d="M350.539 94.559c11.725 0 24.716 2.191 38.881 7.407-.889 7.038-1.336 14.391-1.336 22.035 0 19.404 4.636 38.373 13.779 56.38 7.233 14.243 17.281 27.893 29.865 40.568 15.468 15.582 30.833 25.763 38.42 30.345-14.335 7.894-43.467 21.125-77.661 21.125-19.259 0-40.124-4.197-60.855-15.909-49.628-28.033-77.618-77.205-51.305-123.786 9.697-17.169 33.903-38.165 70.212-38.165m0-8c-39.356 0-66.174 22.749-77.179 42.229-13.732 24.312-14.815 50.632-3.132 76.118 10.416 22.72 30.825 43.521 57.468 58.569 19.902 11.243 41.701 16.943 64.791 16.943 35.978 0 66.518-13.856 81.521-22.116l12.146-6.688-11.869-7.168c-7.422-4.482-22.084-14.229-36.878-29.133-11.996-12.084-21.554-25.055-28.41-38.555-8.567-16.874-12.912-34.625-12.912-52.758 0-7.26.428-14.337 1.272-21.034l.796-6.311-5.969-2.198c-14.236-5.241-28.247-7.898-41.645-7.898z"/><path fill="#E61680" d="M476.82 250.542c-.866-.457-21.444-11.403-42.297-32.41-27.793-27.997-42.483-60.547-42.483-94.131 0-46.695 17.072-72.901 31.395-86.663 15.245-14.648 35.829-23.394 55.063-23.394 26.586 0 48.914 11.431 64.573 33.057 14.167 19.566 21.97 46.734 21.97 76.499 0 35.46-14.648 68.695-42.364 96.113-20.828 20.605-41.398 30.58-42.264 30.994l-1.813.868-1.78-.933z"/><path fill="#FFF" d="M478.495 17.944c53.5 0 82.544 48.556 82.544 105.556 0 84.054-82.355 123.5-82.355 123.5s-82.645-43.5-82.645-123c0-82 52.956-106.056 82.456-106.056m0-8c-20.24 0-41.86 9.163-57.833 24.509-10.008 9.617-17.857 21.545-23.332 35.452-6.164 15.666-9.291 33.866-9.291 54.095 0 19.404 4.637 38.373 13.78 56.38 7.233 14.243 17.281 27.893 29.865 40.568 21.281 21.438 42.385 32.664 43.272 33.131l3.558 1.872 3.625-1.735c.89-.426 22.048-10.686 43.349-31.758 12.581-12.445 22.622-26.119 29.846-40.637 9.096-18.279 13.707-37.901 13.707-58.321 0-30.601-8.072-58.602-22.729-78.845-16.445-22.708-39.896-34.711-67.817-34.711z"/><path fill="#FFF" stroke="#FFF" stroke-width="1.5" stroke-miterlimit="10" d="M593.619 66.377h-1.761l-5.585-7.585h-.87v7.585h-1.444v-15.91h2.924c1.724 0 3.016.357 3.874 1.076.857.718 1.288 1.804 1.288 3.26 0 1.239-.368 2.213-1.104 2.923-.735.71-1.748 1.065-3.037 1.065l5.715 7.586zm-8.215-14.649v5.879h1.457c1.347 0 2.287-.215 2.819-.646.533-.431.799-1.165.799-2.201 0-1.094-.275-1.873-.826-2.336-.55-.463-1.48-.696-2.792-.696h-1.457z"/><path fill="#009FE3" d="M564.791 276.417c-34.932 0-64.688-13.449-79.316-21.467l-6.303-3.453 6.257-3.537c7.521-4.25 22.37-13.586 37.289-28.347 12.267-12.134 22.05-25.448 29.077-39.574 8.816-17.72 13.287-36.743 13.287-56.539 0-7.028-.453-14.08-1.35-20.961l-.411-3.163 2.991-1.105c13.849-5.118 27.449-7.713 40.425-7.713 37.634 0 63.222 21.654 73.695 40.197 13.076 23.148 14.106 48.212 2.979 72.483-10.066 21.959-29.885 42.114-55.799 56.753-19.294 10.899-40.43 16.426-62.819 16.426h-.002z"/><path fill="#FFF" d="M606.739 94.559c36.307 0 60.517 20.998 70.213 38.164 26.313 46.581-1.677 95.753-51.305 123.787-20.732 11.712-41.595 15.908-60.854 15.908-33.98 0-62.965-13.066-77.396-20.976 7.721-4.362 22.89-13.903 38.134-28.985 12.581-12.444 22.622-26.117 29.847-40.636 9.095-18.279 13.706-37.901 13.706-58.321 0-7.334-.478-14.513-1.384-21.477 14.23-5.258 27.269-7.464 39.039-7.464m0-8c-13.449 0-27.518 2.678-41.812 7.961l-5.982 2.211.823 6.325a159.048 159.048 0 0 1 1.314 20.445c0 19.172-4.328 37.595-12.867 54.757-6.833 13.73-16.357 26.688-28.311 38.512-14.59 14.434-29.096 23.556-36.443 27.708l-12.515 7.072 12.605 6.907c14.965 8.201 45.418 21.959 81.239 21.959 23.09 0 44.888-5.699 64.789-16.941 26.643-15.05 47.052-35.852 57.468-58.569 11.685-25.486 10.602-51.807-3.132-76.118-11.003-19.481-37.819-42.229-77.176-42.229z"/><path fill="none" stroke="#575756" stroke-width=".5" stroke-miterlimit="10" d="M683.961 128.788c-11.006-19.481-37.821-42.229-77.18-42.229-12.99 0-26.559 2.506-40.35 7.437-3.477-18.874-10.303-35.838-20.079-49.34-16.441-22.709-39.892-34.712-67.813-34.712-20.24 0-41.86 9.163-57.832 24.509-10.01 9.617-17.858 21.545-23.332 35.452-2.93 7.442-5.163 15.462-6.711 23.994-13.697-4.867-27.175-7.341-40.08-7.341-39.357 0-66.174 22.749-77.18 42.229-13.732 24.312-14.815 50.632-3.133 76.118 10.416 22.719 30.825 43.521 57.468 58.569 19.901 11.243 41.7 16.942 64.79 16.942 35.979 0 66.519-13.855 81.521-22.115l4.386-2.414.122.063.248-.118 4.791 2.625c14.965 8.201 45.418 21.959 81.238 21.959 23.091 0 44.89-5.699 64.789-16.941 26.644-15.05 47.053-35.852 57.469-58.569 11.685-25.486 10.601-51.807-3.132-76.118z"/><path fill="none" d="M14.276 303.581h928.813v86.205H14.276z"/><g fill="#FFF"><path d="M20.843 368.845v-61.631H37.64v47.233h20.88v14.397H20.843zM66.35 307.214h16.755v29.974c0 4.406.112 7.571.336 9.493.225 1.923.604 3.529 1.137 4.82.646 1.571 1.768 2.771 3.368 3.599 1.6.828 3.55 1.242 5.852 1.242s4.245-.414 5.831-1.242c1.585-.827 2.715-2.027 3.389-3.599.533-1.291.912-2.897 1.136-4.82.225-1.922.337-5.087.337-9.493v-29.974h16.713v32.584c0 6.764-.407 11.752-1.221 14.965-.814 3.214-2.189 5.957-4.126 8.23-2.104 2.498-4.996 4.371-8.672 5.62-3.677 1.248-8.139 1.873-13.387 1.873-5.276 0-9.746-.625-13.408-1.873-3.663-1.249-6.561-3.122-8.693-5.62-1.909-2.273-3.277-5.017-4.104-8.23-.828-3.213-1.242-8.201-1.242-14.965V307.214zM133.959 368.845v-61.631h37.761v13.514h-21.385v10.692H170.5v13.219h-20.165v24.206h-16.376zM189.738 368.845V321.78H175.93v-14.565h44.413v14.565h-13.808v47.065h-16.797zM228.552 368.845v-61.631h16.881c6.96 0 11.822.225 14.587.674 2.764.449 5.143 1.221 7.135 2.315 2.273 1.263 4.006 2.954 5.199 5.072 1.192 2.119 1.789 4.567 1.789 7.347 0 3.508-.891 6.293-2.673 8.355-1.783 2.063-4.625 3.628-8.525 4.694 4.378.337 7.802 1.873 10.272 4.609 2.469 2.736 3.704 6.393 3.704 10.967 0 3.283-.694 6.175-2.083 8.672-1.389 2.498-3.375 4.435-5.957 5.81-2.104 1.123-4.701 1.923-7.788 2.399-3.087.478-8.139.716-15.155.716h-17.386zm15.576-37.004h3.368c4.153 0 7.002-.456 8.545-1.368 1.543-.911 2.315-2.49 2.315-4.735 0-2.33-.723-3.964-2.168-4.904-1.446-.94-4.259-1.411-8.44-1.411h-3.621v12.418zm0 24.417h5.894c3.985 0 6.805-.498 8.461-1.495 1.656-.995 2.484-2.658 2.484-4.988 0-2.582-.758-4.385-2.273-5.409s-4.322-1.537-8.419-1.537h-6.146v13.429zM279.785 368.845l21.259-61.631h21.049l21.301 61.631h-16.712l-3.115-11.029h-23.869l-3.2 11.029h-16.713zm23.532-23.027h16.713l-6.272-20.333c-.197-.617-.463-1.613-.8-2.989-.337-1.374-.772-3.143-1.305-5.304a327.302 327.302 0 0 1-1.074 4.336 133.815 133.815 0 0 1-1.073 3.957l-6.189 20.333zM349.288 368.845v-61.631h16.797v47.233h20.88v14.397h-37.677zM395.174 368.845v-61.631h16.797v47.233h20.88v14.397h-37.677zM502.818 338.156c0 4.436-.814 8.588-2.442 12.461s-3.999 7.34-7.114 10.398a33.628 33.628 0 0 1-10.777 7.009 33.113 33.113 0 0 1-12.587 2.463c-4.406 0-8.624-.82-12.65-2.463-4.027-1.642-7.571-3.978-10.629-7.009-3.172-3.059-5.578-6.539-7.22-10.44-1.642-3.9-2.463-8.04-2.463-12.419 0-4.405.821-8.552 2.463-12.439 1.642-3.887 4.048-7.359 7.22-10.419a32.261 32.261 0 0 1 10.629-7.01c4.027-1.642 8.244-2.462 12.65-2.462 4.378 0 8.595.82 12.65 2.462 4.056 1.643 7.626 3.979 10.714 7.01 3.087 3.031 5.451 6.497 7.094 10.397 1.64 3.901 2.462 8.055 2.462 12.461zm-32.921 18.102c4.658 0 8.511-1.712 11.556-5.136s4.568-7.746 4.568-12.967c0-5.163-1.545-9.472-4.631-12.924-3.088-3.452-6.919-5.178-11.493-5.178-4.659 0-8.511 1.72-11.556 5.157-3.045 3.438-4.567 7.753-4.567 12.944 0 5.277 1.501 9.613 4.504 13.009 3.003 3.397 6.876 5.095 11.619 5.095zM513.341 368.845v-61.631h16.208l23.28 31.699c.448.646 1.185 1.944 2.209 3.895 1.025 1.951 2.154 4.272 3.39 6.967-.337-2.554-.583-4.826-.737-6.819s-.23-3.761-.23-5.305v-30.437h16.123v61.631H557.46l-23.281-31.826c-.477-.645-1.228-1.942-2.252-3.894a140.384 140.384 0 0 1-3.346-6.883c.336 2.582.582 4.869.736 6.861a69.73 69.73 0 0 1 .231 5.305v30.437h-16.207zM585.581 354.532v-13.724h28.626v13.724h-28.626zM696.802 368.845H681.1l-3.62-26.647c-.252-1.88-.484-3.972-.695-6.272a261.79 261.79 0 0 1-.568-7.536c-.393 2.61-1.164 5.866-2.314 9.767a81.377 81.377 0 0 0-.547 1.811l-8.378 28.879H653.78l-8.377-28.879a200.84 200.84 0 0 1-.506-1.811c-1.178-3.9-1.951-7.142-2.314-9.725-.169 2.33-.365 4.639-.59 6.926s-.491 4.567-.8 6.841l-3.62 26.647h-15.619l9.515-61.631h16.628l9.305 31.784c.055.225.168.589.336 1.094.87 2.835 1.417 5.263 1.643 7.283.111-1.095.322-2.309.631-3.642.309-1.332.729-2.939 1.264-4.82l9.387-31.699h16.671l9.468 61.63zM698.613 368.845l21.26-61.631h21.049l21.301 61.631H745.51l-3.115-11.029h-23.869l-3.199 11.029h-16.714zm23.533-23.027h16.713l-6.273-20.333c-.196-.617-.463-1.613-.799-2.989l-1.306-5.304a362.454 362.454 0 0 1-1.073 4.336 133.753 133.753 0 0 1-1.074 3.957l-6.188 20.333zM768.116 368.845v-61.631h17.555c6.875 0 11.667.315 14.375.947 2.709.632 5.045 1.691 7.01 3.179 2.217 1.684 3.922 3.83 5.115 6.44 1.192 2.61 1.789 5.487 1.789 8.63 0 4.771-1.172 8.651-3.516 11.641-2.344 2.988-5.761 4.975-10.25 5.956l16.797 24.838h-18.986l-14.145-24.122v24.122h-15.744zm15.745-32.499h3.115c3.62 0 6.266-.617 7.936-1.853 1.669-1.234 2.504-3.171 2.504-5.81 0-3.087-.778-5.283-2.336-6.588-1.558-1.306-4.175-1.958-7.852-1.958h-3.367v16.209zM823.39 368.845v-61.631h16.629v27.995l19.49-27.995h19.576l-22.775 30.058 24.754 31.573h-20.965l-20.08-27.658v27.658H823.39zM894.786 368.845V321.78h-13.808v-14.565h44.413v14.565h-13.809v47.065h-16.796z"/></g></svg>