<?xml version="1.0" encoding="UTF-8" standalone="no"?>
<svg width="58px" height="58px" viewBox="0 0 58 58" version="1.1" xmlns="http://www.w3.org/2000/svg" xmlns:xlink="http://www.w3.org/1999/xlink" xmlns:sketch="http://www.bohemiancoding.com/sketch/ns">
    <!-- Generator: Sketch 3.2.2 (9983) - http://www.bohemiancoding.com/sketch -->
    <title>19 - Earth (Flat)</title>
    <desc>Created with Sketch.</desc>
    <defs></defs>
    <g id="Page-1" stroke="none" stroke-width="1" fill="none" fill-rule="evenodd" sketch:type="MSPage">
        <g id="19---Earth-(Flat)" sketch:type="MSLayerGroup">
            <path d="M58,29 C58,45.016 45.016,58 29,58 C12.984,58 0,45.016 0,29 C0,12.984 12.984,0 29,0 C45.016,0 58,12.984 58,29" id="Fill-680" fill="#285680" sketch:type="MSShapeGroup"></path>
            <path d="M29,0 C24.97,0 21.134,0.823 17.646,2.308 C17.488,3.258 16.695,4.879 16.719,5.395 C16.831,5.417 24.092,-2.005 23.191,3.005 C22.61,6.23 16.675,6.211 16.93,9.458 C23.166,11.903 25.341,4.815 30.637,4.845 C32.404,4.854 36.929,2.061 37.793,2.63 C41.289,4.933 36.993,13.097 34.319,10.38 C31.747,7.807 28.076,11.281 28.241,15.292 C29.579,15.351 30.149,11.495 31.352,12.782 C32.676,14.199 32.198,17.052 30.366,17.707 C28.523,18.366 21.289,12.817 23.066,17.023 C25.02,21.691 17.212,25.298 25.094,23.416 C28.81,22.526 27.576,25.353 29.328,26.702 C31.416,28.305 30.491,24.488 32.014,25.069 C34.229,25.926 31.634,28.134 35.102,26.531 C39.171,24.675 37.643,27.569 38.888,29.461 C41.224,32.993 46.965,36.383 49.974,31.715 C50.684,30.615 50.229,21.908 54.695,27.748 C57.531,31.459 56.557,23.365 56.941,21.24 C53.547,8.993 42.327,0 29,0" id="Fill-1069" fill="#24AE5F" sketch:type="MSShapeGroup"></path>
            <path d="M32.918,42.082 L27.57,38.074 L23.985,38.215 L20.267,37.044 L17.355,35.037 L10.752,36.562 L8.03,37.882 L5,41.963 L6.072,46.747 C6.379,47.142 6.695,47.529 7.021,47.907 L12.63,50.526 L16.415,51.037 L18.667,55.659 L18.734,56.124 C21.926,57.333 25.384,58 29,58 C31.494,58 33.914,57.685 36.224,57.092 L36.985,52.548 L40.444,49.741 L41.881,45.259 L34.659,45.23 L32.918,42.082" id="Fill-1070" fill="#FAC176" sketch:type="MSShapeGroup"></path>
            <path d="M0.375,33.647 C0.513,33.635 0.531,33.623 0.544,33.611 C1.84,32.315 2.921,32.098 4.001,30.153 C5.082,28.208 3.785,28.208 4.001,24.967 C4.217,21.725 3.785,23.238 4.001,19.78 C4.079,18.536 3.948,17.852 2.437,17.363 C0.873,20.926 0,24.86 0,29 C0,30.582 0.131,32.133 0.375,33.647" id="Fill-1080" fill="#88C057" sketch:type="MSShapeGroup"></path>
            <path d="M30,53 C28.917,52.917 24.917,51.667 24,50 C23.083,48.333 21.083,45.5 21,46 C20.943,46.34 11.889,43.257 5.669,41.062 L5,41.963 L6.072,46.747 C6.379,47.142 6.695,47.529 7.021,47.907 L12.63,50.526 L16.415,51.037 L18.667,55.659 L18.734,56.124 C21.926,57.333 25.384,58 29,58 C31.494,58 33.914,57.685 36.224,57.092 L36.801,53.647 C36.292,53.488 35.705,53.278 35,53 C32.25,51.917 31.083,53.083 30,53" id="Fill-1081" fill="#FAC176" sketch:type="MSShapeGroup"></path>
            <path d="M40.444,49.741 L41.881,45.259 L34.659,45.23 L32.918,42.082 L27.57,38.074 L23.985,38.215 L20.267,37.044 L17.355,35.037 L10.752,36.562 L8.03,37.882 L5.669,41.062 C11.889,43.257 20.943,46.34 21,46 C21.083,45.5 23.083,48.333 24,50 C24.917,51.667 28.917,52.917 30,53 C31.083,53.083 32.25,51.917 35,53 C35.705,53.278 36.292,53.488 36.801,53.647 L36.985,52.548 L40.444,49.741" id="Fill-1082" fill="#88C057" sketch:type="MSShapeGroup"></path>
            <path d="M39.925,2.153 C39.73,5.814 39.588,8.458 39.588,8.458 L34,14.046 C34,14.046 39.238,21.554 39.588,22.427 C39.937,23.3 44.302,24.348 45.175,23.824 C46.048,23.3 49.366,20.507 50.763,22.427 C51.735,23.764 51.61,24.931 52.208,25.753 C52.62,25.759 53.134,26.036 53.777,26.683 C54.684,26.955 55.72,27.222 56.642,27.445 C56.948,25.655 56.721,22.462 56.941,21.24 C54.532,12.549 48.172,5.516 39.925,2.153" id="Fill-1083" fill="#88C057" sketch:type="MSShapeGroup"></path>
            <path d="M43.33,3.806 C43.148,7.26 43,10 43,10 L39,14 C39,14 42.75,19.375 43,20 C43.25,20.625 46.375,21.375 47,21 C47.625,20.625 50,18.625 51,20 C52,21.375 51.375,22.5 53,23 C54.373,23.423 56.267,23.842 56.825,23.962 C56.833,22.851 56.836,21.821 56.941,21.24 C54.876,13.787 49.903,7.555 43.33,3.806" id="Fill-1084" fill="#FAC176" sketch:type="MSShapeGroup"></path>
        </g>
    </g>
</svg>