<?xml version="1.0" encoding="UTF-8"?>
<svg width="102px" height="103px" viewBox="0 0 102 103" version="1.1" xmlns="http://www.w3.org/2000/svg" xmlns:xlink="http://www.w3.org/1999/xlink">
    <!-- Generator: Sketch 45.2 (43514) - http://www.bohemiancoding.com/sketch -->
    <title>27 - Solar System (Flat)</title>
    <desc>Created with Sketch.</desc>
    <defs></defs>
    <g id="Welcome" stroke="none" stroke-width="1" fill="none" fill-rule="evenodd">
        <g id="Desktop-HD" transform="translate(-661.000000, -5087.000000)">
            <g id="Solar-System" transform="translate(661.000000, 5087.869668)">
                <path d="M51,85 C69.7476,85 85,69.7476 85,51 C85,32.2524 69.7476,17 51,17 C44.8919,17 38.8688,18.6728 33.5818,21.8382 C32.776,22.3193 32.5142,23.3631 32.997,24.1689 C33.4798,24.9747 34.5219,25.2382 35.3277,24.7554 C40.0877,21.9062 45.5073,20.4 51,20.4 C67.8725,20.4 81.6,34.1275 81.6,51 C81.6,67.8725 67.8725,81.6 51,81.6 C34.1275,81.6 20.4,67.8725 20.4,51 C20.4,44.6777 22.3329,38.5951 25.9896,33.4067 C26.5302,32.64 26.3466,31.5792 25.5799,31.0386 C24.8098,30.498 23.7507,30.6799 23.2101,31.4483 C19.1471,37.2113 17,43.9722 17,51 C17,69.7476 32.2524,85 51,85" id="Fill-96" fill="#E6E6E6"></path>
                <path d="M93.0104,22.0949 C92.4766,21.3197 91.4175,21.1242 90.6474,21.6597 C89.8739,22.1918 89.6784,23.2509 90.2122,24.0227 C95.6998,31.9838 98.6,41.3117 98.6,51 C98.6,77.248 77.2463,98.6 51,98.6 C40.1217,98.6 29.8758,95.0164 21.3673,88.2368 C20.6346,87.652 19.5653,87.7727 18.9788,88.5071 C18.3923,89.2415 18.5147,90.3108 19.2491,90.8956 C28.3645,98.1597 39.3448,102 51,102 C79.1214,102 102,79.1214 102,51 C102,40.6198 98.8907,30.6238 93.0104,22.0949" id="Fill-97" fill="#E6E6E6"></path>
                <path d="M3.4,51 C3.4,24.7537 24.752,3.4 51,3.4 C59.8672,3.4 68.5253,5.8616 76.0376,10.5196 C76.8332,11.0126 77.8821,10.7661 78.3785,9.9705 C78.8732,9.1732 78.6267,8.1243 77.8294,7.6296 C69.7765,2.6384 60.4996,0 51,0 C22.8786,0 0,22.8786 0,51 C0,61.7576 3.3218,72.0545 9.6067,80.7772 C9.9399,81.2379 10.4601,81.4827 10.9888,81.4827 C11.3322,81.4827 11.6807,81.379 11.9799,81.1631 C12.7432,80.6123 12.9149,79.5498 12.3658,78.7899 C6.5008,70.6503 3.4,61.0402 3.4,51" id="Fill-98" fill="#E6E6E6"></path>
                <path d="M66.3,51 C66.3,59.4507 59.4507,66.3 51,66.3 C42.5493,66.3 35.7,59.4507 35.7,51 C35.7,42.5493 42.5493,35.7 51,35.7 C59.4507,35.7 66.3,42.5493 66.3,51" id="Fill-350" fill="#F0C419"></path>
                <path d="M95.2,15.3 C95.2,20.9338 90.6338,25.5 85,25.5 C79.3662,25.5 74.8,20.9338 74.8,15.3 C74.8,9.6662 79.3662,5.1 85,5.1 C90.6338,5.1 95.2,9.6662 95.2,15.3" id="Fill-351" fill="#4482C3"></path>
                <path d="M35.7,27.2 C35.7,30.9553 32.6553,34 28.9,34 C25.1447,34 22.1,30.9553 22.1,27.2 C22.1,23.4447 25.1447,20.4 28.9,20.4 C32.6553,20.4 35.7,23.4447 35.7,27.2" id="Fill-352" fill="#F0785A"></path>
                <path d="M22.1,85 C22.1,88.7553 19.0553,91.8 15.3,91.8 C11.5447,91.8 8.5,88.7553 8.5,85 C8.5,81.2447 11.5447,78.2 15.3,78.2 C19.0553,78.2 22.1,81.2447 22.1,85" id="Fill-353" fill="#AF8066"></path>
                <path d="M61.2,61.2 C61.2,62.1384 60.4384,62.9 59.5,62.9 C58.5616,62.9 57.8,62.1384 57.8,61.2 C57.8,60.2616 58.5616,59.5 59.5,59.5 C60.4384,59.5 61.2,60.2616 61.2,61.2" id="Fill-540" fill="#E57E25"></path>
                <path d="M64.6,57.8 C64.6,58.7384 63.8384,59.5 62.9,59.5 C61.9616,59.5 61.2,58.7384 61.2,57.8 C61.2,56.8616 61.9616,56.1 62.9,56.1 C63.8384,56.1 64.6,56.8616 64.6,57.8" id="Fill-541" fill="#E57E25"></path>
                <path d="M57.8,57.8 C57.8,58.7384 57.0384,59.5 56.1,59.5 C55.1616,59.5 54.4,58.7384 54.4,57.8 C54.4,56.8616 55.1616,56.1 56.1,56.1 C57.0384,56.1 57.8,56.8616 57.8,57.8" id="Fill-542" fill="#E57E25"></path>
                <path d="M61.2,54.4 C61.2,55.3384 60.4384,56.1 59.5,56.1 C58.5616,56.1 57.8,55.3384 57.8,54.4 C57.8,53.4616 58.5616,52.7 59.5,52.7 C60.4384,52.7 61.2,53.4616 61.2,54.4" id="Fill-543" fill="#E57E25"></path>
                <path d="M64.6,51 C64.6,51.9384 63.8384,52.7 62.9,52.7 C61.9616,52.7 61.2,51.9384 61.2,51 C61.2,50.0616 61.9616,49.3 62.9,49.3 C63.8384,49.3 64.6,50.0616 64.6,51" id="Fill-544" fill="#E57E25"></path>
                <path d="M95.2,95.2 C95.2,96.1384 94.4384,96.9 93.5,96.9 C92.5616,96.9 91.8,96.1384 91.8,95.2 C91.8,94.2616 92.5616,93.5 93.5,93.5 C94.4384,93.5 95.2,94.2616 95.2,95.2" id="Fill-545" fill="#F3D55B"></path>
                <path d="M100.3,85 C100.3,85.9384 99.5384,86.7 98.6,86.7 C97.6616,86.7 96.9,85.9384 96.9,85 C96.9,84.0616 97.6616,83.3 98.6,83.3 C99.5384,83.3 100.3,84.0616 100.3,85" id="Fill-546" fill="#F3D55B"></path>
                <path d="M10.2,15.3 C10.2,16.2384 9.4384,17 8.5,17 C7.5616,17 6.8,16.2384 6.8,15.3 C6.8,14.3616 7.5616,13.6 8.5,13.6 C9.4384,13.6 10.2,14.3616 10.2,15.3" id="Fill-547" fill="#F3D55B"></path>
                <path d="M8.5,3.4 C8.5,4.3384 7.7384,5.1 6.8,5.1 C5.8616,5.1 5.1,4.3384 5.1,3.4 C5.1,2.4616 5.8616,1.7 6.8,1.7 C7.7384,1.7 8.5,2.4616 8.5,3.4" id="Fill-548" fill="#F3D55B"></path>
                <path d="M22.1,3.4 C22.1,4.3384 21.3384,5.1 20.4,5.1 C19.4616,5.1 18.7,4.3384 18.7,3.4 C18.7,2.4616 19.4616,1.7 20.4,1.7 C21.3384,1.7 22.1,2.4616 22.1,3.4" id="Fill-549" fill="#F3D55B"></path>
                <path d="M5.1,96.9 C5.1,97.8384 4.3384,98.6 3.4,98.6 C2.4616,98.6 1.7,97.8384 1.7,96.9 C1.7,95.9616 2.4616,95.2 3.4,95.2 C4.3384,95.2 5.1,95.9616 5.1,96.9" id="Fill-550" fill="#F3D55B"></path>
                <path d="M78.2,1.7 C78.2,2.6384 77.4384,3.4 76.5,3.4 C75.5616,3.4 74.8,2.6384 74.8,1.7 C74.8,0.7616 75.5616,0 76.5,0 C77.4384,0 78.2,0.7616 78.2,1.7" id="Fill-551" fill="#F3D55B"></path>
                <path d="M56.1,10.2 C56.1,11.1384 55.3384,11.9 54.4,11.9 C53.4616,11.9 52.7,11.1384 52.7,10.2 C52.7,9.2616 53.4616,8.5 54.4,8.5 C55.3384,8.5 56.1,9.2616 56.1,10.2" id="Fill-552" fill="#F3D55B"></path>
                <path d="M91.8,69.7 C91.8,70.6384 91.0384,71.4 90.1,71.4 C89.1616,71.4 88.4,70.6384 88.4,69.7 C88.4,68.7616 89.1616,68 90.1,68 C91.0384,68 91.8,68.7616 91.8,69.7" id="Fill-553" fill="#F3D55B"></path>
                <path d="M11.9,49.3 C11.9,50.2384 11.1384,51 10.2,51 C9.2616,51 8.5,50.2384 8.5,49.3 C8.5,48.3616 9.2616,47.6 10.2,47.6 C11.1384,47.6 11.9,48.3616 11.9,49.3" id="Fill-554" fill="#F3D55B"></path>
                <path d="M54.4,61.2 C54.4,62.1384 53.6384,62.9 52.7,62.9 C51.7616,62.9 51,62.1384 51,61.2 C51,60.2616 51.7616,59.5 52.7,59.5 C53.6384,59.5 54.4,60.2616 54.4,61.2" id="Fill-555" fill="#E57E25"></path>
                <path d="M57.8,51 C57.8,51.9384 57.0384,52.7 56.1,52.7 C55.1616,52.7 54.4,51.9384 54.4,51 C54.4,50.0616 55.1616,49.3 56.1,49.3 C57.0384,49.3 57.8,50.0616 57.8,51" id="Fill-556" fill="#E57E25"></path>
            </g>
        </g>
    </g>
</svg>