<?xml version="1.0" encoding="UTF-8"?>
<svg width="145px" height="135px" viewBox="0 0 145 135" version="1.1" xmlns="http://www.w3.org/2000/svg" xmlns:xlink="http://www.w3.org/1999/xlink">
    <!-- Generator: Sketch 45.2 (43514) - http://www.bohemiancoding.com/sketch -->
    <title>20 - Solar Eclipse Night</title>
    <desc>Created with Sketch.</desc>
    <defs></defs>
    <g id="Welcome" stroke="none" stroke-width="1" fill="none" fill-rule="evenodd">
        <g id="Desktop-HD-Copy" transform="translate(-617.000000, -59.000000)">
            <g id="Solar-Eclipse" transform="translate(617.000000, 59.000000)">
                <path d="M50,0 C48.62,0 47.5,1.1175 47.5,2.5 L47.5,10 C47.5,11.3825 48.62,12.5 50,12.5 C51.38,12.5 52.5,11.3825 52.5,10 L52.5,2.5 C52.5,1.1175 51.38,0 50,0" id="Fill-320" fill="#F0C419"></path>
                <path d="M50,122.5 C48.62,122.5 47.5,123.6175 47.5,125 L47.5,132.5 C47.5,133.8825 48.62,135 50,135 C51.38,135 52.5,133.8825 52.5,132.5 L52.5,125 C52.5,123.6175 51.38,122.5 50,122.5" id="Fill-321" fill="#F0C419"></path>
                <path d="M7.5725,106.3925 L2.27,111.695 C1.295,112.67 1.295,114.2525 2.27,115.23 C2.76,115.7175 3.3975,115.9625 4.0375,115.9625 C4.6775,115.9625 5.3175,115.7175 5.805,115.23 L11.1075,109.9275 C12.085,108.95 12.085,107.3675 11.1075,106.3925 C10.1325,105.415 8.55,105.415 7.5725,106.3925" id="Fill-322" fill="#F0C419"></path>
                <path d="M5.805,19.77 C4.83,18.795 3.2475,18.795 2.27,19.77 C1.295,20.7475 1.295,22.33 2.27,23.305 L7.5725,28.6075 C8.0625,29.0975 8.7025,29.34 9.34,29.34 C9.98,29.34 10.62,29.0975 11.1075,28.6075 C12.085,27.6325 12.085,26.05 11.1075,25.0725 L5.805,19.77" id="Fill-323" fill="#F0C419"></path>
                <path d="M67.47,2.3 C66.145,1.94 64.7675,2.735 64.41,4.0675 L62.4675,11.3125 C62.11,12.6475 62.9,14.0175 64.235,14.375 C64.45,14.4325 64.67,14.46 64.8825,14.46 C65.9875,14.46 66.9975,13.725 67.2975,12.6075 L69.2375,5.36 C69.595,4.0275 68.805,2.6575 67.47,2.3" id="Fill-324" fill="#F0C419"></path>
                <path d="M35.765,120.625 C34.435,120.265 33.0625,121.0575 32.705,122.3925 L30.7625,129.6375 C30.405,130.9725 31.195,132.3425 32.53,132.7 C32.745,132.7575 32.965,132.785 33.1775,132.785 C34.28,132.785 35.2925,132.05 35.59,130.9325 L37.5325,123.6875 C37.89,122.3525 37.1,120.9825 35.765,120.625" id="Fill-325" fill="#F0C419"></path>
                <path d="M67.2975,122.3925 C66.94,121.0575 65.57,120.2625 64.235,120.625 C62.9,120.9825 62.11,122.3525 62.4675,123.6875 L64.41,130.9325 C64.7075,132.05 65.72,132.785 66.8225,132.785 C67.0375,132.785 67.255,132.7575 67.47,132.7 C68.805,132.3425 69.595,130.9725 69.2375,129.6375 L67.2975,122.3925" id="Fill-326" fill="#F0C419"></path>
                <path d="M35.59,4.0675 C35.2325,2.7325 33.86,1.9375 32.53,2.3 C31.195,2.6575 30.405,4.0275 30.7625,5.36 L32.705,12.6075 C33.0025,13.725 34.015,14.46 35.1175,14.46 C35.33,14.46 35.55,14.4325 35.765,14.375 C37.1,14.0175 37.89,12.6475 37.5325,11.3125 L35.59,4.0675" id="Fill-327" fill="#F0C419"></path>
                <path d="M80.915,116.0475 C80.2225,114.85 78.6925,114.44 77.5,115.1325 C76.305,115.8225 75.895,117.35 76.585,118.5475 L80.335,125.0425 C80.7975,125.845 81.6375,126.2925 82.5025,126.2925 C82.925,126.2925 83.3575,126.185 83.75,125.9575 C84.9475,125.265 85.355,123.7375 84.665,122.5425 L80.915,116.0475" id="Fill-328" fill="#F0C419"></path>
                <path d="M19.665,9.9575 C18.975,8.76 17.445,8.3525 16.25,9.0425 C15.0525,9.735 14.645,11.2625 15.335,12.4575 L19.085,18.9525 C19.5475,19.755 20.3875,20.2025 21.2525,20.2025 C21.675,20.2025 22.1075,20.095 22.5,19.8675 C23.6975,19.1775 24.105,17.65 23.415,16.4525 L19.665,9.9575" id="Fill-329" fill="#F0C419"></path>
                <path d="M77.5,19.8675 C77.8925,20.095 78.325,20.2025 78.7475,20.2025 C79.6125,20.2025 80.4525,19.755 80.915,18.9525 L84.665,12.4575 C85.355,11.2625 84.9475,9.735 83.75,9.0425 C82.5525,8.3525 81.025,8.76 80.335,9.9575 L76.585,16.4525 C75.895,17.65 76.305,19.1775 77.5,19.8675" id="Fill-330" fill="#F0C419"></path>
                <path d="M22.5,115.1325 C21.305,114.44 19.775,114.85 19.085,116.0475 L15.335,122.5425 C14.645,123.7375 15.0525,125.265 16.25,125.9575 C16.6425,126.185 17.075,126.2925 17.4975,126.2925 C18.3625,126.2925 19.2025,125.845 19.665,125.0425 L23.415,118.5475 C24.105,117.35 23.6975,115.8225 22.5,115.1325" id="Fill-331" fill="#F0C419"></path>
                <path d="M45,67.5 C45,47.99 56.2,31.13 72.5,22.8925 C65.73,19.47 58.1025,17.5 50,17.5 C22.385,17.5 0,39.885 0,67.5 C0,95.115 22.385,117.5 50,117.5 C58.1025,117.5 65.73,115.53 72.5,112.1075 C56.2,103.8675 45,87.01 45,67.5" id="Fill-332" fill="#F0C419"></path>
                <path d="M40,47.5 C41.38,47.5 42.5,46.38 42.5,45 C42.5,43.62 41.38,42.5 40,42.5 C38.62,42.5 37.5,43.62 37.5,45 C37.5,46.38 38.62,47.5 40,47.5" id="Fill-333" fill="#F29C1F"></path>
                <path d="M50,47.5 C51.38,47.5 52.5,46.38 52.5,45 C52.5,43.62 51.38,42.5 50,42.5 C48.62,42.5 47.5,43.62 47.5,45 C47.5,46.38 48.62,47.5 50,47.5" id="Fill-334" fill="#F29C1F"></path>
                <path d="M45,42.5 C46.38,42.5 47.5,41.38 47.5,40 C47.5,38.62 46.38,37.5 45,37.5 C43.62,37.5 42.5,38.62 42.5,40 C42.5,41.38 43.62,42.5 45,42.5" id="Fill-335" fill="#F29C1F"></path>
                <path d="M50,37.5 C51.38,37.5 52.5,36.38 52.5,35 C52.5,33.62 51.38,32.5 50,32.5 C48.62,32.5 47.5,33.62 47.5,35 C47.5,36.38 48.62,37.5 50,37.5" id="Fill-336" fill="#F29C1F"></path>
                <path d="M55,32.5 C56.38,32.5 57.5,31.38 57.5,30 C57.5,28.62 56.38,27.5 55,27.5 C53.62,27.5 52.5,28.62 52.5,30 C52.5,31.38 53.62,32.5 55,32.5" id="Fill-337" fill="#F29C1F"></path>
                <path d="M60,27.5 C61.38,27.5 62.5,26.38 62.5,25 C62.5,23.62 61.38,22.5 60,22.5 C58.62,22.5 57.5,23.62 57.5,25 C57.5,26.38 58.62,27.5 60,27.5" id="Fill-338" fill="#F29C1F"></path>
                <path d="M50,27.5 C51.38,27.5 52.5,26.38 52.5,25 C52.5,23.62 51.38,22.5 50,22.5 C48.62,22.5 47.5,23.62 47.5,25 C47.5,26.38 48.62,27.5 50,27.5" id="Fill-339" fill="#F29C1F"></path>
                <path d="M45,32.5 C46.38,32.5 47.5,31.38 47.5,30 C47.5,28.62 46.38,27.5 45,27.5 C43.62,27.5 42.5,28.62 42.5,30 C42.5,31.38 43.62,32.5 45,32.5" id="Fill-340" fill="#F29C1F"></path>
                <path d="M45,52.5 C46.38,52.5 47.5,51.38 47.5,50 C47.5,48.62 46.38,47.5 45,47.5 C43.62,47.5 42.5,48.62 42.5,50 C42.5,51.38 43.62,52.5 45,52.5" id="Fill-341" fill="#F29C1F"></path>
                <path d="M35,62.5 C36.38,62.5 37.5,61.38 37.5,60 C37.5,58.62 36.38,57.5 35,57.5 C33.62,57.5 32.5,58.62 32.5,60 C32.5,61.38 33.62,62.5 35,62.5" id="Fill-342" fill="#F29C1F"></path>
                <path d="M40,57.5 C41.38,57.5 42.5,56.38 42.5,55 C42.5,53.62 41.38,52.5 40,52.5 C38.62,52.5 37.5,53.62 37.5,55 C37.5,56.38 38.62,57.5 40,57.5" id="Fill-343" fill="#F29C1F"></path>
                <path d="M45,62.5 C46.38,62.5 47.5,61.38 47.5,60 C47.5,58.62 46.38,57.5 45,57.5 C43.62,57.5 42.5,58.62 42.5,60 C42.5,61.38 43.62,62.5 45,62.5" id="Fill-344" fill="#F29C1F"></path>
                <path d="M40,62.5 C38.62,62.5 37.5,63.62 37.5,65 C37.5,66.38 38.62,67.5 40,67.5 C41.38,67.5 42.5,66.38 42.5,65 C42.5,63.62 41.38,62.5 40,62.5" id="Fill-345" fill="#F29C1F"></path>
                <path d="M35,67.5 C33.62,67.5 32.5,68.62 32.5,70 C32.5,71.38 33.62,72.5 35,72.5 C36.38,72.5 37.5,71.38 37.5,70 C37.5,68.62 36.38,67.5 35,67.5" id="Fill-346" fill="#F29C1F"></path>
                <path d="M40,77.5 C41.38,77.5 42.5,76.38 42.5,75 C42.5,73.62 41.38,72.5 40,72.5 C38.62,72.5 37.5,73.62 37.5,75 C37.5,76.38 38.62,77.5 40,77.5" id="Fill-347" fill="#F29C1F"></path>
                <path d="M40,87.5 C41.38,87.5 42.5,86.38 42.5,85 C42.5,83.62 41.38,82.5 40,82.5 C38.62,82.5 37.5,83.62 37.5,85 C37.5,86.38 38.62,87.5 40,87.5" id="Fill-348" fill="#F29C1F"></path>
                <path d="M45,77.5 C43.62,77.5 42.5,78.62 42.5,80 C42.5,81.38 43.62,82.5 45,82.5 C46.38,82.5 47.5,81.38 47.5,80 C47.5,78.62 46.38,77.5 45,77.5" id="Fill-349" fill="#F29C1F"></path>
                <path d="M45,72.5 C46.38,72.5 47.5,71.38 47.5,70 C47.5,68.62 46.38,67.5 45,67.5 C43.62,67.5 42.5,68.62 42.5,70 C42.5,71.38 43.62,72.5 45,72.5" id="Fill-350" fill="#F29C1F"></path>
                <path d="M45,92.5 C46.38,92.5 47.5,91.38 47.5,90 C47.5,88.62 46.38,87.5 45,87.5 C43.62,87.5 42.5,88.62 42.5,90 C42.5,91.38 43.62,92.5 45,92.5" id="Fill-351" fill="#F29C1F"></path>
                <path d="M40,92.5 C38.62,92.5 37.5,93.62 37.5,95 C37.5,96.38 38.62,97.5 40,97.5 C41.38,97.5 42.5,96.38 42.5,95 C42.5,93.62 41.38,92.5 40,92.5" id="Fill-352" fill="#F29C1F"></path>
                <path d="M45,97.5 C43.62,97.5 42.5,98.62 42.5,100 C42.5,101.38 43.62,102.5 45,102.5 C46.38,102.5 47.5,101.38 47.5,100 C47.5,98.62 46.38,97.5 45,97.5" id="Fill-353" fill="#F29C1F"></path>
                <path d="M50,97.5 C51.38,97.5 52.5,96.38 52.5,95 C52.5,93.62 51.38,92.5 50,92.5 C48.62,92.5 47.5,93.62 47.5,95 C47.5,96.38 48.62,97.5 50,97.5" id="Fill-354" fill="#F29C1F"></path>
                <path d="M50,102.5 C48.62,102.5 47.5,103.62 47.5,105 C47.5,106.38 48.62,107.5 50,107.5 C51.38,107.5 52.5,106.38 52.5,105 C52.5,103.62 51.38,102.5 50,102.5" id="Fill-355" fill="#F29C1F"></path>
                <path d="M55,102.5 C56.38,102.5 57.5,101.38 57.5,100 C57.5,98.62 56.38,97.5 55,97.5 C53.62,97.5 52.5,98.62 52.5,100 C52.5,101.38 53.62,102.5 55,102.5" id="Fill-356" fill="#F29C1F"></path>
                <path d="M145,67.5 C145,95.115 122.615,117.5 95,117.5 C67.385,117.5 45,95.115 45,67.5 C45,39.885 67.385,17.5 95,17.5 C122.615,17.5 145,39.885 145,67.5" id="Fill-821" fill="#BDC3C7"></path>
                <path d="M95,17.5 C93.8075,17.5 92.6375,17.595 91.465,17.6775 C79.7725,29.035 72.5,44.915 72.5,62.5 C72.5,85.67 85.1175,105.8775 103.845,116.6725 C127.2325,112.49 145,92.09 145,67.5 C145,39.885 122.615,17.5 95,17.5" id="Fill-835" fill="#E6E6E6"></path>
                <path d="M55,107.5 C53.62,107.5 52.5,108.62 52.5,110 C52.5,111.38 53.62,112.5 55,112.5 C56.38,112.5 57.5,111.38 57.5,110 C57.5,108.62 56.38,107.5 55,107.5" id="Fill-357" fill="#F29C1F"></path>
                <path d="M65,107.5 C63.62,107.5 62.5,108.62 62.5,110 C62.5,111.38 63.62,112.5 65,112.5 C66.38,112.5 67.5,111.38 67.5,110 C67.5,108.62 66.38,107.5 65,107.5" id="Fill-358" fill="#F29C1F"></path>
                <path d="M60,102.5 C58.62,102.5 57.5,103.62 57.5,105 C57.5,106.38 58.62,107.5 60,107.5 C61.38,107.5 62.5,106.38 62.5,105 C62.5,103.62 61.38,102.5 60,102.5" id="Fill-359" fill="#F29C1F"></path>
                <path d="M85,75 C85,76.38 83.88,77.5 82.5,77.5 C81.12,77.5 80,76.38 80,75 C80,73.62 81.12,72.5 82.5,72.5 C83.88,72.5 85,73.62 85,75" id="Fill-836" fill="#95A5A5"></path>
                <path d="M117.5,37.5 C117.5,38.88 116.38,40 115,40 C113.62,40 112.5,38.88 112.5,37.5 C112.5,36.12 113.62,35 115,35 C116.38,35 117.5,36.12 117.5,37.5" id="Fill-837" fill="#95A5A5"></path>
                <path d="M120,80 C120,81.38 118.88,82.5 117.5,82.5 C116.12,82.5 115,81.38 115,80 C115,78.62 116.12,77.5 117.5,77.5 C118.88,77.5 120,78.62 120,80" id="Fill-838" fill="#95A5A5"></path>
                <path d="M77.5,46.25 C77.5,49.7025 74.7025,52.5 71.25,52.5 C67.7975,52.5 65,49.7025 65,46.25 C65,42.7975 67.7975,40 71.25,40 C74.7025,40 77.5,42.7975 77.5,46.25" id="Fill-839" fill="#95A5A5"></path>
                <path d="M130,63.75 C130,71.3425 136.1575,77.5 143.75,77.5 C143.8325,77.5 143.915,77.49 143.9975,77.4875 C144.6525,74.26 145,70.92 145,67.5 C145,61.39 143.85,55.56 141.8425,50.1475 C135.155,51.0775 130,56.805 130,63.75" id="Fill-840" fill="#95A5A5"></path>
                <path d="M106.25,102.5 C100.0375,102.5 95,107.5375 95,113.75 C95,115.06 95.2675,116.2975 95.6775,117.465 C103.465,117.3625 110.8025,115.46 117.3425,112.1825 C116.5725,106.7175 111.9275,102.5 106.25,102.5" id="Fill-841" fill="#95A5A5"></path>
            </g>
        </g>
    </g>
</svg>