<?xml version="1.0" encoding="UTF-8"?>
<svg width="110px" height="106px" viewBox="0 0 110 106" version="1.1" xmlns="http://www.w3.org/2000/svg" xmlns:xlink="http://www.w3.org/1999/xlink">
    <!-- Generator: Sketch 45.2 (43514) - http://www.bohemiancoding.com/sketch -->
    <title>37 - The Milky Way (Flat)</title>
    <desc>Created with Sketch.</desc>
    <defs></defs>
    <g id="Welcome" stroke="none" stroke-width="1" fill="none" fill-rule="evenodd">
        <g id="Desktop-HD-Copy" transform="translate(-655.000000, -2649.000000)">
            <g id="Group-5" transform="translate(268.000000, 2649.000000)">
                <g id="The-Milky-Way" transform="translate(387.000000, 0.000000)">
                    <path d="M100.517241,51.1071429 C100.517241,77.2418214 79.2891379,98.4285714 53.1034483,98.4285714 C26.9177586,98.4285714 5.68965517,77.2418214 5.68965517,51.1071429 C5.68965517,24.9724643 26.9177586,3.78571429 53.1034483,3.78571429 C79.2891379,3.78571429 100.517241,24.9724643 100.517241,51.1071429" id="Fill-150" fill="#61537C" fill-rule="evenodd"></path>
                    <path d="M87.2413793,50.1607143 C87.2413793,69.5000357 71.5322414,85.1785714 52.1551724,85.1785714 C32.7781034,85.1785714 17.0689655,69.5000357 17.0689655,50.1607143 C17.0689655,30.8213929 32.7781034,15.1428571 52.1551724,15.1428571 C71.5322414,15.1428571 87.2413793,30.8213929 87.2413793,50.1607143" id="Fill-151" fill="#7D6599" fill-rule="evenodd"></path>
                    <path d="M68.2758621,49.2142857 C68.2758621,58.6236786 60.6346552,66.25 51.2068966,66.25 C41.7791379,66.25 34.137931,58.6236786 34.137931,49.2142857 C34.137931,39.8048929 41.7791379,32.1785714 51.2068966,32.1785714 C60.6346552,32.1785714 68.2758621,39.8048929 68.2758621,49.2142857" id="Fill-152" fill="#936AAD" fill-rule="evenodd"></path>
                    <path d="M60.6896552,52.0535714 C60.6896552,56.7573214 56.8681034,60.5714286 52.1551724,60.5714286 C47.4422414,60.5714286 43.6206897,56.7573214 43.6206897,52.0535714 C43.6206897,47.3498214 47.4422414,43.5357143 52.1551724,43.5357143 C56.8681034,43.5357143 60.6896552,47.3498214 60.6896552,52.0535714" id="Fill-232" fill="#F09372" fill-rule="evenodd"></path>
                    <path d="M104.310345,11.3571429 C104.310345,12.402 103.46069,13.25 102.413793,13.25 C101.366897,13.25 100.517241,12.402 100.517241,11.3571429 C100.517241,10.3122857 101.366897,9.46428571 102.413793,9.46428571 C103.46069,9.46428571 104.310345,10.3122857 104.310345,11.3571429" id="Fill-382" fill="#F29C1F" fill-rule="evenodd"></path>
                    <path d="M110,58.6785714 C110,59.7234286 109.150345,60.5714286 108.103448,60.5714286 C107.056552,60.5714286 106.206897,59.7234286 106.206897,58.6785714 C106.206897,57.6337143 107.056552,56.7857143 108.103448,56.7857143 C109.150345,56.7857143 110,57.6337143 110,58.6785714" id="Fill-383" fill="#F29C1F" fill-rule="evenodd"></path>
                    <path d="M92.9310345,53 C92.9310345,54.0448571 92.0813793,54.8928571 91.0344828,54.8928571 C89.9875862,54.8928571 89.137931,54.0448571 89.137931,53 C89.137931,51.9551429 89.9875862,51.1071429 91.0344828,51.1071429 C92.0813793,51.1071429 92.9310345,51.9551429 92.9310345,53" id="Fill-384" fill="#38454F" fill-rule="evenodd"></path>
                    <path d="M73.9655172,81.3928571 C73.9655172,82.4377143 73.1158621,83.2857143 72.0689655,83.2857143 C71.022069,83.2857143 70.1724138,82.4377143 70.1724138,81.3928571 C70.1724138,80.348 71.022069,79.5 72.0689655,79.5 C73.1158621,79.5 73.9655172,80.348 73.9655172,81.3928571" id="Fill-385" fill="#38454F" fill-rule="evenodd"></path>
                    <path d="M73.3718966,63.4107143 C73.3718966,64.4555714 72.5241379,65.3035714 71.4753448,65.3035714 C70.4284483,65.3035714 69.5787931,64.4555714 69.5787931,63.4107143 C69.5787931,62.3658571 70.4284483,61.5178571 71.4753448,61.5178571 C72.5241379,61.5178571 73.3718966,62.3658571 73.3718966,63.4107143" id="Fill-386" fill="#84B5CB" fill-rule="evenodd"></path>
                    <path d="M47.4137931,67.1964286 C47.4137931,68.2412857 46.5641379,69.0892857 45.5172414,69.0892857 C44.4703448,69.0892857 43.6206897,68.2412857 43.6206897,67.1964286 C43.6206897,66.1515714 44.4703448,65.3035714 45.5172414,65.3035714 C46.5641379,65.3035714 47.4137931,66.1515714 47.4137931,67.1964286" id="Fill-387" fill="#F3D55B" fill-rule="evenodd"></path>
                    <path d="M54.0517241,52.0535714 C54.0517241,53.0984286 53.202069,53.9464286 52.1551724,53.9464286 C51.1082759,53.9464286 50.2586207,53.0984286 50.2586207,52.0535714 C50.2586207,51.0087143 51.1082759,50.1607143 52.1551724,50.1607143 C53.202069,50.1607143 54.0517241,51.0087143 54.0517241,52.0535714" id="Fill-388" fill="#38454F" fill-rule="evenodd"></path>
                    <path d="M62.5862069,38.6748571 C62.5862069,39.7197143 61.7365517,40.5677143 60.6896552,40.5677143 C59.6427586,40.5677143 58.7931034,39.7197143 58.7931034,38.6748571 C58.7931034,37.6281071 59.6427586,36.782 60.6896552,36.782 C61.7365517,36.782 62.5862069,37.6281071 62.5862069,38.6748571" id="Fill-389" fill="#84B5CB" fill-rule="evenodd"></path>
                    <path d="M49.3103448,35.9642857 C49.3103448,37.0091429 48.4606897,37.8571429 47.4137931,37.8571429 C46.3668966,37.8571429 45.5172414,37.0091429 45.5172414,35.9642857 C45.5172414,34.9194286 46.3668966,34.0714286 47.4137931,34.0714286 C48.4606897,34.0714286 49.3103448,34.9194286 49.3103448,35.9642857" id="Fill-390" fill="#38454F" fill-rule="evenodd"></path>
                    <path d="M32.2413793,51.1071429 C32.2413793,52.152 31.3917241,53 30.3448276,53 C29.297931,53 28.4482759,52.152 28.4482759,51.1071429 C28.4482759,50.0622857 29.297931,49.2142857 30.3448276,49.2142857 C31.3917241,49.2142857 32.2413793,50.0622857 32.2413793,51.1071429" id="Fill-391" fill="#84B5CB" fill-rule="evenodd"></path>
                    <path d="M94.8275862,102.214286 C94.8275862,103.259143 93.977931,104.107143 92.9310345,104.107143 C91.8841379,104.107143 91.0344828,103.259143 91.0344828,102.214286 C91.0344828,101.169429 91.8841379,100.321429 92.9310345,100.321429 C93.977931,100.321429 94.8275862,101.169429 94.8275862,102.214286" id="Fill-392" fill="#F29C1F" fill-rule="evenodd"></path>
                    <path d="M110,96.5357143 C110,97.5805714 109.150345,98.4285714 108.103448,98.4285714 C107.056552,98.4285714 106.206897,97.5805714 106.206897,96.5357143 C106.206897,95.4908571 107.056552,94.6428571 108.103448,94.6428571 C109.150345,94.6428571 110,95.4908571 110,96.5357143" id="Fill-393" fill="#F3D55B" fill-rule="evenodd"></path>
                    <path d="M108.103448,104.107143 C108.103448,105.152 107.253793,106 106.206897,106 C105.16,106 104.310345,105.152 104.310345,104.107143 C104.310345,103.062286 105.16,102.214286 106.206897,102.214286 C107.253793,102.214286 108.103448,103.062286 108.103448,104.107143" id="Fill-394" fill="#F29C1F" fill-rule="evenodd"></path>
                    <path d="M30.3448276,104.107143 C30.3448276,105.152 29.4951724,106 28.4482759,106 C27.4013793,106 26.5517241,105.152 26.5517241,104.107143 C26.5517241,103.062286 27.4013793,102.214286 28.4482759,102.214286 C29.4951724,102.214286 30.3448276,103.062286 30.3448276,104.107143" id="Fill-395" fill="#F3D55B" fill-rule="evenodd"></path>
                    <path d="M22.7586207,96.5357143 C22.7586207,97.5805714 21.9089655,98.4285714 20.862069,98.4285714 C19.8151724,98.4285714 18.9655172,97.5805714 18.9655172,96.5357143 C18.9655172,95.4908571 19.8151724,94.6428571 20.862069,94.6428571 C21.9089655,94.6428571 22.7586207,95.4908571 22.7586207,96.5357143" id="Fill-396" fill="#FF5364" fill-rule="evenodd"></path>
                    <path d="M5.68965517,79.5 C5.68965517,80.5448571 4.84,81.3928571 3.79310345,81.3928571 C2.7462069,81.3928571 1.89655172,80.5448571 1.89655172,79.5 C1.89655172,78.4551429 2.7462069,77.6071429 3.79310345,77.6071429 C4.84,77.6071429 5.68965517,78.4551429 5.68965517,79.5" id="Fill-397" fill="#F3D55B" fill-rule="evenodd"></path>
                    <path d="M5.68965517,51.1071429 C5.68965517,52.152 4.84,53 3.79310345,53 C2.7462069,53 1.89655172,52.152 1.89655172,51.1071429 C1.89655172,50.0622857 2.7462069,49.2142857 3.79310345,49.2142857 C4.84,49.2142857 5.68965517,50.0622857 5.68965517,51.1071429" id="Fill-398" fill="#F3D55B" fill-rule="evenodd"></path>
                    <path d="M3.79310345,66.25 C3.79310345,67.2948571 2.94344828,68.1428571 1.89655172,68.1428571 C0.849655172,68.1428571 0,67.2948571 0,66.25 C0,65.2051429 0.849655172,64.3571429 1.89655172,64.3571429 C2.94344828,64.3571429 3.79310345,65.2051429 3.79310345,66.25" id="Fill-399" fill="#38454F" fill-rule="evenodd"></path>
                    <path d="M3.79310345,7.57142857 C3.79310345,8.61628571 2.94344828,9.46428571 1.89655172,9.46428571 C0.849655172,9.46428571 0,8.61628571 0,7.57142857 C0,6.52657143 0.849655172,5.67857143 1.89655172,5.67857143 C2.94344828,5.67857143 3.79310345,6.52657143 3.79310345,7.57142857" id="Fill-400" fill="#F29C1F" fill-rule="evenodd"></path>
                    <path d="M30.3448276,11.3571429 C30.3448276,12.402 29.4951724,13.25 28.4482759,13.25 C27.4013793,13.25 26.5517241,12.402 26.5517241,11.3571429 C26.5517241,10.3122857 27.4013793,9.46428571 28.4482759,9.46428571 C29.4951724,9.46428571 30.3448276,10.3122857 30.3448276,11.3571429" id="Fill-401" fill="#F3D55B" fill-rule="evenodd"></path>
                    <path d="M51.2068966,20.8214286 C51.2068966,21.8662857 50.3572414,22.7142857 49.3103448,22.7142857 C48.2634483,22.7142857 47.4137931,21.8662857 47.4137931,20.8214286 C47.4137931,19.7765714 48.2634483,18.9285714 49.3103448,18.9285714 C50.3572414,18.9285714 51.2068966,19.7765714 51.2068966,20.8214286" id="Fill-402" fill="#F3D55B" fill-rule="evenodd"></path>
                    <path d="M24.6551724,34.0714286 C24.6551724,35.1162857 23.8055172,35.9642857 22.7586207,35.9642857 C21.7117241,35.9642857 20.862069,35.1162857 20.862069,34.0714286 C20.862069,33.0265714 21.7117241,32.1785714 22.7586207,32.1785714 C23.8055172,32.1785714 24.6551724,33.0265714 24.6551724,34.0714286" id="Fill-403" fill="#0096E6" fill-rule="evenodd"></path>
                    <path d="M20.862069,73.8214286 C20.862069,74.8662857 20.0124138,75.7142857 18.9655172,75.7142857 C17.9186207,75.7142857 17.0689655,74.8662857 17.0689655,73.8214286 C17.0689655,72.7765714 17.9186207,71.9285714 18.9655172,71.9285714 C20.0124138,71.9285714 20.862069,72.7765714 20.862069,73.8214286" id="Fill-404" fill="#F3D55B" fill-rule="evenodd"></path>
                    <path d="M53.1034483,96.5357143 C53.1034483,97.5805714 52.2537931,98.4285714 51.2068966,98.4285714 C50.16,98.4285714 49.3103448,97.5805714 49.3103448,96.5357143 C49.3103448,95.4908571 50.16,94.6428571 51.2068966,94.6428571 C52.2537931,94.6428571 53.1034483,95.4908571 53.1034483,96.5357143" id="Fill-405" fill="#F3D55B" fill-rule="evenodd"></path>
                    <path d="M96.7241379,79.5 C96.7241379,80.5448571 95.8744828,81.3928571 94.8275862,81.3928571 C93.7806897,81.3928571 92.9310345,80.5448571 92.9310345,79.5 C92.9310345,78.4551429 93.7806897,77.6071429 94.8275862,77.6071429 C95.8744828,77.6071429 96.7241379,78.4551429 96.7241379,79.5" id="Fill-406" fill="#F3D55B" fill-rule="evenodd"></path>
                    <path d="M91.0344828,3.78571429 C91.0344828,4.83057143 90.1848276,5.67857143 89.137931,5.67857143 C88.0910345,5.67857143 87.2413793,4.83057143 87.2413793,3.78571429 C87.2413793,2.74085714 88.0910345,1.89285714 89.137931,1.89285714 C90.1848276,1.89285714 91.0344828,2.74085714 91.0344828,3.78571429" id="Fill-407" fill="#F29C1F" fill-rule="evenodd"></path>
                    <path d="M68.2758621,11.3571429 C68.2758621,12.402 67.4262069,13.25 66.3793103,13.25 C65.3324138,13.25 64.4827586,12.402 64.4827586,11.3571429 C64.4827586,10.3122857 65.3324138,9.46428571 66.3793103,9.46428571 C67.4262069,9.46428571 68.2758621,10.3122857 68.2758621,11.3571429" id="Fill-408" fill="#F3D55B" fill-rule="evenodd"></path>
                    <path d="M110,26.5 C110,28.5916071 108.302586,30.2857143 106.206897,30.2857143 C104.111207,30.2857143 102.413793,28.5916071 102.413793,26.5 C102.413793,24.4083929 104.111207,22.7142857 106.206897,22.7142857 C108.302586,22.7142857 110,24.4083929 110,26.5" id="Fill-409" fill="#FF5364" fill-rule="evenodd"></path>
                    <path d="M11.3793103,32.1785714 C11.3793103,34.2701786 9.68189655,35.9642857 7.5862069,35.9642857 C5.49051724,35.9642857 3.79310345,34.2701786 3.79310345,32.1785714 C3.79310345,30.0869643 5.49051724,28.3928571 7.5862069,28.3928571 C9.68189655,28.3928571 11.3793103,30.0869643 11.3793103,32.1785714" id="Fill-410" fill="#F29C1F" fill-rule="evenodd"></path>
                    <path d="M11.3793103,94.6428571 C11.3793103,96.7344643 9.68189655,98.4285714 7.5862069,98.4285714 C5.49051724,98.4285714 3.79310345,96.7344643 3.79310345,94.6428571 C3.79310345,92.55125 5.49051724,90.8571429 7.5862069,90.8571429 C9.68189655,90.8571429 11.3793103,92.55125 11.3793103,94.6428571" id="Fill-411" fill="#14A085" fill-rule="evenodd"></path>
                    <path d="M51.0001724,43.5357143 C41.5648276,43.5357143 33.9312069,51.1544643 33.9312069,60.5714286 C33.9312069,69.9883929 43.4613793,77.6071429 52.8967241,77.6071429 C69.0022414,78.13525 81.8305172,70.1246786 84.992069,54.3552857 C88.7093103,35.7996071 76.652931,17.7512143 58.062931,14.0412143 C36.1918966,9.67439286 14.9163793,23.8310714 10.542931,45.6595 C5.39758621,71.3398929 22.0834483,96.3199286 47.8139655,101.457143 C73.0077586,106.486464 97.6306897,93.757 108.672414,71.9285714" id="Stroke-509" stroke="#955BA5" stroke-width="2" stroke-linecap="round"></path>
                    <path d="M53.1034483,60.5714286 C64.6003448,61.20175 72.197931,53.2877143 72.197931,43.8726429 C72.197931,34.4556786 64.5624138,26.8369286 55.1289655,26.8369286 C39.0234483,26.3088214 24.2967241,34.3193929 21.137069,50.0887857 C17.417931,68.6425714 29.4743103,86.6928571 48.0643103,90.4028571 C69.9353448,94.7696786 91.2108621,80.613 95.5862069,58.7845714 C100.731552,33.1041786 84.0456897,8.12225 58.3151724,2.98692857 C37.1781034,-1.23225 16.4431034,7.04710714 3.79310345,22.7123929" id="Stroke-510" stroke="#8697CB" stroke-width="2" stroke-linecap="round"></path>
                </g>
            </g>
        </g>
    </g>
</svg>