<!-- Generator: Adobe Illustrator 19.2.0, SVG Export Plug-In  -->
<svg version="1.1"
	 xmlns="http://www.w3.org/2000/svg" xmlns:xlink="http://www.w3.org/1999/xlink" xmlns:a="http://ns.adobe.com/AdobeSVGViewerExtensions/3.0/"
	 x="0px" y="0px" width="156.4px" height="37.9px" viewBox="0 0 156.4 37.9" style="enable-background:new 0 0 156.4 37.9;"
	 xml:space="preserve">
<style type="text/css">
	.st0{fill:#FFFFFF;}
	.st1{fill:#3B89D6;stroke:#30917E;stroke-width:2;stroke-linecap:round;stroke-miterlimit:10;}
	.st2{fill:#3B89D6;stroke:#37C4AF;stroke-width:2;stroke-linecap:round;stroke-miterlimit:10;}
	.st3{fill:#3B89D6;stroke:#3B89D6;stroke-width:2;stroke-linecap:round;stroke-miterlimit:10;}
	.st4{fill:#3B89D6;stroke:#306F8E;stroke-width:2;stroke-linecap:round;stroke-miterlimit:10;}
</style>
<defs>
</defs>
<g>
	<g>
		<g>
			<path class="st0" d="M64.7,11.4c0,2.8-1.9,4.6-5.8,4.6h-5.1V0h5.3c3,0,5.1,1.5,5.1,4.6c0,1.9-1.2,2.9-1.2,2.9S64.7,8.4,64.7,11.4
				z M58.9,2.8H57v3.7h1.6c2.1,0,2.7-0.7,2.7-1.9C61.3,3.8,61.2,2.8,58.9,2.8z M61.6,11.1c0-1.1-0.5-2.1-2.4-2.1H57v4.2h2.1
				C61.2,13.2,61.6,12.2,61.6,11.1z"/>
			<path class="st0" d="M77.7,0v10.7c0,3-2.4,5.4-5.4,5.4c-3,0-5.4-2.4-5.4-5.4V0H70v11c0,1.1,1,2.3,2.3,2.3c1.3,0,2.3-1.1,2.3-2.3
				V0H77.7z"/>
			<path class="st0" d="M88.4,16c-0.8-1.8-1.5-3.6-2.3-5.3c-0.1,0-0.2,0-0.3,0h-2.3V16h-3.1V0h5.4c2.8,0,4.8,2,4.8,4.3v2
				c0,1.3-0.7,2.6-1.9,3.4l2.6,6.2H88.4z M87.5,6.2V4.4c0-0.7-0.6-1.6-1.8-1.6h-2.2v5h2.2C86.9,7.8,87.5,6.9,87.5,6.2z"/>
			<path class="st0" d="M103.9,5.2v5.4c0,3.2-2.3,5.3-5.2,5.3h-5.6V0h5.5C101.6,0,103.9,2,103.9,5.2z M100.8,4.9
				c0-1.3-0.9-2.2-2.2-2.2h-2.4v10.5h2.4c1.3,0,2.2-0.9,2.2-2.2V4.9z"/>
			<path class="st0" d="M113.5,12.3h-4.8l-1,3.6h-2.9l4.8-16h3.1l4.7,16h-2.8L113.5,12.3z M112.7,9.6l-1.6-5.4l-1.6,5.4H112.7z"/>
			<path class="st0" d="M64.7,33.2c0,2.8-1.9,4.6-5.8,4.6h-5.1v-16h5.3c3,0,5.1,1.5,5.1,4.6c0,1.9-1.2,2.9-1.2,2.9
				S64.7,30.2,64.7,33.2z M58.9,24.6H57v3.7h1.6c2.1,0,2.7-0.7,2.7-1.9C61.3,25.6,61.2,24.6,58.9,24.6z M61.6,32.9
				c0-1.1-0.5-2.1-2.4-2.1H57V35h2.1C61.2,35,61.6,34,61.6,32.9z"/>
			<path class="st0" d="M77.6,27.1v5.4c0,3-2.4,5.4-5.4,5.4c-3,0-5.4-2.4-5.4-5.4v-5.4c0-3,2.4-5.4,5.4-5.4
				C75.1,21.7,77.6,24.1,77.6,27.1z M74.5,26.7c0-1.3-1-2.3-2.3-2.3c-1.3,0-2.3,1-2.3,2.3v6.1c0,1.3,1.1,2.3,2.3,2.3
				c1.3,0,2.3-1.1,2.3-2.3V26.7z"/>
			<path class="st0" d="M90.5,27.1v5.4c0,3-2.4,5.4-5.4,5.4c-3,0-5.4-2.4-5.4-5.4v-5.4c0-3,2.4-5.4,5.4-5.4
				C88,21.7,90.5,24.1,90.5,27.1z M87.4,26.7c0-1.3-1-2.3-2.3-2.3s-2.3,1-2.3,2.3v6.1c0,1.3,1.1,2.3,2.3,2.3s2.3-1.1,2.3-2.3V26.7z"
				/>
			<path class="st0" d="M102.2,24.5h-3.8v13.2h-3.1V24.5h-3.7v-2.7h10.6V24.5z"/>
			<path class="st0" d="M114.5,33.5c-0.5,2.5-2.7,4.4-5.3,4.4c-3,0-5.4-2.4-5.4-5.4v-5.4c0-3,2.4-5.4,5.4-5.4c2.7,0,5,2.1,5.3,4.7
				h-3c-0.2-1.1-1.1-2-2.3-2c-1.3,0-2.3,1-2.3,2.3v6.1c0,1.3,1.1,2.3,2.3,2.3c1.1,0,2-0.7,2.2-1.7H114.5z"/>
			<path class="st0" d="M123.8,34.1H119l-1,3.6h-2.9l4.8-16h3.1l4.7,16h-2.8L123.8,34.1z M123,31.4l-1.6-5.4l-1.6,5.4H123z"/>
			<path class="st0" d="M143.1,21.8v16H140v-8.3c-0.9,1.9-1.8,3.8-2.7,5.6h-2.1c-0.9-1.9-1.8-3.8-2.7-5.6v8.3h-3.1v-16h2.8l4.1,8.7
				c1.4-2.9,2.7-5.8,4.1-8.7H143.1z"/>
			<path class="st0" d="M156.4,26.1v3.1c0,2.3-2,4.3-4.8,4.3h-2.3v4.3h-3.1v-16h5.4C154.4,21.8,156.4,23.8,156.4,26.1z M153.3,26.2
				c0-0.7-0.6-1.6-1.8-1.6h-2.2v6h2.2c1.3,0,1.8-0.9,1.8-1.6V26.2z"/>
		</g>
	</g>
	<g>
		<line class="st1" x1="49" y1="5.9" x2="45" y2="5.9"/>
		<line class="st1" x1="34" y1="9.9" x2="31" y2="9.9"/>
		<line class="st1" x1="49" y1="31.9" x2="45" y2="31.9"/>
		<line class="st1" x1="5" y1="31.9" x2="3" y2="31.9"/>
		<line class="st1" x1="29" y1="27.9" x2="26" y2="27.9"/>
	</g>
	<g>
		<line class="st2" x1="40" y1="5.9" x2="25" y2="5.9"/>
		<line class="st2" x1="25" y1="13.9" x2="10" y2="13.9"/>
		<line class="st2" x1="25" y1="31.9" x2="10" y2="31.9"/>
		<line class="st2" x1="49" y1="27.9" x2="34" y2="27.9"/>
	</g>
	<g>
		<line class="st3" x1="49" y1="9.9" x2="39" y2="9.9"/>
		<line class="st3" x1="26" y1="9.9" x2="16" y2="9.9"/>
		<line class="st3" x1="26" y1="1.9" x2="16" y2="1.9"/>
		<line class="st3" x1="40" y1="31.9" x2="30" y2="31.9"/>
		<line class="st3" x1="25" y1="23.9" x2="15" y2="23.9"/>
		<line class="st3" x1="49" y1="35.9" x2="39" y2="35.9"/>
	</g>
	<g>
		<line class="st4" x1="20" y1="5.9" x2="1" y2="5.9"/>
		<line class="st4" x1="49" y1="1.9" x2="30" y2="1.9"/>
		<line class="st4" x1="49" y1="13.9" x2="30" y2="13.9"/>
		<line class="st4" x1="34" y1="35.9" x2="15" y2="35.9"/>
		<line class="st4" x1="49" y1="23.9" x2="30" y2="23.9"/>
	</g>
</g>
</svg>
