<?xml version="1.0" encoding="UTF-8"?>
<svg width="1439px" height="629px" viewBox="0 0 1439 629" version="1.1" xmlns="http://www.w3.org/2000/svg" xmlns:xlink="http://www.w3.org/1999/xlink">
    <!-- Generator: Sketch 45.2 (43514) - http://www.bohemiancoding.com/sketch -->
    <title>Group 11</title>
    <desc>Created with Sketch.</desc>
    <defs></defs>
    <g id="Welcome" stroke="none" stroke-width="1" fill="none" fill-rule="evenodd">
        <g id="Desktop-HD" transform="translate(0.000000, -5871.000000)">
            <g id="Group-4" transform="translate(-1.000000, 5871.000000)">
                <g id="Group-11">
                    <g id="Splash" transform="translate(720.000000, 314.500000) scale(1, -1) translate(-720.000000, -314.500000) " fill-rule="nonzero">
                        <g id="background" fill="#2D6783">
                            <rect id="Rectangle-path" x="0" y="0" width="1440" height="592.402225"></rect>
                        </g>
                        <g id="bottom" transform="translate(0.000000, 508.531746)" fill="#ECF0F2">
                            <path d="M1440,40.5604223 C1228.4,14.7413148 983.1,0 721.6,0 C458.8,0 212.4,14.9157682 0,40.9965559 L0,119.500599 L1440,119.500599 L1440,40.5604223 Z" id="Shape"></path>
                        </g>
                    </g>
                    <g id="Sunset" transform="translate(633.000000, 12.000000)">
                        <path d="M87,0 C85.3992,0 84.1,1.29422222 84.1,2.88888889 L84.1,20.2222222 C84.1,21.8168889 85.3992,23.1111111 87,23.1111111 C88.6008,23.1111111 89.9,21.8168889 89.9,20.2222222 L89.9,2.88888889 C89.9,1.29422222 88.6008,0 87,0" id="Fill-18" fill="#F0C419"></path>
                        <path d="M171.1,83.7777778 L153.7,83.7777778 C152.0992,83.7777778 150.8,85.072 150.8,86.6666667 C150.8,88.2613333 152.0992,89.5555556 153.7,89.5555556 L171.1,89.5555556 C172.7008,89.5555556 174,88.2613333 174,86.6666667 C174,85.072 172.7008,83.7777778 171.1,83.7777778" id="Fill-19" fill="#F0C419"></path>
                        <path d="M20.3,83.7777778 L2.9,83.7777778 C1.2992,83.7777778 0,85.072 0,86.6666667 C0,88.2613333 1.2992,89.5555556 2.9,89.5555556 L20.3,89.5555556 C21.9008,89.5555556 23.2,88.2613333 23.2,86.6666667 C23.2,85.072 21.9008,83.7777778 20.3,83.7777778" id="Fill-20" fill="#F0C419"></path>
                        <path d="M152.8503,21.0686667 C151.7164,19.9391111 149.8836,19.9391111 148.7497,21.0686667 L132.1153,37.6393333 C130.9814,38.7688889 130.9814,40.5975556 132.1153,41.7242222 C132.6808,42.2904444 133.4232,42.5706667 134.1656,42.5706667 C134.908,42.5706667 135.6475,42.2904444 136.2159,41.7242222 L152.8503,25.1535556 C153.9842,24.024 153.9842,22.1982222 152.8503,21.0686667" id="Fill-21" fill="#F0C419"></path>
                        <path d="M25.2503,21.0686667 C24.1164,19.9391111 22.2836,19.9391111 21.1497,21.0686667 C20.0158,22.1982222 20.0158,24.024 21.1497,25.1535556 L37.7841,41.7242222 C38.3525,42.2904444 39.0949,42.5706667 39.8344,42.5706667 C40.5768,42.5706667 41.3192,42.2904444 41.8847,41.7242222 C43.0186,40.5975556 43.0186,38.7688889 41.8847,37.6393333 L25.2503,21.0686667" id="Fill-22" fill="#F0C419"></path>
                        <path d="M159.0766,56.1888889 C158.4502,54.7213333 156.745,54.0337778 155.2718,54.6577778 L147.2649,58.0464444 C145.7917,58.6704444 145.1015,60.3662222 145.7279,61.8337778 C146.1977,62.9344444 147.2707,63.596 148.3988,63.596 C148.7758,63.596 149.1615,63.5208889 149.5298,63.3648889 L157.5396,59.9762222 C159.0128,59.3522222 159.7001,57.6564444 159.0766,56.1888889" id="Fill-23" fill="#F0C419"></path>
                        <path d="M26.2421,59.098 L18.1772,55.8508889 C16.6895,55.2528889 14.9988,55.9664444 14.4014,57.4484444 C13.8011,58.9275556 14.5174,60.6117778 16.0051,61.2068889 L24.07,64.454 C24.4267,64.5984444 24.795,64.6677778 25.1546,64.6677778 C26.303,64.6677778 27.3905,63.9831111 27.8458,62.8593333 C28.4461,61.3802222 27.7298,59.696 26.2421,59.098" id="Fill-24" fill="#F0C419"></path>
                        <path d="M60.2069,16.3973333 C59.5805,14.9268889 57.8753,14.2422222 56.405,14.8662222 C54.9318,15.4902222 54.2445,17.186 54.868,18.6535556 L58.2697,26.6326667 C58.7366,27.7333333 59.8125,28.3948889 60.9406,28.3948889 C61.3176,28.3948889 61.7004,28.3197778 62.0716,28.1637778 C63.5448,27.5397778 64.2321,25.844 63.6086,24.3764444 L60.2069,16.3973333" id="Fill-25" fill="#F0C419"></path>
                        <path d="M116.3306,14.3462222 C114.8516,13.7482222 113.158,14.4617778 112.5548,15.9437778 L109.2952,23.9777778 C108.6949,25.4568889 109.4141,27.1411111 110.8989,27.7391111 C111.2556,27.8806667 111.6239,27.95 111.9835,27.95 C113.1319,27.95 114.2194,27.2682222 114.6747,26.1415556 L117.9343,18.1075556 C118.5346,16.6284444 117.8183,14.9442222 116.3306,14.3462222" id="Fill-26" fill="#F0C419"></path>
                        <path d="M140.1425,109.777778 C143.2484,102.697111 145,94.8884444 145,86.6666667 C145,54.756 119.0334,28.8888889 87,28.8888889 C54.9666,28.8888889 29,54.756 29,86.6666667 C29,94.8884444 30.7516,102.697111 33.8575,109.777778 L140.1425,109.777778" id="Fill-27" fill="#F0C419"></path>
                        <path d="M123.7517,109.777778 C128.0031,103.084222 130.5,95.1744444 130.5,86.6666667 C130.5,62.7351111 111.0236,43.3333333 87,43.3333333 C62.9764,43.3333333 43.5,62.7351111 43.5,86.6666667 C43.5,95.1744444 45.9969,103.084222 50.2483,109.777778 L123.7517,109.777778" id="Fill-28" fill="#EDE21B"></path>
                        <path d="M171.1,106.888889 L2.9,106.888889 C1.2992,106.888889 0,108.183111 0,109.777778 C0,111.372444 1.2992,112.666667 2.9,112.666667 L171.1,112.666667 C172.7008,112.666667 174,111.372444 174,109.777778 C174,108.183111 172.7008,106.888889 171.1,106.888889" id="Fill-29" fill="#F29C1F"></path>
                        <path d="M156.6,121.333333 L17.4,121.333333 C15.7992,121.333333 14.5,122.627556 14.5,124.222222 C14.5,125.816889 15.7992,127.111111 17.4,127.111111 L156.6,127.111111 C158.2008,127.111111 159.5,125.816889 159.5,124.222222 C159.5,122.627556 158.2008,121.333333 156.6,121.333333" id="Fill-30" fill="#F29C1F"></path>
                        <path d="M142.1,135.777778 L31.9,135.777778 C30.2992,135.777778 29,137.072 29,138.666667 C29,140.261333 30.2992,141.555556 31.9,141.555556 L142.1,141.555556 C143.7008,141.555556 145,140.261333 145,138.666667 C145,137.072 143.7008,135.777778 142.1,135.777778" id="Fill-31" fill="#F29C1F"></path>
                        <path d="M130.5,150.222222 L43.5,150.222222 C41.8992,150.222222 40.6,151.516444 40.6,153.111111 C40.6,154.705778 41.8992,156 43.5,156 L130.5,156 C132.1008,156 133.4,154.705778 133.4,153.111111 C133.4,151.516444 132.1008,150.222222 130.5,150.222222" id="Fill-32" fill="#F29C1F"></path>
                    </g>
                    <g id="Curiosity-Rover" transform="translate(173.475506, 56.475506) rotate(5.000000) translate(-173.475506, -56.475506) translate(130.000000, 13.000000)">
                        <path d="M51.6101695,41.2881356 C50.7947288,41.2881356 50.1355932,40.629 50.1355932,39.8135593 L50.1355932,29.4915254 C50.1355932,28.6760847 50.7947288,28.0169492 51.6101695,28.0169492 C52.4256102,28.0169492 53.0847458,28.6760847 53.0847458,29.4915254 L53.0847458,39.8135593 C53.0847458,40.629 52.4256102,41.2881356 51.6101695,41.2881356" id="Fill-58" fill="#A5A5A4"></path>
                        <path d="M39.8135593,41.2881356 C38.9981186,41.2881356 38.3389831,40.629 38.3389831,39.8135593 L38.3389831,17.6949153 C38.3389831,16.8794746 38.9981186,16.220339 39.8135593,16.220339 C40.629,16.220339 41.2881356,16.8794746 41.2881356,17.6949153 L41.2881356,39.8135593 C41.2881356,40.629 40.629,41.2881356 39.8135593,41.2881356" id="Fill-59" fill="#A5A5A4"></path>
                        <path d="M7.37288136,26.7517627 L7.37288136,13.2711864 C7.37288136,12.4557458 6.71374576,11.7966102 5.89830508,11.7966102 C5.08286441,11.7966102 4.42372881,12.4557458 4.42372881,13.2711864 L4.42372881,26.7517627 C1.88598305,27.4108983 0,29.6994407 0,32.440678 C0,33.2561186 0.659135593,33.9152542 1.47457627,33.9152542 C2.29001695,33.9152542 2.94915254,33.2561186 2.94915254,32.440678 C2.94915254,30.8156949 4.27184746,29.4915254 5.89830508,29.4915254 C7.52328814,29.4915254 8.84745763,30.8156949 8.84745763,32.440678 C8.84745763,33.2561186 9.50659322,33.9152542 10.3220339,33.9152542 C11.1374746,33.9152542 11.7966102,33.2561186 11.7966102,32.440678 C11.7966102,29.6994407 9.90915254,27.4108983 7.37288136,26.7517627" id="Fill-60" fill="#546A79"></path>
                        <path d="M25.0677966,30.9661017 C24.2523559,30.9661017 23.5932203,31.6252373 23.5932203,32.440678 L23.5932203,39.8135593 C23.5932203,40.629 24.2523559,41.2881356 25.0677966,41.2881356 C25.8832373,41.2881356 26.5423729,40.629 26.5423729,39.8135593 L26.5423729,32.440678 C26.5423729,31.6252373 25.8832373,30.9661017 25.0677966,30.9661017" id="Fill-61" fill="#546A79"></path>
                        <path d="M10.0639831,10.9280847 C9.48889831,10.353 8.55549153,10.353 7.9789322,10.9280847 C7.40237288,11.5046441 7.40237288,12.4380508 7.9789322,13.0131356 L20.8991695,25.9333729 C21.1867119,26.2209153 21.5642034,26.3654237 21.9416949,26.3654237 C22.3191864,26.3654237 22.696678,26.2209153 22.9842203,25.9333729 C23.5593051,25.3568136 23.5593051,24.4248814 22.9842203,23.848322 L10.0639831,10.9280847" id="Fill-62" fill="#546A79"></path>
                        <path d="M47.1864407,22.1186441 L56.0338983,22.1186441 L56.0338983,30.9661017 L47.1864407,30.9661017 L47.1864407,22.1186441 Z M50.1355932,28.0169492 L53.0847458,28.0169492 L53.0847458,25.0677966 L50.1355932,25.0677966 L50.1355932,28.0169492 Z" id="Fill-63" fill="#556080"></path>
                        <path d="M71.8221864,21.0761186 C71.4446949,21.0761186 71.0672034,20.9316102 70.779661,20.6440678 C70.2031017,20.0675085 70.2031017,19.1355763 70.779661,18.5590169 L76.7546441,12.5840339 C77.3297288,12.0089492 78.2631356,12.0089492 78.8396949,12.5840339 C79.4147797,13.1605932 79.4147797,14.094 78.8396949,14.6690847 L72.8647119,20.6440678 C72.5771695,20.9316102 72.199678,21.0761186 71.8221864,21.0761186" id="Fill-64" fill="#8697CB"></path>
                        <path d="M80.9232712,16.3987627 C77.6703559,16.3987627 75.0249661,13.7533729 75.0249661,10.5004576 C75.0249661,7.24754237 77.6703559,4.60215254 80.9232712,4.60215254 C84.1761864,4.60215254 86.8215763,7.24754237 86.8215763,10.5004576 C86.8215763,13.7533729 84.1761864,16.3987627 80.9232712,16.3987627 L80.9232712,16.3987627 Z M80.9232712,7.55130508 C79.2968136,7.55130508 77.9741186,8.87547458 77.9741186,10.5004576 C77.9741186,12.1269153 79.2968136,13.4496102 80.9232712,13.4496102 C82.5482542,13.4496102 83.8724237,12.1269153 83.8724237,10.5004576 C83.8724237,8.87547458 82.5482542,7.55130508 80.9232712,7.55130508 L80.9232712,7.55130508 Z" id="Fill-65" fill="#8697CB"></path>
                        <path d="M69.3050847,30.9661017 L69.3050847,39.8135593" id="Fill-66" fill="#A5A5A4"></path>
                        <path d="M69.3050847,41.2881356 C68.4896441,41.2881356 67.8305085,40.629 67.8305085,39.8135593 L67.8305085,30.9661017 C67.8305085,30.150661 68.4896441,29.4915254 69.3050847,29.4915254 C70.1205254,29.4915254 70.779661,30.150661 70.779661,30.9661017 L70.779661,39.8135593 C70.779661,40.629 70.1205254,41.2881356 69.3050847,41.2881356" id="Fill-67" fill="#A5A5A4"></path>
                        <polyline id="Fill-68" fill="#BDC3C7" points="72.2542373 39.8135593 13.2711864 39.8135593 1.47457627 56.0338983 5.37630508 72.2542373 80.1491186 72.2542373 84.0508475 56.0338983 72.2542373 39.8135593"></polyline>
                        <polyline id="Fill-69" fill="#ECF0F1" points="78.6892881 48.6610169 72.2542373 39.8135593 13.2711864 39.8135593 6.83613559 48.6610169 78.6892881 48.6610169"></polyline>
                        <polygon id="Fill-70" fill="#D1D4D1" points="28.0169492 48.6610169 33.9152542 48.6610169 33.9152542 54.559322 28.0169492 54.559322"></polygon>
                        <polygon id="Fill-71" fill="#D1D4D1" points="39.8135593 48.6610169 45.7118644 48.6610169 45.7118644 54.559322 39.8135593 54.559322"></polygon>
                        <polygon id="Fill-72" fill="#D1D4D1" points="51.6101695 48.6610169 57.5084746 48.6610169 57.5084746 54.559322 51.6101695 54.559322"></polygon>
                        <path d="M25.588322,73.9809661 C24.3231356,73.1493051 24.3231356,71.3591695 25.588322,70.5275085 C27.3843559,69.3478475 26.4701186,66.6493729 24.2951186,66.7068814 C22.7615593,66.7481695 21.663,65.298661 22.1776271,63.9125593 C22.9075424,61.9469492 20.5143051,60.2792034 18.7905254,61.5517627 C17.574,62.4497797 15.7986102,61.8968136 15.3650847,60.4856441 C14.7501864,58.4831695 11.7921864,58.4831695 11.1772881,60.4856441 C10.7437627,61.8968136 8.96837288,62.4497797 7.75184746,61.5517627 C6.0280678,60.2792034 3.63483051,61.9469492 4.36474576,63.9125593 C4.87937288,65.298661 3.78081356,66.7481695 2.24725424,66.7068814 C0.0722542373,66.6493729 -0.841983051,69.3478475 0.954050847,70.5275085 C2.21923729,71.3591695 2.21923729,73.1493051 0.954050847,73.9809661 C-0.841983051,75.1606271 0.0722542373,77.8591017 2.24725424,77.8015932 C3.78081356,77.7603051 4.87937288,79.2098136 4.36474576,80.5959153 C3.63483051,82.5615254 6.0280678,84.2292712 7.75184746,82.9567119 C8.96837288,82.0586949 10.7437627,82.611661 11.1772881,84.0228305 C11.7921864,86.0267797 14.7501864,86.0267797 15.3650847,84.0228305 C15.7986102,82.611661 17.574,82.0586949 18.7905254,82.9567119 C20.5143051,84.2292712 22.9075424,82.5615254 22.1776271,80.5959153 C21.663,79.2098136 22.7615593,77.7603051 24.2951186,77.8015932 C26.4701186,77.8591017 27.3843559,75.1606271 25.588322,73.9809661 L25.588322,73.9809661 Z M13.2711864,76.6779661 C10.8278136,76.6779661 8.84745763,74.6976102 8.84745763,72.2542373 C8.84745763,69.8108644 10.8278136,67.8305085 13.2711864,67.8305085 C15.7145593,67.8305085 17.6949153,69.8108644 17.6949153,72.2542373 C17.6949153,74.6976102 15.7145593,76.6779661 13.2711864,76.6779661 L13.2711864,76.6779661 Z" id="Fill-676" fill="#556080"></path>
                        <path d="M84.5713729,73.9809661 C83.3061864,73.1493051 83.3061864,71.3591695 84.5713729,70.5275085 C86.3674068,69.3478475 85.4531695,66.6493729 83.2781695,66.7068814 C81.7446102,66.7481695 80.6460508,65.298661 81.160678,63.9125593 C81.8905932,61.9469492 79.4973559,60.2792034 77.7735763,61.5517627 C76.5570508,62.4497797 74.781661,61.8968136 74.3481356,60.4856441 C73.7332373,58.4831695 70.7752373,58.4831695 70.160339,60.4856441 C69.7268136,61.8968136 67.9514237,62.4497797 66.7348983,61.5517627 C65.0111186,60.2792034 62.6178814,61.9469492 63.3477966,63.9125593 C63.8624237,65.298661 62.7638644,66.7481695 61.2303051,66.7068814 C59.0553051,66.6493729 58.1410678,69.3478475 59.9371017,70.5275085 C61.2022881,71.3591695 61.2022881,73.1493051 59.9371017,73.9809661 C58.1410678,75.1606271 59.0553051,77.8591017 61.2303051,77.8015932 C62.7638644,77.7603051 63.8624237,79.2098136 63.3477966,80.5959153 C62.6178814,82.5615254 65.0111186,84.2292712 66.7348983,82.9567119 C67.9514237,82.0586949 69.7268136,82.611661 70.160339,84.0228305 C70.7752373,86.0267797 73.7332373,86.0267797 74.3481356,84.0228305 C74.781661,82.611661 76.5570508,82.0586949 77.7735763,82.9567119 C79.4973559,84.2292712 81.8905932,82.5615254 81.160678,80.5959153 C80.6460508,79.2098136 81.7446102,77.7603051 83.2781695,77.8015932 C85.4531695,77.8591017 86.3674068,75.1606271 84.5713729,73.9809661 L84.5713729,73.9809661 Z M72.2542373,76.6779661 C69.8108644,76.6779661 67.8305085,74.6976102 67.8305085,72.2542373 C67.8305085,69.8108644 69.8108644,67.8305085 72.2542373,67.8305085 C74.6976102,67.8305085 76.6779661,69.8108644 76.6779661,72.2542373 C76.6779661,74.6976102 74.6976102,76.6779661 72.2542373,76.6779661 L72.2542373,76.6779661 Z" id="Fill-677" fill="#556080"></path>
                        <path d="M55.0798475,73.9809661 C53.814661,73.1493051 53.814661,71.3591695 55.0798475,70.5275085 C56.8758814,69.3478475 55.9616441,66.6493729 53.7866441,66.7068814 C52.2530847,66.7481695 51.1545254,65.298661 51.6691525,63.9125593 C52.3990678,61.9469492 50.0058305,60.2792034 48.2820508,61.5517627 C47.0655254,62.4497797 45.2901356,61.8968136 44.8566102,60.4856441 C44.2417119,58.4831695 41.2837119,58.4831695 40.6688136,60.4856441 C40.2352881,61.8968136 38.4598983,62.4497797 37.2433729,61.5517627 C35.5195932,60.2792034 33.1263559,61.9469492 33.8562712,63.9125593 C34.3708983,65.298661 33.272339,66.7481695 31.7387797,66.7068814 C29.5637797,66.6493729 28.6495424,69.3478475 30.4455763,70.5275085 C31.7107627,71.3591695 31.7107627,73.1493051 30.4455763,73.9809661 C28.6495424,75.1606271 29.5637797,77.8591017 31.7387797,77.8015932 C33.272339,77.7603051 34.3708983,79.2098136 33.8562712,80.5959153 C33.1263559,82.5615254 35.5195932,84.2292712 37.2433729,82.9567119 C38.4598983,82.0586949 40.2352881,82.611661 40.6688136,84.0228305 C41.2837119,86.0267797 44.2417119,86.0267797 44.8566102,84.0228305 C45.2901356,82.611661 47.0655254,82.0586949 48.2820508,82.9567119 C50.0058305,84.2292712 52.3990678,82.5615254 51.6691525,80.5959153 C51.1545254,79.2098136 52.2530847,77.7603051 53.7866441,77.8015932 C55.9616441,77.8591017 56.8758814,75.1606271 55.0798475,73.9809661 L55.0798475,73.9809661 Z M42.7627119,76.6779661 C40.319339,76.6779661 38.3389831,74.6976102 38.3389831,72.2542373 C38.3389831,69.8108644 40.319339,67.8305085 42.7627119,67.8305085 C45.2060847,67.8305085 47.1864407,69.8108644 47.1864407,72.2542373 C47.1864407,74.6976102 45.2060847,76.6779661 42.7627119,76.6779661 L42.7627119,76.6779661 Z" id="Fill-678" fill="#556080"></path>
                        <path d="M64.5245085,10.217339 L62.4379831,12.3023898 C57.8402542,16.9015932 57.8402542,24.3865424 62.4379831,28.9857458 C64.6660678,31.2138305 67.6284915,32.440678 70.779661,32.440678 C73.9308305,32.440678 76.8917797,31.2138305 79.1228136,28.9857458 L81.2063898,26.8992203 L64.5245085,10.217339" id="Fill-712" fill="#556080"></path>
                        <path d="M29.4915254,28.0169492 C29.4915254,30.460322 27.5111695,32.440678 25.0677966,32.440678 C22.6244237,32.440678 20.6440678,30.460322 20.6440678,28.0169492 C20.6440678,25.5735763 22.6244237,23.5932203 25.0677966,23.5932203 C27.5111695,23.5932203 29.4915254,25.5735763 29.4915254,28.0169492" id="Fill-714" fill="#556080"></path>
                        <path d="M10.3220339,8.84745763 C10.3220339,11.2908305 8.34167797,13.2711864 5.89830508,13.2711864 C3.4549322,13.2711864 1.47457627,11.2908305 1.47457627,8.84745763 C1.47457627,6.40408475 3.4549322,4.42372881 5.89830508,4.42372881 C8.34167797,4.42372881 10.3220339,6.40408475 10.3220339,8.84745763" id="Fill-715" fill="#556080"></path>
                        <polygon id="Fill-716" fill="#556080" points="23.5932203 0 56.0338983 0 56.0338983 17.6949153 23.5932203 17.6949153"></polygon>
                        <path d="M51.6101695,8.84745763 C51.6101695,11.2908305 49.6298136,13.2711864 47.1864407,13.2711864 C44.7430678,13.2711864 42.7627119,11.2908305 42.7627119,8.84745763 C42.7627119,6.40408475 44.7430678,4.42372881 47.1864407,4.42372881 C49.6298136,4.42372881 51.6101695,6.40408475 51.6101695,8.84745763" id="Fill-1071" fill="#ED7161"></path>
                        <path d="M36.8644068,8.84745763 C36.8644068,11.2908305 34.8840508,13.2711864 32.440678,13.2711864 C29.9973051,13.2711864 28.0169492,11.2908305 28.0169492,8.84745763 C28.0169492,6.40408475 29.9973051,4.42372881 32.440678,4.42372881 C34.8840508,4.42372881 36.8644068,6.40408475 36.8644068,8.84745763" id="Fill-1072" fill="#F18D46"></path>
                        <path d="M17.6949153,72.2542373 C17.6949153,74.6976102 15.7145593,76.6779661 13.2711864,76.6779661 C10.8278136,76.6779661 8.84745763,74.6976102 8.84745763,72.2542373 C8.84745763,69.8108644 10.8278136,67.8305085 13.2711864,67.8305085 C15.7145593,67.8305085 17.6949153,69.8108644 17.6949153,72.2542373" id="Fill-1158" fill="#CBB292"></path>
                        <path d="M47.1864407,72.2542373 C47.1864407,74.6976102 45.2060847,76.6779661 42.7627119,76.6779661 C40.319339,76.6779661 38.3389831,74.6976102 38.3389831,72.2542373 C38.3389831,69.8108644 40.319339,67.8305085 42.7627119,67.8305085 C45.2060847,67.8305085 47.1864407,69.8108644 47.1864407,72.2542373" id="Fill-1159" fill="#CBB292"></path>
                        <path d="M76.6779661,72.2542373 C76.6779661,74.6976102 74.6976102,76.6779661 72.2542373,76.6779661 C69.8108644,76.6779661 67.8305085,74.6976102 67.8305085,72.2542373 C67.8305085,69.8108644 69.8108644,67.8305085 72.2542373,67.8305085 C74.6976102,67.8305085 76.6779661,69.8108644 76.6779661,72.2542373" id="Fill-1160" fill="#CBB292"></path>
                    </g>
                    <g id="Artifficial-Gravity-Module" transform="translate(1153.000000, 255.000000)">
                        <path d="M45.6101695,7.29271667 C39.6352373,8.64931667 34.0430339,11.00155 29.0140169,14.1709167 M86.0029322,14.1709167 C80.9739153,11.00155 75.3817119,8.64931667 69.4067797,7.29271667 M109.708322,47.6 C108.351915,41.6242167 106.000017,36.0312167 102.831102,31.0014833 M102.831102,87.9985167 C106.000017,82.9687833 108.351915,77.3757833 109.708322,71.4 M69.4067797,111.707283 C75.3817119,110.350683 80.9739153,107.99845 86.0029322,104.829083 M29.0140169,104.829083 C34.0430339,107.99845 39.6352373,110.350683 45.6101695,111.707283 M5.30862712,71.4 C6.6650339,77.3757833 9.0169322,82.9687833 12.1858475,87.9985167 M12.1858475,31.0014833 C9.0169322,36.0312167 6.6650339,41.6242167 5.30862712,47.6" id="Stroke-19" stroke="#556080" stroke-width="2" stroke-linecap="round"></path>
                        <path d="M75.0862373,77.0802667 C65.3792034,86.7886833 49.6377458,86.7886833 39.9307119,77.0802667 C30.223678,67.37185 30.223678,51.62815 39.9307119,41.9197333 C49.6377458,32.2113167 65.3792034,32.2113167 75.0862373,41.9197333 C84.7932712,51.62815 84.7932712,67.37185 75.0862373,77.0802667 L75.0862373,77.0802667 Z" id="Fill-222" fill="#FFFFFF" fill-rule="evenodd"></path>
                        <path d="M75.0862373,77.0802667 C65.3792034,86.7886833 49.6377458,86.7886833 39.9307119,77.0802667 C30.223678,67.37185 30.223678,51.62815 39.9307119,41.9197333 C49.6377458,32.2113167 65.3792034,32.2113167 75.0862373,41.9197333 C84.7932712,51.62815 84.7932712,67.37185 75.0862373,77.0802667 L75.0862373,77.0802667 Z" id="Stroke-223" stroke="#556080" stroke-width="2" stroke-linecap="round"></path>
                        <path d="M7.93220339,5.95 C6.83755932,5.95 5.94915254,6.83853333 5.94915254,7.93333333 C5.94915254,9.02813333 6.83755932,9.91666667 7.93220339,9.91666667 C9.02684746,9.91666667 9.91525424,9.02813333 9.91525424,7.93333333 C9.91525424,6.83853333 9.02684746,5.95 7.93220339,5.95" id="Fill-892" fill="#F3D55B" fill-rule="evenodd"></path>
                        <path d="M41.6440678,23.8 C40.5494237,23.8 39.6610169,24.6885333 39.6610169,25.7833333 C39.6610169,26.8781333 40.5494237,27.7666667 41.6440678,27.7666667 C42.7387119,27.7666667 43.6271186,26.8781333 43.6271186,25.7833333 C43.6271186,24.6885333 42.7387119,23.8 41.6440678,23.8" id="Fill-893" fill="#F3D55B" fill-rule="evenodd"></path>
                        <path d="M19.8305085,61.4833333 C18.7358644,61.4833333 17.8474576,62.3718667 17.8474576,63.4666667 C17.8474576,64.5614667 18.7358644,65.45 19.8305085,65.45 C20.9251525,65.45 21.8135593,64.5614667 21.8135593,63.4666667 C21.8135593,62.3718667 20.9251525,61.4833333 19.8305085,61.4833333" id="Fill-894" fill="#F3D55B" fill-rule="evenodd"></path>
                        <path d="M1.98305085,103.133333 C0.88840678,103.133333 0,104.021867 0,105.116667 C0,106.211467 0.88840678,107.1 1.98305085,107.1 C3.07769492,107.1 3.96610169,106.211467 3.96610169,105.116667 C3.96610169,104.021867 3.07769492,103.133333 1.98305085,103.133333" id="Fill-895" fill="#F3D55B" fill-rule="evenodd"></path>
                        <path d="M31.7288136,115.033333 C30.6341695,115.033333 29.7457627,115.921867 29.7457627,117.016667 C29.7457627,118.111467 30.6341695,119 31.7288136,119 C32.8234576,119 33.7118644,118.111467 33.7118644,117.016667 C33.7118644,115.921867 32.8234576,115.033333 31.7288136,115.033333" id="Fill-896" fill="#F3D55B" fill-rule="evenodd"></path>
                        <path d="M115.016949,0 C113.922305,0 113.033898,0.888533333 113.033898,1.98333333 C113.033898,3.07813333 113.922305,3.96666667 115.016949,3.96666667 C116.111593,3.96666667 117,3.07813333 117,1.98333333 C117,0.888533333 116.111593,0 115.016949,0" id="Fill-897" fill="#F3D55B" fill-rule="evenodd"></path>
                        <path d="M113.033898,17.85 C111.939254,17.85 111.050847,18.7385333 111.050847,19.8333333 C111.050847,20.9281333 111.939254,21.8166667 113.033898,21.8166667 C114.128542,21.8166667 115.016949,20.9281333 115.016949,19.8333333 C115.016949,18.7385333 114.128542,17.85 113.033898,17.85" id="Fill-898" fill="#F3D55B" fill-rule="evenodd"></path>
                        <path d="M99.1525424,7.93333333 C98.0578983,7.93333333 97.1694915,8.82186667 97.1694915,9.91666667 C97.1694915,11.0114667 98.0578983,11.9 99.1525424,11.9 C100.247186,11.9 101.135593,11.0114667 101.135593,9.91666667 C101.135593,8.82186667 100.247186,7.93333333 99.1525424,7.93333333" id="Fill-899" fill="#F3D55B" fill-rule="evenodd"></path>
                        <path d="M111.050847,103.133333 C109.956203,103.133333 109.067797,104.021867 109.067797,105.116667 C109.067797,106.211467 109.956203,107.1 111.050847,107.1 C112.145492,107.1 113.033898,106.211467 113.033898,105.116667 C113.033898,104.021867 112.145492,103.133333 111.050847,103.133333" id="Fill-900" fill="#F3D55B" fill-rule="evenodd"></path>
                        <path d="M97.1694915,111.066667 C96.0748475,111.066667 95.1864407,111.9552 95.1864407,113.05 C95.1864407,114.1448 96.0748475,115.033333 97.1694915,115.033333 C98.2641356,115.033333 99.1525424,114.1448 99.1525424,113.05 C99.1525424,111.9552 98.2641356,111.066667 97.1694915,111.066667" id="Fill-901" fill="#F3D55B" fill-rule="evenodd"></path>
                        <path d="M70.1286102,72.1219333 C63.1581864,79.09335 51.8587627,79.09335 44.888339,72.1219333 C37.9179153,65.1505167 37.9179153,53.8494833 44.888339,46.8780667 C51.8587627,39.90665 63.1581864,39.90665 70.1286102,46.8780667 C77.0990339,53.8494833 77.0990339,65.1505167 70.1286102,72.1219333 L70.1286102,72.1219333 Z" id="Fill-984" fill="#8697CB" fill-rule="evenodd"></path>
                        <path d="M70.1286102,72.1219333 C63.1581864,79.09335 51.8587627,79.09335 44.888339,72.1219333 C37.9179153,65.1505167 37.9179153,53.8494833 44.888339,46.8780667 C51.8587627,39.90665 63.1581864,39.90665 70.1286102,46.8780667 C77.0990339,53.8494833 77.0990339,65.1505167 70.1286102,72.1219333 L70.1286102,72.1219333 Z" id="Stroke-985" stroke="#556080" stroke-width="2" stroke-linecap="round"></path>
                        <path d="M63.1165424,65.1088667 C60.0190169,68.2088167 54.9979322,68.2088167 51.9004068,65.1088667 C48.8008983,62.0109 48.8008983,56.9891 51.9004068,53.8911333 C54.9979322,50.7911833 60.0190169,50.7911833 63.1165424,53.8911333 C66.2160508,56.9891 66.2160508,62.0109 63.1165424,65.1088667 L63.1165424,65.1088667 Z M63.1165424,53.8911333 L70.1286102,46.8780667 L63.1165424,53.8911333 Z M51.9004068,65.1088667 L44.888339,72.1219333 L51.9004068,65.1088667 Z M63.1165424,65.1088667 L70.1286102,72.1219333 L63.1165424,65.1088667 Z M51.9004068,53.8911333 L44.888339,46.8780667 L51.9004068,53.8911333 Z M57.5084746,41.65 L57.5084746,21.8166667 L57.5084746,41.65 Z M57.5084746,21.8166667 L66.4322034,12.8916667 L57.5084746,21.8166667 Z M57.5084746,21.8166667 L48.5847458,12.8916667 L57.5084746,21.8166667 Z M70.4478814,72.44125 L83.2881356,85.2833333 L70.4478814,72.44125 Z M83.2881356,86.5447333 L83.2881356,99.1666667 L83.2881356,86.5447333 Z M84.4700339,85.2833333 L97.0901695,85.2833333 L84.4700339,85.2833333 Z" id="Stroke-986" stroke="#556080" stroke-width="2" stroke-linecap="round" stroke-linejoin="round"></path>
                        <path d="M44.5690678,72.44125 L31.7288136,85.2833333 M30.4675932,85.2833333 L17.8474576,85.2833333 M31.7288136,86.4654 L31.7288136,99.0873333" id="Stroke-988" stroke="#556080" stroke-width="2" stroke-linecap="round"></path>
                        <path d="M86.7267458,21.9396333 C87.476339,22.5227333 88.2061017,23.12765 88.92,23.7543833 C88.9437966,23.7762 88.9695763,23.7980167 88.9933729,23.8198333 C90.4766949,25.1288333 91.8747458,26.5270833 93.1835593,28.0106167 C93.2053729,28.0344167 93.2271864,28.0602 93.249,28.084 C93.8756441,28.798 94.4804746,29.5278667 95.0634915,30.2775667 C95.0952203,30.3192167 95.1269492,30.3588833 95.158678,30.39855 C96.3723051,31.9673667 97.4907458,33.61155 98.5040847,35.3271333 L105.700576,28.1296167 C101.323983,21.4180167 95.5850339,15.67825 88.8743898,11.3010333 L81.7175593,18.4569 C81.7215254,18.4886333 81.7235085,18.4965667 81.7274746,18.5283 C83.4249661,19.53385 85.0510678,20.6425333 86.6057797,21.8444333 C86.6454407,21.8761667 86.6851017,21.9079 86.7267458,21.9396333" id="Fill-1189" fill="#BDC3C7" fill-rule="evenodd"></path>
                        <path d="M103.602508,47.6 C103.826593,48.4706833 104.018949,49.3512833 104.193458,50.2378333 C104.248983,50.5155 104.29261,50.7931667 104.342186,51.0708333 C104.45522,51.6975667 104.556356,52.3262833 104.64361,52.9589667 C104.687237,53.2763 104.726898,53.5956167 104.764576,53.9149333 C104.839932,54.5515833 104.897441,55.1902167 104.947017,55.8328167 C104.968831,56.1223833 104.996593,56.41195 105.012458,56.7035 C105.066,57.6297167 105.101695,58.5599 105.101695,59.5 C105.101695,60.4401 105.066,61.3702833 105.012458,62.2965 C104.996593,62.58805 104.968831,62.8756333 104.947017,63.1671833 C104.897441,63.8097833 104.839932,64.4504 104.764576,65.0850667 C104.726898,65.4043833 104.687237,65.7237 104.64361,66.0410333 C104.556356,66.6737167 104.45522,67.3024333 104.342186,67.9291667 C104.29261,68.2068333 104.248983,68.4845 104.193458,68.7621667 C104.018949,69.6487167 103.826593,70.5313 103.602508,71.4 L113.777542,71.4 C114.584644,67.5602667 115.016949,63.5817 115.016949,59.5 C115.016949,55.4202833 114.584644,51.4397333 113.777542,47.6 L103.602508,47.6" id="Fill-1190" fill="#BDC3C7" fill-rule="evenodd"></path>
                        <path d="M105.700576,90.8703833 L98.5040847,83.6728667 C97.4907458,85.38845 96.3723051,87.0326333 95.158678,88.60145 C95.1269492,88.6411167 95.0952203,88.6807833 95.0634915,88.7224333 C94.4804746,89.4721333 93.8756441,90.202 93.249,90.916 C93.2271864,90.9398 93.2053729,90.9655833 93.1835593,90.9893833 C91.8747458,92.4729167 90.4766949,93.8711667 88.9933729,95.1801667 C88.9695763,95.2019833 88.9437966,95.2238 88.92,95.2456167 C88.2061017,95.87235 87.476339,96.4772667 86.7267458,97.0603667 C86.6851017,97.0921 86.6454407,97.1238333 86.6057797,97.1555667 C85.1046102,98.3178 83.5320508,99.3927667 81.8960339,100.372533 C81.8781864,100.511367 81.8742203,100.5431 81.8583559,100.681933 L88.8743898,107.698967 C95.5850339,103.32175 101.323983,97.5819833 105.700576,90.8703833" id="Fill-1191" fill="#BDC3C7" fill-rule="evenodd"></path>
                        <path d="M69.4067797,115.777083 L69.4067797,105.6006 C68.5362203,105.824717 67.6557458,106.0171 66.769322,106.191633 C66.4916949,106.247167 66.2140678,106.2908 65.9364407,106.340383 C65.3097966,106.453433 64.6811695,106.554583 64.0485763,106.64185 C63.7312881,106.685483 63.4120169,106.72515 63.0927458,106.762833 C62.4561864,106.8382 61.8176441,106.895717 61.1751356,106.9453 C60.8856102,106.967117 60.5960847,106.994883 60.3045763,107.01075 C59.3784915,107.0643 58.4484407,107.1 57.5084746,107.1 C56.5685085,107.1 55.6384576,107.0643 54.7123729,107.01075 C54.4208644,106.994883 54.133322,106.967117 53.8418136,106.9453 C53.1993051,106.895717 52.5587797,106.8382 51.9242034,106.762833 C51.6049322,106.72515 51.285661,106.685483 50.9683729,106.64185 C50.3357797,106.554583 49.7071525,106.453433 49.0805085,106.340383 C48.8028814,106.2908 48.5252542,106.247167 48.2476271,106.191633 C47.3612034,106.0171 46.4787458,105.824717 45.6101695,105.6006 L45.6101695,115.777083 C49.4493559,116.5843 53.4273559,117.016667 57.5084746,117.016667 C61.5876102,117.016667 65.5675932,116.5843 69.4067797,115.777083" id="Fill-1192" fill="#BDC3C7" fill-rule="evenodd"></path>
                        <path d="M28.2902034,97.0603667 C27.5406102,96.4772667 26.8108475,95.87235 26.0969492,95.2456167 C26.0731525,95.2238 26.0473729,95.2019833 26.0235763,95.1801667 C24.5402542,93.8711667 23.1422034,92.4729167 21.8333898,90.9893833 C21.8115763,90.9655833 21.7897627,90.9398 21.7679492,90.916 C21.1413051,90.202 20.5364746,89.4721333 19.9534576,88.7224333 C19.9217288,88.6807833 19.89,88.6411167 19.8582712,88.60145 C18.6446441,87.0326333 17.5262034,85.38845 16.5128644,83.6728667 L9.31637288,90.8703833 C13.6929661,97.5819833 19.4319153,103.32175 26.1425593,107.698967 L32.8075932,101.032983 C32.7580169,100.622433 32.7461186,100.52525 32.6945593,100.1147 C31.2112373,99.20435 29.7814576,98.21665 28.4111695,97.1555667 C28.3715085,97.1238333 28.3318475,97.0921 28.2902034,97.0603667" id="Fill-1193" fill="#BDC3C7" fill-rule="evenodd"></path>
                        <path d="M10.6747627,67.9291667 C10.5617288,67.3024333 10.4605932,66.6737167 10.373339,66.0410333 C10.3297119,65.7237 10.2900508,65.4043833 10.2523729,65.0850667 C10.1770169,64.4504 10.1195085,63.8097833 10.0699322,63.1671833 C10.0481186,62.8756333 10.0203559,62.58805 10.0044915,62.2965 C9.9489661,61.3702833 9.91525424,60.4401 9.91525424,59.5 C9.91525424,58.5599 9.9489661,57.6297167 10.0044915,56.7035 C10.0203559,56.41195 10.0481186,56.1223833 10.0699322,55.8328167 C10.1195085,55.1902167 10.1770169,54.5515833 10.2523729,53.9149333 C10.2900508,53.5956167 10.3297119,53.2763 10.373339,52.9589667 C10.4605932,52.3262833 10.5617288,51.6975667 10.6747627,51.0708333 C10.724339,50.7931667 10.7679661,50.5155 10.8234915,50.2378333 C10.998,49.3512833 11.1903559,48.4706833 11.4144407,47.6 L1.23940678,47.6 C0.432305085,51.4397333 0,55.4202833 0,59.5 C0,63.5817 0.432305085,67.5602667 1.23940678,71.4 L11.4144407,71.4 C11.1903559,70.5313 10.998,69.6487167 10.8234915,68.7621667 C10.7679661,68.4845 10.724339,68.2068333 10.6747627,67.9291667" id="Fill-1194" fill="#BDC3C7" fill-rule="evenodd"></path>
                        <path d="M9.31637288,28.1296167 L16.5128644,35.3271333 C17.5262034,33.61155 18.6446441,31.9673667 19.8582712,30.39855 C19.89,30.3588833 19.9217288,30.3192167 19.9534576,30.2775667 C20.5364746,29.5278667 21.1413051,28.798 21.7679492,28.084 C21.7897627,28.0602 21.8115763,28.0344167 21.8333898,28.0106167 C23.1422034,26.5270833 24.5402542,25.1288333 26.0235763,23.8198333 C26.0473729,23.7980167 26.0731525,23.7762 26.0969492,23.7543833 C26.8108475,23.12765 27.5406102,22.5227333 28.2902034,21.9396333 C28.3318475,21.9079 28.3715085,21.8761667 28.4111695,21.8444333 C29.8964746,20.6960833 31.4472203,19.6310333 33.0634068,18.6611833 C33.0852203,18.48665 33.0911695,18.4469833 33.1129831,18.27245 L26.1425593,11.3010333 C19.4319153,15.67825 13.6929661,21.4180167 9.31637288,28.1296167" id="Fill-1195" fill="#BDC3C7" fill-rule="evenodd"></path>
                        <path d="M45.6101695,3.22291667 L45.6101695,13.3994 C46.4787458,13.1752833 47.3612034,12.9829 48.2476271,12.8083667 C48.5252542,12.7528333 48.8028814,12.7092 49.0805085,12.6596167 C49.7071525,12.5465667 50.3357797,12.4454167 50.9683729,12.35815 C51.285661,12.3145167 51.6049322,12.27485 51.9242034,12.2371667 C52.5587797,12.1618 53.1993051,12.1042833 53.8418136,12.0547 C54.133322,12.0328833 54.4208644,12.0051167 54.7123729,11.98925 C55.6384576,11.9357 56.5685085,11.9 57.5084746,11.9 C58.4484407,11.9 59.3784915,11.9357 60.3045763,11.98925 C60.5960847,12.0051167 60.8856102,12.0328833 61.1751356,12.0547 C61.8176441,12.1042833 62.4561864,12.1618 63.0927458,12.2371667 C63.4120169,12.27485 63.7312881,12.3145167 64.0485763,12.35815 C64.6811695,12.4454167 65.3097966,12.5465667 65.9364407,12.6596167 C66.2140678,12.7092 66.4916949,12.7528333 66.769322,12.8083667 C67.6557458,12.9829 68.5362203,13.1752833 69.4067797,13.3994 L69.4067797,3.22291667 C65.5675932,2.4157 61.5876102,1.98333333 57.5084746,1.98333333 C53.4273559,1.98333333 49.4493559,2.4157 45.6101695,3.22291667" id="Fill-1196" fill="#BDC3C7" fill-rule="evenodd"></path>
                    </g>
                    <g id="Meteorite" transform="translate(232.000000, 375.000000)">
                        <path d="M51.0414262,94.26945 C51.2235574,93.8817 70.6586066,78.5433 62.6315902,64.56945 C55.1791148,51.59385 59.3548852,42.69705 51.3311803,42.49245 C46.0228852,42.35715 40.734459,41.71035 35.4940492,40.84575 C24.1207869,38.96805 7.88296721,38.21565 9.64798361,49.71945 C12.3385574,67.2507 -8.35816393,57.96945 7.9922459,81.06945 C13.1101311,88.29975 33.772082,107.9595 51.0414262,94.26945" id="Fill-789" fill="#CBB292"></path>
                        <path d="M64.7741148,36.10035 C64.1267213,35.4552 63.0802951,35.4552 62.4329016,36.10035 L60.0916885,38.43345 C59.4442951,39.0786 59.4442951,40.1214 60.0916885,40.76655 C60.4145574,41.0883 60.8384262,41.25 61.2622951,41.25 C61.6861639,41.25 62.1100328,41.0883 62.4329016,40.76655 L64.7741148,38.43345 C65.4215082,37.7883 65.4215082,36.74385 64.7741148,36.10035" id="Fill-790" fill="#F0C419"></path>
                        <path d="M81.9672951,18.9651 C82.2901639,19.2885 82.7140328,19.44855 83.1379016,19.44855 C83.5617705,19.44855 83.9856393,19.2885 84.3085082,18.9651 L89.1929344,14.09925 C89.8386721,13.4541 89.8386721,12.40965 89.1929344,11.76615 C88.545541,11.121 87.497459,11.121 86.8517213,11.76615 L81.9672951,16.632 C81.3199016,17.27715 81.3199016,18.3216 81.9672951,18.9651" id="Fill-791" fill="#F0C419"></path>
                        <path d="M74.6423115,23.93325 L69.7578852,28.7991 C69.1121475,29.44425 69.1121475,30.4887 69.7578852,31.1322 C70.0824098,31.4556 70.504623,31.61565 70.9284918,31.61565 C71.3523607,31.61565 71.7762295,31.4556 72.0990984,31.1322 L76.9835246,26.26635 C77.630918,25.6212 77.630918,24.57675 76.9835246,23.93325 C76.3361311,23.2881 75.2897049,23.2881 74.6423115,23.93325" id="Fill-792" fill="#F0C419"></path>
                        <path d="M98.8591311,2.13345 C98.2117377,1.4883 97.1653115,1.4883 96.517918,2.13345 L94.1767049,4.46655 C93.5293115,5.1117 93.5293115,6.15615 94.1767049,6.79965 C94.4995738,7.1214 94.9234426,7.2831 95.3473115,7.2831 C95.7711803,7.2831 96.1950492,7.1214 96.517918,6.79965 L98.8591311,4.46655 C99.5065246,3.8214 99.5065246,2.7786 98.8591311,2.13345" id="Fill-793" fill="#F0C419"></path>
                        <path d="M68.0855902,44.35035 C67.4381967,43.7052 66.3917705,43.7052 65.744377,44.35035 L63.4031639,46.68345 C62.7557705,47.3286 62.7557705,48.3714 63.4031639,49.01655 C63.7260328,49.3383 64.1499016,49.5 64.5737705,49.5 C64.9976393,49.5 65.4215082,49.3383 65.744377,49.01655 L68.0855902,46.68345 C68.7329836,46.0383 68.7329836,44.9955 68.0855902,44.35035" id="Fill-794" fill="#F0C419"></path>
                        <path d="M76.0430656,34.0857 L71.9235902,38.1909 C71.2761967,38.83605 71.2761967,39.8805 71.9235902,40.524 C72.246459,40.8474 72.6703279,41.0091 73.0941967,41.0091 C73.5180656,41.0091 73.9419344,40.8474 74.2648033,40.524 L78.3842787,36.4188 C79.0300164,35.7753 79.0300164,34.73085 78.3842787,34.0857 C77.7368852,33.4422 76.6888033,33.4422 76.0430656,34.0857" id="Fill-795" fill="#F0C419"></path>
                        <path d="M88.6829672,26.15745 C89.3303607,25.5123 89.3303607,24.46785 88.6829672,23.8227 C88.0355738,23.1792 86.9891475,23.1792 86.3417541,23.8227 L82.2222787,27.92955 C81.576541,28.57305 81.576541,29.6175 82.2222787,30.26265 C82.5451475,30.5844 82.9690164,30.7461 83.3928852,30.7461 C83.8167541,30.7461 84.240623,30.5844 84.5634918,30.26265 L88.6829672,26.15745" id="Fill-796" fill="#F0C419"></path>
                        <path d="M94.8621803,15.33345 L92.5209672,17.66655 C91.8735738,18.3117 91.8735738,19.35615 92.5209672,19.99965 C92.8438361,20.3214 93.2677049,20.4831 93.6915738,20.4831 C94.1154426,20.4831 94.5393115,20.3214 94.8621803,19.99965 L97.2033934,17.66655 C97.8507869,17.0214 97.8507869,15.9786 97.2033934,15.33345 C96.556,14.6883 95.5095738,14.6883 94.8621803,15.33345" id="Fill-797" fill="#F0C419"></path>
                        <path d="M52.4984754,32.80035 L50.1572623,35.13345 C49.5098689,35.7786 49.5098689,36.8214 50.1572623,37.46655 C50.4801311,37.7883 50.904,37.95 51.3278689,37.95 C51.7517377,37.95 52.1756066,37.7883 52.4984754,37.46655 L54.8396885,35.13345 C55.487082,34.4883 55.487082,33.44385 54.8396885,32.80035 C54.1922951,32.1552 53.1458689,32.1552 52.4984754,32.80035" id="Fill-798" fill="#F0C419"></path>
                        <path d="M68.976377,18.71265 C69.2992459,19.0344 69.7231148,19.1961 70.1469836,19.1961 C70.5708525,19.1961 70.9947213,19.0344 71.3175902,18.71265 L75.4370656,14.6058 C76.084459,13.9623 76.084459,12.91785 75.4370656,12.27435 C74.7896721,11.6292 73.7432459,11.6292 73.0958525,12.27435 L68.976377,16.37955 C68.3306393,17.02305 68.3306393,18.0675 68.976377,18.71265" id="Fill-799" fill="#F0C419"></path>
                        <path d="M61.0189016,28.97565 L65.138377,24.8688 C65.7841148,24.2253 65.7841148,23.18085 65.138377,22.5357 C64.4909836,21.8922 63.4429016,21.8922 62.7971639,22.5357 L58.6776885,26.6409 C58.0302951,27.28605 58.0302951,28.3305 58.6776885,28.97565 C59.0005574,29.2974 59.4244262,29.4591 59.8482951,29.4591 C60.2721639,29.4591 60.6960328,29.2974 61.0189016,28.97565" id="Fill-800" fill="#F0C419"></path>
                        <path d="M80.4456721,8.9331 C80.869541,8.9331 81.2934098,8.7714 81.6162787,8.44965 L83.9574918,6.11655 C84.6048852,5.4714 84.6048852,4.4286 83.9574918,3.78345 C83.3100984,3.1383 82.2636721,3.1383 81.6162787,3.78345 L79.2750656,6.11655 C78.6276721,6.7617 78.6276721,7.80615 79.2750656,8.44965 C79.5979344,8.7714 80.0218033,8.9331 80.4456721,8.9331" id="Fill-801" fill="#F0C419"></path>
                        <path d="M44.2197869,29.50035 L41.8785738,31.83345 C41.2311803,32.4786 41.2311803,33.5214 41.8785738,34.16655 C42.2014426,34.4883 42.6253115,34.65 43.0491803,34.65 C43.4730492,34.65 43.896918,34.4883 44.2197869,34.16655 L46.561,31.83345 C47.2083934,31.1883 47.2083934,30.1455 46.561,29.50035 C45.9136066,28.8552 44.8671803,28.8552 44.2197869,29.50035" id="Fill-802" fill="#F0C419"></path>
                        <path d="M51.7765738,24.30285 C52.1010984,24.6246 52.5249672,24.78465 52.9471803,24.78465 C53.3710492,24.78465 53.794918,24.6246 54.1177869,24.30285 L59.1561967,19.2819 C59.8035902,18.63675 59.8035902,17.5923 59.1561967,16.9488 C58.510459,16.30365 57.462377,16.30365 56.8149836,16.9488 L51.7765738,21.96975 C51.1308361,22.61325 51.1308361,23.6577 51.7765738,24.30285" id="Fill-803" fill="#F0C419"></path>
                        <path d="M65.5440328,12.2331 C65.9679016,12.2331 66.3917705,12.0714 66.7146393,11.74965 L69.0558525,9.41655 C69.7032459,8.7714 69.7032459,7.7286 69.0558525,7.08345 C68.408459,6.4383 67.3620328,6.4383 66.7146393,7.08345 L64.3734262,9.41655 C63.7260328,10.0617 63.7260328,11.10615 64.3734262,11.74965 C64.6962951,12.0714 65.1201639,12.2331 65.5440328,12.2331" id="Fill-804" fill="#F0C419"></path>
                        <path d="M69.0558525,58.91655 L71.3970656,56.58345 C72.044459,55.9383 72.044459,54.8955 71.3970656,54.25035 C70.7496721,53.6052 69.7032459,53.6052 69.0558525,54.25035 L66.7146393,56.58345 C66.0672459,57.2286 66.0672459,58.2714 66.7146393,58.91655 C67.0375082,59.2383 67.461377,59.4 67.8852459,59.4 C68.3091148,59.4 68.7329836,59.2383 69.0558525,58.91655" id="Fill-805" fill="#F0C419"></path>
                        <path d="M81.6510492,41.6988 L76.6126393,46.71975 C75.9669016,47.36325 75.9669016,48.4077 76.6126393,49.05285 C76.9371639,49.3746 77.3610328,49.53465 77.7832459,49.53465 C78.2071148,49.53465 78.6309836,49.3746 78.9538525,49.05285 L83.9922623,44.0319 C84.6396557,43.38675 84.6396557,42.3423 83.9922623,41.6988 C83.3465246,41.05365 82.2984426,41.05365 81.6510492,41.6988" id="Fill-806" fill="#F0C419"></path>
                        <path d="M91.5507049,31.83345 L89.2094918,34.16655 C88.5620984,34.8117 88.5620984,35.85615 89.2094918,36.49965 C89.5323607,36.8214 89.9562295,36.9831 90.3800984,36.9831 C90.8039672,36.9831 91.2278361,36.8214 91.5507049,36.49965 L93.891918,34.16655 C94.5393115,33.5214 94.5393115,32.4786 93.891918,31.83345 C93.2445246,31.1883 92.1980984,31.1883 91.5507049,31.83345" id="Fill-807" fill="#F0C419"></path>
                        <path d="M22.6951967,27.85035 L20.3539836,30.18345 C19.7065902,30.8286 19.7065902,31.8714 20.3539836,32.51655 C20.6768525,32.8383 21.1007213,33 21.5245902,33 C21.948459,33 22.3723279,32.8383 22.6951967,32.51655 L25.0364098,30.18345 C25.6838033,29.5383 25.6838033,28.49385 25.0364098,27.85035 C24.3890164,27.2052 23.3425902,27.2052 22.6951967,27.85035" id="Fill-808" fill="#F0C419"></path>
                        <path d="M33.4922623,19.4238 C32.8465246,18.77865 31.7984426,18.77865 31.1510492,19.4238 L27.768377,22.79475 C27.1226393,23.43825 27.1226393,24.4827 27.768377,25.12785 C28.0929016,25.4496 28.5167705,25.6113 28.9389836,25.6113 C29.3628525,25.6113 29.7867213,25.4496 30.1095902,25.12785 L33.4922623,21.7569 C34.1396557,21.11175 34.1396557,20.0673 33.4922623,19.4238" id="Fill-809" fill="#F0C419"></path>
                        <path d="M40.9083115,12.03345 C40.260918,11.3883 39.2144918,11.3883 38.5670984,12.03345 L36.2258852,14.36655 C35.5784918,15.0117 35.5784918,16.05615 36.2258852,16.69965 C36.5487541,17.0214 36.972623,17.1831 37.3964918,17.1831 C37.8203607,17.1831 38.2442295,17.0214 38.5670984,16.69965 L40.9083115,14.36655 C41.5557049,13.7214 41.5557049,12.6786 40.9083115,12.03345" id="Fill-810" fill="#F0C419"></path>
                        <path d="M70.7115902,77.35035 L68.370377,79.68345 C67.7229836,80.3286 67.7229836,81.3714 68.370377,82.01655 C68.6932459,82.3383 69.1171148,82.5 69.5409836,82.5 C69.9648525,82.5 70.3887213,82.3383 70.7115902,82.01655 L73.0528033,79.68345 C73.7001967,79.0383 73.7001967,77.99385 73.0528033,77.35035 C72.4054098,76.7052 71.3589836,76.7052 70.7115902,77.35035" id="Fill-811" fill="#F0C419"></path>
                        <path d="M79.1674426,68.9238 L75.7847705,72.29475 C75.1390328,72.93825 75.1390328,73.9827 75.7847705,74.62785 C76.1092951,74.9496 76.5331639,75.1113 76.955377,75.1113 C77.3792459,75.1113 77.8031148,74.9496 78.1259836,74.62785 L81.5086557,71.2569 C82.1560492,70.61175 82.1560492,69.5673 81.5086557,68.9238 C80.862918,68.27865 79.8148361,68.27865 79.1674426,68.9238" id="Fill-812" fill="#F0C419"></path>
                        <path d="M86.5834918,61.53345 L84.2422787,63.86655 C83.5948852,64.5117 83.5948852,65.55615 84.2422787,66.19965 C84.5651475,66.5214 84.9890164,66.6831 85.4128852,66.6831 C85.8367541,66.6831 86.260623,66.5214 86.5834918,66.19965 L88.9247049,63.86655 C89.5720984,63.2214 89.5720984,62.1786 88.9247049,61.53345 C88.2773115,60.8883 87.2308852,60.8883 86.5834918,61.53345" id="Fill-813" fill="#F0C419"></path>
                        <path d="M72.3673279,64.15035 L70.0261148,66.48345 C69.3787213,67.1286 69.3787213,68.1714 70.0261148,68.81655 C70.3489836,69.1383 70.7728525,69.3 71.1967213,69.3 C71.6205902,69.3 72.044459,69.1383 72.3673279,68.81655 L74.708541,66.48345 C75.3559344,65.8383 75.3559344,64.7955 74.708541,64.15035 C74.0611475,63.5052 73.0147213,63.5052 72.3673279,64.15035" id="Fill-814" fill="#F0C419"></path>
                        <path d="M80.8231803,55.72215 L77.4405082,59.09475 C76.7947705,59.73825 76.7947705,60.7827 77.4405082,61.42785 C77.7650328,61.7496 78.1889016,61.90965 78.6111148,61.90965 C79.0349836,61.90965 79.4588525,61.7496 79.7817213,61.42785 L83.1643934,58.0569 C83.8117869,57.41175 83.8117869,56.3673 83.1643934,55.72215 C82.5186557,55.07865 81.4705738,55.07865 80.8231803,55.72215" id="Fill-815" fill="#F0C419"></path>
                        <path d="M88.2392295,48.33345 L85.8980164,50.66655 C85.250623,51.3117 85.250623,52.35615 85.8980164,52.99965 C86.2208852,53.3214 86.6447541,53.4831 87.068623,53.4831 C87.4924918,53.4831 87.9163607,53.3214 88.2392295,52.99965 L90.5804426,50.66655 C91.2278361,50.0214 91.2278361,48.9786 90.5804426,48.33345 C89.9330492,47.6883 88.886623,47.6883 88.2392295,48.33345" id="Fill-816" fill="#F0C419"></path>
                        <path d="M34.2853607,27.85035 L31.9441475,30.18345 C31.2967541,30.8286 31.2967541,31.8714 31.9441475,32.51655 C32.2670164,32.8383 32.6908852,33 33.1147541,33 C33.538623,33 33.9624918,32.8383 34.2853607,32.51655 L36.6265738,30.18345 C37.2739672,29.5383 37.2739672,28.49385 36.6265738,27.85035 C35.9791803,27.2052 34.9327541,27.2052 34.2853607,27.85035" id="Fill-817" fill="#F0C419"></path>
                        <path d="M45.0824262,21.7569 C45.7298197,21.11175 45.7298197,20.0673 45.0824262,19.4238 C44.4366885,18.77865 43.3886066,18.77865 42.7412131,19.4238 L39.358541,22.79475 C38.7128033,23.43825 38.7128033,24.4827 39.358541,25.12785 C39.6830656,25.4496 40.1069344,25.6113 40.5291475,25.6113 C40.9530164,25.6113 41.3768852,25.4496 41.6997541,25.12785 L45.0824262,21.7569" id="Fill-818" fill="#F0C419"></path>
                        <path d="M52.4984754,14.36655 C53.1458689,13.7214 53.1458689,12.6786 52.4984754,12.03345 C51.851082,11.3883 50.8046557,11.3883 50.1572623,12.03345 L47.8160492,14.36655 C47.1686557,15.0117 47.1686557,16.05615 47.8160492,16.69965 C48.138918,17.0214 48.5627869,17.1831 48.9866557,17.1831 C49.4105246,17.1831 49.8343934,17.0214 50.1572623,16.69965 L52.4984754,14.36655" id="Fill-819" fill="#F0C419"></path>
                        <path d="M28.0481967,72.9531 C27.402459,72.30795 26.354377,72.30795 25.7069836,72.9531 C23.829377,74.82255 20.5592951,74.82255 18.6833443,72.9531 C17.744541,72.0192 17.2279508,70.7751 17.2279508,69.45345 C17.2279508,68.13015 17.744541,66.8877 18.6833443,65.9538 C19.329082,65.30865 19.329082,64.2642 18.6833443,63.6207 C18.0359508,62.97555 16.9878689,62.97555 16.3421311,63.6207 C14.777459,65.1783 13.9164754,67.24905 13.9164754,69.45345 C13.9164754,71.65785 14.777459,73.7286 16.3421311,75.2862 C17.9051475,76.8438 19.9830984,77.70345 22.1951639,77.70345 C24.4072295,77.70345 26.4851803,76.8438 28.0481967,75.2862 C28.6955902,74.64105 28.6955902,73.59825 28.0481967,72.9531" id="Fill-820" fill="#7F6E5D"></path>
                        <path d="M26.4769016,56.25345 C31.0417705,56.25345 34.7555902,52.5525 34.7555902,48.00345 C34.7555902,47.091 34.0138197,46.35345 33.0998525,46.35345 C32.1842295,46.35345 31.4441148,47.091 31.4441148,48.00345 C31.4441148,50.73255 29.2154918,52.95345 26.4769016,52.95345 C23.7366557,52.95345 21.5096885,50.73255 21.5096885,48.00345 C21.5096885,47.091 20.767918,46.35345 19.8539508,46.35345 C18.9383279,46.35345 18.1982131,47.091 18.1982131,48.00345 C18.1982131,52.5525 21.9120328,56.25345 26.4769016,56.25345" id="Fill-821" fill="#7F6E5D"></path>
                        <path d="M41.378541,64.21635 C43.4978852,64.21635 45.6188852,63.4128 47.2315738,61.80405 C50.4602623,58.5882 50.4602623,53.35275 47.2315738,50.1369 C46.5858361,49.49175 45.5377541,49.49175 44.8903607,50.1369 C44.244623,50.7804 44.244623,51.82485 44.8903607,52.47 C46.8275738,54.4005 46.8275738,57.54045 44.8903607,59.47095 C42.9514918,61.40145 39.8022787,61.3998 37.8667213,59.47095 C37.2193279,58.8258 36.1712459,58.8258 35.5255082,59.47095 C34.8781148,60.1161 34.8781148,61.1589 35.5255082,61.80405 C37.1381967,63.4128 39.257541,64.21635 41.378541,64.21635" id="Fill-822" fill="#7F6E5D"></path>
                        <path d="M36.4113279,81.00345 C31.846459,81.00345 28.1326393,84.7044 28.1326393,89.25345 C28.1326393,90.1659 28.8727541,90.90345 29.788377,90.90345 C30.7023443,90.90345 31.4441148,90.1659 31.4441148,89.25345 C31.4441148,86.52435 33.671082,84.30345 36.4113279,84.30345 C39.149918,84.30345 41.378541,86.52435 41.378541,89.25345 C41.378541,90.1659 42.1186557,90.90345 43.0342787,90.90345 C43.9482459,90.90345 44.6900164,90.1659 44.6900164,89.25345 C44.6900164,84.7044 40.9761967,81.00345 36.4113279,81.00345" id="Fill-823" fill="#7F6E5D"></path>
                        <path d="M52.9687049,79.35345 C50.228459,79.35345 48.0014918,77.13255 48.0014918,74.40345 C48.0014918,71.67435 50.228459,69.45345 52.9687049,69.45345 C53.8826721,69.45345 54.6244426,68.7159 54.6244426,67.80345 C54.6244426,66.891 53.8826721,66.15345 52.9687049,66.15345 C48.4038361,66.15345 44.6900164,69.8544 44.6900164,74.40345 C44.6900164,78.9525 48.4038361,82.65345 52.9687049,82.65345 C53.8826721,82.65345 54.6244426,81.9159 54.6244426,81.00345 C54.6244426,80.091 53.8826721,79.35345 52.9687049,79.35345" id="Fill-824" fill="#7F6E5D"></path>
                    </g>
                </g>
            </g>
        </g>
    </g>
</svg>
