<?xml version="1.0" encoding="UTF-8"?>
<svg width="102px" height="102px" viewBox="0 0 102 102" version="1.1" xmlns="http://www.w3.org/2000/svg" xmlns:xlink="http://www.w3.org/1999/xlink">
    <!-- Generator: Sketch 45.2 (43514) - http://www.bohemiancoding.com/sketch -->
    <title>33 - Ursa Minor (Flat)</title>
    <desc>Created with Sketch.</desc>
    <defs></defs>
    <g id="Welcome" stroke="none" stroke-width="1" fill="none" fill-rule="evenodd">
        <g id="Desktop-HD" transform="translate(-669.000000, -1003.000000)">
            <g id="Group-8" transform="translate(229.000000, 1003.000000)">
                <g id="Ursa-Minor" transform="translate(440.000000, 0.000000)">
                    <path d="M102,51 C102,79.1673 79.1656,102 51,102 C22.8344,102 0,79.1673 0,51 C0,22.8344 22.8344,0 51,0 C79.1656,0 102,22.8344 102,51" id="Fill-147" fill="#556080" fill-rule="evenodd"></path>
                    <path d="M18.7,90.1 C17.7616,90.1 17,90.8616 17,91.8 C17,92.7384 17.7616,93.5 18.7,93.5 C19.6384,93.5 20.4,92.7384 20.4,91.8 C20.4,90.8616 19.6384,90.1 18.7,90.1" id="Fill-298" fill="#F3D55B" fill-rule="evenodd"></path>
                    <path d="M10.2,42.5 C9.2616,42.5 8.5,43.2616 8.5,44.2 C8.5,45.1384 9.2616,45.9 10.2,45.9 C11.1384,45.9 11.9,45.1384 11.9,44.2 C11.9,43.2616 11.1384,42.5 10.2,42.5" id="Fill-299" fill="#F3D55B" fill-rule="evenodd"></path>
                    <path d="M44.2,40.8 C43.2616,40.8 42.5,41.5616 42.5,42.5 C42.5,43.4384 43.2616,44.2 44.2,44.2 C45.1384,44.2 45.9,43.4384 45.9,42.5 C45.9,41.5616 45.1384,40.8 44.2,40.8" id="Fill-300" fill="#F3D55B" fill-rule="evenodd"></path>
                    <path d="M81.6,8.5 C80.6616,8.5 79.9,9.2616 79.9,10.2 C79.9,11.1384 80.6616,11.9 81.6,11.9 C82.5384,11.9 83.3,11.1384 83.3,10.2 C83.3,9.2616 82.5384,8.5 81.6,8.5" id="Fill-301" fill="#F3D55B" fill-rule="evenodd"></path>
                    <path d="M90.1,42.5 C89.1616,42.5 88.4,43.2616 88.4,44.2 C88.4,45.1384 89.1616,45.9 90.1,45.9 C91.0384,45.9 91.8,45.1384 91.8,44.2 C91.8,43.2616 91.0384,42.5 90.1,42.5" id="Fill-302" fill="#F3D55B" fill-rule="evenodd"></path>
                    <path d="M94.9076,76.2076 C92.2522,78.8647 87.9478,78.8647 85.2924,76.2076 C82.6353,73.5522 82.6353,69.2478 85.2924,66.5924 C87.9478,63.937 92.2522,63.937 94.9076,66.5924 C97.5647,69.2478 97.5647,73.5522 94.9076,76.2076" id="Fill-312" fill="#8697CB" fill-rule="evenodd"></path>
                    <path d="M73.27,98.3076 C70.6146,100.9647 66.3102,100.9647 63.6548,98.3076 C60.9994,95.6522 60.9994,91.3478 63.6548,88.6924 C66.3102,86.0353 70.6146,86.0353 73.27,88.6924 C75.9271,91.3478 75.9271,95.6522 73.27,98.3076" id="Fill-313" fill="#8697CB" fill-rule="evenodd"></path>
                    <path d="M47.3076,71.1076 C44.6522,73.7647 40.3478,73.7647 37.6924,71.1076 C35.0353,68.4522 35.0353,64.1478 37.6924,61.4924 C40.3478,58.837 44.6522,58.837 47.3076,61.4924 C49.9647,64.1478 49.9647,68.4522 47.3076,71.1076" id="Fill-314" fill="#8697CB" fill-rule="evenodd"></path>
                    <path d="M69.6643,50.2112 C66.3459,53.5296 60.9637,53.5296 57.6436,50.2112 C54.3252,46.8911 54.3252,41.5089 57.6436,38.1905 C60.9637,34.8704 66.3459,34.8704 69.6643,38.1905 C72.9844,41.5089 72.9844,46.8911 69.6643,50.2112" id="Fill-315" fill="#8697CB" fill-rule="evenodd"></path>
                    <path d="M58.3134,50.7569 L47.43,61.6403 M85.0833,66.8457 L68.9945,50.7569 M73.27,88.6924 L85.5457,76.4167 M46.6276,71.6652 L63.6548,88.6924" id="Stroke-316" stroke="#8697CB" stroke-width="2" stroke-linecap="round"></path>
                    <path d="M47.6,17 C47.6,19.8169 45.3169,22.1 42.5,22.1 C39.6831,22.1 37.4,19.8169 37.4,17 C37.4,14.1831 39.6831,11.9 42.5,11.9 C45.3169,11.9 47.6,14.1831 47.6,17" id="Fill-317" fill="#8697CB" fill-rule="evenodd"></path>
                    <path d="M15.3,10.2 C15.3,13.0169 13.0169,15.3 10.2,15.3 C7.3831,15.3 5.1,13.0169 5.1,10.2 C5.1,7.3831 7.3831,5.1 10.2,5.1 C13.0169,5.1 15.3,7.3831 15.3,10.2" id="Fill-318" fill="#8697CB" fill-rule="evenodd"></path>
                    <path d="M62.9,39.1 L45.9,20.4 M37.4,15.3 L15.3,10.2" id="Stroke-319" stroke="#8697CB" stroke-width="2" stroke-linecap="round"></path>
                    <path d="M45.6076,69.4076 C43.8906,71.1246 41.1077,71.1246 39.3924,69.4076 C37.6754,67.6923 37.6754,64.9077 39.3924,63.1924 C41.1077,61.4754 43.8906,61.4754 45.6076,63.1924 C47.3246,64.9077 47.3246,67.6923 45.6076,69.4076" id="Fill-1085" fill="#F3D55B" fill-rule="evenodd"></path>
                    <path d="M71.57,96.6076 C69.8547,98.3246 67.0701,98.3246 65.3548,96.6076 C63.6378,94.8923 63.6378,92.1077 65.3548,90.3924 C67.0701,88.6754 69.8547,88.6754 71.57,90.3924 C73.287,92.1077 73.287,94.8923 71.57,96.6076" id="Fill-1086" fill="#F3D55B" fill-rule="evenodd"></path>
                    <path d="M92.3576,73.6576 C91.1115,74.9054 89.0885,74.9054 87.8424,73.6576 C86.5946,72.4115 86.5946,70.3885 87.8424,69.1424 C89.0885,67.8946 91.1115,67.8946 92.3576,69.1424 C93.6054,70.3885 93.6054,72.4115 92.3576,73.6576" id="Fill-1087" fill="#F3D55B" fill-rule="evenodd"></path>
                    <path d="M67.1143,47.6612 C65.2035,49.572 62.1044,49.572 60.1936,47.6612 C58.2828,45.7487 58.2828,42.6513 60.1936,40.7405 C62.1044,38.828 65.2035,38.828 67.1143,40.7405 C69.0251,42.6513 69.0251,45.7487 67.1143,47.6612" id="Fill-1088" fill="#F3D55B" fill-rule="evenodd"></path>
                    <path d="M44.2,17 C44.2,17.9384 43.4384,18.7 42.5,18.7 C41.5616,18.7 40.8,17.9384 40.8,17 C40.8,16.0616 41.5616,15.3 42.5,15.3 C43.4384,15.3 44.2,16.0616 44.2,17" id="Fill-1089" fill="#F3D55B" fill-rule="evenodd"></path>
                    <path d="M11.9,10.2 C11.9,11.1384 11.1384,11.9 10.2,11.9 C9.2616,11.9 8.5,11.1384 8.5,10.2 C8.5,9.2616 9.2616,8.5 10.2,8.5 C11.1384,8.5 11.9,9.2616 11.9,10.2" id="Fill-1090" fill="#F3D55B" fill-rule="evenodd"></path>
                </g>
            </g>
        </g>
    </g>
</svg>