<?xml version="1.0" encoding="UTF-8"?>
<svg width="182px" height="176px" viewBox="0 0 182 176" version="1.1" xmlns="http://www.w3.org/2000/svg" xmlns:xlink="http://www.w3.org/1999/xlink">
    <!-- Generator: Sketch 45.2 (43514) - http://www.bohemiancoding.com/sketch -->
    <title>341 - Wait for Profile (Flat)</title>
    <desc>Created with Sketch.</desc>
    <defs></defs>
    <g id="Welcome" stroke="none" stroke-width="1" fill="none" fill-rule="evenodd">
        <g id="Desktop-HD-Copy" transform="translate(-167.000000, -1735.000000)" fill-rule="nonzero">
            <g id="Group-7" transform="translate(127.000000, 1491.000000)">
                <g id="Group-6" transform="translate(0.000000, 244.000000)">
                    <g id="341---Wait-for-Profile-(Flat)" transform="translate(40.000000, 0.471778)">
                        <path d="M63.7278571,137.177116 L36.652163,151.419079 C35.066927,152.254317 33.6357636,153.277732 32.3073153,154.400186 C48.0946225,167.229178 68.4732937,174.970811 90.7316507,174.970811 C112.829087,174.970811 133.077653,167.348026 148.813602,154.687402 C147.361896,153.505524 145.786932,152.445795 144.040775,151.603954 L115.054581,137.626097 C111.308904,135.820267 108.943034,132.129373 108.943034,128.091839 L108.943034,117.1248 C109.754483,116.230138 110.68919,115.077972 111.682102,113.724424 C115.633209,108.343247 118.622218,102.423951 120.693638,96.2141379 C124.411924,95.1081903 127.150993,91.7969503 127.150993,87.8617577 L127.150993,76.1552201 C127.150993,73.5801779 125.962922,71.2791467 124.11405,69.6680947 L124.11405,52.7487474 C124.11405,52.7487474 127.71935,26.4106884 90.7316507,26.4106884 C53.7473756,26.4106884 57.3492509,52.7487474 57.3492509,52.7487474 L57.3492509,69.6680947 C55.5038034,71.2791467 54.3157323,73.5801779 54.3157323,76.1552201 L54.3157323,87.8617577 C54.3157323,90.9452056 55.9968357,93.6589038 58.5099313,95.2270384 C61.5434499,107.960292 69.4901729,117.1248 69.4901729,117.1248 L69.4901729,127.821129 C69.4901729,131.720007 67.278375,135.311861 63.7278571,137.177116" id="Fill-653" fill="#EDF0F1"></path>
                        <path d="M92.2826484,0.0132053442 C42.181658,-0.812128669 0.869654312,37.6814497 0.0136953435,85.9899002 C-0.472489351,113.381085 12.1922796,137.999148 32.3484014,154.370474 C33.6665782,153.261225 35.0806224,152.244413 36.652163,151.419079 L63.7278571,137.177116 C67.278375,135.311861 69.4901729,131.720007 69.4901729,127.821129 L69.4901729,117.1248 C69.4901729,117.1248 61.5434499,107.960292 58.5099313,95.2270384 C55.9968357,93.6589038 54.3157323,90.9452056 54.3157323,87.8617577 L54.3157323,76.1552201 C54.3157323,73.5801779 55.5038034,71.2791467 57.3492509,69.6680947 L57.3492509,52.7487474 C57.3492509,52.7487474 53.7473756,26.4106884 90.7316507,26.4106884 C127.71935,26.4106884 124.11405,52.7487474 124.11405,52.7487474 L124.11405,69.6680947 C125.962922,71.2791467 127.150993,73.5801779 127.150993,76.1552201 L127.150993,87.8617577 C127.150993,91.7969503 124.411924,95.1081903 120.693638,96.2141379 C118.622218,102.423951 115.633209,108.343247 111.682102,113.724424 C110.68919,115.077972 109.754483,116.230138 108.943034,117.1248 L108.943034,128.091839 C108.943034,132.129373 111.308904,135.820267 115.054581,137.626097 L144.040775,151.603954 C145.780084,152.442494 147.351625,153.498921 148.799907,154.677498 C168.35001,138.953234 180.980541,115.451023 181.449606,88.9809106 C182.308989,40.6724602 142.387063,0.838539357 92.2826484,0.0132053442" id="Fill-654" fill="#556080"></path>
                    </g>
                </g>
            </g>
        </g>
    </g>
</svg>