<?xml version="1.0" encoding="UTF-8"?>
<svg width="110px" height="105px" viewBox="0 0 110 105" version="1.1" xmlns="http://www.w3.org/2000/svg" xmlns:xlink="http://www.w3.org/1999/xlink">
    <!-- Generator: Sketch 45.2 (43514) - http://www.bohemiancoding.com/sketch -->
    <title>28 - Gagarin (Flat)</title>
    <desc>Created with Sketch.</desc>
    <defs></defs>
    <g id="Welcome" stroke="none" stroke-width="1" fill="none" fill-rule="evenodd">
        <g id="Desktop-HD-Copy" transform="translate(-669.000000, -1491.000000)">
            <g id="Group-7" transform="translate(127.000000, 1491.000000)">
                <g id="Gagarin" transform="translate(542.000000, 0.730558)">
                    <path d="M81.7672881,12.0435714 C81.4466102,12.6044286 80.8649153,13 80.1694915,13 C75.029322,13 70.8474576,17.1655714 70.8474576,22.2857143 C70.8474576,23.3108571 70.0122034,24.1428571 68.9830508,24.1428571 C67.9538983,24.1428571 67.1186441,23.3108571 67.1186441,22.2857143 C67.1186441,15.7337143 72.0145763,10.3127143 78.3516949,9.42685714 C71.9157627,4.992 64.2213559,2.262 55.9322034,1.90542857 L55.9322034,10.8197143 C55.9322034,11.8448571 55.0969492,12.6768571 54.0677966,12.6768571 C53.0386441,12.6768571 52.2033898,11.8448571 52.2033898,10.8197143 L52.2033898,1.90542857 C43.9142373,2.262 36.2198305,4.992 29.7838983,9.42685714 C36.1210169,10.3127143 41.0169492,15.7337143 41.0169492,22.2857143 C41.0169492,23.3108571 40.1816949,24.1428571 39.1525424,24.1428571 C38.1233898,24.1428571 37.2881356,23.3108571 37.2881356,22.2857143 C37.2881356,17.1655714 33.1062712,13 27.9661017,13 C27.270678,13 26.6889831,12.6044286 26.3683051,12.0435714 C17.0984746,19.8937143 11.1864407,31.5751429 11.1864407,44.5714286 L11.1864407,76.024 C21.6159322,86.3051429 37.3701695,92.8571429 55,92.8571429 C71.61,92.8571429 86.5532203,87.0405714 96.9491525,77.7678571 L96.9491525,44.5714286 C96.9491525,31.5751429 91.0371186,19.8937143 81.7672881,12.0435714" id="Fill-99" fill="#D1D4D1" fill-rule="evenodd"></path>
                    <path d="M67.1186441,22.2857143 C67.1186441,23.3108571 67.9538983,24.1428571 68.9830508,24.1428571 C70.0122034,24.1428571 70.8474576,23.3108571 70.8474576,22.2857143 C70.8474576,17.1655714 75.029322,13 80.1694915,13 C80.8649153,13 81.4466102,12.6044286 81.7672881,12.0435714 C80.6728814,11.1168571 79.5337288,10.2421429 78.3516949,9.42685714 C72.0145763,10.3127143 67.1186441,15.7337143 67.1186441,22.2857143" id="Fill-100" fill="#ECF0F1" fill-rule="evenodd"></path>
                    <path d="M27.9661017,13 C33.1062712,13 37.2881356,17.1655714 37.2881356,22.2857143 C37.2881356,23.3108571 38.1233898,24.1428571 39.1525424,24.1428571 C40.1816949,24.1428571 41.0169492,23.3108571 41.0169492,22.2857143 C41.0169492,15.7337143 36.1210169,10.3127143 29.7838983,9.42685714 C28.6,10.2421429 27.4627119,11.1168571 26.3683051,12.0435714 C26.6889831,12.6044286 27.270678,13 27.9661017,13" id="Fill-101" fill="#ECF0F1" fill-rule="evenodd"></path>
                    <path d="M54.0677966,12.6768571 C55.0969492,12.6768571 55.9322034,11.8448571 55.9322034,10.8197143 L55.9322034,1.90542857 C55.3132203,1.87757143 54.6923729,1.85714286 54.0677966,1.85714286 C53.4432203,1.85714286 52.8223729,1.87757143 52.2033898,1.90542857 L52.2033898,10.8197143 C52.2033898,11.8448571 53.0386441,12.6768571 54.0677966,12.6768571" id="Fill-102" fill="#ECF0F1" fill-rule="evenodd"></path>
                    <path d="M55,92.8571429 C39.4918644,92.8571429 25.4398305,87.7852857 15.1818644,79.5655714 L15.1818644,91.8747143 C24.4461017,101.006286 38.4384746,104 54.0957627,104 C68.8488136,104 82.1215254,101.66 91.3559322,93.4235714 L91.3559322,82.108 C81.4988136,88.8141429 68.8320339,92.8571429 55,92.8571429" id="Fill-103" fill="#E6E7E8" fill-rule="evenodd"></path>
                    <path d="M6.82,40.911 C4.98728814,41.2174286 3.72881356,42.9445714 3.72881356,44.798 L3.72881356,49.4204286 C3.72881356,49.8197143 3.40440678,50.1428571 3.00169492,50.1428571 C1.34423729,50.1428571 0,51.4818571 0,53.1328571 L0,59.0181429 C0,60.2698571 1.01983051,61.2857143 2.27644068,61.2857143 L3.00169492,61.2857143 C3.40440678,61.2857143 3.72881356,61.6088571 3.72881356,62.01 L3.72881356,66.6305714 C3.72881356,68.484 4.98728814,70.2111429 6.82,70.5175714 C9.14864407,70.9075714 11.1864407,69.108 11.1864407,66.8571429 L11.1864407,44.5714286 C11.1864407,42.3205714 9.14864407,40.521 6.82,40.911" id="Fill-104" fill="#ECF0F1" fill-rule="evenodd"></path>
                    <path d="M5.59322034,57.5714286 C5.10847458,57.5714286 4.62372881,57.3671429 4.26949153,57.0328571 C3.93389831,56.68 3.72881356,56.1971429 3.72881356,55.7142857 C3.72881356,55.2314286 3.93389831,54.7485714 4.26949153,54.3957143 C4.9779661,53.7085714 6.22711864,53.7085714 6.91694915,54.3957143 C7.25254237,54.7485714 7.45762712,55.2314286 7.45762712,55.7142857 C7.45762712,56.1971429 7.25254237,56.68 6.91694915,57.0328571 C6.56271186,57.3671429 6.0779661,57.5714286 5.59322034,57.5714286" id="Fill-105" fill="#A5A5A4" fill-rule="evenodd"></path>
                    <path d="M101.315593,70.5175714 C103.148305,70.2111429 104.40678,68.484 104.40678,66.6324286 L104.40678,62.7101429 C104.40678,61.9227143 105.046271,61.2857143 105.83678,61.2857143 L105.859153,61.2857143 C107.115763,61.2857143 108.135593,60.2698571 108.135593,59.0181429 L108.135593,52.4104286 C108.135593,51.1587143 107.115763,50.1428571 105.859153,50.1428571 L105.83678,50.1428571 C105.046271,50.1428571 104.40678,49.5058571 104.40678,48.7184286 L104.40678,44.798 C104.40678,42.9445714 103.148305,41.2174286 101.315593,40.911 C98.9869492,40.521 96.9491525,42.3205714 96.9491525,44.5714286 L96.9491525,66.8571429 C96.9491525,69.108 98.9869492,70.9075714 101.315593,70.5175714" id="Fill-106" fill="#ECF0F1" fill-rule="evenodd"></path>
                    <path d="M102.542373,57.5714286 C102.057627,57.5714286 101.572881,57.3671429 101.218644,57.0328571 C100.883051,56.68 100.677966,56.2157143 100.677966,55.7142857 C100.677966,55.2128571 100.883051,54.7485714 101.218644,54.3957143 C101.908475,53.7085714 103.176271,53.7085714 103.866102,54.3957143 C104.201695,54.7485714 104.40678,55.2314286 104.40678,55.7142857 C104.40678,56.1971429 104.201695,56.68 103.866102,57.0328571 C103.511864,57.3671429 103.027119,57.5714286 102.542373,57.5714286" id="Fill-107" fill="#A5A5A4" fill-rule="evenodd"></path>
                    <path d="M108.135593,9.28571429 L105.178644,9.28571429 L100.677966,4.80257143 L100.677966,1.85714286 C100.677966,0.832 99.8427119,0 98.8135593,0 C97.7844068,0 96.9491525,0.832 96.9491525,1.85714286 L96.9491525,4.80257143 L92.4484746,9.28571429 L89.4915254,9.28571429 C88.4623729,9.28571429 87.6271186,10.1177143 87.6271186,11.1428571 C87.6271186,12.168 88.4623729,13 89.4915254,13 L92.4484746,13 L96.9491525,17.4831429 L96.9491525,20.4285714 C96.9491525,21.4537143 97.7844068,22.2857143 98.8135593,22.2857143 C99.8427119,22.2857143 100.677966,21.4537143 100.677966,20.4285714 L100.677966,17.4831429 L105.178644,13 L108.135593,13 C109.164746,13 110,12.168 110,11.1428571 C110,10.1177143 109.164746,9.28571429 108.135593,9.28571429" id="Fill-108" fill="#F3D55B" fill-rule="evenodd"></path>
                    <path d="M54.0677966,14.8571429 C30.4830508,14.8571429 11.1864407,31.4228571 11.1864407,48.9895714 L11.1864407,72.5047143 C21.6159322,80.1932857 37.3701695,87.2857143 55,87.2857143 C71.61,87.2857143 86.5532203,80.7411429 96.9491525,73.8102857 L96.9491525,48.9895714 C96.9491525,31.4228571 77.6525424,14.8571429 54.0677966,14.8571429" id="Fill-109" fill="#ECF0F1" fill-rule="evenodd"></path>
                    <path d="M15.1818644,79.5655714 L15.1818644,84.4461429 C24.4461017,93.5777143 38.4384746,96.5714286 54.0957627,96.5714286 C68.8488136,96.5714286 82.1215254,94.2314286 91.3559322,85.995 L91.3559322,82.108 C81.4988136,88.8141429 68.8320339,92.8571429 55,92.8571429 C39.4918644,92.8571429 25.4398305,87.7852857 15.1818644,79.5655714" id="Fill-110" fill="#FFFFFF" fill-rule="evenodd"></path>
                    <path d="M54.0677966,22.2857143 C30.4830508,22.2857143 11.1864407,36.3034286 11.1864407,51.1661429 L11.1864407,71.0654286 C21.6159322,77.5691429 37.3701695,83.5714286 55,83.5714286 C71.61,83.5714286 86.5532203,78.0352857 96.9491525,72.1685714 L96.9491525,51.1661429 C96.9491525,36.3034286 77.6525424,22.2857143 54.0677966,22.2857143" id="Fill-346" fill="#38454F" fill-rule="evenodd"></path>
                    <path d="M85.7627119,63.1428571 L83.8983051,63.1428571 L83.8983051,48.2857143 L85.7627119,48.2857143 C89.8811864,48.2857143 93.220339,51.6118571 93.220339,55.7142857 C93.220339,59.8167143 89.8811864,63.1428571 85.7627119,63.1428571" id="Fill-347" fill="#FAC176" fill-rule="evenodd"></path>
                    <path d="M22.3728814,63.1428571 L24.2372881,63.1428571 L24.2372881,48.2857143 L22.3728814,48.2857143 C18.2544068,48.2857143 14.9152542,51.6118571 14.9152542,55.7142857 C14.9152542,59.8167143 18.2544068,63.1428571 22.3728814,63.1428571" id="Fill-348" fill="#FAC176" fill-rule="evenodd"></path>
                    <path d="M69.9208475,29.1552857 C71.839322,28.2731429 74.1064407,28.964 75.2474576,30.7338571 L84.1779661,44.5714286 C85.8633898,40.001 85.8615254,35.5921429 85.0150847,31.6308571 C77.1938983,26.0018571 66.2032203,22.2857143 54.0677966,22.2857143 C41.6228814,22.2857143 30.3767797,26.1894286 22.5238983,32.0598571 C22.1062712,35.9914286 22.4940678,40.3148571 24.5169492,44.5714286 L35.1645763,30.5797143 C36.4081356,28.9454286 38.6211864,28.3121429 40.4986441,29.1552857 C43.78,30.628 48.5435593,31.5714286 55.279661,31.5714286 C62.0138983,31.5714286 66.7177966,30.628 69.9208475,29.1552857" id="Fill-349" fill="#AF8066" fill-rule="evenodd"></path>
                    <path d="M75.5550847,80.8395714 L76.440678,80.522 C82.8579661,77.5821429 83.8983051,71.1898571 83.8983051,64.1531429 L83.8983051,44.798 L83.8088136,44.0012857 L75.2474576,30.7338571 C74.1064407,28.964 71.839322,28.2731429 69.9208475,29.1552857 C66.7177966,30.628 62.0138983,31.5714286 55.279661,31.5714286 C48.5435593,31.5714286 43.78,30.628 40.4986441,29.1552857 C38.6211864,28.3121429 36.4081356,28.9454286 35.1645763,30.5797143 L24.5169492,44.5714286 C24.4405085,44.4135714 24.3957627,44.2538571 24.3249153,44.0941429 L24.2372881,44.798 L24.2372881,63.3768571 C24.2372881,70.2018571 25.5666102,76.44 31.6949153,79.4931429 L36.2477966,81.3521429 C42.1188136,82.7357143 48.4279661,83.5714286 55,83.5714286 C62.2488136,83.5714286 69.180678,82.5165714 75.5550847,80.8395714" id="Fill-1057" fill="#FDD7AD" fill-rule="evenodd"></path>
                    <path d="M61.5254237,57.5714286 C61.5254237,56.5462857 62.360678,55.7142857 63.3898305,55.7142857 C64.4189831,55.7142857 65.2542373,56.5462857 65.2542373,57.5714286 C65.2542373,58.5965714 64.4189831,59.4285714 63.3898305,59.4285714 C62.360678,59.4285714 61.5254237,58.5965714 61.5254237,57.5714286" id="Fill-1058" fill="#F5EFCA" fill-rule="evenodd"></path>
                    <path d="M46.6101695,59.4285714 C46.6101695,58.4034286 47.4454237,57.5714286 48.4745763,57.5714286 C49.5037288,57.5714286 50.3389831,58.4034286 50.3389831,59.4285714 C50.3389831,60.4537143 49.5037288,61.2857143 48.4745763,61.2857143 C47.4454237,61.2857143 46.6101695,60.4537143 46.6101695,59.4285714" id="Fill-1059" fill="#F5EFCA" fill-rule="evenodd"></path>
                    <path d="M42.8813559,63.1428571 C42.8813559,62.1177143 43.7166102,61.2857143 44.7457627,61.2857143 C45.7749153,61.2857143 46.6101695,62.1177143 46.6101695,63.1428571 C46.6101695,64.168 45.7749153,65 44.7457627,65 C43.7166102,65 42.8813559,64.168 42.8813559,63.1428571" id="Fill-1060" fill="#F5EFCA" fill-rule="evenodd"></path>
                    <path d="M65.2542373,61.2857143 C65.2542373,60.2605714 66.0894915,59.4285714 67.1186441,59.4285714 C68.1477966,59.4285714 68.9830508,60.2605714 68.9830508,61.2857143 C68.9830508,62.3108571 68.1477966,63.1428571 67.1186441,63.1428571 C66.0894915,63.1428571 65.2542373,62.3108571 65.2542373,61.2857143" id="Fill-1061" fill="#F5EFCA" fill-rule="evenodd"></path>
                    <path d="M54.0677966,52 L54.0677966,57.5714286 M54.0677966,57.5714286 L54.3549153,57.5714286 C60.0581356,57.5714286 60.8225424,66.1402857 55.1547458,66.794 C54.7986441,66.8367143 54.4350847,66.8571429 54.0677966,66.8571429" id="Stroke-1062" stroke="#FAC176" stroke-width="2" stroke-linecap="round"></path>
                    <path d="M41.0169492,49.2142857 C41.0169492,50.752 39.7640678,52 38.220339,52 C36.6766102,52 35.4237288,50.752 35.4237288,49.2142857 C35.4237288,47.6765714 36.6766102,46.4285714 38.220339,46.4285714 C39.7640678,46.4285714 41.0169492,47.6765714 41.0169492,49.2142857" id="Fill-1063" fill="#59474E" fill-rule="evenodd"></path>
                    <path d="M72.7118644,49.2142857 C72.7118644,50.752 71.4589831,52 69.9152542,52 C68.3715254,52 67.1186441,50.752 67.1186441,49.2142857 C67.1186441,47.6765714 68.3715254,46.4285714 69.9152542,46.4285714 C71.4589831,46.4285714 72.7118644,47.6765714 72.7118644,49.2142857" id="Fill-1064" fill="#59474E" fill-rule="evenodd"></path>
                    <path d="M85.7627119,53.8571429 L85.7627119,57.5714286 M22.3728814,53.8571429 L22.3728814,57.5714286" id="Stroke-1065" stroke="#F5EFCA" stroke-width="2" stroke-linecap="round"></path>
                    <path d="M52.2033898,78 L55.9322034,78" id="Stroke-1066" stroke="#FAC176" stroke-width="2" stroke-linecap="round"></path>
                    <path d="M48.4745763,72.4285714 L59.6610169,72.4285714" id="Stroke-1067" stroke="#F0785A" stroke-width="2" stroke-linecap="round"></path>
                    <path d="M35.4237288,37.1428571 L46.6101695,37.1428571 M61.5254237,37.1428571 L72.7118644,37.1428571" id="Stroke-1068" stroke="#FAC176" stroke-width="2" stroke-linecap="round"></path>
                </g>
            </g>
        </g>
    </g>
</svg>