<?xml version="1.0" encoding="UTF-8"?>
<svg width="1032px" height="1341px" viewBox="0 0 1032 1341" version="1.1" xmlns="http://www.w3.org/2000/svg" xmlns:xlink="http://www.w3.org/1999/xlink">
    <!-- Generator: Sketch 45.2 (43514) - http://www.bohemiancoding.com/sketch -->
    <title>Timeline</title>
    <desc>Created with Sketch.</desc>
    <defs></defs>
    <g id="Welcome" stroke="none" stroke-width="1" fill="none" fill-rule="evenodd">
        <g id="Desktop-HD" transform="translate(-269.000000, -2911.000000)">
            <g id="Timeline---Section" transform="translate(268.000000, 2649.000000)">
                <g id="Timeline" transform="translate(0.000000, 254.000000)">
                    <polyline id="Line" stroke="#FBD490" stroke-width="3" stroke-linecap="square" stroke-dasharray="1,1" transform="translate(157.093838, 667.155059) scale(-1, 1) translate(-157.093838, -667.155059) " points="156.593838 30.3101174 156.593838 560.040933 156.593838 1304"></polyline>
                    <g id="10---Timeline" transform="translate(0.000000, 1291.000000)">
                        <text id="AFTER-SHOW-PARTY" font-family="TWSSavory-Medium, TWS Savory" font-size="30" font-weight="400" fill="#2D6783">
                            <tspan x="217" y="35.8101174">AFTER SHOW PARTY</tspan>
                        </text>
                        <text id="21:30" font-family="TWSSavory-Medium, TWS Savory" font-size="40" font-weight="400" fill="#2D6783">
                            <tspan x="0" y="38.8101174">21:30</tspan>
                        </text>
                        <g id="New-Moon" transform="translate(136.000000, 1.000000)">
                            <path d="M19,54 C19,54.552 18.552,55 18,55 C17.448,55 17,54.552 17,54 C17,53.448 17.448,53 18,53 C18.552,53 19,53.448 19,54" id="Fill-558" fill="#95A5A5" fill-rule="evenodd"></path>
                            <path d="M27,54 C27,54.552 26.552,55 26,55 C25.448,55 25,54.552 25,54 C25,53.448 25.448,53 26,53 C26.552,53 27,53.448 27,54" id="Fill-559" fill="#95A5A5" fill-rule="evenodd"></path>
                            <path d="M35,54 C35,54.552 34.552,55 34,55 C33.448,55 33,54.552 33,54 C33,53.448 33.448,53 34,53 C34.552,53 35,53.448 35,54" id="Fill-560" fill="#95A5A5" fill-rule="evenodd"></path>
                            <path d="M50,35 C34.536,35 22,22.464 22,7 C22,5.13 22.187,3.304 22.537,1.537 C9.689,4.078 0,15.406 0,29 C0,44.464 12.536,57 28,57 C41.594,57 52.922,47.311 55.463,34.463 C53.696,34.813 51.87,35 50,35" id="Fill-561" fill="#BDC3C7" fill-rule="evenodd"></path>
                            <path d="M32.052,21.055 C34.055,21.365 35.635,22.945 35.945,24.948 C35.956,25.017 36.044,25.017 36.055,24.948 C36.365,22.945 37.945,21.365 39.948,21.055 C40.017,21.044 40.017,20.956 39.948,20.945 C37.945,20.635 36.365,19.055 36.055,17.052 C36.044,16.983 35.956,16.983 35.945,17.052 C35.635,19.055 34.055,20.635 32.052,20.945 C31.983,20.956 31.983,21.044 32.052,21.055 L32.052,21.055 Z" id="Fill-640" fill="#FBD490" fill-rule="evenodd"></path>
                            <path d="M32.052,21.055 C34.055,21.365 35.635,22.945 35.945,24.948 C35.956,25.017 36.044,25.017 36.055,24.948 C36.365,22.945 37.945,21.365 39.948,21.055 C40.017,21.044 40.017,20.956 39.948,20.945 C37.945,20.635 36.365,19.055 36.055,17.052 C36.044,16.983 35.956,16.983 35.945,17.052 C35.635,19.055 34.055,20.635 32.052,20.945 C31.983,20.956 31.983,21.044 32.052,21.055 L32.052,21.055 Z" id="Stroke-641" stroke="#F0C419" stroke-width="2"></path>
                            <path d="M45.078,6.083 C48.082,6.547 50.453,8.918 50.917,11.922 C50.933,12.026 51.067,12.026 51.083,11.922 C51.547,8.918 53.918,6.547 56.922,6.083 C57.026,6.067 57.026,5.933 56.922,5.917 C53.918,5.452 51.547,3.082 51.083,0.078 C51.067,-0.026 50.933,-0.026 50.917,0.078 C50.453,3.082 48.082,5.452 45.078,5.917 C44.974,5.933 44.974,6.067 45.078,6.083 L45.078,6.083 Z" id="Fill-642" fill="#FBD490" fill-rule="evenodd"></path>
                            <path d="M45.078,6.083 C48.082,6.547 50.453,8.918 50.917,11.922 C50.933,12.026 51.067,12.026 51.083,11.922 C51.547,8.918 53.918,6.547 56.922,6.083 C57.026,6.067 57.026,5.933 56.922,5.917 C53.918,5.452 51.547,3.082 51.083,0.078 C51.067,-0.026 50.933,-0.026 50.917,0.078 C50.453,3.082 48.082,5.452 45.078,5.917 C44.974,5.933 44.974,6.067 45.078,6.083 L45.078,6.083 Z" id="Stroke-643" stroke="#F0C419" stroke-width="2"></path>
                            <path d="M15,10 C15,10.552 14.552,11 14,11 C13.448,11 13,10.552 13,10 C13,9.448 13.448,9 14,9 C14.552,9 15,9.448 15,10" id="Fill-768" fill="#95A5A5" fill-rule="evenodd"></path>
                            <path d="M11,14 C11,14.552 10.552,15 10,15 C9.448,15 9,14.552 9,14 C9,13.448 9.448,13 10,13 C10.552,13 11,13.448 11,14" id="Fill-769" fill="#95A5A5" fill-rule="evenodd"></path>
                            <path d="M7,18 C7,18.552 6.552,19 6,19 C5.448,19 5,18.552 5,18 C5,17.448 5.448,17 6,17 C6.552,17 7,17.448 7,18" id="Fill-770" fill="#95A5A5" fill-rule="evenodd"></path>
                            <path d="M15,18 C15,18.552 14.552,19 14,19 C13.448,19 13,18.552 13,18 C13,17.448 13.448,17 14,17 C14.552,17 15,17.448 15,18" id="Fill-771" fill="#95A5A5" fill-rule="evenodd"></path>
                            <path d="M3,22 C3,22.552 2.552,23 2,23 C1.448,23 1,22.552 1,22 C1,21.448 1.448,21 2,21 C2.552,21 3,21.448 3,22" id="Fill-772" fill="#95A5A5" fill-rule="evenodd"></path>
                            <path d="M11,22 C11,22.552 10.552,23 10,23 C9.448,23 9,22.552 9,22 C9,21.448 9.448,21 10,21 C10.552,21 11,21.448 11,22" id="Fill-773" fill="#95A5A5" fill-rule="evenodd"></path>
                            <path d="M7,26 C7,26.552 6.552,27 6,27 C5.448,27 5,26.552 5,26 C5,25.448 5.448,25 6,25 C6.552,25 7,25.448 7,26" id="Fill-774" fill="#95A5A5" fill-rule="evenodd"></path>
                            <path d="M15,26 C15,26.552 14.552,27 14,27 C13.448,27 13,26.552 13,26 C13,25.448 13.448,25 14,25 C14.552,25 15,25.448 15,26" id="Fill-775" fill="#95A5A5" fill-rule="evenodd"></path>
                            <path d="M3,30 C3,30.552 2.552,31 2,31 C1.448,31 1,30.552 1,30 C1,29.448 1.448,29 2,29 C2.552,29 3,29.448 3,30" id="Fill-776" fill="#95A5A5" fill-rule="evenodd"></path>
                            <path d="M11,30 C11,30.552 10.552,31 10,31 C9.448,31 9,30.552 9,30 C9,29.448 9.448,29 10,29 C10.552,29 11,29.448 11,30" id="Fill-777" fill="#95A5A5" fill-rule="evenodd"></path>
                            <path d="M7,34 C7,34.552 6.552,35 6,35 C5.448,35 5,34.552 5,34 C5,33.448 5.448,33 6,33 C6.552,33 7,33.448 7,34" id="Fill-778" fill="#95A5A5" fill-rule="evenodd"></path>
                            <path d="M15,34 C15,34.552 14.552,35 14,35 C13.448,35 13,34.552 13,34 C13,33.448 13.448,33 14,33 C14.552,33 15,33.448 15,34" id="Fill-779" fill="#95A5A5" fill-rule="evenodd"></path>
                            <path d="M11,38 C11,38.552 10.552,39 10,39 C9.448,39 9,38.552 9,38 C9,37.448 9.448,37 10,37 C10.552,37 11,37.448 11,38" id="Fill-780" fill="#95A5A5" fill-rule="evenodd"></path>
                            <path d="M7,42 C7,42.552 6.552,43 6,43 C5.448,43 5,42.552 5,42 C5,41.448 5.448,41 6,41 C6.552,41 7,41.448 7,42" id="Fill-781" fill="#95A5A5" fill-rule="evenodd"></path>
                            <path d="M15,42 C15,42.552 14.552,43 14,43 C13.448,43 13,42.552 13,42 C13,41.448 13.448,41 14,41 C14.552,41 15,41.448 15,42" id="Fill-782" fill="#95A5A5" fill-rule="evenodd"></path>
                            <path d="M11,46 C11,46.552 10.552,47 10,47 C9.448,47 9,46.552 9,46 C9,45.448 9.448,45 10,45 C10.552,45 11,45.448 11,46" id="Fill-783" fill="#95A5A5" fill-rule="evenodd"></path>
                            <path d="M15,50 C15,50.552 14.552,51 14,51 C13.448,51 13,50.552 13,50 C13,49.448 13.448,49 14,49 C14.552,49 15,49.448 15,50" id="Fill-784" fill="#95A5A5" fill-rule="evenodd"></path>
                            <path d="M19,14 C19,14.552 18.552,15 18,15 C17.448,15 17,14.552 17,14 C17,13.448 17.448,13 18,13 C18.552,13 19,13.448 19,14" id="Fill-785" fill="#95A5A5" fill-rule="evenodd"></path>
                            <path d="M19,6 C19,6.552 18.552,7 18,7 C17.448,7 17,6.552 17,6 C17,5.448 17.448,5 18,5 C18.552,5 19,5.448 19,6" id="Fill-786" fill="#95A5A5" fill-rule="evenodd"></path>
                            <path d="M23,18 C23,18.552 22.552,19 22,19 C21.448,19 21,18.552 21,18 C21,17.448 21.448,17 22,17 C22.552,17 23,17.448 23,18" id="Fill-787" fill="#95A5A5" fill-rule="evenodd"></path>
                            <path d="M19,22 C19,22.552 18.552,23 18,23 C17.448,23 17,22.552 17,22 C17,21.448 17.448,21 18,21 C18.552,21 19,21.448 19,22" id="Fill-788" fill="#95A5A5" fill-rule="evenodd"></path>
                            <path d="M23,26 C23,26.552 22.552,27 22,27 C21.448,27 21,26.552 21,26 C21,25.448 21.448,25 22,25 C22.552,25 23,25.448 23,26" id="Fill-789" fill="#95A5A5" fill-rule="evenodd"></path>
                            <path d="M19,30 C19,30.552 18.552,31 18,31 C17.448,31 17,30.552 17,30 C17,29.448 17.448,29 18,29 C18.552,29 19,29.448 19,30" id="Fill-790" fill="#95A5A5" fill-rule="evenodd"></path>
                            <path d="M27,30 C27,30.552 26.552,31 26,31 C25.448,31 25,30.552 25,30 C25,29.448 25.448,29 26,29 C26.552,29 27,29.448 27,30" id="Fill-791" fill="#95A5A5" fill-rule="evenodd"></path>
                            <path d="M23,34 C23,34.552 22.552,35 22,35 C21.448,35 21,34.552 21,34 C21,33.448 21.448,33 22,33 C22.552,33 23,33.448 23,34" id="Fill-792" fill="#95A5A5" fill-rule="evenodd"></path>
                            <path d="M31,34 C31,34.552 30.552,35 30,35 C29.448,35 29,34.552 29,34 C29,33.448 29.448,33 30,33 C30.552,33 31,33.448 31,34" id="Fill-793" fill="#95A5A5" fill-rule="evenodd"></path>
                            <path d="M19,38 C19,38.552 18.552,39 18,39 C17.448,39 17,38.552 17,38 C17,37.448 17.448,37 18,37 C18.552,37 19,37.448 19,38" id="Fill-794" fill="#95A5A5" fill-rule="evenodd"></path>
                            <path d="M27,38 C27,38.552 26.552,39 26,39 C25.448,39 25,38.552 25,38 C25,37.448 25.448,37 26,37 C26.552,37 27,37.448 27,38" id="Fill-795" fill="#95A5A5" fill-rule="evenodd"></path>
                            <path d="M23,42 C23,42.552 22.552,43 22,43 C21.448,43 21,42.552 21,42 C21,41.448 21.448,41 22,41 C22.552,41 23,41.448 23,42" id="Fill-796" fill="#95A5A5" fill-rule="evenodd"></path>
                            <path d="M31,42 C31,42.552 30.552,43 30,43 C29.448,43 29,42.552 29,42 C29,41.448 29.448,41 30,41 C30.552,41 31,41.448 31,42" id="Fill-797" fill="#95A5A5" fill-rule="evenodd"></path>
                            <path d="M19,46 C19,46.552 18.552,47 18,47 C17.448,47 17,46.552 17,46 C17,45.448 17.448,45 18,45 C18.552,45 19,45.448 19,46" id="Fill-798" fill="#95A5A5" fill-rule="evenodd"></path>
                            <path d="M27,46 C27,46.552 26.552,47 26,47 C25.448,47 25,46.552 25,46 C25,45.448 25.448,45 26,45 C26.552,45 27,45.448 27,46" id="Fill-799" fill="#95A5A5" fill-rule="evenodd"></path>
                            <path d="M23,50 C23,50.552 22.552,51 22,51 C21.448,51 21,50.552 21,50 C21,49.448 21.448,49 22,49 C22.552,49 23,49.448 23,50" id="Fill-800" fill="#95A5A5" fill-rule="evenodd"></path>
                            <path d="M31,50 C31,50.552 30.552,51 30,51 C29.448,51 29,50.552 29,50 C29,49.448 29.448,49 30,49 C30.552,49 31,49.448 31,50" id="Fill-801" fill="#95A5A5" fill-rule="evenodd"></path>
                            <path d="M39,34 C39,34.552 38.552,35 38,35 C37.448,35 37,34.552 37,34 C37,33.448 37.448,33 38,33 C38.552,33 39,33.448 39,34" id="Fill-802" fill="#95A5A5" fill-rule="evenodd"></path>
                            <path d="M35,38 C35,38.552 34.552,39 34,39 C33.448,39 33,38.552 33,38 C33,37.448 33.448,37 34,37 C34.552,37 35,37.448 35,38" id="Fill-803" fill="#95A5A5" fill-rule="evenodd"></path>
                            <path d="M39,42 C39,42.552 38.552,43 38,43 C37.448,43 37,42.552 37,42 C37,41.448 37.448,41 38,41 C38.552,41 39,41.448 39,42" id="Fill-804" fill="#95A5A5" fill-rule="evenodd"></path>
                            <path d="M35,46 C35,46.552 34.552,47 34,47 C33.448,47 33,46.552 33,46 C33,45.448 33.448,45 34,45 C34.552,45 35,45.448 35,46" id="Fill-805" fill="#95A5A5" fill-rule="evenodd"></path>
                            <path d="M39,50 C39,50.552 38.552,51 38,51 C37.448,51 37,50.552 37,50 C37,49.448 37.448,49 38,49 C38.552,49 39,49.448 39,50" id="Fill-806" fill="#95A5A5" fill-rule="evenodd"></path>
                            <path d="M43,38 C43,38.552 42.552,39 42,39 C41.448,39 41,38.552 41,38 C41,37.448 41.448,37 42,37 C42.552,37 43,37.448 43,38" id="Fill-807" fill="#95A5A5" fill-rule="evenodd"></path>
                            <path d="M47,42 C47,42.552 46.552,43 46,43 C45.448,43 45,42.552 45,42 C45,41.448 45.448,41 46,41 C46.552,41 47,41.448 47,42" id="Fill-808" fill="#95A5A5" fill-rule="evenodd"></path>
                            <path d="M43,46 C43,46.552 42.552,47 42,47 C41.448,47 41,46.552 41,46 C41,45.448 41.448,45 42,45 C42.552,45 43,45.448 43,46" id="Fill-809" fill="#95A5A5" fill-rule="evenodd"></path>
                            <path d="M51,38 C51,38.552 50.552,39 50,39 C49.448,39 49,38.552 49,38 C49,37.448 49.448,37 50,37 C50.552,37 51,37.448 51,38" id="Fill-810" fill="#95A5A5" fill-rule="evenodd"></path>
                        </g>
                    </g>
                    <g id="09---Timeline" transform="translate(0.000000, 1154.672779)">
                        <text id="STARTUP-AWARD-CEREMO" font-family="TWSSavory-Medium, TWS Savory" font-size="30" font-weight="400" fill="#2D6783">
                            <tspan x="216" y="49">STARTUP AWARD CEREMONY</tspan>
                        </text>
                        <text id="Winner-announcement!" font-family="TWSSavory-Light, TWS Savory" font-size="24" font-weight="300" fill="#2D6783">
                            <tspan x="216" y="84">Winner announcement!</tspan>
                        </text>
                        <text id="21:10" font-family="TWSSavory-Medium, TWS Savory" font-size="40" font-weight="400" fill="#2D6783">
                            <tspan x="0" y="52">21:10</tspan>
                        </text>
                        <g id="Moon-Eclipse" transform="translate(119.000000, 0.327221)">
                            <path d="M62.5172414,34.5 C62.5172414,48.6143333 51.0931724,60.0555556 37,60.0555556 C22.9068276,60.0555556 11.4827586,48.6143333 11.4827586,34.5 C11.4827586,20.3856667 22.9068276,8.94444444 37,8.94444444 C51.0931724,8.94444444 62.5172414,20.3856667 62.5172414,34.5" id="Fill-822" fill="#F0C419"></path>
                            <path d="M37,8.94444444 C36.3914138,8.94444444 35.7943103,8.993 35.195931,9.03516667 C29.2287241,14.8401111 25.5172414,22.9565556 25.5172414,31.9444444 C25.5172414,43.7868889 31.9565172,54.1151667 41.514,59.6326111 C53.4496897,57.4948889 62.5172414,47.0682222 62.5172414,34.5 C62.5172414,20.3856667 51.0931724,8.94444444 37,8.94444444" id="Fill-834" fill="#FBD490"></path>
                        </g>
                    </g>
                    <g id="08---Timeline" transform="translate(0.000000, 1036.778174)">
                        <text id="ENTERTAINMENT" font-family="TWSSavory-Medium, TWS Savory" font-size="30" font-weight="400" fill="#2D6783">
                            <tspan x="217" y="45">ENTERTAINMENT</tspan>
                        </text>
                        <text id="A-little-game-to-ent" font-family="TWSSavory-Light, TWS Savory" font-size="24" font-weight="300" fill="#2D6783">
                            <tspan x="217" y="81">A little game to entertain!</tspan>
                        </text>
                        <text id="21:00" font-family="TWSSavory-Medium, TWS Savory" font-size="40" font-weight="400" fill="#2D6783">
                            <tspan x="0" y="48">21:00</tspan>
                        </text>
                        <g id="Moon-Eclipse" transform="translate(121.000000, 0.221826)">
                            <path d="M62.5172414,34.5 C62.5172414,48.6143333 51.0931724,60.0555556 37,60.0555556 C22.9068276,60.0555556 11.4827586,48.6143333 11.4827586,34.5 C11.4827586,20.3856667 22.9068276,8.94444444 37,8.94444444 C51.0931724,8.94444444 62.5172414,20.3856667 62.5172414,34.5" id="Fill-822" fill="#F0C419"></path>
                            <path d="M37,8.94444444 C36.3914138,8.94444444 35.7943103,8.993 35.195931,9.03516667 C29.2287241,14.8401111 25.5172414,22.9565556 25.5172414,31.9444444 C25.5172414,43.7868889 31.9565172,54.1151667 41.514,59.6326111 C53.4496897,57.4948889 62.5172414,47.0682222 62.5172414,34.5 C62.5172414,20.3856667 51.0931724,8.94444444 37,8.94444444" id="Fill-834" fill="#FBD490"></path>
                        </g>
                    </g>
                    <g id="07---Timeline" transform="translate(0.000000, 862.810117)">
                        <text id="STARTUP-PITCHES" font-family="TWSSavory-Medium, TWS Savory" font-size="30" font-weight="400" fill="#2D6783">
                            <tspan x="219" y="44">STARTUP PITCHES</tspan>
                        </text>
                        <text id="The-Burda-Startup-Ni" font-family="TWSSavory-Light, TWS Savory" font-size="24" font-weight="300" fill="#2D6783">
                            <tspan x="219" y="83">The Burda Startup Night is back! 10 hand-picked startups pitching their </tspan>
                            <tspan x="219" y="112">ideas in front of a jury - the winner gets into the Burda Bootcamp </tspan>
                            <tspan x="219" y="141">incubation program for 3 months.</tspan>
                        </text>
                        <text id="20:15" font-family="TWSSavory-Medium, TWS Savory" font-size="40" font-weight="400" fill="#2D6783">
                            <tspan x="0" y="47">20:15</tspan>
                        </text>
                        <g id="Moon-Eclipse" transform="translate(121.000000, 0.189883)">
                            <path d="M62.5172414,34.5 C62.5172414,48.6143333 51.0931724,60.0555556 37,60.0555556 C22.9068276,60.0555556 11.4827586,48.6143333 11.4827586,34.5 C11.4827586,20.3856667 22.9068276,8.94444444 37,8.94444444 C51.0931724,8.94444444 62.5172414,20.3856667 62.5172414,34.5" id="Fill-822" fill="#F0C419"></path>
                            <path d="M37,8.94444444 C36.3914138,8.94444444 35.7943103,8.993 35.195931,9.03516667 C29.2287241,14.8401111 25.5172414,22.9565556 25.5172414,31.9444444 C25.5172414,43.7868889 31.9565172,54.1151667 41.514,59.6326111 C53.4496897,57.4948889 62.5172414,47.0682222 62.5172414,34.5 C62.5172414,20.3856667 51.0931724,8.94444444 37,8.94444444" id="Fill-834" fill="#FBD490"></path>
                        </g>
                    </g>
                    <g id="06---Timeline" transform="translate(0.000000, 757.000000)">
                        <text id="BREAK:-SAY-HELLO-TO" font-family="TWSSavory-Medium, TWS Savory" font-size="30" font-weight="400" fill="#2D6783">
                            <tspan x="219" y="44.8101174">BREAK: SAY HELLO TO YOUR NEIGHBOUR</tspan>
                        </text>
                        <text id="19:30" font-family="TWSSavory-Medium, TWS Savory" font-size="40" font-weight="400" fill="#2D6783">
                            <tspan x="0" y="47.8101174">19:30</tspan>
                        </text>
                        <g id="Moon-Eclipse" transform="translate(122.000000, 0.000000)">
                            <path d="M62.5172414,34.5 C62.5172414,48.6143333 51.0931724,60.0555556 37,60.0555556 C22.9068276,60.0555556 11.4827586,48.6143333 11.4827586,34.5 C11.4827586,20.3856667 22.9068276,8.94444444 37,8.94444444 C51.0931724,8.94444444 62.5172414,20.3856667 62.5172414,34.5" id="Fill-822" fill="#F0C419"></path>
                            <path d="M37,8.94444444 C36.3914138,8.94444444 35.7943103,8.993 35.195931,9.03516667 C29.2287241,14.8401111 25.5172414,22.9565556 25.5172414,31.9444444 C25.5172414,43.7868889 31.9565172,54.1151667 41.514,59.6326111 C53.4496897,57.4948889 62.5172414,47.0682222 62.5172414,34.5 C62.5172414,20.3856667 51.0931724,8.94444444 37,8.94444444" id="Fill-834" fill="#FBD490"></path>
                        </g>
                    </g>
                    <g id="05---Timeline" transform="translate(0.000000, 594.000000)">
                        <text id="MUNICH-CONFERENCE-AL" font-family="TWSSavory-Medium, TWS Savory" font-size="30" font-weight="400" fill="#2D6783">
                            <tspan x="219" y="44.8101174">MUNICH CONFERENCE ALLSTARS</tspan>
                        </text>
                        <text id="Three-heads-of-major" font-family="TWSSavory-Light, TWS Savory" font-size="24" font-weight="300" fill="#2D6783">
                            <tspan x="219" y="82.8101174">Three heads of major startup conferences in Munich about how to </tspan>
                            <tspan x="219" y="111.810117">create and grow a startup ecosystem</tspan>
                        </text>
                        <text id="19:00" font-family="TWSSavory-Medium, TWS Savory" font-size="40" font-weight="400" fill="#2D6783">
                            <tspan x="0" y="47.8101174">19:00</tspan>
                        </text>
                        <g id="Moon-Eclipse" transform="translate(121.000000, 0.000000)">
                            <path d="M62.5172414,34.5 C62.5172414,48.6143333 51.0931724,60.0555556 37,60.0555556 C22.9068276,60.0555556 11.4827586,48.6143333 11.4827586,34.5 C11.4827586,20.3856667 22.9068276,8.94444444 37,8.94444444 C51.0931724,8.94444444 62.5172414,20.3856667 62.5172414,34.5" id="Fill-822" fill="#F0C419"></path>
                            <path d="M37,8.94444444 C36.3914138,8.94444444 35.7943103,8.993 35.195931,9.03516667 C29.2287241,14.8401111 25.5172414,22.9565556 25.5172414,31.9444444 C25.5172414,43.7868889 31.9565172,54.1151667 41.514,59.6326111 C53.4496897,57.4948889 62.5172414,47.0682222 62.5172414,34.5 C62.5172414,20.3856667 51.0931724,8.94444444 37,8.94444444" id="Fill-834" fill="#FBD490"></path>
                        </g>
                    </g>
                    <g id="04---Timeline" transform="translate(0.000000, 435.000000)">
                        <text id="INVESTMENT---WHAT’S" font-family="TWSSavory-Medium, TWS Savory" font-size="30" font-weight="400" fill="#2D6783">
                            <tspan x="219" y="44.8101174">INVESTMENT - WHAT’S NEXT?</tspan>
                        </text>
                        <text id="An-investor-and-a-st" font-family="TWSSavory-Light, TWS Savory" font-size="24" font-weight="300" fill="#2D6783">
                            <tspan x="219" y="82.8101174">An investor and a startup founder talk about the next steps after </tspan>
                            <tspan x="219" y="111.810117">receiving funding</tspan>
                        </text>
                        <text id="18:20" font-family="TWSSavory-Medium, TWS Savory" font-size="40" font-weight="400" fill="#2D6783">
                            <tspan x="0" y="47.8101174">18:20</tspan>
                        </text>
                        <g id="Moon-Eclipse" transform="translate(120.000000, 0.000000)">
                            <path d="M62.5172414,34.5 C62.5172414,48.6143333 51.0931724,60.0555556 37,60.0555556 C22.9068276,60.0555556 11.4827586,48.6143333 11.4827586,34.5 C11.4827586,20.3856667 22.9068276,8.94444444 37,8.94444444 C51.0931724,8.94444444 62.5172414,20.3856667 62.5172414,34.5" id="Fill-822" fill="#F0C419"></path>
                            <path d="M37,8.94444444 C36.3914138,8.94444444 35.7943103,8.993 35.195931,9.03516667 C29.2287241,14.8401111 25.5172414,22.9565556 25.5172414,31.9444444 C25.5172414,43.7868889 31.9565172,54.1151667 41.514,59.6326111 C53.4496897,57.4948889 62.5172414,47.0682222 62.5172414,34.5 C62.5172414,20.3856667 51.0931724,8.94444444 37,8.94444444" id="Fill-834" fill="#FBD490"></path>
                        </g>
                    </g>
                    <g id="03---Timeline" transform="translate(0.000000, 315.000000)">
                        <text id="BREAK:-GET-YOUR-COCK" font-family="TWSSavory-Medium, TWS Savory" font-size="30" font-weight="400" fill="#2D6783">
                            <tspan x="219" y="44.8101174">BREAK: GET YOUR COCKTAIL</tspan>
                        </text>
                        <text id="18:00" font-family="TWSSavory-Medium, TWS Savory" font-size="40" font-weight="400" fill="#2D6783">
                            <tspan x="0" y="47.8101174">18:00</tspan>
                        </text>
                        <g id="Moon-Eclipse" transform="translate(121.000000, 0.000000)">
                            <path d="M62.5172414,34.5 C62.5172414,48.6143333 51.0931724,60.0555556 37,60.0555556 C22.9068276,60.0555556 11.4827586,48.6143333 11.4827586,34.5 C11.4827586,20.3856667 22.9068276,8.94444444 37,8.94444444 C51.0931724,8.94444444 62.5172414,20.3856667 62.5172414,34.5" id="Fill-822" fill="#F0C419"></path>
                            <path d="M37,8.94444444 C36.3914138,8.94444444 35.7943103,8.993 35.195931,9.03516667 C29.2287241,14.8401111 25.5172414,22.9565556 25.5172414,31.9444444 C25.5172414,43.7868889 31.9565172,54.1151667 41.514,59.6326111 C53.4496897,57.4948889 62.5172414,47.0682222 62.5172414,34.5 C62.5172414,20.3856667 51.0931724,8.94444444 37,8.94444444" id="Fill-834" fill="#FBD490"></path>
                        </g>
                    </g>
                    <g id="02---Timeline" transform="translate(0.000000, 149.000000)">
                        <text id="HOW-I-MET-MY-STARTUP" font-family="TWSSavory-Medium, TWS Savory" font-size="30" font-weight="400" fill="#2D6783">
                            <tspan x="219.452148" y="44.8101174">HOW I MET MY STARTUP</tspan>
                        </text>
                        <text id="Well-known-investors" font-family="TWSSavory-Light, TWS Savory" font-size="25" font-weight="300" fill="#2D6783">
                            <tspan x="219" y="89.8101174">Well-known investors &amp; early-stage startups talk on how to meet </tspan>
                            <tspan x="219" y="119.810117">your startup team and relevant investors</tspan>
                        </text>
                        <text id="17:30" font-family="TWSSavory-Medium, TWS Savory" font-size="40" font-weight="400" fill="#2D6783">
                            <tspan x="0" y="47.8101174">17:30</tspan>
                        </text>
                        <g id="Moon-Eclipse" transform="translate(120.000000, 0.000000)">
                            <path d="M62.5172414,34.5 C62.5172414,48.6143333 51.0931724,60.0555556 37,60.0555556 C22.9068276,60.0555556 11.4827586,48.6143333 11.4827586,34.5 C11.4827586,20.3856667 22.9068276,8.94444444 37,8.94444444 C51.0931724,8.94444444 62.5172414,20.3856667 62.5172414,34.5" id="Fill-822" fill="#F0C419"></path>
                            <path d="M37,8.94444444 C36.3914138,8.94444444 35.7943103,8.993 35.195931,9.03516667 C29.2287241,14.8401111 25.5172414,22.9565556 25.5172414,31.9444444 C25.5172414,43.7868889 31.9565172,54.1151667 41.514,59.6326111 C53.4496897,57.4948889 62.5172414,47.0682222 62.5172414,34.5 C62.5172414,20.3856667 51.0931724,8.94444444 37,8.94444444" id="Fill-834" fill="#FBD490"></path>
                        </g>
                    </g>
                    <g id="01---Timeline" transform="translate(3.000000, 0.000000)">
                        <text id="FROM-0-TO-1" font-family="TWSSavory-Medium, TWS Savory" font-size="30" font-weight="400" fill="#2D6783">
                            <tspan x="216" y="44.8101174">FROM 0 TO 1</tspan>
                        </text>
                        <text id="17:00" font-family="TWSSavory-Medium, TWS Savory" font-size="40" font-weight="400" fill="#2D6783">
                            <tspan x="0" y="47.8101174">17:00</tspan>
                        </text>
                        <text id="A-very-special-intro" font-family="TWSSavory-Light, TWS Savory" font-size="25" font-weight="300" fill="#2D6783">
                            <tspan x="216" y="84.8101174">A very special introduction on how to get from zero to one</tspan>
                        </text>
                        <g id="Moon-Eclipse" transform="translate(116.000000, 0.000000)">
                            <path d="M62.5172414,34.5 C62.5172414,48.6143333 51.0931724,60.0555556 37,60.0555556 C22.9068276,60.0555556 11.4827586,48.6143333 11.4827586,34.5 C11.4827586,20.3856667 22.9068276,8.94444444 37,8.94444444 C51.0931724,8.94444444 62.5172414,20.3856667 62.5172414,34.5" id="Fill-822" fill="#F0C419"></path>
                            <path d="M37,8.94444444 C36.3914138,8.94444444 35.7943103,8.993 35.195931,9.03516667 C29.2287241,14.8401111 25.5172414,22.9565556 25.5172414,31.9444444 C25.5172414,43.7868889 31.9565172,54.1151667 41.514,59.6326111 C53.4496897,57.4948889 62.5172414,47.0682222 62.5172414,34.5 C62.5172414,20.3856667 51.0931724,8.94444444 37,8.94444444" id="Fill-834" fill="#FBD490"></path>
                        </g>
                    </g>
                </g>
            </g>
        </g>
    </g>
</svg>