<!-- Generator: Adobe Illustrator 19.2.0, SVG Export Plug-In  -->
<svg version="1.1"
	 xmlns="http://www.w3.org/2000/svg" xmlns:xlink="http://www.w3.org/1999/xlink" xmlns:a="http://ns.adobe.com/AdobeSVGViewerExtensions/3.0/"
	 x="0px" y="0px" width="46.8px" height="62.3px" viewBox="0 0 46.8 62.3" style="enable-background:new 0 0 46.8 62.3;"
	 xml:space="preserve">
<style type="text/css">
	.st0{fill:#BDC3C7;}
	.st1{fill:#E6E6E6;}
	.st2{fill:#556080;}
	.st3{fill:#FFFFFF;stroke:#ECF0F1;stroke-width:2;stroke-linecap:round;stroke-miterlimit:10;}
	.st4{fill:#9777A8;}
	.st5{fill:#F18D46;}
	.st6{fill:#8697CB;}
</style>
<defs>
</defs>
<g>
	<path class="st0" d="M7.8,15C6,11.3,6.9,7.1,9.6,4.5L2.3,6.7c-1.8,0.5-2.7,2.4-2.2,4.2l3.4,10.9c0.8-2.1,2.2-4,4.1-5.5l0.7-0.5l0,0
		C8.1,15.5,8,15.3,7.8,15z"/>
	<path class="st0" d="M17.5,2.1c2.7,0.5,5.2,2.2,6.4,4.8c0.6,1.2,0.9,2.5,1,3.8l0.9,0.1c1.9,0.1,3.6,0.7,5.2,1.5l-3-9.8
		c-0.5-1.8-2.4-2.7-4.2-2.2L17.5,2.1z"/>
</g>
<path class="st1" d="M34.3,36.7l-3.8-12.4c-0.2-0.5-0.7-0.8-1.3-0.7c-0.5,0.2-1.1-0.1-1.3-0.7c-0.2-0.5,0.1-1.1,0.7-1.3
	c1.6-0.5,3.3,0.4,3.8,2l1.8,5.7l5.7-1.8l-2.3-7.5c-1.6-5.3-6.3-9-11.8-9.4l-0.9-0.1c0.1,4.4-3,8.6-7.8,9.2c-3.5,0.5-6.9-1.2-8.7-4.1
	l-0.7,0.5c-4.3,3.4-6.1,9.2-4.5,14.4l2.3,7.5l5.7-1.8l-1.8-5.7c-0.5-1.6,0.4-3.3,2-3.8c0.5-0.2,1.1,0.1,1.3,0.7
	c0.2,0.5-0.1,1.1-0.7,1.3c-0.5,0.2-0.8,0.7-0.7,1.3l3.8,12.4c0.2,0.5-0.1,1.1-0.7,1.3l3,9.9c0.3,0.9-0.2,1.8-1.1,2.1l-2.1,0.6
	c-1.4,0.4-2.4,1.8-2.2,3.2c0.2,1.9,2.1,3.1,3.9,2.6l3.8-1.2l4.8-1.5l1-0.3c1.6-0.5,2.5-2.2,2-3.8l-3.8-12.4c-0.3-1,0.1-2,1-2.5
	c1.1-0.6,2.5,0,2.8,1.2l3.9,12.5c0.5,1.6,2.2,2.5,3.8,2l5.7-1.8l3.7-1.1c1.4-0.4,2.4-1.8,2.2-3.2c-0.2-1.9-2.1-3.1-3.9-2.6l-2.2,0.7
	c-0.9,0.3-1.8-0.2-2.1-1.1l-3-9.9C35,37.5,34.4,37.2,34.3,36.7z"/>
<path class="st1" d="M6.1,40.1c1.3,2.6,4.3,3.9,7.1,3l-1.5-4.8L6.1,40.1z"/>
<path class="st1" d="M36.2,36.1c2.8-0.9,4.5-3.7,4.2-6.5l-5.6,1.7L36.2,36.1z"/>
<path class="st0" d="M15.2,42.6l-3.8-12.4c-0.2-0.5,0.1-1.1,0.7-1.3c0.5-0.2,0.8-0.7,0.7-1.3c-0.2-0.5-0.7-0.8-1.3-0.7
	c-1.6,0.5-2.5,2.2-2,3.8l1.8,5.7l-5.7,1.8l0.3,1c0.1,0.3,0.2,0.6,0.4,0.9l5.6-1.7l1.5,4.8l1-0.3l0.3,1C15,43.6,15.3,43.1,15.2,42.6z
	"/>
<path class="st0" d="M39.8,27.6l-5.7,1.8l-1.8-5.7c-0.5-1.6-2.2-2.5-3.8-2c-0.5,0.2-0.8,0.7-0.7,1.3c0.2,0.5,0.7,0.8,1.3,0.7
	c0.5-0.2,1.1,0.1,1.3,0.7l3.8,12.4c0.2,0.5,0.7,0.8,1.3,0.7l-0.3-1l1-0.3l-1.5-4.8l5.6-1.7c0-0.3-0.1-0.7-0.2-1L39.8,27.6z"/>
<ellipse transform="matrix(0.9555 -0.2949 0.2949 0.9555 -15.5253 9.7734)" class="st2" cx="24.6" cy="56.4" rx="1" ry="1"/>
<ellipse transform="matrix(0.9555 -0.2949 0.2949 0.9555 -15.9136 8.9675)" class="st2" cx="21.8" cy="57.3" rx="1" ry="1"/>
<ellipse transform="matrix(0.9555 -0.2949 0.2949 0.9555 -16.3019 8.1615)" class="st2" cx="18.9" cy="58.1" rx="1" ry="1"/>
<ellipse transform="matrix(0.9555 -0.2949 0.2949 0.9555 -13.4545 14.0717)" class="st2" cx="39.9" cy="51.7" rx="1" ry="1"/>
<ellipse transform="matrix(0.9555 -0.2949 0.2949 0.9555 -13.8427 13.2658)" class="st2" cx="37.1" cy="52.5" rx="1" ry="1"/>
<ellipse transform="matrix(0.9555 -0.2949 0.2949 0.9555 -14.231 12.4598)" class="st2" cx="34.2" cy="53.4" rx="1" ry="1"/>
<path class="st3" d="M23.9,6.9c2.8,5.6-0.7,12.2-6.9,13c-3.7,0.5-7.5-1.5-9.2-4.9C5,9.4,8.5,2.9,14.7,2C18.4,1.5,22.2,3.5,23.9,6.9z
	"/>
<ellipse transform="matrix(0.9555 -0.2949 0.2949 0.9555 -6.2317 8.1093)" class="st4" cx="23.8" cy="24.7" rx="2.5" ry="2.5"/>
<ellipse transform="matrix(0.9555 -0.2949 0.2949 0.9555 -8.4809 6.876)" class="st5" cx="18.6" cy="31.6" rx="2.5" ry="2.5"/>
<path class="st6" d="M24.5,8.3c0.8,2.6-2.4,6-7.1,7.4s-9.3,0.5-10.1-2.1c-1.5-4.8,2.7-5,7.4-6.5S23,3.7,24.5,8.3z"/>
<rect x="21.5" y="7.7" transform="matrix(0.9555 -0.2949 0.2949 0.9555 -1.55 7.1778)" class="st2" width="3" height="2"/>
<rect x="7.2" y="12.2" transform="matrix(0.9555 -0.2949 0.2949 0.9555 -3.4915 3.1481)" class="st2" width="3" height="2"/>
<g>
	<path class="st6" d="M14.8,44.8l2.4,7.6c2.1-0.7,3.3-2.9,2.6-5C19.1,45.3,16.9,44.1,14.8,44.8z"/>
	<path class="st6" d="M33.2,43.3c0.7,2.1,2.9,3.3,5,2.6l-2.4-7.6C33.7,38.9,32.5,41.2,33.2,43.3z"/>
</g>
<g>
	<path class="st6" d="M2.8,29.6l2.1,6.8l1.8-2.4c0.6-0.8,0.4-2-0.5-2.5C5.2,30.9,3.8,30.2,2.8,29.6z"/>
	<path class="st6" d="M37.2,18.9c-0.5,1.1-1.3,2.5-1.8,3.5c-0.4,0.9,0,2,1,2.3l2.8,0.9L37.2,18.9z"/>
</g>
<g>
	<path class="st0" d="M7.8,15C6,11.3,6.9,7.1,9.6,4.5L2.3,6.7c-1.8,0.5-2.7,2.4-2.2,4.2l3.4,10.9c0.8-2.1,2.2-4,4.1-5.5l0.7-0.5l0,0
		C8.1,15.5,8,15.3,7.8,15z"/>
	<path class="st0" d="M17.5,2.1c2.7,0.5,5.2,2.2,6.4,4.8c0.6,1.2,0.9,2.5,1,3.8l0.9,0.1c1.9,0.1,3.6,0.7,5.2,1.5l-3-9.8
		c-0.5-1.8-2.4-2.7-4.2-2.2L17.5,2.1z"/>
</g>
<path class="st1" d="M34.3,36.7l-3.8-12.4c-0.2-0.5-0.7-0.8-1.3-0.7c-0.5,0.2-1.1-0.1-1.3-0.7c-0.2-0.5,0.1-1.1,0.7-1.3
	c1.6-0.5,3.3,0.4,3.8,2l1.8,5.7l5.7-1.8l-2.3-7.5c-1.6-5.3-6.3-9-11.8-9.4l-0.9-0.1c0.1,4.4-3,8.6-7.8,9.2c-3.5,0.5-6.9-1.2-8.7-4.1
	l-0.7,0.5c-4.3,3.4-6.1,9.2-4.5,14.4l2.3,7.5l5.7-1.8l-1.8-5.7c-0.5-1.6,0.4-3.3,2-3.8c0.5-0.2,1.1,0.1,1.3,0.7
	c0.2,0.5-0.1,1.1-0.7,1.3c-0.5,0.2-0.8,0.7-0.7,1.3l3.8,12.4c0.2,0.5-0.1,1.1-0.7,1.3l3,9.9c0.3,0.9-0.2,1.8-1.1,2.1l-2.1,0.6
	c-1.4,0.4-2.4,1.8-2.2,3.2c0.2,1.9,2.1,3.1,3.9,2.6l3.8-1.2l4.8-1.5l1-0.3c1.6-0.5,2.5-2.2,2-3.8l-3.8-12.4c-0.3-1,0.1-2,1-2.5
	c1.1-0.6,2.5,0,2.8,1.2l3.9,12.5c0.5,1.6,2.2,2.5,3.8,2l5.7-1.8l3.7-1.1c1.4-0.4,2.4-1.8,2.2-3.2c-0.2-1.9-2.1-3.1-3.9-2.6l-2.2,0.7
	c-0.9,0.3-1.8-0.2-2.1-1.1l-3-9.9C35,37.5,34.4,37.2,34.3,36.7z"/>
<path class="st1" d="M6.1,40.1c1.3,2.6,4.3,3.9,7.1,3l-1.5-4.8L6.1,40.1z"/>
<path class="st1" d="M36.2,36.1c2.8-0.9,4.5-3.7,4.2-6.5l-5.6,1.7L36.2,36.1z"/>
<path class="st0" d="M15.2,42.6l-3.8-12.4c-0.2-0.5,0.1-1.1,0.7-1.3c0.5-0.2,0.8-0.7,0.7-1.3c-0.2-0.5-0.7-0.8-1.3-0.7
	c-1.6,0.5-2.5,2.2-2,3.8l1.8,5.7l-5.7,1.8l0.3,1c0.1,0.3,0.2,0.6,0.4,0.9l5.6-1.7l1.5,4.8l1-0.3l0.3,1C15,43.6,15.3,43.1,15.2,42.6z
	"/>
<path class="st0" d="M39.8,27.6l-5.7,1.8l-1.8-5.7c-0.5-1.6-2.2-2.5-3.8-2c-0.5,0.2-0.8,0.7-0.7,1.3c0.2,0.5,0.7,0.8,1.3,0.7
	c0.5-0.2,1.1,0.1,1.3,0.7l3.8,12.4c0.2,0.5,0.7,0.8,1.3,0.7l-0.3-1l1-0.3l-1.5-4.8l5.6-1.7c0-0.3-0.1-0.7-0.2-1L39.8,27.6z"/>
<ellipse transform="matrix(0.9555 -0.2949 0.2949 0.9555 -15.5253 9.7734)" class="st2" cx="24.6" cy="56.4" rx="1" ry="1"/>
<ellipse transform="matrix(0.9555 -0.2949 0.2949 0.9555 -15.9136 8.9675)" class="st2" cx="21.8" cy="57.3" rx="1" ry="1"/>
<ellipse transform="matrix(0.9555 -0.2949 0.2949 0.9555 -16.3019 8.1615)" class="st2" cx="18.9" cy="58.1" rx="1" ry="1"/>
<ellipse transform="matrix(0.9555 -0.2949 0.2949 0.9555 -13.4545 14.0717)" class="st2" cx="39.9" cy="51.7" rx="1" ry="1"/>
<ellipse transform="matrix(0.9555 -0.2949 0.2949 0.9555 -13.8427 13.2658)" class="st2" cx="37.1" cy="52.5" rx="1" ry="1"/>
<ellipse transform="matrix(0.9555 -0.2949 0.2949 0.9555 -14.231 12.4598)" class="st2" cx="34.2" cy="53.4" rx="1" ry="1"/>
<path class="st3" d="M23.9,6.9c2.8,5.6-0.7,12.2-6.9,13c-3.7,0.5-7.5-1.5-9.2-4.9C5,9.4,8.5,2.9,14.7,2C18.4,1.5,22.2,3.5,23.9,6.9z
	"/>
<ellipse transform="matrix(0.9555 -0.2949 0.2949 0.9555 -6.2317 8.1093)" class="st4" cx="23.8" cy="24.7" rx="2.5" ry="2.5"/>
<ellipse transform="matrix(0.9555 -0.2949 0.2949 0.9555 -8.4809 6.876)" class="st5" cx="18.6" cy="31.6" rx="2.5" ry="2.5"/>
<path class="st6" d="M24.5,8.3c0.8,2.6-2.4,6-7.1,7.4s-9.3,0.5-10.1-2.1c-1.5-4.8,2.7-5,7.4-6.5S23,3.7,24.5,8.3z"/>
<rect x="21.5" y="7.7" transform="matrix(0.9555 -0.2949 0.2949 0.9555 -1.55 7.1778)" class="st2" width="3" height="2"/>
<rect x="7.2" y="12.2" transform="matrix(0.9555 -0.2949 0.2949 0.9555 -3.4915 3.1481)" class="st2" width="3" height="2"/>
<g>
	<path class="st6" d="M14.8,44.8l2.4,7.6c2.1-0.7,3.3-2.9,2.6-5C19.1,45.3,16.9,44.1,14.8,44.8z"/>
	<path class="st6" d="M33.2,43.3c0.7,2.1,2.9,3.3,5,2.6l-2.4-7.6C33.7,38.9,32.5,41.2,33.2,43.3z"/>
</g>
<g>
	<path class="st6" d="M2.8,29.6l2.1,6.8l1.8-2.4c0.6-0.8,0.4-2-0.5-2.5C5.2,30.9,3.8,30.2,2.8,29.6z"/>
	<path class="st6" d="M37.2,18.9c-0.5,1.1-1.3,2.5-1.8,3.5c-0.4,0.9,0,2,1,2.3l2.8,0.9L37.2,18.9z"/>
</g>
</svg>
