<!-- Generator: Adobe Illustrator 19.2.0, SVG Export Plug-In  -->
<svg version="1.1"
	 xmlns="http://www.w3.org/2000/svg" xmlns:xlink="http://www.w3.org/1999/xlink" xmlns:a="http://ns.adobe.com/AdobeSVGViewerExtensions/3.0/"
	 x="0px" y="0px" width="58px" height="59.3px" viewBox="0 0 58 59.3" style="enable-background:new 0 0 58 59.3;"
	 xml:space="preserve">
<style type="text/css">
	.st0{fill:#D1D4D1;}
	.st1{fill:#BDC3C7;}
	.st2{fill:#38454F;}
	.st3{fill:#F0C419;}
	.st4{fill:#E64C3C;}
	.st5{fill:#88C057;}
	.st6{fill:#556080;}
	.st7{fill:#8F6F4F;}
	.st8{fill:#4F3224;}
</style>
<defs>
</defs>
<g>
	<path class="st0" d="M44.4,50.2c0-0.1,0.2-0.1,0.1-0.2c0-0.1,0.1-0.1,0-0.2c0-0.1,0-0.1-0.1-0.2c0,0-0.1-0.1-0.1-0.1
		c0,0-0.1-0.1-0.1-0.1c-0.1,0-0.1-0.1-0.2-0.1c0,0,0,0-0.1,0l-13-3c-0.5-0.1-1.1,0.2-1.2,0.7c-0.1,0.5,0.2,1.1,0.7,1.2l0.2,0
		c-0.2,0-0.5,0.1-0.6,0.3c-0.4,0.4-0.4,1,0,1.4l3,3c0.2,0.2,0.5,0.3,0.7,0.3s0.5-0.1,0.7-0.3c0.4-0.4,0.4-1,0-1.4l-3-3
		c-0.1-0.1-0.5-0.1-0.6-0.2L42,51.1v1.2c0,0.6,0.4,1,1,1s1-0.4,1-1v-2C44,50.3,44.4,50.2,44.4,50.2z"/>
	<path class="st0" d="M29,42.3c0-0.6-0.4-1-1-1s-1,0.4-1,1v4c0,0.6,0.4,1,1,1s1-0.4,1-1V42.3z"/>
	<path class="st0" d="M26.8,48.3l0.2,0c0.5-0.1,0.9-0.7,0.7-1.2c-0.1-0.5-0.7-0.9-1.2-0.7l-13,3c0,0-0.1,0-0.1,0
		c-0.1,0-0.1,0-0.2,0.1c-0.1,0-0.1,0.1-0.2,0.1c0,0-0.1,0.1-0.1,0.1c0,0.1-0.1,0.1-0.1,0.2c0,0.1,0,0.1-0.1,0.2
		c0,0.1-0.4,0.1-0.4,0.2c0,0-0.4,0.1-0.4,0.1v2c0,0.6,0.4,1,1,1s1-0.4,1-1v-1.2l11.9-2.7c-0.1,0,0,0.1-0.1,0.2l-2.9,3
		c-0.4,0.4-0.3,1,0,1.4c0.2,0.2,0.5,0.3,0.7,0.3s0.5-0.1,0.7-0.3l3-3c0.4-0.4,0.4-1,0-1.4C27.3,48.4,27,48.3,26.8,48.3z"/>
</g>
<rect x="27" y="46" class="st1" width="4" height="4"/>
<circle class="st2" cx="28.6" cy="55.8" r="3.5"/>
<circle class="st2" cx="28.6" cy="55.8" r="3.5"/>
<circle class="st2" cx="28.6" cy="55.8" r="3.5"/>
<circle class="st2" cx="28.6" cy="55.8" r="3.5"/>
<rect x="24" y="19" transform="matrix(-1.836970e-16 1 -1 -1.836970e-16 49 -8)" class="st3" width="9" height="3"/>
<rect x="22.5" y="17.5" transform="matrix(-1.836970e-16 1 -1 -1.836970e-16 47.5 -9.5)" class="st4" width="12" height="3"/>
<rect x="27" y="38" class="st2" width="4" height="4"/>
<path class="st5" d="M20.6,6h16c1.4,0,2.7,1.2,2.9,2.6l3.8,25.9c0.3,1.8-1.1,3.5-2.9,3.5H16.7c-1.9,0-3.3-1.6-2.9-3.4l3.9-26.1
	C17.9,7.1,19.2,6,20.6,6z"/>
<g>
	<polygon class="st0" points="16.7,16 11,16 11,21 15.9,21 	"/>
	<polygon class="st0" points="40.8,16 41.6,21 47,21 47,16 	"/>
</g>
<path class="st6" d="M11,0v16h5.7l1.1-7.4c0.1-0.5,0.3-1.1,0.7-1.5C19,6.5,19.9,6,20.8,6h16c0.9,0,1.7,0.6,2.3,1.2
	c0.3,0.4,0.6,0.8,0.7,1.3l1.1,7.5H47V0H11z"/>
<g>
	<path class="st7" d="M0,33h1v26h3V38.3l-0.1-0.1c0-2.8,2.1-5.1,4.9-5.1h5.3l1.2-8H0V33z"/>
	<path class="st7" d="M42.2,25l1.2,8h5.5c2.8,0,5.2,2.5,5.2,5.3V59h3V38.3V33h1v-8H42.2z"/>
</g>
<path class="st8" d="M32.1,30h-7c-0.6,0-1-0.4-1-1s0.4-1,1-1h7c0.6,0,1,0.4,1,1S32.6,30,32.1,30z"/>
<path class="st8" d="M32.1,30h-7c-0.6,0-1-0.4-1-1s0.4-1,1-1h7c0.6,0,1,0.4,1,1S32.6,30,32.1,30z"/>
</svg>
