<?xml version="1.0" encoding="UTF-8"?>
<svg width="46px" height="38px" viewBox="0 0 46 38" version="1.1" xmlns="http://www.w3.org/2000/svg" xmlns:xlink="http://www.w3.org/1999/xlink">
    <!-- Generator: Sketch 45.2 (43514) - http://www.bohemiancoding.com/sketch -->
    <title>icon_envelope_white</title>
    <desc>Created with Sketch.</desc>
    <defs></defs>
    <g id="Welcome" stroke="none" stroke-width="1" fill="none" fill-rule="evenodd">
        <g id="Desktop-HD" transform="translate(-787.000000, -6366.000000)" fill="#FFFFFF">
            <g id="Group-4" transform="translate(-1.000000, 5871.000000)">
                <g id="icon_envelope_white" transform="translate(788.000000, 495.000000)">
                    <g id="Capa_1">
                        <g id="Group">
                            <path d="M39.8000413,0.0763091822 L5.54367769,0.0763091822 C2.4857438,0.0763091822 0,2.77256695 0,6.08947274 L0,31.4851686 C0,34.8020744 2.4857438,37.4983321 5.54367769,37.4983321 L39.7906612,37.4983321 C42.848595,37.4983321 45.3343388,34.8020744 45.3343388,31.4851686 L45.3343388,6.0996473 C45.343719,2.78274151 42.8579752,0.0763091822 39.8000413,0.0763091822 L39.8000413,0.0763091822 Z M42.8110744,31.4851686 C42.8110744,33.2860653 41.4603306,34.7512016 39.8000413,34.7512016 L5.54367769,34.7512016 C3.88338843,34.7512016 2.53264463,33.2860653 2.53264463,31.4851686 L2.53264463,6.0996473 C2.53264463,4.2987506 3.88338843,2.8336143 5.54367769,2.8336143 L39.7906612,2.8336143 C41.4509504,2.8336143 42.8016942,4.2987506 42.8016942,6.0996473 L42.8016942,31.4851686 L42.8110744,31.4851686 L42.8110744,31.4851686 Z" id="Shape"></path>
                            <path d="M28.5907438,18.4719094 L39.6780992,7.68687829 C40.1940083,7.17815041 40.2409091,6.31331301 39.7719008,5.74353778 C39.3028926,5.18393711 38.5055785,5.13306432 37.9802893,5.6417922 L22.6906198,20.52717 L19.7077273,17.6375956 C19.6983471,17.6274211 19.6889669,17.6172465 19.6889669,17.607072 C19.6233058,17.5358501 19.5576446,17.4748027 19.4826033,17.4137554 L7.34466942,5.63161765 C6.81938017,5.12288977 6.02206612,5.17376255 5.55305785,5.74353778 C5.08404959,6.31331301 5.13095041,7.17815041 5.65623967,7.68687829 L16.8749174,18.5634804 L5.7031405,29.9081121 C5.19661157,30.4270146 5.16847107,31.291852 5.6468595,31.8514527 C5.90012397,32.1363403 6.23780992,32.2889586 6.57549587,32.2889586 C6.88504132,32.2889586 7.19458678,32.1668639 7.43847107,31.9226746 L18.7790909,20.4152499 L21.8557851,23.3963953 C22.0996694,23.6304101 22.3998347,23.7423302 22.7,23.7423302 C23.0001653,23.7423302 23.3097107,23.6202355 23.5442149,23.3862207 L26.7053306,20.3135043 L37.9802893,31.9328491 C38.2241736,32.1872131 38.5430992,32.3093077 38.8526446,32.3093077 C39.1903306,32.3093077 39.5186364,32.1668639 39.7719008,31.8819763 C40.2502893,31.3325502 40.2315289,30.4575383 39.725,29.9386358 L28.5907438,18.4719094 L28.5907438,18.4719094 Z" id="Shape"></path>
                        </g>
                    </g>
                </g>
            </g>
        </g>
    </g>
</svg>