<?xml version="1.0" encoding="UTF-8"?>
<svg width="43px" height="37px" viewBox="0 0 43 37" version="1.1" xmlns="http://www.w3.org/2000/svg" xmlns:xlink="http://www.w3.org/1999/xlink">
    <!-- Generator: Sketch 45.2 (43514) - http://www.bohemiancoding.com/sketch -->
    <title>icon_twitter_white</title>
    <desc>Created with Sketch.</desc>
    <defs></defs>
    <g id="Welcome" stroke="none" stroke-width="1" fill="none" fill-rule="evenodd">
        <g id="Desktop-HD" transform="translate(-697.000000, -6366.000000)" fill="#FFFFFF">
            <g id="Group-4" transform="translate(-1.000000, 5871.000000)">
                <g id="icon_twitter_white" transform="translate(698.000000, 495.000000)">
                    <path d="M42.2449293,4.72777778 C40.7040808,5.42303922 39.4200404,5.42303922 38.007596,4.72777778 C39.8052525,3.61535948 39.8052525,2.78104575 40.4472727,0.55620915 C38.7780202,1.66862745 36.9803636,2.36388889 35.054303,2.78104575 C33.5134545,1.1124183 31.3305859,0 28.8909091,0 C24.1399596,0 20.2878384,4.17156863 20.2878384,9.31650327 C20.2878384,10.0117647 20.4162424,10.7070261 20.5446465,11.4022876 C13.4824242,10.9851307 7.19062626,7.36977124 2.95329293,1.66862745 C2.18286869,3.05915033 1.79765657,4.58872549 1.79765657,6.39640523 C1.79765657,9.59460784 3.33850505,12.3756536 5.64977778,14.044281 C4.23733333,14.044281 2.95329293,13.6271242 1.79765657,12.9318627 L1.79765657,13.070915 C1.79765657,17.5205882 4.75094949,21.275 8.60307071,22.1093137 C7.3190303,22.5264706 6.0349899,22.5264706 4.75094949,22.248366 C5.77818182,25.8637255 8.98828283,28.6447712 12.712,28.6447712 C8.98828283,31.8429739 4.49414141,33.0944444 0,32.5382353 C3.72371717,35.1802288 8.21785859,36.7098039 13.0972121,36.7098039 C28.8909091,36.7098039 37.3655758,22.6655229 37.3655758,10.2898693 L37.3655758,9.03839869 C39.0348283,7.7869281 41.0892929,6.6745098 42.2449293,4.72777778 L42.2449293,4.72777778 Z" id="Shape"></path>
                </g>
            </g>
        </g>
    </g>
</svg>