<!-- Generator: Adobe Illustrator 19.2.0, SVG Export Plug-In  -->
<svg version="1.1"
	 xmlns="http://www.w3.org/2000/svg" xmlns:xlink="http://www.w3.org/1999/xlink" xmlns:a="http://ns.adobe.com/AdobeSVGViewerExtensions/3.0/"
	 x="0px" y="0px" width="57px" height="58px" viewBox="0 0 57 58" style="enable-background:new 0 0 57 58;" xml:space="preserve">
<style type="text/css">
	.st0{fill:#8697CB;}
	.st1{fill:#556080;}
	.st2{fill:none;stroke:#FFFFFF;stroke-width:2;stroke-linecap:round;stroke-linejoin:round;stroke-miterlimit:10;}
</style>
<defs>
</defs>
<path class="st0" d="M25.4,55.6l-4.2-2.7c-1-0.6-2.2-2.5-2.2-3.7V46c0,0,2.9-1.9,3.8-5.8c0.7-0.5,1.2-1.3,1.2-2.2c0,0,0-1.4,0-2.4
	c-3.2,1-6,1.4-6,1.4c2.2-2.2,3-6.7,3.2-9.9c-1.1-1.5-2-3.3-2.5-5.1c-1.4-0.6-3.2-1-5.7-1C2.2,21,3,29,3,29v3.1c-0.5,0.5-1,1.6-1,2.3
	V38c0,0.9,0.5,1.8,1.2,2.2C4.1,44.1,7,46,7,46v3.2c0,1.2-1.2,3.1-2.2,3.7l-4.2,2.7C-0.5,56.3,0,58,1.3,58h23.4
	C26,58,26.5,56.3,25.4,55.6z"/>
<path class="st1" d="M37.5,0C26.7,0,18,7.8,18,17.5c0,3.6,1.2,6.9,3.2,9.6c-0.3,3.2-1,7.7-3.2,9.9c0,0,6.7-0.9,11.2-3.7
	c2.5,1.1,5.3,1.7,8.3,1.7C48.3,35,57,27.1,57,17.5S48.3,0,37.5,0z"/>
<line class="st2" x1="28" y1="12" x2="38" y2="12"/>
<line class="st2" x1="28" y1="18" x2="48" y2="18"/>
<line class="st2" x1="28" y1="24" x2="48" y2="24"/>
</svg>
