<?xml version="1.0" encoding="UTF-8" standalone="no"?>
<svg width="58px" height="58px" viewBox="0 0 58 58" version="1.1" xmlns="http://www.w3.org/2000/svg" xmlns:xlink="http://www.w3.org/1999/xlink">
    <!-- Generator: Sketch 39.1 (31720) - http://www.bohemiancoding.com/sketch -->
    <title>icon_socialfoodia</title>
    <desc>Created with Sketch.</desc>
    <defs></defs>
    <g id="Page-1" stroke="none" stroke-width="1" fill="none" fill-rule="evenodd">
        <g id="Desktop-Landscape" transform="translate(-611.000000, -1748.000000)">
            <g id="Group-12" transform="translate(262.000000, 1719.000000)">
                <g id="icon_socialfoodia" transform="translate(349.000000, 29.000000)">
                    <g id="Group">
                        <rect id="Rectangle-path" fill="#535D73" x="29.6105263" y="30.6026316" width="2.28947368" height="19.8421053"></rect>
                        <rect id="Rectangle-path" fill="#535D73" transform="translate(42.032814, 14.710807) rotate(45.000000) translate(-42.032814, -14.710807) " x="40.9262453" y="3.14907588" width="2.21313667" height="23.1234625"></rect>
                        <rect id="Rectangle-path" fill="#535D73" transform="translate(17.474251, 39.228052) rotate(45.000000) translate(-17.474251, -39.228052) " x="16.3676831" y="23.8124103" width="2.21313667" height="30.8312833"></rect>
                        <rect id="Rectangle-path" fill="#535D73" transform="translate(20.144251, 15.806347) rotate(45.000000) translate(-20.144251, -15.806347) " x="11.6732795" y="14.6997786" width="16.9419428" height="2.21313667"></rect>
                        <rect id="Rectangle-path" fill="#535D73" transform="translate(40.843569, 36.550112) rotate(45.000000) translate(-40.843569, -36.550112) " x="29.2818382" y="35.4435435" width="23.1234625" height="2.21313667"></rect>
                        <ellipse id="Oval" fill="#4FBA6F" cx="52.3526316" cy="5.41842105" rx="5.41842105" ry="5.41842105"></ellipse>
                        <circle id="Oval" fill="#8697CB" cx="30.5263158" cy="52.3526316" r="5.41842105"></circle>
                        <ellipse id="Oval" fill="#65DDB9" cx="5.41842105" cy="50.2157895" rx="5.41842105" ry="5.41842105"></ellipse>
                        <ellipse id="Oval" fill="#E1705C" cx="13.1263158" cy="8.7" rx="3.28157895" ry="3.28157895"></ellipse>
                        <ellipse id="Oval" fill="#F0C419" cx="48.0026316" cy="43.6526316" rx="3.28157895" ry="3.28157895"></ellipse>
                        <circle id="Oval" fill="#5C81B8" cx="30.5263158" cy="26.1763158" r="7.63157895"></circle>
                    </g>
                </g>
            </g>
        </g>
    </g>
</svg>