<!-- Generator: Adobe Illustrator 19.2.0, SVG Export Plug-In  -->
<svg version="1.1"
	 xmlns="http://www.w3.org/2000/svg" xmlns:xlink="http://www.w3.org/1999/xlink" xmlns:a="http://ns.adobe.com/AdobeSVGViewerExtensions/3.0/"
	 x="0px" y="0px" width="81.6px" height="81.7px" viewBox="0 0 81.6 81.7" style="enable-background:new 0 0 81.6 81.7;"
	 xml:space="preserve">
<style type="text/css">
	.st0{fill:#C68630;}
	.st1{fill:#E4A634;}
	.st2{fill:#EEAF4B;}
	.st3{fill:#FAC176;}
	.st4{fill:#F18D46;}
	.st5{fill:#F3D55B;}
	.st6{fill:#F09372;}
	.st7{fill:#F29C1F;}
	.st8{fill:#F0C419;}
</style>
<defs>
</defs>
<g>
	<path class="st0" d="M58.5,40.2c0-0.8,0.6-1.5,1.4-1.5h21.6c-0.2-4-1-8.4-2.5-12.4c-0.2,0.1-0.3,0.4-0.5,0.4H44
		c-0.8,0-1.4-0.7-1.4-1.5c0-0.8,0.6-1.5,1.4-1.5h34c-1-2-2.2-4.5-3.6-6.5c-0.2,0.4-0.7,0.5-1.2,0.5H59.1c-0.8,0-1.4-0.2-1.4-1
		c0-0.8,0.6-1,1.4-1h13.7C65.3,5.7,53.7,0,40.8,0C24.3,0,10,9.7,3.6,23.7h31c0.8,0,1.4,0.7,1.4,1.5c0,0.8-0.6,1.5-1.4,1.5H3
		c-0.2,0-0.4-0.4-0.5-0.4C1,30.3,0.2,34.7,0,38.7h12.3c0.8,0,1.4,0.7,1.4,1.5c0,0.8-0.6,1.5-1.4,1.5H0c0.2,5,1.2,9.8,3.1,14.2
		c0.2-0.1,0.4-0.2,0.6-0.2h28.6c0.8,0,1.4,0.7,1.4,1.5c0,0.8-0.6,1.5-1.4,1.5h-28c2.6,5,6.2,9.8,10.5,13.4c0.3-0.3,0.6-0.4,1.1-0.4
		h30.2c0.8,0,1.4,0.7,1.4,1.5c0,0.8-0.6,1.5-1.4,1.5H17.9c6.5,4,14.4,7,22.9,7s16.4-3,22.9-7h-8.6c-0.8,0-1.4-0.7-1.4-1.5
		c0-0.8,0.6-1.5,1.4-1.5h10.5c0.4,0,0.8,0.1,1.1,0.4c4.4-3.6,8-8.4,10.5-13.4H41c-0.8,0-1.4-0.7-1.4-1.5c0-0.8,0.6-1.5,1.4-1.5h36.9
		c0.2,0,0.4,0.1,0.6,0.2c1.8-4.4,2.9-9.2,3.1-14.2H59.9C59.2,41.7,58.5,41,58.5,40.2z"/>
	<circle class="st1" cx="33" cy="35.7" r="28.8"/>
	<circle class="st2" cx="29.5" cy="33.6" r="16.9"/>
	<path class="st3" d="M41,55.7c-0.8,0-1.4,0.7-1.4,1.5c0,0.8,0.6,1.5,1.4,1.5h36.2c0.4-1,0.9-1.9,1.2-2.8c-0.2-0.1-0.4-0.2-0.6-0.2
		H41z"/>
	<path class="st4" d="M33.7,57.2c0-0.8-0.6-1.5-1.4-1.5H3.6c-0.2,0-0.4,0.1-0.6,0.2c0.4,0.9,0.8,1.8,1.2,2.8h28
		C33,58.7,33.7,58,33.7,57.2z"/>
	<path class="st5" d="M9.7,28.7c0-0.6-0.4-1-1-1H2c-0.1,0-0.2,0.6-0.3,1c-0.1,0.3-0.2,1-0.3,1h7.3C9.3,29.7,9.7,29.3,9.7,28.7z"/>
	<path class="st6" d="M57.7,16.7c0,0.8,0.6,1,1.4,1h14.1c0.5,0,0.9,0.1,1.2-0.3c-0.5-0.7-1-1.7-1.6-1.7H59.1
		C58.3,15.7,57.7,15.9,57.7,16.7z"/>
	<path class="st7" d="M81.5,38.7H59.9c-0.8,0-1.4,0.7-1.4,1.5c0,0.8,0.6,1.5,1.4,1.5h21.6c0,0,0-1,0-1.5
		C81.6,39.7,81.6,39.7,81.5,38.7z"/>
	<path class="st3" d="M42.5,25.2c0,0.8,0.6,1.5,1.4,1.5h34.6c0.2,0,0.4-0.1,0.5-0.2c-0.3-0.9-0.7-1.8-1.1-2.8H44
		C43.2,23.7,42.5,24.4,42.5,25.2z"/>
	<path class="st5" d="M34.7,26.7c0.8,0,1.4-0.7,1.4-1.5c0-0.8-0.6-1.5-1.4-1.5h-31c-0.4,1-0.8,1.9-1.1,2.8c0.2,0.1,0.3,0.2,0.5,0.2
		H34.7z"/>
	<path class="st5" d="M50.1,38.7H21.6c-0.8,0-1.4,0.7-1.4,1.5c0,0.8,0.6,1.5,1.4,1.5h28.5c0.8,0,1.4-0.7,1.4-1.5
		C51.5,39.4,50.9,38.7,50.1,38.7z"/>
	<path class="st8" d="M59.1,47.7H30.5c-0.8,0-1.4,0.7-1.4,1.5c0,0.8,0.6,1.5,1.4,1.5h28.5c0.8,0,1.4-0.7,1.4-1.5
		C60.5,48.4,59.8,47.7,59.1,47.7z"/>
	<path class="st3" d="M51,65.7H22.5c-0.8,0-1.4-0.7-1.4-1.5c0-0.8,0.6-1.5,1.4-1.5H51c0.8,0,1.4,0.7,1.4,1.5
		C52.4,65,51.8,65.7,51,65.7z"/>
	<path class="st5" d="M47.8,33.7H33.7c-0.8,0-1.4-0.7-1.4-1.5c0-0.8,0.6-1.5,1.4-1.5h14.1c0.8,0,1.4,0.7,1.4,1.5
		C49.2,33,48.6,33.7,47.8,33.7z"/>
	<path class="st8" d="M15,21.7H5c-0.6,0-1,0.4-1,1s0.4,1,1,1h10c0.6,0,1-0.4,1-1S15.5,21.7,15,21.7z"/>
	<path class="st5" d="M46.4,17.7H32.3c-0.8,0-1.4-0.2-1.4-1c0-0.8,0.6-1,1.4-1h14.1c0.8,0,1.4,0.2,1.4,1
		C47.8,17.5,47.2,17.7,46.4,17.7z"/>
	<path class="st5" d="M37.4,9.7H22.8c-0.8,0-1.4-0.7-1.4-1.5c0-0.8,0.6-1.5,1.4-1.5h14.7c0.8,0,1.4,0.7,1.4,1.5
		C38.8,9,38.2,9.7,37.4,9.7z"/>
	<path class="st5" d="M58.9,9.7H47.2c-0.8,0-1.4-0.7-1.4-1.5c0-0.8,0.6-1.5,1.4-1.5h11.7c0.8,0,1.4,0.7,1.4,1.5
		C60.3,9,59.7,9.7,58.9,9.7z"/>
</g>
<g>
	<path class="st0" d="M58.5,40.2c0-0.8,0.6-1.5,1.4-1.5h21.6c-0.2-4-1-8.4-2.5-12.4c-0.2,0.1-0.3,0.4-0.5,0.4H44
		c-0.8,0-1.4-0.7-1.4-1.5c0-0.8,0.6-1.5,1.4-1.5h34c-1-2-2.2-4.5-3.6-6.5c-0.2,0.4-0.7,0.5-1.2,0.5H59.1c-0.8,0-1.4-0.2-1.4-1
		c0-0.8,0.6-1,1.4-1h13.7C65.3,5.7,53.7,0,40.8,0C24.3,0,10,9.7,3.6,23.7h31c0.8,0,1.4,0.7,1.4,1.5c0,0.8-0.6,1.5-1.4,1.5H3
		c-0.2,0-0.4-0.4-0.5-0.4C1,30.3,0.2,34.7,0,38.7h12.3c0.8,0,1.4,0.7,1.4,1.5c0,0.8-0.6,1.5-1.4,1.5H0c0.2,5,1.2,9.8,3.1,14.2
		c0.2-0.1,0.4-0.2,0.6-0.2h28.6c0.8,0,1.4,0.7,1.4,1.5c0,0.8-0.6,1.5-1.4,1.5h-28c2.6,5,6.2,9.8,10.5,13.4c0.3-0.3,0.6-0.4,1.1-0.4
		h30.2c0.8,0,1.4,0.7,1.4,1.5c0,0.8-0.6,1.5-1.4,1.5H17.9c6.5,4,14.4,7,22.9,7s16.4-3,22.9-7h-8.6c-0.8,0-1.4-0.7-1.4-1.5
		c0-0.8,0.6-1.5,1.4-1.5h10.5c0.4,0,0.8,0.1,1.1,0.4c4.4-3.6,8-8.4,10.5-13.4H41c-0.8,0-1.4-0.7-1.4-1.5c0-0.8,0.6-1.5,1.4-1.5h36.9
		c0.2,0,0.4,0.1,0.6,0.2c1.8-4.4,2.9-9.2,3.1-14.2H59.9C59.2,41.7,58.5,41,58.5,40.2z"/>
	<circle class="st1" cx="33" cy="35.7" r="28.8"/>
	<circle class="st2" cx="29.5" cy="33.6" r="16.9"/>
	<path class="st3" d="M41,55.7c-0.8,0-1.4,0.7-1.4,1.5c0,0.8,0.6,1.5,1.4,1.5h36.2c0.4-1,0.9-1.9,1.2-2.8c-0.2-0.1-0.4-0.2-0.6-0.2
		H41z"/>
	<path class="st4" d="M33.7,57.2c0-0.8-0.6-1.5-1.4-1.5H3.6c-0.2,0-0.4,0.1-0.6,0.2c0.4,0.9,0.8,1.8,1.2,2.8h28
		C33,58.7,33.7,58,33.7,57.2z"/>
	<path class="st5" d="M9.7,28.7c0-0.6-0.4-1-1-1H2c-0.1,0-0.2,0.6-0.3,1c-0.1,0.3-0.2,1-0.3,1h7.3C9.3,29.7,9.7,29.3,9.7,28.7z"/>
	<path class="st6" d="M57.7,16.7c0,0.8,0.6,1,1.4,1h14.1c0.5,0,0.9,0.1,1.2-0.3c-0.5-0.7-1-1.7-1.6-1.7H59.1
		C58.3,15.7,57.7,15.9,57.7,16.7z"/>
	<path class="st7" d="M81.5,38.7H59.9c-0.8,0-1.4,0.7-1.4,1.5c0,0.8,0.6,1.5,1.4,1.5h21.6c0,0,0-1,0-1.5
		C81.6,39.7,81.6,39.7,81.5,38.7z"/>
	<path class="st3" d="M42.5,25.2c0,0.8,0.6,1.5,1.4,1.5h34.6c0.2,0,0.4-0.1,0.5-0.2c-0.3-0.9-0.7-1.8-1.1-2.8H44
		C43.2,23.7,42.5,24.4,42.5,25.2z"/>
	<path class="st5" d="M34.7,26.7c0.8,0,1.4-0.7,1.4-1.5c0-0.8-0.6-1.5-1.4-1.5h-31c-0.4,1-0.8,1.9-1.1,2.8c0.2,0.1,0.3,0.2,0.5,0.2
		H34.7z"/>
	<path class="st5" d="M50.1,38.7H21.6c-0.8,0-1.4,0.7-1.4,1.5c0,0.8,0.6,1.5,1.4,1.5h28.5c0.8,0,1.4-0.7,1.4-1.5
		C51.5,39.4,50.9,38.7,50.1,38.7z"/>
	<path class="st8" d="M59.1,47.7H30.5c-0.8,0-1.4,0.7-1.4,1.5c0,0.8,0.6,1.5,1.4,1.5h28.5c0.8,0,1.4-0.7,1.4-1.5
		C60.5,48.4,59.8,47.7,59.1,47.7z"/>
	<path class="st3" d="M51,65.7H22.5c-0.8,0-1.4-0.7-1.4-1.5c0-0.8,0.6-1.5,1.4-1.5H51c0.8,0,1.4,0.7,1.4,1.5
		C52.4,65,51.8,65.7,51,65.7z"/>
	<path class="st5" d="M47.8,33.7H33.7c-0.8,0-1.4-0.7-1.4-1.5c0-0.8,0.6-1.5,1.4-1.5h14.1c0.8,0,1.4,0.7,1.4,1.5
		C49.2,33,48.6,33.7,47.8,33.7z"/>
	<path class="st8" d="M15,21.7H5c-0.6,0-1,0.4-1,1s0.4,1,1,1h10c0.6,0,1-0.4,1-1S15.5,21.7,15,21.7z"/>
	<path class="st5" d="M46.4,17.7H32.3c-0.8,0-1.4-0.2-1.4-1c0-0.8,0.6-1,1.4-1h14.1c0.8,0,1.4,0.2,1.4,1
		C47.8,17.5,47.2,17.7,46.4,17.7z"/>
	<path class="st5" d="M37.4,9.7H22.8c-0.8,0-1.4-0.7-1.4-1.5c0-0.8,0.6-1.5,1.4-1.5h14.7c0.8,0,1.4,0.7,1.4,1.5
		C38.8,9,38.2,9.7,37.4,9.7z"/>
	<path class="st5" d="M58.9,9.7H47.2c-0.8,0-1.4-0.7-1.4-1.5c0-0.8,0.6-1.5,1.4-1.5h11.7c0.8,0,1.4,0.7,1.4,1.5
		C60.3,9,59.7,9.7,58.9,9.7z"/>
</g>
</svg>
