<!-- Generator: Adobe Illustrator 19.2.0, SVG Export Plug-In  -->
<svg version="1.1"
	 xmlns="http://www.w3.org/2000/svg" xmlns:xlink="http://www.w3.org/1999/xlink" xmlns:a="http://ns.adobe.com/AdobeSVGViewerExtensions/3.0/"
	 x="0px" y="0px" width="48.3px" height="38px" viewBox="0 0 48.3 38" style="enable-background:new 0 0 48.3 38;"
	 xml:space="preserve">
<style type="text/css">
	.st0{fill:#CDD3C7;}
	.st1{fill:#517F99;}
	.st2{fill:#FFFFFF;}
	.st3{fill:#BE3F28;}
	.st4{fill:#1C84AB;}
</style>
<defs>
</defs>
<g>
	<path class="st0" d="M12.3,27.2l7.3-3.7c0.4-0.2,1,0,1.2,0.4c0.2,0.4,0,1-0.4,1.2L18.8,26l5.3,10.4c3-2.6,4-8.4,4.6-12.4
		c0.2-1.7,1.3-2.8,2.3-4.2c1.9-2.5,4.8-5.6,7.3-7.5l2.3-1.7c0,0-0.1-0.1-0.1-0.1c-0.1-0.3-0.1-0.6,0-0.9c0.9-1.5,1-3.2,0.4-4.5
		c-0.7-1.3-2-2.2-3.7-2.4c-0.4,0-0.6-0.3-0.8-0.6L33.6,3c-3,0.9-7.2,1.5-10.4,1.5c-1.7,0-3.3,0.1-4.8-0.7C14.9,1.9,9.7-0.7,5.8,0.2
		L11,10.6l1.6-0.8c0.4-0.2,1,0,1.2,0.4c0.2,0.4,0,1-0.4,1.2l-7.3,3.7c-0.4,0.2-0.8,0.1-1.1-0.3c0,0.1,0,0.1,0,0.2L6,16.6
		C6,16.8,6,17,5.9,17.1l-1.6,1.7c-0.1,0.1-0.1,0.3-0.1,0.5L6,22.8l1.7,3.5c0.1,0.2,0.2,0.2,0.4,0.2l2.3-0.2c0.2,0,0.3,0.1,0.4,0.2
		l0.8,1.6c0,0.1,0.1,0.1,0.1,0.1C11.8,27.8,11.9,27.4,12.3,27.2z"/>
	<path class="st1" d="M14.7,28.1C14.7,28.1,14.8,28.1,14.7,28.1l5.9,9.7c0.1,0.2,0.4,0.3,0.6,0.2l1.2-0.6l-5.3-10.5L14.7,28.1z"/>
	<path class="st1" d="M4.1,0.9L2.9,1.5C2.7,1.6,2.6,1.9,2.7,2.1L7,12.6c0,0,0,0.1,0,0.1l2.5-1.2L4.1,0.9z"/>
	<path class="st2" d="M6.2,15.1l7.3-3.7c0.4-0.2,0.6-0.8,0.4-1.2c-0.2-0.4-0.8-0.6-1.2-0.4L11,10.6L5.8,0.2c-0.2,0-0.3,0.1-0.5,0.1
		L4.1,0.9l5.3,10.5L7,12.7c0.1,0.5-0.1,1-0.5,1.2l-1.1,0.6c-0.2,0.1-0.2,0.2-0.2,0.4C5.4,15.2,5.8,15.3,6.2,15.1z"/>
	<path class="st2" d="M24.1,36.4L18.8,26l1.6-0.8c0.4-0.2,0.6-0.8,0.4-1.2c-0.2-0.4-0.8-0.6-1.2-0.4l-7.3,3.7
		c-0.4,0.2-0.5,0.6-0.5,1c0.1,0.1,0.3,0.1,0.4,0l1.1-0.6c0.5-0.2,1-0.1,1.3,0.3l2.4-1.2l5.3,10.5l1.2-0.6
		C23.8,36.7,23.9,36.6,24.1,36.4z"/>
	<g>
		<path class="st3" d="M2.5,19.9c-0.2-0.4-0.8-0.6-1.2-0.4l-0.8,0.4c-0.4,0.2-0.6,0.8-0.4,1.2s0.8,0.6,1.2,0.4l0.8-0.4
			C2.6,20.9,2.8,20.4,2.5,19.9z"/>
		<path class="st3" d="M3.8,22.4c-0.2-0.4-0.8-0.6-1.2-0.4l-1.6,0.8C0.5,23,0.3,23.5,0.5,24c0.2,0.4,0.8,0.6,1.2,0.4l1.6-0.8
			C3.8,23.3,4,22.8,3.8,22.4z"/>
		<path class="st3" d="M5,24.8c-0.2-0.4-0.8-0.6-1.2-0.4l-1.6,0.8c-0.4,0.2-0.6,0.8-0.4,1.2S2.5,27,3,26.8L4.6,26
			C5,25.8,5.2,25.2,5,24.8z"/>
		<path class="st3" d="M6.2,27.2C6,26.8,5.4,26.6,5,26.8l-0.8,0.4c-0.4,0.2-0.6,0.8-0.4,1.2C4,28.9,4.5,29.1,5,28.8l0.8-0.4
			C6.2,28.2,6.4,27.7,6.2,27.2z"/>
	</g>
	<path class="st0" d="M42.4,4.4c0.7,1.4,0.8,3.1,0.3,4.7l2-1.5c1.9-1.4,2.4-2.8,3.4-4.9c0.3-0.7-0.1-1.6-0.9-1.8
		c-2.3-0.5-3.7-0.9-6-0.2L39,1.4C40.5,2,41.7,3,42.4,4.4z"/>
	<path class="st4" d="M40.8,5.2c0.7,1.3,0.5,3-0.4,4.5c-0.2,0.3-0.2,0.6,0,0.9c0,0,0.1,0.1,0.1,0.1l2.2-1.6c0.5-1.6,0.4-3.2-0.3-4.7
		C41.7,3,40.5,2,39,1.4l-2.6,0.8c0.1,0.3,0.4,0.6,0.8,0.6C38.8,3,40.2,3.9,40.8,5.2z"/>
	<g>
		<path class="st2" d="M17.6,21.6l-3.7-7.3c-0.2-0.4-0.8-0.6-1.2-0.4c-0.4,0.2-0.6,0.8-0.4,1.2l3.7,7.3c0.2,0.4,0.8,0.6,1.2,0.4
			C17.6,22.5,17.8,22,17.6,21.6z"/>
		<path class="st2" d="M21.6,19.5l-3.7-7.3c-0.2-0.4-0.8-0.6-1.2-0.4c-0.4,0.2-0.6,0.8-0.4,1.2l3.7,7.3c0.2,0.4,0.8,0.6,1.2,0.4
			S21.8,20,21.6,19.5z"/>
		<path class="st2" d="M20.4,11l3.7,7.3c0.2,0.4,0.8,0.6,1.2,0.4c0.4-0.2,0.6-0.8,0.4-1.2L22,10.2c-0.2-0.4-0.8-0.6-1.2-0.4
			C20.3,10,20.2,10.5,20.4,11z"/>
		<path class="st2" d="M13.9,22.4l-2.9-5.7c-0.2-0.4-0.8-0.6-1.2-0.4l-1.6,0.8c-0.4,0.2-0.6,0.8-0.4,1.2C8,18.8,8.6,19,9,18.7
			l0.8-0.4l2,4.1l-0.8,0.4c-0.4,0.2-0.6,0.8-0.4,1.2c0.2,0.4,0.8,0.6,1.2,0.4l1.6-0.8C14,23.4,14.1,22.8,13.9,22.4z"/>
	</g>
	<path class="st2" d="M28.6,24.1c0.2-1.7,1.3-2.8,2.3-4.2c1.9-2.5,4.8-5.6,7.3-7.5c-5.7,2.2-18,8.3-12.3,19.8
		c0.1,0.3,0.3,0.6,0.4,0.8C27.7,30.2,28.2,26.7,28.6,24.1z"/>
	<path class="st2" d="M33.7,3L33.6,3c-3,0.9-7.2,1.5-10.4,1.5c-1.7,0-3.3,0.1-4.8-0.7c-2.4-1.3-5.5-2.9-8.5-3.5
		c0.1,0.3,0.2,0.6,0.4,0.9C16.2,12.7,28.7,6.2,33.7,3z"/>
</g>
</svg>
