<!-- Generator: Adobe Illustrator 19.2.0, SVG Export Plug-In  -->
<svg version="1.1"
	 xmlns="http://www.w3.org/2000/svg" xmlns:xlink="http://www.w3.org/1999/xlink" xmlns:a="http://ns.adobe.com/AdobeSVGViewerExtensions/3.0/"
	 x="0px" y="0px" width="70.7px" height="69.4px" viewBox="0 0 70.7 69.4" style="enable-background:new 0 0 70.7 69.4;"
	 xml:space="preserve">
<style type="text/css">
	.st0{fill:#95A5A5;}
	.st1{fill:#F3D55B;}
	.st2{fill:#CBB292;}
	.st3{fill:#556080;}
	.st4{fill:#8697CB;}
	.st5{fill:#E6E7E8;}
	.st6{fill:#F18D46;}
</style>
<defs>
</defs>
<g>
	<path class="st0" d="M23.6,27.3h5.7l1.7,1.8c0.5,0.5,1.3,0.5,1.7,0c0.5-0.5,0.7-1.2,0.2-1.7l-1.5-1.7V20c0-0.7-0.8-1.2-1.5-1.2
		s-1.5,0.5-1.5,1.2v5.3h-4.9c-0.7,0-1.2,0.3-1.2,1S22.9,27.3,23.6,27.3z"/>
	<polygon class="st1" points="29.1,20.7 29.1,20.7 16.1,7.8 16.1,7.8 14.4,9.5 27.4,22.5 	"/>
	<polygon class="st1" points="30.8,19 30.8,19 32.6,17.3 32.6,17.3 19.6,4.3 19.6,4.3 17.9,6.1 17.9,6.1 	"/>
	<polygon class="st1" points="23.9,25.9 23.9,25.9 25.6,24.2 12.7,11.2 10.9,13 10.9,13 	"/>
	<polygon class="st1" points="34.3,15.6 34.3,15.6 36.9,13 23.9,0 21.3,2.6 21.3,2.6 	"/>
	<polygon class="st1" points="5.8,18.2 5.8,18.2 3.2,20.7 16.1,33.7 18.7,31.1 18.7,31.1 	"/>
	<polygon class="st1" points="20.5,29.4 20.5,29.4 22.2,27.7 22.2,27.7 9.2,14.7 9.2,14.7 7.5,16.4 7.5,16.4 	"/>
	<polygon class="st2" points="32.6,17.3 32.6,17.3 34.3,15.6 34.3,15.6 21.3,2.6 21.3,2.6 19.6,4.3 19.6,4.3 	"/>
	<polygon class="st2" points="29.1,20.7 29.1,20.7 30.8,19 30.8,19 17.9,6.1 17.9,6.1 16.1,7.8 16.1,7.8 	"/>
	<rect x="18.8" y="7.7" transform="matrix(0.7071 -0.7071 0.7071 0.7071 -6.0559 19.092)" class="st2" width="2.4" height="18.3"/>
	<polygon class="st2" points="22.2,27.7 22.2,27.7 23.9,25.9 23.9,25.9 10.9,13 10.9,13 9.2,14.7 9.2,14.7 	"/>
	<polygon class="st2" points="5.8,18.2 18.7,31.1 18.7,31.1 20.5,29.4 20.5,29.4 7.5,16.4 7.5,16.4 5.8,18.2 	"/>
	<path class="st0" d="M50.2,40.3h-5.7l-1.7-1.9c-0.5-0.5-1.3-0.6-1.7-0.1s-0.6,1.2-0.2,1.7l1.6,1.7v5.7c0,0.7,0.8,1.2,1.5,1.2
		c0.7,0,1.5-0.5,1.5-1.2v-5.1h4.8c0.7,0,1.2-0.3,1.2-1C51.5,40.7,50.9,40.3,50.2,40.3z"/>
	<polygon class="st3" points="25.8,62 8.5,44.7 15.5,41.2 29.3,55.1 	"/>
	<path class="st4" d="M68.3,2.4c-1.8-1.8-5.1-1.8-6.9,0c-1.6,1.6-1.8,4.1-0.7,5.9l-1.9,1.9c-0.5,0.5-0.5,1.3,0,1.7
		c0.2,0.2,0.6,0.4,0.9,0.4s0.6-0.1,0.9-0.4l1.9-1.9c0.7,0.4,1.6,0.7,2.5,0.7c1.3,0,2.5-0.5,3.5-1.4c0.9-0.9,1.4-2.2,1.4-3.5
		C69.7,4.6,69.2,3.4,68.3,2.4z M66.6,7.6c-0.9,0.9-2.5,0.9-3.5,0c-1-1-1-2.5,0-3.5c0.5-0.5,1.1-0.7,1.7-0.7c0.7,0,1.3,0.3,1.7,0.7
		c0.5,0.5,0.7,1.1,0.7,1.7C67.3,6.6,67,7.2,66.6,7.6z"/>
	<polygon class="st1" points="44.7,46.8 44.7,46.8 57.7,59.7 57.7,59.7 59.4,58 46.5,45 	"/>
	<polygon class="st1" points="43,48.5 43,48.5 41.3,50.2 41.3,50.2 54.2,63.2 54.2,63.2 56,61.5 56,61.5 	"/>
	<polygon class="st1" points="49.9,41.6 49.9,41.6 48.2,43.3 61.2,56.3 62.9,54.5 62.9,54.5 	"/>
	<polygon class="st1" points="39.5,51.9 39.5,51.9 37,54.5 49.9,67.5 52.5,64.9 52.5,64.9 	"/>
	<polygon class="st1" points="68.1,49.3 68.1,49.3 70.7,46.8 57.7,33.8 55.1,36.4 55.1,36.4 	"/>
	<polygon class="st1" points="53.4,38.1 53.4,38.1 51.6,39.8 51.6,39.8 64.6,52.8 64.6,52.8 66.3,51.1 66.3,51.1 	"/>
	<polygon class="st2" points="41.3,50.2 41.3,50.2 39.5,51.9 39.5,51.9 52.5,64.9 52.5,64.9 54.2,63.2 54.2,63.2 	"/>
	<polygon class="st2" points="44.7,46.8 44.7,46.8 43,48.5 43,48.5 56,61.5 56,61.5 57.7,59.7 57.7,59.7 	"/>
	
		<rect x="52.6" y="41.5" transform="matrix(0.7071 -0.7071 0.7071 0.7071 -20.0522 52.8818)" class="st2" width="2.4" height="18.3"/>
	<polygon class="st2" points="51.6,39.8 51.6,39.8 49.9,41.6 49.9,41.6 62.9,54.5 62.9,54.5 64.6,52.8 64.6,52.8 	"/>
	<polygon class="st2" points="68.1,49.3 55.1,36.4 55.1,36.4 53.4,38.1 53.4,38.1 66.3,51.1 66.3,51.1 68.1,49.3 	"/>
	<path class="st5" d="M53.7,27.4l-26,26L17.3,43.1l26-26c2.3-2.3,6.2-2.3,8.5,0l1.9,1.9C56,21.3,56,25.1,53.7,27.4z"/>
	<path class="st3" d="M52.7,4.2c-3.8,3.8-3.8,10,0,13.8s10,3.8,13.8,0L52.7,4.2z"/>
	<g>
		<circle class="st6" cx="13.4" cy="68.1" r="1.2"/>
		<circle class="st6" cx="4.9" cy="64.5" r="1.2"/>
		<circle class="st6" cx="7.3" cy="62" r="1.2"/>
		<circle class="st6" cx="9.8" cy="59.6" r="1.2"/>
		<circle class="st6" cx="12.2" cy="57.1" r="1.2"/>
		<path class="st6" d="M16.2,58.4c-0.7-0.2-1.3,0.2-1.5,0.9l-1.2,4.9c-0.2,0.7,0.2,1.3,0.9,1.5c0.1,0,0.2,0,0.3,0
			c0.5,0,1-0.4,1.2-0.9l1.2-4.9C17.2,59.2,16.8,58.6,16.2,58.4z"/>
		<circle class="st6" cx="1.2" cy="55.9" r="1.2"/>
		<path class="st6" d="M4.9,55.9c0.1,0,0.2,0,0.3,0l4.9-1.2c0.7-0.2,1.1-0.8,0.9-1.5c-0.2-0.7-0.8-1.1-1.5-0.9l-4.9,1.2
			c-0.7,0.2-1.1,0.8-0.9,1.5C3.8,55.5,4.3,55.9,4.9,55.9z"/>
	</g>
	
		<rect x="20.5" y="42.3" transform="matrix(0.7071 -0.7071 0.7071 0.7071 -22.8161 31.8979)" class="st0" width="13.3" height="2.4"/>
</g>
<g>
	<path class="st0" d="M23.6,27.3h5.7l1.7,1.8c0.5,0.5,1.3,0.5,1.7,0c0.5-0.5,0.7-1.2,0.2-1.7l-1.5-1.7V20c0-0.7-0.8-1.2-1.5-1.2
		s-1.5,0.5-1.5,1.2v5.3h-4.9c-0.7,0-1.2,0.3-1.2,1S22.9,27.3,23.6,27.3z"/>
	<polygon class="st1" points="29.1,20.7 29.1,20.7 16.1,7.8 16.1,7.8 14.4,9.5 27.4,22.5 	"/>
	<polygon class="st1" points="30.8,19 30.8,19 32.6,17.3 32.6,17.3 19.6,4.3 19.6,4.3 17.9,6.1 17.9,6.1 	"/>
	<polygon class="st1" points="23.9,25.9 23.9,25.9 25.6,24.2 12.7,11.2 10.9,13 10.9,13 	"/>
	<polygon class="st1" points="34.3,15.6 34.3,15.6 36.9,13 23.9,0 21.3,2.6 21.3,2.6 	"/>
	<polygon class="st1" points="5.8,18.2 5.8,18.2 3.2,20.7 16.1,33.7 18.7,31.1 18.7,31.1 	"/>
	<polygon class="st1" points="20.5,29.4 20.5,29.4 22.2,27.7 22.2,27.7 9.2,14.7 9.2,14.7 7.5,16.4 7.5,16.4 	"/>
	<polygon class="st2" points="32.6,17.3 32.6,17.3 34.3,15.6 34.3,15.6 21.3,2.6 21.3,2.6 19.6,4.3 19.6,4.3 	"/>
	<polygon class="st2" points="29.1,20.7 29.1,20.7 30.8,19 30.8,19 17.9,6.1 17.9,6.1 16.1,7.8 16.1,7.8 	"/>
	<rect x="18.8" y="7.7" transform="matrix(0.7071 -0.7071 0.7071 0.7071 -6.0559 19.092)" class="st2" width="2.4" height="18.3"/>
	<polygon class="st2" points="22.2,27.7 22.2,27.7 23.9,25.9 23.9,25.9 10.9,13 10.9,13 9.2,14.7 9.2,14.7 	"/>
	<polygon class="st2" points="5.8,18.2 18.7,31.1 18.7,31.1 20.5,29.4 20.5,29.4 7.5,16.4 7.5,16.4 5.8,18.2 	"/>
	<path class="st0" d="M50.2,40.3h-5.7l-1.7-1.9c-0.5-0.5-1.3-0.6-1.7-0.1s-0.6,1.2-0.2,1.7l1.6,1.7v5.7c0,0.7,0.8,1.2,1.5,1.2
		c0.7,0,1.5-0.5,1.5-1.2v-5.1h4.8c0.7,0,1.2-0.3,1.2-1C51.5,40.7,50.9,40.3,50.2,40.3z"/>
	<polygon class="st3" points="25.8,62 8.5,44.7 15.5,41.2 29.3,55.1 	"/>
	<path class="st4" d="M68.3,2.4c-1.8-1.8-5.1-1.8-6.9,0c-1.6,1.6-1.8,4.1-0.7,5.9l-1.9,1.9c-0.5,0.5-0.5,1.3,0,1.7
		c0.2,0.2,0.6,0.4,0.9,0.4s0.6-0.1,0.9-0.4l1.9-1.9c0.7,0.4,1.6,0.7,2.5,0.7c1.3,0,2.5-0.5,3.5-1.4c0.9-0.9,1.4-2.2,1.4-3.5
		C69.7,4.6,69.2,3.4,68.3,2.4z M66.6,7.6c-0.9,0.9-2.5,0.9-3.5,0c-1-1-1-2.5,0-3.5c0.5-0.5,1.1-0.7,1.7-0.7c0.7,0,1.3,0.3,1.7,0.7
		c0.5,0.5,0.7,1.1,0.7,1.7C67.3,6.6,67,7.2,66.6,7.6z"/>
	<polygon class="st1" points="44.7,46.8 44.7,46.8 57.7,59.7 57.7,59.7 59.4,58 46.5,45 	"/>
	<polygon class="st1" points="43,48.5 43,48.5 41.3,50.2 41.3,50.2 54.2,63.2 54.2,63.2 56,61.5 56,61.5 	"/>
	<polygon class="st1" points="49.9,41.6 49.9,41.6 48.2,43.3 61.2,56.3 62.9,54.5 62.9,54.5 	"/>
	<polygon class="st1" points="39.5,51.9 39.5,51.9 37,54.5 49.9,67.5 52.5,64.9 52.5,64.9 	"/>
	<polygon class="st1" points="68.1,49.3 68.1,49.3 70.7,46.8 57.7,33.8 55.1,36.4 55.1,36.4 	"/>
	<polygon class="st1" points="53.4,38.1 53.4,38.1 51.6,39.8 51.6,39.8 64.6,52.8 64.6,52.8 66.3,51.1 66.3,51.1 	"/>
	<polygon class="st2" points="41.3,50.2 41.3,50.2 39.5,51.9 39.5,51.9 52.5,64.9 52.5,64.9 54.2,63.2 54.2,63.2 	"/>
	<polygon class="st2" points="44.7,46.8 44.7,46.8 43,48.5 43,48.5 56,61.5 56,61.5 57.7,59.7 57.7,59.7 	"/>
	
		<rect x="52.6" y="41.5" transform="matrix(0.7071 -0.7071 0.7071 0.7071 -20.0522 52.8818)" class="st2" width="2.4" height="18.3"/>
	<polygon class="st2" points="51.6,39.8 51.6,39.8 49.9,41.6 49.9,41.6 62.9,54.5 62.9,54.5 64.6,52.8 64.6,52.8 	"/>
	<polygon class="st2" points="68.1,49.3 55.1,36.4 55.1,36.4 53.4,38.1 53.4,38.1 66.3,51.1 66.3,51.1 68.1,49.3 	"/>
	<path class="st5" d="M53.7,27.4l-26,26L17.3,43.1l26-26c2.3-2.3,6.2-2.3,8.5,0l1.9,1.9C56,21.3,56,25.1,53.7,27.4z"/>
	<path class="st3" d="M52.7,4.2c-3.8,3.8-3.8,10,0,13.8s10,3.8,13.8,0L52.7,4.2z"/>
	<g>
		<circle class="st6" cx="13.4" cy="68.1" r="1.2"/>
		<circle class="st6" cx="4.9" cy="64.5" r="1.2"/>
		<circle class="st6" cx="7.3" cy="62" r="1.2"/>
		<circle class="st6" cx="9.8" cy="59.6" r="1.2"/>
		<circle class="st6" cx="12.2" cy="57.1" r="1.2"/>
		<path class="st6" d="M16.2,58.4c-0.7-0.2-1.3,0.2-1.5,0.9l-1.2,4.9c-0.2,0.7,0.2,1.3,0.9,1.5c0.1,0,0.2,0,0.3,0
			c0.5,0,1-0.4,1.2-0.9l1.2-4.9C17.2,59.2,16.8,58.6,16.2,58.4z"/>
		<circle class="st6" cx="1.2" cy="55.9" r="1.2"/>
		<path class="st6" d="M4.9,55.9c0.1,0,0.2,0,0.3,0l4.9-1.2c0.7-0.2,1.1-0.8,0.9-1.5c-0.2-0.7-0.8-1.1-1.5-0.9l-4.9,1.2
			c-0.7,0.2-1.1,0.8-0.9,1.5C3.8,55.5,4.3,55.9,4.9,55.9z"/>
	</g>
	
		<rect x="20.5" y="42.3" transform="matrix(0.7071 -0.7071 0.7071 0.7071 -22.8161 31.8979)" class="st0" width="13.3" height="2.4"/>
</g>
</svg>
