<!-- Generator: Adobe Illustrator 19.2.0, SVG Export Plug-In  -->
<svg version="1.1"
	 xmlns="http://www.w3.org/2000/svg" xmlns:xlink="http://www.w3.org/1999/xlink" xmlns:a="http://ns.adobe.com/AdobeSVGViewerExtensions/3.0/"
	 x="0px" y="0px" width="81.3px" height="81.3px" viewBox="0 0 81.3 81.3" style="enable-background:new 0 0 81.3 81.3;"
	 xml:space="preserve">
<style type="text/css">
	.st0{fill:#F9C38A;}
	.st1{fill:#FFD199;}
	.st2{fill:#FFD8AE;}
	.st3{fill:#F3D55B;}
	.st4{fill:#F9EAB0;}
</style>
<defs>
</defs>
<g>
	<circle class="st0" cx="41.6" cy="39.7" r="28.9"/>
</g>
<g>
	<circle class="st1" cx="37.4" cy="35.4" r="20.5"/>
</g>
<g>
	<circle class="st2" cx="33.1" cy="29.8" r="10.6"/>
</g>
<ellipse transform="matrix(0.9659 -0.2588 0.2588 0.9659 -7.8319 9.9435)" class="st3" cx="33.8" cy="34.7" rx="1.4" ry="1.4"/>
<path class="st4" d="M80.9,0.3c-1.8-1.8-11.1,4.4-23.6,15.1c0.8,0.5,1.6,1.1,2.4,1.7C68,10,74,5.8,77.1,4.1
	c-2.9,5.4-13.5,19.5-33.5,39.5S9.5,74.3,4.1,77.1C5.9,73.8,10.7,67,19,57.6c-0.6-0.8-1.2-1.5-1.7-2.4C5.4,68.7-1.6,79,0.3,80.9
	c2.8,2.8,23-13.1,45.3-35.3C67.9,23.3,83.7,3.1,80.9,0.3z"/>
<g>
	<circle class="st0" cx="41.6" cy="39.7" r="28.9"/>
</g>
<g>
	<circle class="st1" cx="37.4" cy="35.4" r="20.5"/>
</g>
<g>
	<circle class="st2" cx="33.1" cy="29.8" r="10.6"/>
</g>
<ellipse transform="matrix(0.9659 -0.2588 0.2588 0.9659 -7.8319 9.9435)" class="st3" cx="33.8" cy="34.7" rx="1.4" ry="1.4"/>
<path class="st4" d="M80.9,0.3c-1.8-1.8-11.1,4.4-23.6,15.1c0.8,0.5,1.6,1.1,2.4,1.7C68,10,74,5.8,77.1,4.1
	c-2.9,5.4-13.5,19.5-33.5,39.5S9.5,74.3,4.1,77.1C5.9,73.8,10.7,67,19,57.6c-0.6-0.8-1.2-1.5-1.7-2.4C5.4,68.7-1.6,79,0.3,80.9
	c2.8,2.8,23-13.1,45.3-35.3C67.9,23.3,83.7,3.1,80.9,0.3z"/>
</svg>
