<?xml version="1.0" standalone="no"?>
<!DOCTYPE svg PUBLIC "-//W3C//DTD SVG 1.1//EN" "http://www.w3.org/Graphics/SVG/1.1/DTD/svg11.dtd" >
<svg xmlns="http://www.w3.org/2000/svg">
<metadata>
Created by FontPrep 20130207 at Thu Jan 21 17:08:00 2016
 By Daniel
Copyright 2015 Adobe Systems Incorporated. All rights reserved.
</metadata>
<defs>
<font id="4fe8dc05fe0bc2355df2ee1779e76ea8" horiz-adv-x='1024' >
  <font-face 
    font-family="TWSSavory-Thin"
    font-weight="250"
    font-stretch="normal"
    units-per-em="2048"
    panose-1="2 0 0 0 0 0 0 0 0 0"
    ascent="1536"
    descent="-512"
    x-height="1067"
    cap-height="1632"
    bbox="-205 -662 2150.01 2179"
    underline-thickness="102"
    underline-position="-102"
    unicode-range="U+0020-FB02"
  />
<missing-glyph horiz-adv-x="1024" 
 />
    <glyph glyph-name=".notdef" horiz-adv-x="1024" 
 />
    <glyph glyph-name=".null" horiz-adv-x="0" 
 />
    <glyph glyph-name="nonmarkingreturn" horiz-adv-x="681" 
 />
    <glyph glyph-name="space" unicode=" " horiz-adv-x="522" 
 />
    <glyph glyph-name="exclam" unicode="!" horiz-adv-x="622" 
d="M272 0v137h138v-137h-138zM391 393h-100l-6 1276h112z" />
    <glyph glyph-name="quotedbl" unicode="&#x22;" horiz-adv-x="835" 
d="M512 1329v320h129v-320h-129zM195 1329v320h129v-320h-129z" />
    <glyph glyph-name="numbersign" unicode="#" horiz-adv-x="1421" 
d="M569 1008v-4l-57 -351v-6h412v4l59 357h-414zM172 557v90h236l59 361h-227v92h239l82 534h109l-86 -534h413l82 534h105l-84 -534h217v-92h-230l-59 -361h221v-90h-235l-88 -557h-105l90 557h-413l-86 -557h-107l88 557h-221z" />
    <glyph glyph-name="dollar" unicode="$" 
d="M680 74q162 4 242 109t80 245t-68 223q-68 82 -254 135v-712zM293 1232v-46q0 -8 5 -43t14 -50q43 -72 78 -96q90 -63 196 -96v662q-90 -4 -154 -43t-91 -98q-48 -99 -48 -190zM680 -233h-94v227q-382 47 -420 467h96q35 -334 324 -381v731q-207 57 -298 153t-91 270
q0 175 102 292t287 123v223h94v-227q160 -19 263 -125t120 -287h-98q-16 121 -86 212t-199 111v-682q244 -68 331 -176t87 -261t-88 -291q-45 -68 -130 -112t-200 -46v-221z" />
    <glyph glyph-name="percent" unicode="%" horiz-adv-x="1642" 
d="M1411 264v211q0 201 -179 201t-179 -201v-211q0 -201 179 -201t179 201zM1232 754q120 0 194 -76t75 -199v-219q0 -123 -75 -199q-74 -75 -194 -75t-195 76t-74 198v219q0 123 74 199q75 76 195 76zM231 1159q0 -199 181 -198q178 0 178 198v211q0 201 -179 201
t-180 -201v-211zM680 1155q0 -121 -75 -197t-195 -76t-194 76q-75 76 -75 197v219q0 123 75 199t195 76q121 0 195 -76t74 -199v-219zM1157 1634h92l-764 -1634h-92z" />
    <glyph glyph-name="ampersand" unicode="&#x26;" horiz-adv-x="1495" 
d="M647 86q109 0 189 56t125 149q-174 193 -324 354t-197 221q-160 -180 -159 -379q0 -143 100 -272t266 -129zM645 -12q-197 0 -335 150t-138 349q0 258 209 471q-80 146 -80 324t95 273t250 95t244 -106t89 -270v-47h-109v47q0 118 -55 192t-174 74t-175 -73t-56 -193
q0 -219 182 -420q115 -124 225 -241q111 -117 182 -195q6 35 7 71v363h108v-363q0 -90 -27 -167q64 -68 236 -250l-86 -84q-66 74 -203 221q-62 -101 -164 -161t-225 -60z" />
    <glyph glyph-name="quotesingle" unicode="'" horiz-adv-x="518" 
d="M195 1327v320h129v-320h-129z" />
    <glyph glyph-name="parenleft" unicode="(" horiz-adv-x="702" 
d="M303 754q-1 -299 65 -539t197 -473l-90 -51q-139 248 -205 483q-72 274 -72 580t72 579q66 233 205 486l90 -52q-133 -238 -197 -476t-65 -537z" />
    <glyph glyph-name="parenright" unicode=")" horiz-adv-x="702" 
d="M504 754q0 -305 -72 -580q-66 -235 -205 -483l-90 51q131 233 197 473t65 539q0 300 -64 538t-198 475l90 52q139 -252 205 -486q72 -274 72 -579z" />
    <glyph glyph-name="asterisk" unicode="*" horiz-adv-x="956" 
d="M764 961l-246 149l6 -289h-92l6 289l-245 -149l-46 77l252 140l-252 139l46 78l245 -150l-6 289h92l-6 -289l246 150l45 -78l-252 -139l252 -140z" />
    <glyph glyph-name="plus" unicode="+" horiz-adv-x="1052" 
d="M575 602v-371h-96v371h-370v96h370v369h96v-369h369v-96h-369z" />
    <glyph glyph-name="comma" unicode="," horiz-adv-x="552" 
d="M207 0v152h151v-170l-104 -183l-59 29l90 172h-78z" />
    <glyph glyph-name="hyphen" unicode="-" horiz-adv-x="872" 
d="M168 602v96h537v-96h-537z" />
    <glyph glyph-name="period" unicode="." horiz-adv-x="540" 
d="M195 0v152h151v-152h-151z" />
    <glyph glyph-name="slash" unicode="/" horiz-adv-x="753" 
d="M754 1786l-645 -1938h-109l645 1938h109z" />
    <glyph glyph-name="zero" unicode="0" horiz-adv-x="999" 
d="M766 338v960q0 109 -78 187t-188 78t-187 -78q-78 -78 -77 -187v-960q0 -108 78 -186t187 -78t187 78t78 186zM501 1649q147 -1 251 -105t104 -252v-948q0 -148 -104 -252t-250 -104t-253 104q-105 104 -106 252v948q0 147 106 252t252 105z" />
    <glyph glyph-name="one" unicode="1" horiz-adv-x="745" 
d="M418 90h213v-90h-516v90h213v1462l-283 -163v92l279 151h94v-1542z" />
    <glyph glyph-name="two" unicode="2" horiz-adv-x="993" 
d="M503 1647q145 -1 251 -105t106 -252v-196q0 -128 -220 -350q-91 -91 -182 -181q-222 -219 -220 -321v-162h622v-80h-713v236q0 76 64 175q63 99 156 193q92 94 183 184q218 216 218 299v209q0 109 -78 187t-188 78t-187 -78q-78 -78 -77 -187v-53h-91v47q0 147 105 252
t251 105z" />
    <glyph glyph-name="three" unicode="3" horiz-adv-x="942" 
d="M799 1192q0 -96 -48 -178t-128 -129q176 -82 176 -320v-221q-1 -148 -105 -252t-252 -104t-252 104t-104 252v14h90v-20q0 -108 79 -186t187 -78t188 78q79 78 79 186v233q0 125 -72 193t-184 72h-11v86h11q106 4 181 80t75 184v110q0 109 -79 188t-188 79
q-110 0 -188 -79t-78 -188v-20h-90v14q0 148 104 252t252 104t252 -104t105 -252v-98z" />
    <glyph glyph-name="four" unicode="4" horiz-adv-x="1052" 
d="M713 406v1073l-533 -1073h533zM965 406v-91h-162v-315h-90v315h-625v91l610 1226h105v-1226h162z" />
    <glyph glyph-name="five" unicode="5" horiz-adv-x="993" 
d="M508 1118q144 0 250 -105t106 -251v-447q0 -145 -103 -236t-245 -91t-243 59q-123 72 -121 258v62h90v-91q0 -82 76 -142t184 -60q110 0 190 66t80 169v457q0 110 -78 188t-188 78t-188 -76q-77 -76 -76 -194h-90v872h712v-90h-622v-557q30 59 106 95t160 36z" />
    <glyph glyph-name="six" unicode="6" horiz-adv-x="991" 
d="M233 608v-270q0 -108 78 -186t188 -78q109 0 187 78t78 186v270q0 109 -78 187q-78 77 -174 77t-163 -45t-97 -120v-5q-19 -43 -19 -94zM499 -12q-146 0 -251 104q-104 104 -105 252v258q0 76 27 137l360 895h95l-289 -714q78 39 164 38q144 0 250 -104t106 -252v-258
q0 -147 -105 -252q-106 -104 -252 -104z" />
    <glyph glyph-name="seven" unicode="7" horiz-adv-x="1077" 
d="M174 1632h791v-80l-433 -1552h-94l432 1552h-696v80z" />
    <glyph glyph-name="eight" unicode="8" horiz-adv-x="1060" 
d="M797 1153v145q0 109 -79 187t-188 78q-110 0 -188 -78t-78 -187v-145q0 -109 79 -187t187 -79q108 1 188 79q79 78 79 187zM797 537q0 109 -79 187t-188 77q-110 0 -188 -78t-78 -186v-197q0 -110 79 -188t187 -78t188 78q79 78 79 188v197zM530 1649q148 -1 252 -105
t105 -252v-135q0 -100 -51 -183t-138 -130q86 -45 138 -129t51 -185v-186q-1 -148 -105 -252t-252 -104t-251 104q-104 104 -105 252v186q0 100 51 184t137 130q-86 47 -137 130t-51 183v135q0 147 104 252t252 105z" />
    <glyph glyph-name="nine" unicode="9" horiz-adv-x="993" 
d="M756 1026v270q0 109 -78 187t-188 78t-187 -78q-78 -78 -78 -187v-270q0 -108 78 -186q79 -78 175 -78t164 46t95 120q19 38 19 98zM491 1647q146 -1 251 -105t106 -252v-258q0 -70 -29 -137l-358 -895h-96l288 715q-78 -39 -161 -39q-147 0 -252 104q-104 104 -105 252
v258q0 147 105 252t251 105z" />
    <glyph glyph-name="colon" unicode=":" horiz-adv-x="540" 
d="M195 750v151h151v-151h-151zM195 0v152h151v-152h-151z" />
    <glyph glyph-name="semicolon" unicode=";" horiz-adv-x="540" 
d="M195 0v152h151v-170l-104 -183l-60 29l90 172h-77zM195 750v151h151v-151h-151z" />
    <glyph glyph-name="less" unicode="&#x3c;" horiz-adv-x="1052" 
d="M838 270l-623 330v98l623 330v-113l-521 -266l521 -266v-113z" />
    <glyph glyph-name="equal" unicode="=" horiz-adv-x="1052" 
d="M111 758v96h835v-96h-835zM111 444v97h835v-97h-835z" />
    <glyph glyph-name="greater" unicode="&#x3e;" horiz-adv-x="1052" 
d="M838 600l-623 -330v113l520 266l-520 266v113l623 -330v-98z" />
    <glyph glyph-name="question" unicode="?" horiz-adv-x="999" 
d="M164 1290q0 152 102 256t261 105t265 -103t105 -258v-180q0 -113 -90 -244l-174 -256q-37 -53 -37 -123v-96h-104v92q0 98 59 185l172 254q68 98 70 188v180q0 115 -75 192t-190 77q-116 0 -188 -79t-72 -190h-104zM475 0v137h137v-137h-137z" />
    <glyph glyph-name="at" unicode="@" horiz-adv-x="2093" 
d="M981 68q137 0 227 84t90 163v437q0 80 -90 164t-227 83q-137 0 -200 -80q-62 -81 -62 -167v-437q0 -86 62 -167q63 -80 200 -80zM164 571q0 391 252 655t659 265q408 0 631 -212t223 -542q0 -369 -105 -559t-276 -190q-86 0 -147 47t-90 110l-13 -16q-121 -141 -325 -141
q-166 0 -256 100t-90 240v411q0 139 90 239t256 101q211 0 334 -151v139h82v-752q0 -78 6 -106q53 -125 154 -125t186 124q45 67 71 204q27 137 27 327q0 309 -212 483t-544 173q-219 0 -402 -91q-183 -92 -300 -282t-117 -449q0 -391 234 -633t585 -243v-96
q-281 0 -491 137t-317 355q-105 218 -105 478z" />
    <glyph glyph-name="A" unicode="A" horiz-adv-x="1148" 
d="M297 545h555l-277 913zM1018 0l-139 459h-609l-139 -459h-100l495 1634h97l495 -1634h-100z" />
    <glyph glyph-name="B" unicode="B" horiz-adv-x="1325" 
d="M1061 416v53q0 147 -112 239t-257 93h-370v-717h370q145 0 257 92t112 240zM651 1548h-329v-661h329q145 0 257 91q112 90 112 238t-112 240t-257 92zM1157 471v-55q0 -164 -130 -290t-335 -126h-467v1632h426q205 0 335 -126t130 -289q0 -111 -62 -210t-173 -155
q127 -50 201 -156t75 -225z" />
    <glyph glyph-name="C" unicode="C" 
d="M632 74q146 0 258 92t111 237h97q0 -163 -130 -289t-336 -126t-336 126t-130 289v830q0 164 130 290t336 126t336 -126t130 -290h-97q0 145 -111 237q-112 92 -258 92t-258 -92t-112 -237v-830q0 -145 112 -237t258 -92z" />
    <glyph glyph-name="D" unicode="D" horiz-adv-x="1320" 
d="M1061 416v801q0 147 -112 239t-257 92h-370v-1464h370q145 0 257 92t112 240zM692 1632q205 0 335 -126t130 -289v-801q0 -164 -130 -290t-335 -126h-467v1632h467z" />
    <glyph glyph-name="E" unicode="E" horiz-adv-x="1130" 
d="M1016 1548h-694v-688h604v-86h-604v-688h694v-86h-791v1634l791 -2v-84z" />
    <glyph glyph-name="F" unicode="F" horiz-adv-x="1130" 
d="M1016 1548h-694v-688h604v-86h-604v-774h-99v1634l793 -2v-84z" />
    <glyph glyph-name="G" unicode="G" 
d="M623 860h475v-457q0 -163 -130 -289t-336 -126t-336 126t-130 289v830q0 164 130 290t336 126t336 -126t130 -290h-97q0 145 -111 237q-112 92 -258 92t-258 -92t-112 -237v-830q0 -145 112 -237t258 -92t258 92t111 237v373h-378v84z" />
    <glyph glyph-name="H" unicode="H" horiz-adv-x="1345" 
d="M1024 1634h96v-1634h-96v774h-700v-774h-99v1634h99v-774h700v774z" />
    <glyph glyph-name="I" unicode="I" horiz-adv-x="747" 
d="M625 1548h-205v-1462h205v-86h-504v86h203v1462h-203v84h504v-84z" />
    <glyph glyph-name="J" unicode="J" horiz-adv-x="995" 
d="M392 -12q-171 0 -279 108l65 66q45 -43 91 -66t122 -22q137 0 210 83t73 236v1241h96v-1261q0 -174 -103 -280q-104 -105 -275 -105z" />
    <glyph glyph-name="K" unicode="K" horiz-adv-x="1191" 
d="M322 815v-815h-97v1632h97v-733h253l390 733h108l-411 -774l501 -858h-106l-473 815h-262z" />
    <glyph glyph-name="L" unicode="L" horiz-adv-x="1077" 
d="M225 0v1632h97v-1546h694v-86h-791z" />
    <glyph glyph-name="M" unicode="M" horiz-adv-x="1581" 
d="M1356 1634v-1634h-99v1413l-423 -991h-89l-423 991v-1413h-97v1634h103l463 -1079l460 1079h105z" />
    <glyph glyph-name="N" unicode="N" horiz-adv-x="1439" 
d="M322 0h-97v1634h103l790 -1435v1435h96v-1634h-102l-790 1440v-1440z" />
    <glyph glyph-name="O" unicode="O" 
d="M1004 403v830q0 145 -112 237t-258 92t-258 -92t-112 -237v-830q0 -145 112 -237t258 -92t258 92t112 237zM634 1649q206 0 336 -126t130 -290v-830q0 -163 -130 -289t-336 -126t-336 126t-130 289v830q0 164 130 290t336 126z" />
    <glyph glyph-name="P" unicode="P" horiz-adv-x="1196" 
d="M637 573q147 -1 259 91t112 239v314q0 147 -112 239t-259 92h-315v-975h315zM637 1632q207 0 337 -126t130 -289v-314q0 -164 -130 -290t-337 -126h-315v-487h-97v1632h412z" />
    <glyph glyph-name="Q" unicode="Q" 
d="M1004 403v830q0 145 -112 237t-258 92t-258 -92t-112 -237v-830q0 -145 112 -237t257 -92q94 0 174 37l-172 378h104l146 -329q119 94 119 243zM1100 403q0 -94 -46 -181t-130 -146l147 -328h-100l-127 283q-98 -43 -211 -43q-205 0 -335 126t-130 289v830q0 164 130 290
t336 126t336 -126t130 -290v-830z" />
    <glyph glyph-name="R" unicode="R" horiz-adv-x="1196" 
d="M322 1548v-895h315q147 0 259 92t112 238v234q0 147 -112 239t-259 92h-315zM322 567v-567h-97v1632h412q207 0 337 -126t130 -289v-234q0 -111 -64 -210t-176 -155l277 -618h-101l-266 584q-70 -16 -137 -17h-315z" />
    <glyph glyph-name="S" unicode="S" 
d="M670 -12q-227 0 -356 120q-128 120 -148 353h96q18 -197 127 -292t279 -95t252 106t82 250t-78 230q-78 84 -303 140t-325 153q-99 97 -99 277t107 300q108 119 299 119t315 -109t145 -307h-98q-17 137 -107 233t-254 97q-96 0 -164 -38q-68 -39 -96 -99
q-50 -107 -51 -199v-44q0 -9 6 -46t17 -55q47 -75 94 -102q108 -63 245 -99q259 -68 351 -179t92 -266t-89 -293q-47 -71 -135 -113t-204 -42z" />
    <glyph glyph-name="T" unicode="T" horiz-adv-x="1034" 
d="M973 1632v-84h-408v-1548h-96v1548h-408v84h912z" />
    <glyph glyph-name="U" unicode="U" 
d="M1001 1634h97v-1231q0 -163 -130 -289t-335 -126t-335 126t-130 289v1231h96v-1231q0 -145 111 -237t257 -92t258 92t111 237v1231z" />
    <glyph glyph-name="V" unicode="V" horiz-adv-x="1128" 
d="M1008 1634h100l-498 -1634h-94l-496 1634h101l442 -1460z" />
    <glyph glyph-name="W" unicode="W" horiz-adv-x="1824" 
d="M1706 1634h98l-420 -1634h-102l-369 1440l-370 -1440h-103l-420 1634h101l371 -1448l370 1448h101l370 -1448z" />
    <glyph glyph-name="X" unicode="X" horiz-adv-x="1224" 
d="M670 848l518 -848h-115l-461 754l-460 -754h-115l518 848l-479 786h112l424 -694l424 694h113z" />
    <glyph glyph-name="Y" unicode="Y" horiz-adv-x="1128" 
d="M612 0h-96v555l-496 1079h101l442 -966l443 966h102l-496 -1079v-555z" />
    <glyph glyph-name="Z" unicode="Z" horiz-adv-x="1083" 
d="M954 1632v-84l-718 -1464h708v-84h-815v84l719 1464h-682v84h788z" />
    <glyph glyph-name="bracketleft" unicode="[" horiz-adv-x="593" 
d="M199 -152v1985h303v-92h-199v-1800h199v-93h-303z" />
    <glyph glyph-name="backslash" unicode="\" horiz-adv-x="753" 
d="M645 -152l-645 1938h109l645 -1938h-109z" />
    <glyph glyph-name="bracketright" unicode="]" horiz-adv-x="593" 
d="M395 1833v-1985h-303v93h199v1800h-199v92h303z" />
    <glyph glyph-name="asciicircum" unicode="^" horiz-adv-x="1052" 
d="M793 1028l-267 496l-266 -496h-104l323 606h94l324 -606h-104z" />
    <glyph glyph-name="underscore" unicode="_" horiz-adv-x="1052" 
d="M0 -328v78h1053v-78h-1053z" />
    <glyph glyph-name="grave" unicode="`" horiz-adv-x="1024" 
d="M489 1786l-217 301h138l198 -301h-119z" />
    <glyph glyph-name="a" unicode="a" horiz-adv-x="1067" 
d="M786 315v273h-325q-131 0 -193 -82t-61 -178q0 -96 61 -178q62 -82 200 -82t228 84t90 163zM516 1079q160 0 260 -96t101 -223v-760h-80v139q-125 -152 -336 -151q-166 0 -256 100t-90 240t90 239q90 100 256 101h325v104q0 82 -74 155q-75 73 -196 73q-120 0 -194 -74
t-74 -154h-92q6 125 103 216t257 91z" />
    <glyph glyph-name="b" unicode="b" horiz-adv-x="1122" 
d="M868 315v437q0 86 -62 167t-200 81t-227 -85q-90 -84 -90 -163v-437q0 -79 90 -163t227 -84t200 80q62 81 62 167zM614 1079q166 0 256 -100t91 -240v-411q-1 -140 -91 -240t-256 -100q-211 0 -333 151v-139h-82v1634h82v-706q122 151 333 151z" />
    <glyph glyph-name="c" unicode="c" horiz-adv-x="1011" 
d="M813 313h90q-1 -129 -109 -227t-274 -98t-272 102t-107 238v411q1 135 107 237t273 103q167 0 275 -100t107 -227h-90q0 80 -80 164t-210 83q-130 0 -210 -84t-80 -163v-437q0 -79 80 -163t210 -84t210 84t80 161z" />
    <glyph glyph-name="d" unicode="d" horiz-adv-x="1103" 
d="M233 752v-437q-1 -86 63 -167q64 -80 200 -80t227 84q90 84 90 163v437q0 80 -90 164q-91 84 -227 83t-200 -81t-63 -166zM141 739q0 139 90 239t256 101q211 0 336 -151v706h82v-1634h-82v139q-125 -152 -336 -151q-166 0 -256 100t-90 240v411z" />
    <glyph glyph-name="e" unicode="e" horiz-adv-x="1044" 
d="M522 999q-129 0 -210 -84t-81 -163v-138h582v138q0 80 -81 164t-210 83zM903 535h-672v-220q0 -79 81 -163t210 -84t210 84t81 163h90q-6 -131 -111 -229q-104 -98 -272 -98t-273 102t-106 238v411q-1 135 105 237t275 103q169 0 275 -102t107 -238v-204z" />
    <glyph glyph-name="f" unicode="f" horiz-adv-x="587" 
d="M422 1649h100v-82h-84q-133 0 -133 -144v-344h217v-67h-217v-1012h-92v1012h-119v67h119v342q0 102 54 165q55 63 155 63z" />
    <glyph glyph-name="g" unicode="g" horiz-adv-x="1101" 
d="M231 315q-1 -87 63 -167t201 -80t228 84q90 84 90 163v437q0 80 -90 164q-89 84 -227 83t-201 -81t-64 -166v-437zM821 1067h82v-1266q0 -127 -100 -223t-260 -96t-258 91t-103 216h90q0 -80 75 -154q75 -73 196 -73t195 72t75 155v340q-121 -141 -326 -141
q-166 0 -256 100t-90 240v411q0 139 90 239t256 101q211 0 334 -151v139z" />
    <glyph glyph-name="h" unicode="h" horiz-adv-x="1146" 
d="M616 1079q166 0 255 -100t90 -240v-739h-91v752q0 86 -63 167t-199 81t-227 -85q-90 -84 -90 -163v-752h-92v1634h82v-706q124 151 335 151z" />
    <glyph glyph-name="i" unicode="i" horiz-adv-x="462" 
d="M186 1634h90v-190h-90v190zM186 0v1067h90v-1067h-90z" />
    <glyph glyph-name="j" unicode="j" horiz-adv-x="462" 
d="M186 1634h90v-190h-90v190zM184 -295v1362h92v-1360q0 -101 -54 -163t-154 -62h-99v80h82q133 0 133 143z" />
    <glyph glyph-name="k" unicode="k" horiz-adv-x="1079" 
d="M291 520v-520h-92v1634h92v-1030h153l377 463h119l-412 -506l469 -561h-125l-428 520h-153z" />
    <glyph glyph-name="l" unicode="l" horiz-adv-x="489" 
d="M367 68h57v-80h-70q-76 0 -118 48t-41 124v1474h92v-1478q0 -88 80 -88z" />
    <glyph glyph-name="m" unicode="m" horiz-adv-x="1736" 
d="M1550 0h-90v752q0 53 -16 104t-72 97t-145 46q-145 0 -225 -83t-80 -164v-752h-93v752q0 53 -16 104q-17 51 -73 97t-144 46q-145 0 -225 -83t-80 -164v-752h-92v1067h82v-139q61 76 133 114t182 37q223 0 291 -188q32 64 112 123q35 25 97 45t131 20q151 -2 235 -92
t88 -248v-739z" />
    <glyph glyph-name="n" unicode="n" horiz-adv-x="1148" 
d="M616 1079q166 0 256 -100t91 -240v-739h-93v752q0 86 -63 167t-199 81t-227 -85q-90 -84 -90 -163v-752h-92v1067h82v-139q124 151 335 151z" />
    <glyph glyph-name="o" unicode="o" horiz-adv-x="1044" 
d="M813 315v437q0 80 -81 164t-210 83q-129 0 -210 -84t-81 -163v-437q0 -79 81 -163t210 -84t210 84t81 163zM141 739q-1 135 105 237t275 103q169 0 275 -102t107 -238v-411q0 -136 -106 -238q-105 -102 -275 -102t-275 102t-106 238v411z" />
    <glyph glyph-name="p" unicode="p" horiz-adv-x="1101" 
d="M870 315v437q0 86 -63 167t-199 81t-227 -85q-90 -84 -90 -163v-437q0 -79 90 -163t226 -84t200 80q63 81 63 167zM961 328q1 -140 -89 -240t-256 -100q-213 0 -335 151v-706h-82v1634h82v-139q123 152 335 151q166 0 255 -100t90 -240v-411z" />
    <glyph glyph-name="q" unicode="q" horiz-adv-x="1101" 
d="M231 752v-437q-1 -86 63 -167q64 -80 200 -80t227 84q90 84 90 163v437q0 80 -90 164q-91 84 -227 83t-200 -81t-63 -166zM141 328v411q0 139 89 239t255 101q213 0 336 -151v139h82v-1634h-82v706q-123 -152 -336 -151q-166 0 -255 100t-89 240z" />
    <glyph glyph-name="r" unicode="r" horiz-adv-x="636" 
d="M289 752v-752h-90v1067h82v-139l12 18q8 12 39 41q63 59 145 79q82 19 152 13v-80q-200 22 -294 -117q-46 -67 -46 -130z" />
    <glyph glyph-name="s" unicode="s" horiz-adv-x="931" 
d="M819 280q0 -138 -97 -215t-254 -77t-261 102t-105 272h91q1 -118 75 -206t200 -88t194 60t68 152t-56 145q-55 52 -220 88q-165 35 -243 103t-78 193q0 88 58 170q32 45 102 73t167 28q258 -1 319 -217q15 -52 16 -111h-93q-2 116 -62 182t-179 66t-178 -55
q-59 -54 -59 -138t52 -135q53 -51 214 -84t245 -102q84 -68 84 -206z" />
    <glyph glyph-name="t" unicode="t" horiz-adv-x="628" 
d="M207 213v799h-119v67h119v330h90v-330h217v-67h-217v-801q0 -143 133 -143h84v-80h-100q-98 0 -153 62q-54 63 -54 163z" />
    <glyph glyph-name="u" unicode="u" horiz-adv-x="1146" 
d="M532 -12q-166 0 -256 100t-90 240v739h93v-752q0 -86 62 -167q62 -80 199 -80t228 84q90 84 90 163v752h90v-1067h-82v139q-123 -151 -334 -151z" />
    <glyph glyph-name="v" unicode="v" horiz-adv-x="880" 
d="M758 1067h94l-360 -1067h-103l-360 1067h92l319 -977z" />
    <glyph glyph-name="w" unicode="w" horiz-adv-x="1511" 
d="M1391 1067h92l-336 -1067h-103l-288 946l-289 -946h-102l-336 1067h94l293 -977l293 977h94l293 -977z" />
    <glyph glyph-name="x" unicode="x" horiz-adv-x="1015" 
d="M557 567l377 -567h-96l-330 494l-328 -494h-98l377 567l-332 500h98l283 -426l283 426h98z" />
    <glyph glyph-name="y" unicode="y" horiz-adv-x="880" 
d="M268 -506l152 469l-391 1104h94l338 -977l299 977h92l-510 -1573h-74z" />
    <glyph glyph-name="z" unicode="z" horiz-adv-x="1003" 
d="M893 1067v-82l-680 -903h670v-82h-772v82l682 903h-646v82h746z" />
    <glyph glyph-name="braceleft" unicode="{" horiz-adv-x="647" 
d="M369 1020q0 -80 -29 -126t-96 -79q68 -33 96 -79t29 -126v-510q-1 -104 27 -132t122 -27h27v-93h-29q-144 0 -198 54t-54 196v512q-2 84 -39 122t-86 38h-37v90h37q49 0 87 38t38 124v514q0 142 54 196t198 54h29v-92h-27q-94 0 -122 -28t-27 -132v-514z" />
    <glyph glyph-name="bar" unicode="|" horiz-adv-x="649" 
d="M272 -152v1938h105v-1938h-105z" />
    <glyph glyph-name="braceright" unicode="}" horiz-adv-x="647" 
d="M279 1020v514q0 104 -28 132t-122 28h-27v92h29q143 0 197 -54t55 -196v-514q0 -86 38 -124t87 -38h37v-90h-37q-49 0 -86 -38t-39 -122v-512q0 -141 -54 -195t-198 -55h-29v93h27q94 -1 122 27t28 132v510q0 80 28 126q29 46 96 79q-68 33 -96 79t-28 126z" />
    <glyph glyph-name="asciitilde" unicode="~" horiz-adv-x="1052" 
d="M710 528q-60 0 -192 56t-176 55q-45 0 -78 -16t-92 -76l-63 63q80 80 127 104t107 24q59 0 191 -56q132 -55 178 -55t78 16t91 76l63 -64q-80 -79 -127 -103t-107 -24z" />
    <glyph glyph-name="exclamdown" unicode="&#xa1;" horiz-adv-x="622" 
d="M213 850v137h137v-137h-137zM225 -471l6 1065h101l6 -1065h-113z" />
    <glyph glyph-name="cent" unicode="&#xa2;" horiz-adv-x="1019" 
d="M266 510q0 -72 67 -151t177 -95v928q-112 -16 -178 -95t-66 -151v-436zM846 508h90q0 -119 -94 -214t-244 -110v-184h-88v184q-150 14 -243 114t-93 224v412q0 125 93 224t243 114v186h88v-186q150 -14 244 -110t94 -216h-90q0 72 -68 151t-180 95v-928q112 16 180 95
t68 149z" />
    <glyph glyph-name="sterling" unicode="&#xa3;" horiz-adv-x="1009" 
d="M897 98v-98h-752v86q109 258 109 555q0 23 -4 59h-148v78h138q-6 37 -54 190q-47 152 -47 264q0 305 285 394q72 23 140 23q215 0 325 -138l-66 -65q-10 12 -29 32t-86 54q-67 33 -139 33q-151 -1 -235 -95t-84 -237q0 -82 45 -244t53 -211h350v-78h-338q2 -20 2 -120
q0 -225 -96 -482h631z" />
    <glyph glyph-name="yen" unicode="&#xa5;" horiz-adv-x="1128" 
d="M981 854v-96h-274l-95 -203v-14h369v-97h-369v-444h-96v444h-371v97h371v14l-92 203h-279v96h234l-359 780h101l442 -966l443 966h102l-358 -780h231z" />
    <glyph glyph-name="section" unicode="&#xa7;" horiz-adv-x="1159" 
d="M823 612q1 135 -77 213t-196 78t-193 -81t-74 -210v-71q1 -131 75 -211t195 -80t196 81t74 210v71zM934 541q0 -123 -64 -213t-161 -135q98 -33 154 -112t57 -187v-72q0 -150 -102 -246t-263 -96q-160 0 -263 84t-116 233h111q20 -219 266 -219q119 0 187 64t69 180v72
q0 82 -52 143t-141 86l-170 47q-130 37 -202 136t-72 235v71q0 123 64 213t161 136q-203 86 -202 288v72q0 150 103 239t254 89t254 -83t112 -227h-109q-20 213 -256 213q-119 0 -185 -58t-65 -173v-72q0 -166 186 -219l170 -47q127 -37 201 -137t74 -234v-71z" />
    <glyph glyph-name="dieresis" unicode="&#xa8;" horiz-adv-x="1024" 
d="M666 1786v158h118v-158h-118zM240 1786v158h118v-158h-118z" />
    <glyph glyph-name="copyright" unicode="&#xa9;" horiz-adv-x="1830" 
d="M1204 887v-13h-92v13q0 53 -53 109t-143 56t-142 -58q-53 -58 -53 -107v-314q0 -49 53 -107t142 -58q88 0 142 55t54 108v13h92v-13q0 -98 -83 -173q-83 -74 -205 -74t-209 79q-78 78 -78 179v297q0 100 78 178q85 80 209 80t206 -76t82 -174zM915 78q264 0 454 193
q189 194 190 458t-189 458q-190 193 -454 193t-454 -194t-190 -457t190 -457t453 -194zM915 1470q307 0 525 -217t217 -524q0 -307 -217 -524q-216 -217 -524 -217t-525 217t-217 524t217 524t524 217z" />
    <glyph glyph-name="ordfeminine" unicode="&#xaa;" horiz-adv-x="915" 
d="M641 1225h-238q-195 0 -194 -154q0 -76 47 -112q47 -35 165 -35t179 57q41 41 41 147v97zM641 1382q-1 187 -199 187q-98 0 -145 -22t-84 -77l-66 56q51 70 116 96t163 27q303 0 303 -258v-537h-88v74q-85 -84 -241 -84q-278 0 -279 231q0 103 72 162t200 59h248v86z" />
    <glyph glyph-name="guillemotleft" unicode="&#xab;" horiz-adv-x="1079" 
d="M510 645l401 402v-136l-266 -266l266 -266v-135zM86 645l401 402v-136l-266 -266l266 -266v-135z" />
    <glyph glyph-name="logicalnot" unicode="&#xac;" horiz-adv-x="1052" 
d="M848 219v273h-739v96h835v-369h-96z" />
    <glyph glyph-name="registered" unicode="&#xae;" horiz-adv-x="1830" 
d="M924 682q74 0 129 44t55 118v35q0 71 -55 117t-129 46h-154v-360h154zM924 596h-154v-262h-92v794h246q117 0 202 -77q74 -74 74 -172v-35q0 -134 -125 -209l133 -301h-98l-121 268q-35 -6 -65 -6zM915 76q264 0 455 193q190 194 191 460q-1 266 -191 460
q-190 193 -454 193t-455 -194t-191 -459t190 -459t455 -194zM915 1470q307 0 525 -217t217 -524q0 -307 -217 -524q-216 -217 -524 -217t-525 217t-217 524t217 524t524 217z" />
    <glyph glyph-name="macron" unicode="&#xaf;" horiz-adv-x="1024" 
d="M815 1833h-606v94h606v-94z" />
    <glyph glyph-name="degree" unicode="&#xb0;" horiz-adv-x="937" 
d="M698 1323q0 100 -66 169q-67 69 -165 69t-163 -67q-64 -67 -64 -169t66 -169q66 -66 163 -66q98 0 164 66q65 67 65 167zM791 1325q-1 -133 -95 -227t-227 -94t-227 94t-95 227q1 133 95 227t227 94t227 -94t95 -227z" />
    <glyph glyph-name="plusminus" unicode="&#xb1;" horiz-adv-x="1052" 
d="M944 180h-835v96h835v-96zM944 733h-369v-373h-96v373h-370v96h370v371h96v-371h369v-96z" />
    <glyph glyph-name="acute" unicode="&#xb4;" horiz-adv-x="1024" 
d="M535 1786h-119l198 301h138z" />
    <glyph glyph-name="uni00B5" unicode="&#xb5;" horiz-adv-x="1138" 
d="M836 0v117q-111 -129 -282 -129t-269 92v-551h-105v1458h105v-612q-1 -143 69 -219t203 -76t206 77t73 218v612h104v-987h-104z" />
    <glyph glyph-name="paragraph" unicode="&#xb6;" horiz-adv-x="1185" 
d="M856 -471v1831h-252v-1831h-104v1151q-186 0 -297 118t-111 274t116 272q116 114 316 114h437v-1929h-105z" />
    <glyph glyph-name="periodcentered" unicode="&#xb7;" horiz-adv-x="540" 
d="M195 528v152h151v-152h-151z" />
    <glyph glyph-name="cedilla" unicode="&#xb8;" horiz-adv-x="1024" 
d="M500 -451h-129l147 308h113z" />
    <glyph glyph-name="ordmasculine" unicode="&#xba;" horiz-adv-x="925" 
d="M690 1247q0 188 -66 255t-161 67q-94 0 -161 -67q-66 -67 -66 -255t66 -255q66 -66 161 -66t161 66t66 255zM778 1247q0 -217 -92 -309t-223 -92t-223 92t-93 309q1 217 93 309t223 93q131 -1 223 -93t92 -309z" />
    <glyph glyph-name="guillemotright" unicode="&#xbb;" horiz-adv-x="1079" 
d="M592 244v135l266 266l-266 266v136l401 -402zM168 244v135l266 266l-266 266v136l401 -402z" />
    <glyph glyph-name="questiondown" unicode="&#xbf;" horiz-adv-x="999" 
d="M897 -301q-1 -153 -103 -257t-261 -104t-264 104t-105 257v180q0 113 90 244l174 256q37 53 37 123v96h104v-92q0 -98 -59 -184l-172 -254q-68 -98 -70 -189v-180q0 -115 75 -192t189 -77t188 80q73 79 73 189h104zM586 989v-137h-137v137h137z" />
    <glyph glyph-name="Agrave" unicode="&#xc0;" horiz-adv-x="1148" 
d="M623 1786l-217 301h137l198 -301h-118zM297 545h555l-277 913zM1018 0l-139 459h-609l-139 -459h-100l495 1634h97l495 -1634h-100z" />
    <glyph glyph-name="Aacute" unicode="&#xc1;" horiz-adv-x="1148" 
d="M526 1786h-118l198 301h137zM297 545h555l-277 913zM1018 0l-139 459h-609l-139 -459h-100l495 1634h97l495 -1634h-100z" />
    <glyph glyph-name="Acircumflex" unicode="&#xc2;" horiz-adv-x="1148" 
d="M764 1786l-191 223l-190 -223h-117l252 301h111l252 -301h-117zM297 545h555l-277 913zM1018 0l-139 459h-609l-139 -459h-100l495 1634h97l495 -1634h-100z" />
    <glyph glyph-name="Atilde" unicode="&#xc3;" horiz-adv-x="1148" 
d="M702 1798q-55 0 -135 46t-127 46t-114 -67l-62 59q98 98 172 98t148 -46t122 -46t117 68l62 -60q-98 -98 -183 -98zM297 545h555l-277 913zM1018 0l-139 459h-609l-139 -459h-100l495 1634h97l495 -1634h-100z" />
    <glyph glyph-name="Adieresis" unicode="&#xc4;" horiz-adv-x="1148" 
d="M727 1786v158h119v-158h-119zM301 1786v158h119v-158h-119zM297 545h555l-277 913zM1018 0l-139 459h-609l-139 -459h-100l495 1634h97l495 -1634h-100z" />
    <glyph glyph-name="Aring" unicode="&#xc5;" horiz-adv-x="1148" 
d="M723 1946q0 61 -44 104q-43 43 -105 43t-106 -43t-44 -104q0 -62 44 -106t105 -44t106 44q44 45 44 106zM807 1946q0 -96 -69 -166t-165 -70q-97 0 -165 70t-68 166t69 164t165 69q96 -1 164 -69q69 -68 69 -164zM297 545h555l-277 913zM1018 0l-139 459h-609l-139 -459
h-100l495 1634h97l495 -1634h-100z" />
    <glyph glyph-name="AE" unicode="&#xc6;" horiz-adv-x="1845" 
d="M848 453v907l-475 -907h475zM848 0v354h-522l-185 -354h-121l773 1458h938v-98h-775v-582h660v-98h-660v-582h775v-98h-883z" />
    <glyph glyph-name="Ccedilla" unicode="&#xc7;" 
d="M633 -451h-129l147 308h113zM632 74q146 0 258 92t111 237h97q0 -163 -130 -289t-336 -126t-336 126t-130 289v830q0 164 130 290t336 126t336 -126t130 -290h-97q0 145 -111 237q-112 92 -258 92t-258 -92t-112 -237v-830q0 -145 112 -237t258 -92z" />
    <glyph glyph-name="Egrave" unicode="&#xc8;" horiz-adv-x="1130" 
d="M614 1786l-217 301h138l198 -301h-119zM1016 1548h-694v-688h604v-86h-604v-688h694v-86h-791v1634l791 -2v-84z" />
    <glyph glyph-name="Eacute" unicode="&#xc9;" horiz-adv-x="1130" 
d="M516 1786h-119l199 301h137zM1016 1548h-694v-688h604v-86h-604v-688h694v-86h-791v1634l791 -2v-84z" />
    <glyph glyph-name="Ecircumflex" unicode="&#xca;" horiz-adv-x="1130" 
d="M756 1786l-191 223l-190 -223h-117l252 301h111l251 -301h-116zM1016 1548h-694v-688h604v-86h-604v-688h694v-86h-791v1634l791 -2v-84z" />
    <glyph glyph-name="Edieresis" unicode="&#xcb;" horiz-adv-x="1130" 
d="M780 1786v158h119v-158h-119zM354 1786v158h119v-158h-119zM1016 1548h-694v-688h604v-86h-604v-688h694v-86h-791v1634l791 -2v-84z" />
    <glyph glyph-name="Igrave" unicode="&#xcc;" horiz-adv-x="747" 
d="M424 1786l-217 301h137l199 -301h-119zM625 1548h-205v-1462h205v-86h-504v86h203v1462h-203v84h504v-84z" />
    <glyph glyph-name="Iacute" unicode="&#xcd;" horiz-adv-x="747" 
d="M326 1786h-119l199 301h137zM625 1548h-205v-1462h205v-86h-504v86h203v1462h-203v84h504v-84z" />
    <glyph glyph-name="Icircumflex" unicode="&#xce;" horiz-adv-x="747" 
d="M565 1786l-190 223l-191 -223h-116l251 301h111l252 -301h-117zM625 1548h-205v-1462h205v-86h-504v86h203v1462h-203v84h504v-84z" />
    <glyph glyph-name="Idieresis" unicode="&#xcf;" horiz-adv-x="747" 
d="M528 1786v158h119v-158h-119zM102 1786v158h119v-158h-119zM625 1548h-205v-1462h205v-86h-504v86h203v1462h-203v84h504v-84z" />
    <glyph glyph-name="Ntilde" unicode="&#xd1;" horiz-adv-x="1439" 
d="M848 1798q-55 0 -135 46t-127 46t-115 -67l-61 59q98 98 172 98t147 -46q74 -46 123 -46t117 68l61 -60q-98 -98 -182 -98zM322 0h-97v1634h103l790 -1435v1435h96v-1634h-102l-790 1440v-1440z" />
    <glyph glyph-name="Ograve" unicode="&#xd2;" 
d="M682 1786l-217 301h137l199 -301h-119zM1004 403v830q0 145 -112 237t-258 92t-258 -92t-112 -237v-830q0 -145 112 -237t258 -92t258 92t112 237zM634 1649q206 0 336 -126t130 -290v-830q0 -163 -130 -289t-336 -126t-336 126t-130 289v830q0 164 130 290t336 126z" />
    <glyph glyph-name="Oacute" unicode="&#xd3;" 
d="M584 1786h-119l199 301h137zM1004 403v830q0 145 -112 237t-258 92t-258 -92t-112 -237v-830q0 -145 112 -237t258 -92t258 92t112 237zM634 1649q206 0 336 -126t130 -290v-830q0 -163 -130 -289t-336 -126t-336 126t-130 289v830q0 164 130 290t336 126z" />
    <glyph glyph-name="Ocircumflex" unicode="&#xd4;" 
d="M823 1786l-190 223l-191 -223h-116l252 301h110l252 -301h-117zM1004 403v830q0 145 -112 237t-258 92t-258 -92t-112 -237v-830q0 -145 112 -237t258 -92t258 92t112 237zM634 1649q206 0 336 -126t130 -290v-830q0 -163 -130 -289t-336 -126t-336 126t-130 289v830
q0 164 130 290t336 126z" />
    <glyph glyph-name="Otilde" unicode="&#xd5;" 
d="M762 1798q-55 0 -135 46t-127 46t-115 -67l-61 59q98 98 172 98t147 -46q74 -46 123 -46t117 68l61 -60q-98 -98 -182 -98zM1004 403v830q0 145 -112 237t-258 92t-258 -92t-112 -237v-830q0 -145 112 -237t258 -92t258 92t112 237zM634 1649q206 0 336 -126t130 -290
v-830q0 -163 -130 -289t-336 -126t-336 126t-130 289v830q0 164 130 290t336 126z" />
    <glyph glyph-name="Odieresis" unicode="&#xd6;" 
d="M786 1786v158h119v-158h-119zM360 1786v158h119v-158h-119zM1004 403v830q0 145 -112 237t-258 92t-258 -92t-112 -237v-830q0 -145 112 -237t258 -92t258 92t112 237zM634 1649q206 0 336 -126t130 -290v-830q0 -163 -130 -289t-336 -126t-336 126t-130 289v830
q0 164 130 290t336 126z" />
    <glyph glyph-name="Oslash" unicode="&#xd8;" 
d="M1004 401v830q0 133 -103 229l-448 -1347q86 -41 180 -41q147 0 259 92t112 237zM264 401q0 -137 101 -227l448 1346q-86 41 -180 41q-145 -1 -257 -93t-112 -237v-830zM1100 1231v-830q0 -163 -130 -289t-337 -126q-111 0 -209 43l-59 -181h-109l78 234
q-166 125 -166 319v830q0 164 130 290t335 126q115 0 209 -41l59 180h109l-78 -234q168 -127 168 -321z" />
    <glyph glyph-name="Ugrave" unicode="&#xd9;" 
d="M682 1786l-217 301h137l199 -301h-119zM1001 1634h97v-1231q0 -163 -130 -289t-335 -126t-335 126t-130 289v1231h96v-1231q0 -145 111 -237t257 -92t258 92t111 237v1231z" />
    <glyph glyph-name="Uacute" unicode="&#xda;" 
d="M584 1786h-119l199 301h137zM1001 1634h97v-1231q0 -163 -130 -289t-335 -126t-335 126t-130 289v1231h96v-1231q0 -145 111 -237t257 -92t258 92t111 237v1231z" />
    <glyph glyph-name="Ucircumflex" unicode="&#xdb;" 
d="M823 1786l-190 223l-191 -223h-116l252 301h110l252 -301h-117zM1001 1634h97v-1231q0 -163 -130 -289t-335 -126t-335 126t-130 289v1231h96v-1231q0 -145 111 -237t257 -92t258 92t111 237v1231z" />
    <glyph glyph-name="Udieresis" unicode="&#xdc;" 
d="M786 1786v158h119v-158h-119zM360 1786v158h119v-158h-119zM1001 1634h97v-1231q0 -163 -130 -289t-335 -126t-335 126t-130 289v1231h96v-1231q0 -145 111 -237t257 -92t258 92t111 237v1231z" />
    <glyph glyph-name="germandbls" unicode="&#xdf;" horiz-adv-x="1112" 
d="M938 1157q0 -100 -51 -183t-137 -130q86 -45 137 -129t51 -185v-186q0 -148 -104 -252t-252 -104v86q110 0 188 78t78 188v197q0 109 -79 187t-187 77v86q110 0 188 79t78 187v145q0 109 -79 187t-187 78t-188 -78q-79 -78 -79 -187v-1310h-90v1304q1 148 105 252
t252 104t252 -104t104 -252v-135z" />
    <glyph glyph-name="agrave" unicode="&#xe0;" horiz-adv-x="1067" 
d="M582 1286l-217 301h137l198 -301h-118zM786 315v273h-325q-131 0 -193 -82t-61 -178q0 -96 61 -178q62 -82 200 -82t228 84t90 163zM516 1079q160 0 260 -96t101 -223v-760h-80v139q-125 -152 -336 -151q-166 0 -256 100t-90 240t90 239q90 100 256 101h325v104
q0 82 -74 155q-75 73 -196 73q-120 0 -194 -74t-74 -154h-92q6 125 103 216t257 91z" />
    <glyph glyph-name="aacute" unicode="&#xe1;" horiz-adv-x="1067" 
d="M485 1286h-118l198 301h137zM786 315v273h-325q-131 0 -193 -82t-61 -178q0 -96 61 -178q62 -82 200 -82t228 84t90 163zM516 1079q160 0 260 -96t101 -223v-760h-80v139q-125 -152 -336 -151q-166 0 -256 100t-90 240t90 239q90 100 256 101h325v104q0 82 -74 155
q-75 73 -196 73q-120 0 -194 -74t-74 -154h-92q6 125 103 216t257 91z" />
    <glyph glyph-name="acircumflex" unicode="&#xe2;" horiz-adv-x="1067" 
d="M723 1262l-191 223l-190 -223h-117l252 301h111l252 -301h-117zM786 315v273h-325q-131 0 -193 -82t-61 -178q0 -96 61 -178q62 -82 200 -82t228 84t90 163zM516 1079q160 0 260 -96t101 -223v-760h-80v139q-125 -152 -336 -151q-166 0 -256 100t-90 240t90 239
q90 100 256 101h325v104q0 82 -74 155q-75 73 -196 73q-120 0 -194 -74t-74 -154h-92q6 125 103 216t257 91z" />
    <glyph glyph-name="atilde" unicode="&#xe3;" horiz-adv-x="1067" 
d="M400 1391q-46 0 -115 -68l-62 59q98 98 172 98t148 -45q74 -46 123 -46t116 67l62 -59q-98 -98 -182 -99q-56 0 -136 46t-126 47zM786 315v273h-325q-131 0 -193 -82t-61 -178q0 -96 61 -178q62 -82 200 -82t228 84t90 163zM516 1079q160 0 260 -96t101 -223v-760h-80
v139q-125 -152 -336 -151q-166 0 -256 100t-90 240t90 239q90 100 256 101h325v104q0 82 -74 155q-75 73 -196 73q-120 0 -194 -74t-74 -154h-92q6 125 103 216t257 91z" />
    <glyph glyph-name="adieresis" unicode="&#xe4;" horiz-adv-x="1067" 
d="M686 1327v158h119v-158h-119zM260 1327v158h119v-158h-119zM786 315v273h-325q-131 0 -193 -82t-61 -178q0 -96 61 -178q62 -82 200 -82t228 84t90 163zM516 1079q160 0 260 -96t101 -223v-760h-80v139q-125 -152 -336 -151q-166 0 -256 100t-90 240t90 239
q90 100 256 101h325v104q0 82 -74 155q-75 73 -196 73q-120 0 -194 -74t-74 -154h-92q6 125 103 216t257 91z" />
    <glyph glyph-name="aring" unicode="&#xe5;" horiz-adv-x="1067" 
d="M682 1487q0 61 -44 104t-106 43t-105 -43q-44 -43 -44 -104t44 -105t105 -45q61 0 106 44q44 45 44 106zM766 1487q0 -96 -69 -166t-165 -70t-164 70t-69 166q0 96 69 165q68 68 164 68t165 -68t69 -165zM786 315v273h-325q-131 0 -193 -82t-61 -178q0 -96 61 -178
q62 -82 200 -82t228 84t90 163zM516 1079q160 0 260 -96t101 -223v-760h-80v139q-125 -152 -336 -151q-166 0 -256 100t-90 240t90 239q90 100 256 101h325v104q0 82 -74 155q-75 73 -196 73q-120 0 -194 -74t-74 -154h-92q6 125 103 216t257 91z" />
    <glyph glyph-name="ae" unicode="&#xe6;" horiz-adv-x="1689" 
d="M786 315v242h-325q-127 0 -191 -74t-63 -171q0 -97 63 -171q64 -73 200 -73t226 84t90 163zM1167 999q-129 0 -210 -84t-80 -163v-117h581v117q0 80 -81 164t-210 83zM877 555v-240q1 -79 81 -163t209 -84t210 84t81 163h90q-6 -131 -111 -229t-270 -98q-121 0 -211 53
t-135 141l-24 -43q-125 -152 -336 -151q-162 0 -254 92t-92 232t92 232t254 93h325v135q0 82 -74 155q-75 73 -196 73q-120 0 -194 -74t-74 -154h-92q6 125 103 216t257 91q109 0 192 -47t128 -125q49 78 134 125t197 47q169 0 275 -102t106 -238v-184h-671z" />
    <glyph glyph-name="ccedilla" unicode="&#xe7;" horiz-adv-x="1011" 
d="M504 -451h-129l147 308h113zM813 313h90q-1 -129 -109 -227t-274 -98t-272 102t-107 238v411q1 135 107 237t273 103q167 0 275 -100t107 -227h-90q0 80 -80 164t-210 83q-130 0 -210 -84t-80 -163v-437q0 -79 80 -163t210 -84t210 84t80 161z" />
    <glyph glyph-name="egrave" unicode="&#xe8;" horiz-adv-x="1044" 
d="M571 1288l-217 301h138l198 -301h-119zM522 999q-129 0 -210 -84t-81 -163v-138h582v138q0 80 -81 164t-210 83zM903 535h-672v-220q0 -79 81 -163t210 -84t210 84t81 163h90q-6 -131 -111 -229q-104 -98 -272 -98t-273 102t-106 238v411q-1 135 105 237t275 103
q169 0 275 -102t107 -238v-204z" />
    <glyph glyph-name="eacute" unicode="&#xe9;" horiz-adv-x="1044" 
d="M473 1288h-119l199 301h137zM522 999q-129 0 -210 -84t-81 -163v-138h582v138q0 80 -81 164t-210 83zM903 535h-672v-220q0 -79 81 -163t210 -84t210 84t81 163h90q-6 -131 -111 -229q-104 -98 -272 -98t-273 102t-106 238v411q-1 135 105 237t275 103q169 0 275 -102
t107 -238v-204z" />
    <glyph glyph-name="ecircumflex" unicode="&#xea;" horiz-adv-x="1044" 
d="M713 1260l-191 223l-190 -223h-117l252 301h111l251 -301h-116zM522 999q-129 0 -210 -84t-81 -163v-138h582v138q0 80 -81 164t-210 83zM903 535h-672v-220q0 -79 81 -163t210 -84t210 84t81 163h90q-6 -131 -111 -229q-104 -98 -272 -98t-273 102t-106 238v411
q-1 135 105 237t275 103q169 0 275 -102t107 -238v-204z" />
    <glyph glyph-name="edieresis" unicode="&#xeb;" horiz-adv-x="1044" 
d="M676 1325v158h119v-158h-119zM250 1325v158h119v-158h-119zM522 999q-129 0 -210 -84t-81 -163v-138h582v138q0 80 -81 164t-210 83zM903 535h-672v-220q0 -79 81 -163t210 -84t210 84t81 163h90q-6 -131 -111 -229q-104 -98 -272 -98t-273 102t-106 238v411
q-1 135 105 237t275 103q169 0 275 -102t107 -238v-204z" />
    <glyph glyph-name="igrave" unicode="&#xec;" horiz-adv-x="462" 
d="M281 1286l-218 301h138l198 -301h-118zM186 0v1067h90v-1067h-90z" />
    <glyph glyph-name="iacute" unicode="&#xed;" horiz-adv-x="462" 
d="M182 1288h-119l199 301h137zM186 0v1067h90v-1067h-90z" />
    <glyph glyph-name="icircumflex" unicode="&#xee;" horiz-adv-x="462" 
d="M422 1262l-191 223l-190 -223h-117l252 301h111l252 -301h-117zM186 0v1067h90v-1067h-90z" />
    <glyph glyph-name="idieresis" unicode="&#xef;" horiz-adv-x="462" 
d="M385 1325v158h119v-158h-119zM-41 1325v158h119v-158h-119zM186 0v1067h90v-1067h-90z" />
    <glyph glyph-name="ntilde" unicode="&#xf1;" horiz-adv-x="1148" 
d="M440 1393q-47 0 -114 -68l-62 59q98 98 172 98t148 -45q74 -46 122 -46t117 67l62 -59q-98 -98 -183 -99q-55 0 -135 46t-127 47zM616 1079q166 0 256 -100t91 -240v-739h-93v752q0 86 -63 167t-199 81t-227 -85q-90 -84 -90 -163v-752h-92v1067h82v-139q124 151 335 151
z" />
    <glyph glyph-name="ograve" unicode="&#xf2;" horiz-adv-x="1044" 
d="M571 1286l-217 301h138l198 -301h-119zM813 315v437q0 80 -81 164t-210 83q-129 0 -210 -84t-81 -163v-437q0 -79 81 -163t210 -84t210 84t81 163zM141 739q-1 135 105 237t275 103q169 0 275 -102t107 -238v-411q0 -136 -106 -238q-105 -102 -275 -102t-275 102
t-106 238v411z" />
    <glyph glyph-name="oacute" unicode="&#xf3;" horiz-adv-x="1044" 
d="M473 1286h-119l199 301h137zM813 315v437q0 80 -81 164t-210 83q-129 0 -210 -84t-81 -163v-437q0 -79 81 -163t210 -84t210 84t81 163zM141 739q-1 135 105 237t275 103q169 0 275 -102t107 -238v-411q0 -136 -106 -238q-105 -102 -275 -102t-275 102t-106 238v411z" />
    <glyph glyph-name="ocircumflex" unicode="&#xf4;" horiz-adv-x="1044" 
d="M713 1262l-191 223l-190 -223h-117l252 301h111l251 -301h-116zM813 315v437q0 80 -81 164t-210 83q-129 0 -210 -84t-81 -163v-437q0 -79 81 -163t210 -84t210 84t81 163zM141 739q-1 135 105 237t275 103q169 0 275 -102t107 -238v-411q0 -136 -106 -238
q-105 -102 -275 -102t-275 102t-106 238v411z" />
    <glyph glyph-name="otilde" unicode="&#xf5;" horiz-adv-x="1044" 
d="M387 1393q-47 0 -115 -68l-61 59q97 98 171 98t148 -45q74 -46 124 -46q48 0 116 67l61 -59q-98 -98 -182 -99q-55 0 -135 46t-127 47zM813 315v437q0 80 -81 164t-210 83q-129 0 -210 -84t-81 -163v-437q0 -79 81 -163t210 -84t210 84t81 163zM141 739q-1 135 105 237
t275 103q169 0 275 -102t107 -238v-411q0 -136 -106 -238q-105 -102 -275 -102t-275 102t-106 238v411z" />
    <glyph glyph-name="odieresis" unicode="&#xf6;" horiz-adv-x="1044" 
d="M676 1325v158h119v-158h-119zM250 1325v158h119v-158h-119zM813 315v437q0 80 -81 164t-210 83q-129 0 -210 -84t-81 -163v-437q0 -79 81 -163t210 -84t210 84t81 163zM141 739q-1 135 105 237t275 103q169 0 275 -102t107 -238v-411q0 -136 -106 -238
q-105 -102 -275 -102t-275 102t-106 238v411z" />
    <glyph glyph-name="divide" unicode="&#xf7;" horiz-adv-x="1052" 
d="M455 233v144h143v-144h-143zM455 924v143h143v-143h-143zM109 602v96h835v-96h-835z" />
    <glyph glyph-name="oslash" unicode="&#xf8;" horiz-adv-x="1044" 
d="M813 315v437q0 66 -51 131l-414 -760q76 -55 190 -55t194 84q81 84 81 163zM231 315q0 -59 54 -129l413 760q-74 53 -190 53t-196 -84q-81 -84 -81 -163v-437zM903 739v-411q0 -136 -106 -238t-275 -102q-123 0 -215 59l-63 -115h-99l93 168q-96 100 -97 228v411
q-1 135 105 237t276 103q125 0 217 -57l64 115h98l-92 -170q94 -98 94 -228z" />
    <glyph glyph-name="ugrave" unicode="&#xf9;" horiz-adv-x="1146" 
d="M623 1288l-217 301h137l198 -301h-118zM532 -12q-166 0 -256 100t-90 240v739h93v-752q0 -86 62 -167q62 -80 199 -80t228 84q90 84 90 163v752h90v-1067h-82v139q-123 -151 -334 -151z" />
    <glyph glyph-name="uacute" unicode="&#xfa;" horiz-adv-x="1146" 
d="M524 1288h-118l198 301h137zM532 -12q-166 0 -256 100t-90 240v739h93v-752q0 -86 62 -167q62 -80 199 -80t228 84q90 84 90 163v752h90v-1067h-82v139q-123 -151 -334 -151z" />
    <glyph glyph-name="ucircumflex" unicode="&#xfb;" horiz-adv-x="1146" 
d="M764 1262l-191 223l-190 -223h-117l252 301h111l252 -301h-117zM532 -12q-166 0 -256 100t-90 240v739h93v-752q0 -86 62 -167q62 -80 199 -80t228 84q90 84 90 163v752h90v-1067h-82v139q-123 -151 -334 -151z" />
    <glyph glyph-name="udieresis" unicode="&#xfc;" horiz-adv-x="1146" 
d="M727 1325v158h119v-158h-119zM301 1325v158h119v-158h-119zM532 -12q-166 0 -256 100t-90 240v739h93v-752q0 -86 62 -167q62 -80 199 -80t228 84q90 84 90 163v752h90v-1067h-82v139q-123 -151 -334 -151z" />
    <glyph glyph-name="ydieresis" unicode="&#xff;" horiz-adv-x="880" 
d="M594 1327v158h119v-158h-119zM168 1327v158h119v-158h-119zM268 -506l152 469l-391 1104h94l338 -977l299 977h92l-510 -1573h-74z" />
    <glyph glyph-name="dotlessi" unicode="&#x131;" horiz-adv-x="462" 
d="M186 0v1067h90v-1067h-90z" />
    <glyph glyph-name="OE" unicode="&#x152;" horiz-adv-x="1906" 
d="M634 74q146 0 258 92t112 237v830q0 145 -112 237t-258 92t-258 -92t-112 -237v-830q0 -145 112 -237t258 -92zM1794 1548h-694v-688h604v-86h-604v-688h694v-86h-790v180q-129 -193 -371 -192q-205 0 -335 126t-130 289v830q0 164 130 290t335 126q242 0 371 -191v176
l790 -2v-84z" />
    <glyph glyph-name="oe" unicode="&#x153;" horiz-adv-x="1716" 
d="M813 315v437q0 80 -81 164t-210 83q-129 0 -210 -84t-81 -163v-437q0 -79 81 -163t210 -84t210 84t81 163zM903 752v-138h582v138q0 80 -81 164t-210 83q-129 1 -210 -83t-81 -164zM1575 535h-672v-220q0 -79 81 -163t210 -84t210 84t81 163h90q-5 -131 -111 -229
t-270 -98q-125 0 -212 64t-126 165q-37 -100 -124 -165t-210 -64q-170 0 -275 102t-106 238v411q-1 135 105 237t276 103q123 -1 210 -65t126 -162q39 98 126 163t210 64q168 0 274 -102t107 -238v-204z" />
    <glyph glyph-name="Ydieresis" unicode="&#x178;" horiz-adv-x="1128" 
d="M717 1786v158h119v-158h-119zM291 1786v158h119v-158h-119zM612 0h-96v555l-496 1079h101l442 -966l443 966h102l-496 -1079v-555z" />
    <glyph glyph-name="florin" unicode="&#x192;" horiz-adv-x="806" 
d="M657 1366q-152 0 -180 -164l-74 -424h224v-78h-238l-207 -1171h-104l207 1171h-224v78h238l74 422q20 117 95 188t187 70h90v-92h-88z" />
    <glyph glyph-name="circumflex" unicode="&#x2c6;" horiz-adv-x="1024" 
d="M702 1786l-190 223l-190 -223h-117l252 301h110l252 -301h-117z" />
    <glyph glyph-name="caron" unicode="&#x2c7;" horiz-adv-x="1024" 
d="M567 1786h-110l-252 301h117l190 -223l190 223h117z" />
    <glyph glyph-name="breve" unicode="&#x2d8;" horiz-adv-x="1024" 
d="M512 1786q-309 0 -338 276h92q12 -86 77 -135t169 -49t169 49t77 135h92q-29 -276 -338 -276z" />
    <glyph glyph-name="dotaccent" unicode="&#x2d9;" horiz-adv-x="1024" 
d="M575 1851h-126v129h126v-129z" />
    <glyph glyph-name="ring" unicode="&#x2da;" horiz-adv-x="1024" 
d="M662 1946q0 61 -44 104t-106 43q-61 0 -105 -43q-45 -43 -45 -104q0 -62 44 -106t106 -44t106 44t44 106zM745 1946q-1 -96 -69 -166t-164 -70t-165 70t-68 166t69 164t164 69q96 -1 164 -69t69 -164z" />
    <glyph glyph-name="ogonek" unicode="&#x2db;" horiz-adv-x="1024" 
d="M596 -451h-129l147 308h113z" />
    <glyph glyph-name="tilde" unicode="&#x2dc;" horiz-adv-x="1024" 
d="M635 1798q-55 0 -135 46t-127 46t-115 -67l-61 59q97 98 171 98t148 -46t123 -46t117 68l61 -60q-98 -98 -182 -98z" />
    <glyph glyph-name="hungarumlaut" unicode="&#x2dd;" horiz-adv-x="1024" 
d="M903 2087l-219 -301h-117l199 301h137zM602 2087l-217 -301h-119l199 301h137z" />
    <glyph glyph-name="Omega" unicode="&#x3a9;" horiz-adv-x="1335" 
d="M1167 96v-96h-381v96q150 72 215 180q35 58 45 160t11 293v178q1 253 -19 355t-94 176q-112 112 -276 112t-277 -112q-74 -74 -93 -176t-19 -355v-178q0 -191 10 -293t45 -160q66 -109 215 -180v-96h-381v96h186q-112 88 -143 180t-35 157t-6 81t-2 54v339q0 276 21 388
q22 112 114 204q150 150 365 150t364 -150q92 -92 114 -204t21 -388v-339q0 -38 -2 -54t-4 -50q-8 -141 -51 -220q-43 -80 -129 -148h186z" />
    <glyph glyph-name="pi" unicode="&#x3c0;" horiz-adv-x="1210" 
d="M985 0h-98v895h-563v-895h-99v987h760v-987z" />
    <glyph glyph-name="endash" unicode="&#x2013;" horiz-adv-x="1052" 
d="M109 602v96h835v-96h-835z" />
    <glyph glyph-name="emdash" unicode="&#x2014;" horiz-adv-x="1787" 
d="M168 602v96h1452v-96h-1452z" />
    <glyph glyph-name="quoteleft" unicode="&#x2018;" horiz-adv-x="528" 
d="M358 1634v-151h-151v170l104 182l60 -29l-90 -172h77z" />
    <glyph glyph-name="quoteright" unicode="&#x2019;" horiz-adv-x="528" 
d="M207 1483v151h151v-170l-104 -182l-59 29l90 172h-78z" />
    <glyph glyph-name="quotesinglbase" unicode="&#x201a;" horiz-adv-x="552" 
d="M207 0v152h151v-170l-104 -183l-59 29l90 172h-78z" />
    <glyph glyph-name="quotedblleft" unicode="&#x201c;" horiz-adv-x="851" 
d="M358 1634v-151h-151v170l104 182l60 -29l-90 -172h77zM682 1634v-151h-152v170l105 182l59 -29l-90 -172h78z" />
    <glyph glyph-name="quotedblright" unicode="&#x201d;" horiz-adv-x="851" 
d="M530 1483v151h152v-170l-104 -182l-60 29l90 172h-78zM207 1483v151h151v-170l-104 -182l-59 29l90 172h-78z" />
    <glyph glyph-name="quotedblbase" unicode="&#x201e;" horiz-adv-x="876" 
d="M530 0v152h152v-170l-104 -183l-60 29l90 172h-78zM207 0v152h151v-170l-104 -183l-59 29l90 172h-78z" />
    <glyph glyph-name="dagger" unicode="&#x2020;" horiz-adv-x="1257" 
d="M678 936v-936h-105v936h-409v92h409v430h105v-430h416v-92h-416z" />
    <glyph glyph-name="daggerdbl" unicode="&#x2021;" horiz-adv-x="1257" 
d="M678 -41v-430h-105v430h-409v92h409v885h-409v92h409v430h105v-430h416v-92h-416v-885h416v-92h-416z" />
    <glyph glyph-name="bullet" unicode="&#x2022;" horiz-adv-x="1118" 
d="M893 766q0 -138 -98 -236q-97 -98 -235 -98t-236 97t-98 237t98 236q98 98 235 98t235 -98t99 -236z" />
    <glyph glyph-name="ellipsis" unicode="&#x2026;" horiz-adv-x="1482" 
d="M195 0v152h151v-152h-151zM1137 0v152h151v-152h-151zM666 0v152h151v-152h-151z" />
    <glyph glyph-name="perthousand" unicode="&#x2030;" horiz-adv-x="2291" 
d="M2060 264v211q0 201 -179 201t-179 -201v-211q0 -201 179 -201t179 201zM1612 479q0 123 74 199t195 76q120 0 195 -76t74 -199v-219q0 -123 -74 -199q-74 -75 -195 -75t-195 76t-74 198v219zM1411 264v211q0 201 -179 201t-179 -201v-211q0 -201 179 -201t179 201z
M1232 754q120 0 194 -76t75 -199v-219q0 -123 -75 -199q-74 -75 -194 -75t-195 76t-74 198v219q0 123 74 199q75 76 195 76zM231 1159q0 -199 181 -198q178 0 178 198v211q0 201 -179 201t-180 -201v-211zM680 1155q0 -121 -75 -197t-195 -76t-194 76q-75 76 -75 197v219
q0 123 75 199t195 76q121 0 195 -76t74 -199v-219zM1157 1634h92l-764 -1634h-92z" />
    <glyph glyph-name="guilsinglleft" unicode="&#x2039;" horiz-adv-x="655" 
d="M86 666l401 401v-135l-266 -266l266 -267v-135z" />
    <glyph glyph-name="guilsinglright" unicode="&#x203a;" horiz-adv-x="655" 
d="M168 264v135l266 267l-266 266v135l401 -401z" />
    <glyph glyph-name="fraction" unicode="&#x2044;" horiz-adv-x="362" 
d="M-113 0h-92l680 1634h92z" />
    <glyph glyph-name="Euro" unicode="&#x20ac;" horiz-adv-x="1318" 
d="M1069 403h96q0 -163 -130 -289t-336 -126q-205 0 -335 126t-131 289v234h-131v78h131v217h-131v78h131v223q1 164 131 290t336 126q145 0 255 -67t153 -171l-47 -104q-29 117 -132 187t-239 69t-249 -93q-112 -92 -111 -237v-223h598l-37 -78h-561v-217h463l-35 -78h-428
v-234q0 -145 112 -237t257 -92q146 0 258 92t112 237z" />
    <glyph glyph-name="trademark" unicode="&#x2122;" horiz-adv-x="1656" 
d="M406 1374v-790h-91v790h-249v84h589v-84h-249zM1452 584v671l-225 -446h-94l-226 446v-671h-90v874h90l273 -553l272 553h90v-874h-90z" />
    <glyph glyph-name="partialdiff" unicode="&#x2202;" horiz-adv-x="1105" 
d="M803 494q0 242 -82 328t-197 85q-114 0 -196 -86q-82 -85 -82 -327t82 -328t196 -86t197 86q82 86 82 328zM907 494q1 -274 -111 -390t-272 -116t-272 116t-111 395q0 280 119 398q102 102 250 102q188 0 293 -139v354q0 154 -75 248t-224 94q-86 0 -138 -24t-118 -84
l-68 68q84 74 152 104t172 29q190 0 296 -117t107 -311v-727z" />
    <glyph glyph-name="uni2206" unicode="&#x2206;" horiz-adv-x="1210" 
d="M1047 98l-443 1213l-440 -1213h883zM1190 0h-1170l537 1458h96z" />
    <glyph glyph-name="product" unicode="&#x220f;" horiz-adv-x="1431" 
d="M1206 -471h-110v2007h-760v-2007h-111v2105h981v-2105z" />
    <glyph glyph-name="summation" unicode="&#x2211;" horiz-adv-x="1128" 
d="M1014 -471h-885v98l424 955l-424 954v98h885v-98h-760l399 -905v-99l-399 -905h760v-98z" />
    <glyph glyph-name="radical" unicode="&#x221a;" horiz-adv-x="1126" 
d="M1065 1360h-180l-445 -1360h-94l-326 987h115l258 -792l408 1263h264v-98z" />
    <glyph glyph-name="infinity" unicode="&#x221e;" horiz-adv-x="1622" 
d="M1376 614q0 94 -58 152t-144 59q-86 0 -147 -49q-62 -49 -155 -162q92 -112 154 -160t148 -48q85 0 144 57q58 57 58 151zM448 829q-86 0 -144 -60q-58 -61 -58 -155t58 -151t144 -57t148 48t154 160q-94 115 -156 165t-146 50zM1475 614q0 -131 -85 -217
q-84 -86 -202 -86t-200 50t-177 171q-96 -121 -178 -172q-81 -51 -197 -51t-203 87q-86 87 -86 218q0 132 86 220t201 88t198 -52t179 -174q98 123 178 174q80 52 198 52t203 -88t85 -220z" />
    <glyph glyph-name="integral" unicode="&#x222b;" horiz-adv-x="673" 
d="M612 1544h-71q-152 0 -152 -164v-1593q0 -117 -62 -187t-175 -71h-91v92h72q152 0 152 164v1593q0 117 62 188t175 70h90v-92z" />
    <glyph glyph-name="approxequal" unicode="&#x2248;" horiz-adv-x="1052" 
d="M710 358q-60 0 -192 56t-176 55q-45 0 -78 -16t-92 -76l-63 63q80 80 127 104t107 24q59 0 191 -56q132 -55 177 -55t77 16t93 76l63 -64q-80 -79 -127 -103t-107 -24zM710 686q-60 0 -192 56t-176 55q-45 -1 -78 -17t-92 -75l-63 63q80 80 127 104t107 23q59 1 191 -55
t177 -56t77 16t93 77l63 -64q-80 -79 -127 -103t-107 -24z" />
    <glyph glyph-name="notequal" unicode="&#x2260;" horiz-adv-x="1052" 
d="M944 442h-555l-213 -213l-67 68l145 145h-145v97h241l217 217h-458v96h555l213 213l67 -68l-145 -145h145v-96h-242l-217 -217h459v-97z" />
    <glyph glyph-name="lessequal" unicode="&#x2264;" horiz-adv-x="1052" 
d="M838 106l-623 330v113l623 -330v-113zM838 362l-623 330v99l623 329v-112l-521 -267l521 -266v-113z" />
    <glyph glyph-name="greaterequal" unicode="&#x2265;" horiz-adv-x="1052" 
d="M838 436l-623 -330v113l623 330v-113zM838 692l-623 -330v113l520 266l-520 267v112l623 -329v-99z" />
    <glyph glyph-name="lozenge" unicode="&#x25ca;" horiz-adv-x="1339" 
d="M1075 729l-405 584l-406 -584l406 -588zM1192 729l-522 -743l-523 743l523 744z" />
    <glyph glyph-name="fi" unicode="&#xfb01;" horiz-adv-x="1050" 
d="M774 1634h90v-190h-90v190zM774 0v1067h90v-1067h-90zM422 1649h100v-82h-84q-133 0 -133 -144v-344h217v-67h-217v-1012h-92v1012h-119v67h119v342q0 102 54 165q55 63 155 63z" />
    <glyph glyph-name="fl" unicode="&#xfb02;" horiz-adv-x="1077" 
d="M954 68h58v-80h-70q-76 0 -118 48t-42 124v1474h92v-1478q0 -88 80 -88zM422 1649h100v-82h-84q-133 0 -133 -144v-344h217v-67h-217v-1012h-92v1012h-119v67h119v342q0 102 54 165q55 63 155 63z" />
    </font>
</defs>
</svg>
