<?xml version="1.0" standalone="no"?>
<!DOCTYPE svg PUBLIC "-//W3C//DTD SVG 1.1//EN" "http://www.w3.org/Graphics/SVG/1.1/DTD/svg11.dtd" >
<svg xmlns="http://www.w3.org/2000/svg">
<metadata>
Created by FontPrep 20130207 at Thu Jan 21 17:08:02 2016
 By Daniel
Copyright 2015 Adobe Systems Incorporated. All rights reserved.
</metadata>
<defs>
<font id="64eeb3b86c64e3a3b7c9454656379ee9" horiz-adv-x='1024' >
  <font-face 
    font-family="TWSSavoryRegular"
    font-weight="400"
    font-stretch="normal"
    units-per-em="2048"
    panose-1="2 0 0 0 0 0 0 0 0 0"
    ascent="1536"
    descent="-512"
    x-height="1065"
    cap-height="1645"
    bbox="-225 -606 2232 2224"
    underline-thickness="102"
    underline-position="-102"
    unicode-range="U+000D-FB02"
  />
<missing-glyph horiz-adv-x="1024" 
 />
    <glyph glyph-name=".notdef" horiz-adv-x="1024" 
 />
    <glyph glyph-name=".null" horiz-adv-x="0" 
 />
    <glyph glyph-name="nonmarkingreturn" horiz-adv-x="681" 
 />
    <glyph glyph-name="NULL" horiz-adv-x="0" 
 />
    <glyph glyph-name="NULL" horiz-adv-x="0" 
 />
    <glyph glyph-name="CR" unicode="&#xd;" horiz-adv-x="491" 
 />
    <glyph glyph-name="space" unicode=" " horiz-adv-x="1024" 
 />
    <glyph glyph-name="exclam" unicode="!" horiz-adv-x="679" 
d="M489 0h-229v223h229v-223zM502 1671l-45 -1237h-164l-45 1237h254z" />
    <glyph glyph-name="quotedbl" unicode="&#x22;" horiz-adv-x="792" 
d="M670 1165h-178v506h178v-506zM301 1165h-178v506h178v-506z" />
    <glyph glyph-name="numbersign" unicode="#" horiz-adv-x="1458" 
d="M877 670l47 295h-306l-45 -295h304zM1356 965h-226l-45 -295h199v-193h-229l-76 -477h-207l74 477h-303l-76 -477h-207l76 477h-197v193h226l47 295h-199v192h229l76 477h207l-76 -477h305l76 477h207l-76 -477h195v-192z" />
    <glyph glyph-name="dollar" unicode="$" 
d="M739 205q109 18 166 88t57 165t-43 148q-44 53 -180 96v-497zM412 1202q0 -86 34 -133t156 -90v451q-90 -16 -140 -79t-50 -149zM1217 467q1 -207 -133 -330t-328 -145v-225h-168v225q-195 24 -328 148t-133 337h258q0 -106 55 -179t162 -91v534q-215 59 -330 157
q-114 98 -114 288t114 313q115 123 316 146v227h168v-230q198 -22 312 -142t114 -288h-258q0 80 -50 138t-135 77v-489q117 -32 191 -62q196 -78 253 -216q34 -80 34 -193z" />
    <glyph glyph-name="percent" unicode="%" horiz-adv-x="1619" 
d="M512 1161v191q0 123 -105 123t-106 -123v-191q-1 -121 105 -121t106 121zM1317 285v188q1 125 -105 125t-106 -125v-188q0 -123 106 -123t105 123zM1255 1634l-686 -1634h-209l691 1634h204zM705 1155q0 -133 -85 -212t-214 -79t-213 79t-84 212v203q0 133 84 212t213 79
t214 -79t85 -212v-203zM1511 279q0 -133 -85 -213t-214 -80t-214 80t-85 213v200q0 135 85 214t214 79t214 -79t85 -214v-200z" />
    <glyph glyph-name="ampersand" unicode="&#x26;" horiz-adv-x="1388" 
d="M676 201q152 0 239 123q-348 336 -444 442q-92 -92 -92 -215v-53q0 -123 88 -210t209 -87zM678 1649q194 0 300 -128q108 -128 107 -292h-239q0 94 -44 150q-44 57 -126 57t-126 -50t-44 -160t80 -218t387 -404v248h239v-328q0 -63 -16 -133q138 -129 238 -227l-168 -174
q-125 121 -189 180q-160 -182 -391 -182t-389 158t-158 378q0 125 54 234q53 109 147 184q-76 144 -74 305q2 160 110 281t302 121z" />
    <glyph glyph-name="quotesingle" unicode="'" horiz-adv-x="526" 
d="M367 1280h-207v391h207v-391z" />
    <glyph glyph-name="parenleft" unicode="(" horiz-adv-x="688" 
d="M408 754q0 -285 57 -508t182 -473l-184 -115q-299 475 -299 1097t299 1094l184 -114q-125 -250 -182 -473t-57 -508z" />
    <glyph glyph-name="parenright" unicode=")" horiz-adv-x="688" 
d="M281 754q0 285 -58 508q-57 223 -182 473l184 114q299 -473 299 -1095t-299 -1096l-184 115q125 250 182 473q58 223 58 508z" />
    <glyph glyph-name="asterisk" unicode="*" horiz-adv-x="993" 
d="M868 1049l-75 -134l-228 142l8 -269h-153l8 269l-227 -142l-76 134l235 125l-235 126l76 134l227 -142l-8 267h153l-8 -267l228 142l75 -134l-235 -126z" />
    <glyph glyph-name="plus" unicode="+" horiz-adv-x="1091" 
d="M987 555h-344v-344h-194v344h-345v195h345v342h194v-342h344v-195z" />
    <glyph glyph-name="comma" unicode="," horiz-adv-x="536" 
d="M143 0v250h250v-281q-96 -158 -151 -256l-86 45l125 242h-138z" />
    <glyph glyph-name="hyphen" unicode="-" horiz-adv-x="872" 
d="M735 555h-598v195h598v-195z" />
    <glyph glyph-name="period" unicode="." horiz-adv-x="569" 
d="M410 0h-250v250h250v-250z" />
    <glyph glyph-name="slash" unicode="/" horiz-adv-x="763" 
d="M563 1786h201l-563 -1938h-201z" />
    <glyph glyph-name="zero" unicode="0" horiz-adv-x="1107" 
d="M743 393v852q0 78 -56 134q-56 57 -134 57t-134 -56t-57 -135v-852q0 -80 56 -136t135 -56q78 0 134 56t56 136zM553 1649q178 0 305 -126t127 -304v-799q0 -178 -127 -305t-305 -127t-304 127t-126 305v799q0 178 126 304t304 126z" />
    <glyph glyph-name="one" unicode="1" horiz-adv-x="815" 
d="M528 215h215v-215h-690v215h236v1176l-326 -172v225l356 190h209v-1419z" />
    <glyph glyph-name="two" unicode="2" horiz-adv-x="1013" 
d="M123 346q0 128 190 304q80 74 159 149q188 176 190 297v196q0 48 -44 96t-106 48q-63 0 -106 -54t-44 -98v-65h-239v73q0 137 102 247q101 110 285 110t288 -112t103 -245v-188q0 -98 -55 -198t-135 -180t-159 -150q-188 -168 -190 -252v-111h539v-213h-778v346z" />
    <glyph glyph-name="three" unicode="3" horiz-adv-x="1060" 
d="M948 465q0 -205 -120 -341t-309 -136t-311 130t-122 302h242q0 -92 50 -156t141 -63q91 -1 140 71t49 196t-50 192q-52 68 -177 67h-73v215h73q121 0 163 68t42 182t-51 180q-51 64 -126 64t-128 -58t-53 -133v-26h-242q0 172 125 301t297 129t295 -128t123 -319
t-66 -272q-48 -60 -98 -88q186 -96 186 -377z" />
    <glyph glyph-name="four" unicode="4" horiz-adv-x="1128" 
d="M670 463v792l-351 -792h351zM901 463h156v-213h-156v-250h-239v250h-590v219l522 1165h307v-1171z" />
    <glyph glyph-name="five" unicode="5" horiz-adv-x="1101" 
d="M606 1083q385 0 385 -458v-160q0 -205 -120 -341t-309 -136t-311 130t-122 302h240q0 -92 51 -156t141 -63q90 -1 140 71t51 193v160q0 260 -166 260q-80 0 -126 -51t-59 -138h-245v938h809v-213h-578v-417q84 79 219 79z" />
    <glyph glyph-name="six" unicode="6" horiz-adv-x="1087" 
d="M735 393v230q0 78 -55 133t-133 55t-136 -56t-59 -132v-230q0 -80 56 -136t136 -56q79 0 135 56t56 136zM975 420q0 -178 -127 -305t-304 -127t-304 127t-127 305v192q2 68 30 133q0 2 2 3l383 886h240l-291 -635q43 27 96 27q170 0 283 -120t119 -294v-192z" />
    <glyph glyph-name="seven" unicode="7" horiz-adv-x="1097" 
d="M123 1632h883v-186l-488 -1446h-223l473 1419h-645v213z" />
    <glyph glyph-name="eight" unicode="8" horiz-adv-x="1050" 
d="M526 938q82 0 126 66t44 185t-44 183t-126 64q-170 0 -170 -248q0 -118 44 -184t126 -66zM526 201q98 0 146 73q47 74 47 191t-47 193q-48 76 -146 75q-98 0 -145 -77q-47 -78 -47 -192t47 -188t145 -75zM958 465q0 -205 -118 -341t-313 -136t-315 137t-120 340
q0 276 187 377q-164 100 -164 346q0 186 107 323q108 137 304 137t302 -140q108 -140 108 -320q0 -98 -34 -178t-66 -114t-64 -54q186 -96 186 -377z" />
    <glyph glyph-name="nine" unicode="9" horiz-adv-x="1087" 
d="M352 1243v-229q0 -78 54 -133t133 -55q78 0 137 54q59 56 59 134v229q0 78 -56 134q-56 57 -135 57q-80 0 -136 -56t-56 -135zM113 1217q0 176 127 303t304 127t304 -127t127 -303v-195q-2 -59 -33 -133l-383 -889h-240l291 637q-39 -27 -98 -27q-170 0 -282 119
q-111 119 -117 293v195z" />
    <glyph glyph-name="colon" unicode=":" horiz-adv-x="536" 
d="M393 0h-250v250h250v-250zM393 692h-250v250h250v-250z" />
    <glyph glyph-name="semicolon" unicode=";" horiz-adv-x="536" 
d="M393 692h-250v250h250v-250zM143 0v250h250v-281q-96 -158 -151 -256l-86 45l125 242h-138z" />
    <glyph glyph-name="less" unicode="&#x3c;" horiz-adv-x="1091" 
d="M924 207l-756 362v187l756 362v-221l-502 -235l502 -234v-221z" />
    <glyph glyph-name="equal" unicode="=" horiz-adv-x="1091" 
d="M987 365h-883v194h883v-194zM987 762h-883v194h883v-194z" />
    <glyph glyph-name="greater" unicode="&#x3e;" horiz-adv-x="1091" 
d="M924 569l-756 -362v221l502 234l-502 235v221l756 -362v-187z" />
    <glyph glyph-name="question" unicode="?" horiz-adv-x="1087" 
d="M573 1653q177 0 305 -126t128 -304v-121q0 -142 -115 -274q-47 -54 -95 -109q-116 -133 -116 -285h-209q0 111 46 212q46 102 100 164q147 170 147 284v155q0 78 -56 134q-56 57 -134 57t-135 -56q-56 -56 -56 -135v-26h-240q0 178 126 304t304 126zM690 0h-229v223h229
v-223z" />
    <glyph glyph-name="at" unicode="@" horiz-adv-x="2121" 
d="M1178 379v309q0 76 -62 127t-137 51q-154 0 -154 -194v-277q0 -197 154 -196q75 0 137 51t62 129zM961 -14q-182 0 -279 115q-96 116 -96 292v281q0 174 96 290t270 116t244 -105v90h223v-743q0 -52 31 -98t80 -46q141 0 215 88q92 117 92 391q0 133 -59 254t-167 210
q-231 190 -549 190q-318 1 -548 -227t-229 -551q0 -323 227 -549t551 -228v-192q-193 0 -379 76q-176 76 -308 208t-208 310q-76 180 -76 374t76 375t211 315t312 208t369 73q192 0 370 -62t305 -173q295 -244 295 -601t-136 -520q-131 -162 -364 -161q-125 0 -205 45
t-90 114q-31 -63 -108 -111t-166 -48z" />
    <glyph glyph-name="A" unicode="A" horiz-adv-x="1286" 
d="M442 614h404l-203 666zM1032 0l-117 387h-542l-117 -387h-240l498 1634h260l496 -1634h-238z" />
    <glyph glyph-name="B" unicode="B" horiz-adv-x="1396" 
d="M711 225q195 0 261 68q66 69 66 189t-65 188q-66 68 -260 67h-2q-217 2 -265 0v-512h265zM664 965q319 0 319 235q0 108 -73 160q-73 51 -244 51h-220v-446h218zM190 0v1634l476 2q281 0 421 -135q121 -115 121 -302t-116 -310q-2 -2 -8 -7t-9 -8q188 -130 188 -379
q1 -250 -146 -373t-406 -122h-521z" />
    <glyph glyph-name="C" unicode="C" horiz-adv-x="1308" 
d="M661 -12q-208 0 -366 158t-158 378v588q0 221 158 379t370 158q213 0 363 -132t178 -327h-239q-19 104 -101 175t-198 71t-202 -87q-87 -87 -87 -210v-641q0 -123 87 -210q86 -87 198 -87q112 -1 191 61t106 156h241q-39 -184 -186 -307t-355 -123z" />
    <glyph glyph-name="D" unicode="D" horiz-adv-x="1388" 
d="M1022 489v662q0 123 -73 197t-195 73h-310v-1208h310q124 1 196 77t72 199zM754 1634q221 0 364 -144t144 -366v-608q0 -224 -144 -370t-364 -146h-564v1634h564z" />
    <glyph glyph-name="E" unicode="E" horiz-adv-x="1218" 
d="M1106 1407h-660v-475h555v-227h-555v-478h660v-227h-916v1634h916v-227z" />
    <glyph glyph-name="F" unicode="F" horiz-adv-x="1218" 
d="M1106 1407h-662v-475h555v-227h-555v-705h-254v1634h916v-227z" />
    <glyph glyph-name="G" unicode="G" 
d="M1208 860v-336q0 -221 -158 -379q-158 -157 -379 -157q-222 0 -380 158t-158 378v588q0 221 158 379t370 158q213 0 363 -132t178 -327h-239q-19 104 -101 175t-198 71t-202 -87q-87 -87 -87 -210v-641q0 -123 87 -210t209 -87t210 87t88 210v157h-303v205h542z" />
    <glyph glyph-name="H" unicode="H" horiz-adv-x="1404" 
d="M965 1634h256v-1634h-256v705h-519v-705h-256v1634h256v-702h519v702z" />
    <glyph glyph-name="I" unicode="I" horiz-adv-x="872" 
d="M739 1427h-182v-1210h182v-217h-606v217h182v1210h-182v218h606v-218z" />
    <glyph glyph-name="J" unicode="J" horiz-adv-x="1036" 
d="M610 1634h254v-1181q0 -189 -120 -327t-326 -138t-334 127l156 155q70 -70 164 -70t150 54q56 53 56 199v1181z" />
    <glyph glyph-name="K" unicode="K" horiz-adv-x="1290" 
d="M444 754v-754h-256v1634h256v-653h187l282 653h289l-346 -776l414 -858h-289l-358 754h-179z" />
    <glyph glyph-name="L" unicode="L" horiz-adv-x="1155" 
d="M446 227h652v-227h-908v1634h256v-1407z" />
    <glyph glyph-name="M" unicode="M" horiz-adv-x="1738" 
d="M1548 1634v-1634h-254v993l-333 -694h-183l-334 694v-993h-254v1634h216l464 -964l463 964h215z" />
    <glyph glyph-name="N" unicode="N" horiz-adv-x="1523" 
d="M1079 1634h254v-1634h-213l-674 1110v-1110h-256v1634h216l673 -1108v1108z" />
    <glyph glyph-name="O" unicode="O" 
d="M969 498v641q0 123 -87 210t-209 87t-210 -87t-88 -210v-641q0 -123 88 -210t210 -87t209 87t87 210zM672 1649q221 0 379 -158t157 -379v-588q0 -221 -158 -379q-158 -157 -378 -157q-221 0 -379 158t-158 378v588q0 221 158 379t379 158z" />
    <glyph glyph-name="P" unicode="P" horiz-adv-x="1288" 
d="M950 905v314q0 67 -60 121t-165 55h-295v-666h295q109 1 167 57t58 119zM739 1634q207 0 337 -126t130 -289v-314q0 -164 -130 -290t-337 -126h-309v-489h-240v1634h549z" />
    <glyph glyph-name="Q" unicode="Q" 
d="M969 1139q0 123 -88 210t-210 87t-209 -87t-87 -210v-641q0 -123 87 -210t210 -87q35 0 51 4l-154 342h248l98 -219q53 80 54 170v641zM1208 524q0 -122 -52 -230t-144 -183l135 -301h-248l-86 196q-68 -18 -141 -18q-223 0 -381 158t-158 378v588q0 221 158 379t380 158
t380 -158t157 -379v-588z" />
    <glyph glyph-name="R" unicode="R" horiz-adv-x="1312" 
d="M727 809q109 0 172 63q53 49 53 113v234q0 63 -53 112q-63 63 -172 64h-295v-586h295zM741 569h-309v-569h-242v1634h551q205 0 335 -126t130 -289v-234q0 -100 -54 -195t-151 -153l293 -637h-241l-262 571q-16 -2 -50 -2z" />
    <glyph glyph-name="S" unicode="S" 
d="M1217 467q0 -229 -162 -354t-382 -125t-383 127t-163 362h258q0 -125 74 -201t214 -76t215 74t75 182q1 108 -59 164q-60 58 -251 107q-307 83 -402 190t-93 275q0 203 137 330t374 127t375 -125t138 -312h-258q0 98 -69 160t-189 64q-120 0 -187 -66t-67 -166t53 -154
t238 -102q328 -88 421 -196t93 -285z" />
    <glyph glyph-name="T" unicode="T" horiz-adv-x="1173" 
d="M1112 1634v-227h-397v-1407h-256v1407h-398v227h1051z" />
    <glyph glyph-name="U" unicode="U" 
d="M969 1634h239v-1110q0 -221 -158 -379q-158 -157 -378 -157q-221 0 -379 158t-158 378v1110h240v-1136q0 -123 87 -210t210 -87t210 87t87 210v1136z" />
    <glyph glyph-name="V" unicode="V" horiz-adv-x="1273" 
d="M1026 1634h238l-498 -1634h-260l-496 1634h238l389 -1278z" />
    <glyph glyph-name="W" unicode="W" horiz-adv-x="1959" 
d="M1716 1634h234l-445 -1634h-221l-305 1122l-303 -1122h-221l-445 1634h234l321 -1177l322 1177h186l322 -1177z" />
    <glyph glyph-name="X" unicode="X" horiz-adv-x="1335" 
d="M1044 1634h271l-512 -817l512 -817h-271l-376 602l-377 -602h-271l512 817l-512 817h271l377 -602z" />
    <glyph glyph-name="Y" unicode="Y" horiz-adv-x="1243" 
d="M735 0h-227v547l-498 1087h250l363 -790l360 790h250l-498 -1087v-547z" />
    <glyph glyph-name="Z" unicode="Z" horiz-adv-x="1148" 
d="M1051 227v-227h-953v227l658 1178h-658v227h953v-227l-660 -1178h660z" />
    <glyph glyph-name="bracketleft" unicode="[" horiz-adv-x="710" 
d="M623 -152h-447v1983h447v-186h-238v-1610h238v-187z" />
    <glyph glyph-name="backslash" unicode="\" horiz-adv-x="763" 
d="M0 1786h201l563 -1938h-201z" />
    <glyph glyph-name="bracketright" unicode="]" horiz-adv-x="710" 
d="M535 -152h-447v187h238v1610h-238v186h447v-1983z" />
    <glyph glyph-name="asciicircum" unicode="^" horiz-adv-x="1169" 
d="M1030 983h-217l-229 424l-230 -424h-217l352 651h191z" />
    <glyph glyph-name="underscore" unicode="_" horiz-adv-x="1169" 
d="M1169 -352h-1169v143h1169v-143z" />
    <glyph glyph-name="grave" unicode="`" horiz-adv-x="1024" 
d="M618 1776h-157l-228 331h232z" />
    <glyph glyph-name="a" unicode="a" horiz-adv-x="1105" 
d="M692 377v104h-198q-72 0 -112 -42t-40 -99t40 -99t113 -42t135 51t62 127zM544 1079q156 0 272 -106t116 -277v-696h-223v90q-27 -41 -88 -73t-148 -31q-158 0 -264 100t-107 254q0 154 106 254t265 100h219v33q0 67 -39 103t-109 36t-109 -28q-40 -28 -40 -64h-245
q0 119 119 212q120 93 275 93z" />
    <glyph glyph-name="b" unicode="b" horiz-adv-x="1148" 
d="M623 866q-73 0 -135 -51t-62 -129v-309q0 -76 62 -127t135 -51q156 0 155 196v275q1 196 -155 196zM643 -14q-86 0 -147 32t-88 72v-90h-224v1632h224v-659q27 41 88 74t147 32q180 0 278 -116q97 -117 97 -291v-279q0 -176 -97 -292q-98 -115 -278 -115z" />
    <glyph glyph-name="c" unicode="c" horiz-adv-x="1095" 
d="M542 -14q-164 0 -286 122q-123 122 -123 293v263q0 170 123 292t286 123q164 0 280 -102t139 -254h-238q-12 61 -61 102t-117 41t-119 -52t-51 -124v-315q0 -72 51 -124t120 -52t118 42t59 105h240q-23 -154 -140 -257t-281 -103z" />
    <glyph glyph-name="d" unicode="d" horiz-adv-x="1148" 
d="M526 866q-156 0 -155 -196v-275q0 -197 155 -196q72 0 134 51t63 127v309q-1 78 -63 129t-134 51zM506 -14q-180 0 -278 115q-97 116 -97 292v279q0 174 97 291t278 116q86 -1 147 -33t88 -73v659h224v-1632h-224v90q-27 -40 -88 -72t-147 -32z" />
    <glyph glyph-name="e" unicode="e" horiz-adv-x="1097" 
d="M373 662h352v28q0 72 -52 124t-124 52t-124 -52t-52 -124v-28zM549 1079q172 0 294 -123t122 -292v-179h-592v-110q0 -72 52 -124t121 -52t118 42t59 105h238q-19 -154 -137 -257t-282 -103t-287 122q-122 122 -122 293v263q0 170 122 292t294 123z" />
    <glyph glyph-name="f" unicode="f" horiz-adv-x="724" 
d="M662 1079v-174h-216v-905h-239v905h-119v174h119v254q0 147 61 223t221 76h173v-190h-125q-45 0 -68 -47t-23 -115v-201h216z" />
    <glyph glyph-name="g" unicode="g" horiz-adv-x="1148" 
d="M723 377v309q-1 78 -63 129t-136 51q-154 0 -153 -196v-275q0 -197 153 -196q74 0 136 51t63 127zM739 1065h226v-1245q1 -140 -105 -240t-299 -100t-295 98t-102 242h207q0 -50 53 -100t135 -50t132 50t50 100v270h-2q-27 -41 -87 -73t-146 -31q-182 0 -279 115
q-96 116 -96 292v279q0 176 96 292t279 115q86 1 146 -31t87 -75v92z" />
    <glyph glyph-name="h" unicode="h" horiz-adv-x="1189" 
d="M643 1079q180 0 277 -116q96 -117 96 -291v-672h-240v670q0 197 -153 196q-75 0 -137 -51t-62 -129v-686h-240v1632h224v-659q27 41 88 73t147 33z" />
    <glyph glyph-name="i" unicode="i" horiz-adv-x="608" 
d="M184 1305v327h240v-327h-240zM184 0v1065h240v-1065h-240z" />
    <glyph glyph-name="j" unicode="j" horiz-adv-x="608" 
d="M184 1305v327h240v-327h-240zM186 1065h238v-1272q0 -147 -62 -223t-219 -76h-174v191h125q92 0 92 161v1219z" />
    <glyph glyph-name="k" unicode="k" horiz-adv-x="1089" 
d="M424 453v-453h-240v1632h240v-966h25l321 399h244l-400 -496l465 -569h-237l-369 453h-49z" />
    <glyph glyph-name="l" unicode="l" horiz-adv-x="608" 
d="M424 1632v-1347q0 -86 61 -86h107v-199h-174q-113 0 -173 84t-61 205v1343h240z" />
    <glyph glyph-name="m" unicode="m" horiz-adv-x="1837" 
d="M1244 1079q188 0 304 -101q115 -101 115 -306v-672h-240v688q0 76 -46 127t-127 51t-143 -59t-63 -137v-670h-239v688q0 178 -156 178q-79 0 -151 -45t-72 -119v-702h-242v1065h224v-92q26 39 100 73t159 34t159 -41q74 -40 118 -107q112 147 300 147z" />
    <glyph glyph-name="n" unicode="n" horiz-adv-x="1189" 
d="M651 1079q172 0 269 -115q96 -116 96 -292v-672h-240v670q0 197 -155 196q-73 0 -135 -51t-62 -129v-686h-240v1065h222v-92q73 106 245 106z" />
    <glyph glyph-name="o" unicode="o" horiz-adv-x="1097" 
d="M723 375v315q0 72 -51 124t-124 52t-124 -52t-51 -124v-315q0 -72 51 -124t124 -52t124 52t51 124zM133 664q0 170 122 292t293 123q171 0 294 -123t123 -292v-263q0 -171 -123 -293t-294 -122t-293 122t-122 293v263z" />
    <glyph glyph-name="p" unicode="p" horiz-adv-x="1150" 
d="M623 199q156 0 155 196v275q0 197 -155 196q-73 0 -135 -51t-62 -129v-309q0 -76 62 -127t135 -51zM643 1079q180 0 278 -116q97 -117 97 -291v-279q0 -176 -97 -292t-278 -115q-86 0 -147 32t-88 72v-596h-224v1571h224v-92q27 41 88 73t147 33z" />
    <glyph glyph-name="q" unicode="q" horiz-adv-x="1150" 
d="M528 199q74 0 136 51q61 51 61 127v309q0 78 -61 129t-136 51q-156 0 -155 -196v-275q-1 -196 155 -196zM508 1079q86 -1 147 -33t88 -73v92h224v-1571h-224v596q-27 -41 -88 -73t-147 -31q-180 0 -278 115q-97 116 -97 292v279q0 174 97 291q98 116 278 116z" />
    <glyph glyph-name="r" unicode="r" horiz-adv-x="755" 
d="M680 887q-120 -1 -188 -61t-68 -140v-686h-240v1065h224v-100q6 11 40 46t97 55q63 19 114 19l44 -2l28 -6h2l2 -2v-194q-14 6 -55 6z" />
    <glyph glyph-name="s" unicode="s" horiz-adv-x="987" 
d="M500 -14q-160 0 -279 105t-119 292h240q0 -184 152 -184q78 -1 114 33t37 83q0 49 -37 79t-168 63q-188 47 -250 126q-61 79 -61 193t87 208q87 95 278 95q192 1 280 -107t88 -251h-241q0 145 -127 145q-66 0 -96 -28q-44 -40 -28 -91t64 -71q48 -21 120 -38
q144 -34 227 -90q104 -69 104 -233q0 -165 -113 -247q-112 -82 -272 -82z" />
    <glyph glyph-name="t" unicode="t" horiz-adv-x="770" 
d="M657 954h-217v-602q0 -68 23 -114t67 -48h127v-190h-174q-160 0 -221 76t-61 223v655h-119v172h119v330h239v-330h217v-172z" />
    <glyph glyph-name="u" unicode="u" horiz-adv-x="1189" 
d="M541 -14q-172 0 -270 115q-97 116 -97 292v672h240v-670q0 -197 155 -196q72 0 134 51t63 127v688h240v-1065h-222v90q-71 -104 -243 -104z" />
    <glyph glyph-name="v" unicode="v" horiz-adv-x="929" 
d="M580 0h-232l-328 1065h256l187 -700l190 700h256z" />
    <glyph glyph-name="w" unicode="w" horiz-adv-x="1601" 
d="M1319 1065h262l-356 -1065h-240l-182 639l-187 -639h-237l-359 1065h265l211 -698l188 698h236l188 -698z" />
    <glyph glyph-name="x" unicode="x" horiz-adv-x="989" 
d="M926 1065l-310 -498l353 -567h-244l-231 367l-230 -367h-244l351 567l-310 498h250l183 -295l182 295h250z" />
    <glyph glyph-name="y" unicode="y" horiz-adv-x="929" 
d="M653 1065h256l-485 -1571h-209l137 490l-332 1081h256l187 -700z" />
    <glyph glyph-name="z" unicode="z" horiz-adv-x="1005" 
d="M903 213v-213h-801v213l525 639h-525v213h789v-213l-524 -639h536z" />
    <glyph glyph-name="braceleft" unicode="{" horiz-adv-x="833" 
d="M303 1546q0 285 293 285h145v-186h-79q-92 0 -121 -30t-29 -130v-445q0 -90 -36 -134t-99 -70q63 -27 99 -71t36 -134v-436q0 -101 29 -131t121 -29h79v-187h-145q-293 0 -293 285v457q-8 155 -135 153h-76v185h76q59 0 97 38t38 124v456z" />
    <glyph glyph-name="bar" unicode="|" horiz-adv-x="692" 
d="M451 -152h-209v1985h209v-1985z" />
    <glyph glyph-name="braceright" unicode="}" horiz-adv-x="833" 
d="M530 133q0 -285 -292 -285h-146v187h80q92 -1 121 29t29 131v436q0 90 35 134q36 44 100 71q-63 27 -100 70q-35 44 -35 134v445q0 100 -29 130t-121 30h-80v186h146q294 0 292 -285v-456q0 -86 38 -124t98 -38h75v-185h-75q-129 0 -136 -153v-457z" />
    <glyph glyph-name="asciitilde" unicode="~" horiz-adv-x="1175" 
d="M780 487q-86 1 -204 59t-174 58t-92 -17t-91 -73l-131 131q90 90 155 125t149 35q84 -1 204 -59q118 -58 174 -58t93 18q36 18 91 72l133 -131q-89 -90 -155 -125t-152 -35z" />
    <glyph glyph-name="exclamdown" unicode="&#xa1;" horiz-adv-x="679" 
d="M260 1065h229v-223h-229v223zM457 631l45 -1237h-254l45 1237h164z" />
    <glyph glyph-name="cent" unicode="&#xa2;" horiz-adv-x="1095" 
d="M369 551q1 -53 33 -98t81 -64v682q-51 -20 -83 -65t-31 -99v-356zM631 0h-164v193q-143 29 -239 142q-95 114 -95 263v262q0 150 95 264t239 144v190h164v-188q129 -27 220 -123t110 -227h-238q-2 53 -36 95t-83 60v-690q49 16 81 59t38 99h240q-17 -131 -109 -229
t-223 -124v-190z" />
    <glyph glyph-name="sterling" unicode="&#xa3;" horiz-adv-x="1155" 
d="M1079 213v-213h-864v158q10 18 27 55q80 184 82 352v23q0 37 -2 53h-129v160h102q-8 41 -33 119q-47 180 -47 256q0 219 139 346t350 127t353 -142l-148 -145q-45 44 -89 66t-118 22q-122 0 -192 -71t-70 -203q0 -66 38 -203t46 -172h320v-160h-299q2 -18 2 -57v-23
q-3 -166 -66 -348h598z" />
    <glyph glyph-name="yen" unicode="&#xa5;" horiz-adv-x="1271" 
d="M1118 915v-194h-272l-82 -178v-25h354v-194h-354v-324h-256v324h-354v194h354v29l-80 174h-274v194h186l-330 719h281l346 -755l344 755h281l-328 -719h184z" />
    <glyph glyph-name="section" unicode="&#xa7;" horiz-adv-x="1112" 
d="M770 565q0 283 -216 283t-216 -283t215 -282q217 -1 217 282zM958 -127q0 -185 -106 -289t-296 -104t-301 94q-110 94 -110 244h213q0 -156 195 -156q90 0 141 50t51 152t-42 143q-43 42 -167 80t-172 57q-48 20 -100 56t-81 81q-62 100 -62 284q0 279 211 377
q-6 4 -33 18t-59 38t-55 67q-35 65 -35 192q0 187 105 289t297 102t301 -92q110 -94 110 -245h-213q0 156 -197 155q-90 0 -140 -49q-51 -49 -51 -150t42 -145t167 -81q125 -38 173 -57q130 -51 186 -142q57 -91 57 -277q0 -279 -211 -377q6 -4 32 -17q82 -41 110 -95
t34 -103t6 -100z" />
    <glyph glyph-name="dieresis" unicode="&#xa8;" horiz-adv-x="1024" 
d="M385 1784h-188v221h188v-221zM827 1784h-188v221h188v-221z" />
    <glyph glyph-name="copyright" unicode="&#xa9;" horiz-adv-x="1765" 
d="M880 1020q-66 0 -113 -48q-48 -48 -48 -116v-254q0 -68 48 -117q49 -49 111 -49t106 35t58 86h136q-23 -102 -105 -170q-81 -68 -197 -68q-116 -1 -203 87t-87 210v224q0 125 87 212t205 87t202 -73t100 -181h-133q-9 57 -55 96t-112 39zM883 127q248 0 420 174t172 428
t-172 428t-420 174t-420 -174t-172 -428t172 -428t420 -174zM883 1470q307 0 524 -217t217 -524t-217 -524t-524 -217t-525 217q-217 217 -217 524t217 524q218 217 525 217z" />
    <glyph glyph-name="ordfeminine" unicode="&#xaa;" horiz-adv-x="925" 
d="M604 1171h-160q-57 1 -89 -33q-31 -34 -31 -79t32 -79t89 -34q58 0 107 41q48 42 52 103v81zM485 1649q123 0 216 -85t94 -221v-555h-179v72q-55 -84 -184 -84t-214 81t-85 203t85 202t210 79h176v27q0 111 -121 111q-53 0 -85 -24t-31 -50h-195q0 94 95 169t218 75z" />
    <glyph glyph-name="guillemotleft" unicode="&#xab;" horiz-adv-x="1212" 
d="M1065 195l-471 471l471 469v-252l-221 -217l221 -220v-251zM547 195l-471 471l471 469v-252l-219 -217l219 -220v-251z" />
    <glyph glyph-name="logicalnot" unicode="&#xac;" horiz-adv-x="1091" 
d="M991 324h-194v288h-699v195h893v-483z" />
    <glyph glyph-name="registered" unicode="&#xae;" horiz-adv-x="1765" 
d="M758 721h164q63 0 94 35q31 27 31 61v86q0 33 -33 66t-92 32h-164v-280zM758 588v-254h-133v799h305q112 0 184 -70t72 -160v-86q0 -122 -115 -190l135 -293h-157l-117 254h-174zM1475 729q0 254 -172 429t-421 175t-421 -175t-172 -429t172 -429t421 -175t421 175
t172 429zM1624 729q0 -307 -217 -524t-524 -217t-525 217q-217 217 -217 524t217 524q216 217 524 217t525 -217t217 -524z" />
    <glyph glyph-name="macron" unicode="&#xaf;" horiz-adv-x="1024" 
d="M195 1833v149h632v-149h-632z" />
    <glyph glyph-name="degree" unicode="&#xb0;" horiz-adv-x="964" 
d="M668 1313q0 80 -54 135t-133 55q-78 0 -131 -55t-53 -135t53 -134q53 -55 131 -55q79 0 133 54t54 135zM840 1313q0 -147 -106 -251t-252 -106q-148 0 -252 104t-105 252q0 148 104 254q103 106 251 105q148 1 254 -105t106 -253z" />
    <glyph glyph-name="plusminus" unicode="&#xb1;" horiz-adv-x="1091" 
d="M987 102h-883v195h883v-195zM987 750h-344v-347h-194v347h-345v194h345v344h194v-344h344v-194z" />
    <glyph glyph-name="acute" unicode="&#xb4;" horiz-adv-x="1024" 
d="M791 2105l-228 -331h-157l153 331h232z" />
    <glyph glyph-name="uni00B5" unicode="&#xb5;" horiz-adv-x="1189" 
d="M766 1065h240v-1065h-222v90q-72 -104 -219 -104q-113 0 -164 75v-567h-227v1571h240v-670q0 -197 155 -196q72 0 134 51t63 127v688z" />
    <glyph glyph-name="paragraph" unicode="&#xb6;" horiz-adv-x="1304" 
d="M1114 -510h-209v1960h-221v-1960h-209v1350q-165 0 -281 118t-116 293q0 174 126 286t335 112h575v-2159z" />
    <glyph glyph-name="periodcentered" unicode="&#xb7;" horiz-adv-x="569" 
d="M410 526h-250v250h250v-250z" />
    <glyph glyph-name="cedilla" unicode="&#xb8;" horiz-adv-x="1024" 
d="M653 -131l-104 -301h-207l143 301h168z" />
    <glyph glyph-name="ordmasculine" unicode="&#xba;" horiz-adv-x="937" 
d="M608 1087v250q0 57 -41 99t-98 43q-57 0 -98 -41t-41 -101v-250q0 -59 41 -100t98 -41t98 42t41 99zM137 1317q-1 135 97 233t234 99q136 -1 234 -99t99 -233v-209q-1 -136 -99 -234t-234 -98t-234 97q-97 97 -97 235v209z" />
    <glyph glyph-name="guillemotright" unicode="&#xbb;" horiz-adv-x="1212" 
d="M621 666l-474 -471v251l222 220l-222 217v252zM1139 666l-473 -471v251l219 220l-219 217v252z" />
    <glyph glyph-name="questiondown" unicode="&#xbf;" horiz-adv-x="1087" 
d="M575 -586q-178 0 -305 126t-127 304v121q0 144 116 274q48 54 95 109q115 135 115 285h209q0 -111 -46 -212t-100 -163q-146 -168 -147 -285v-155q0 -78 56 -134t134 -56q79 0 135 56t56 134v26h240q0 -178 -126 -304t-305 -126zM459 1067h229v-223h-229v223z" />
    <glyph glyph-name="Agrave" unicode="&#xc0;" horiz-adv-x="1286" 
d="M815 1776h-158l-227 331h232zM442 614h404l-203 666zM1032 0l-117 387h-542l-117 -387h-240l498 1634h260l496 -1634h-238z" />
    <glyph glyph-name="Aacute" unicode="&#xc1;" horiz-adv-x="1286" 
d="M836 2105l-228 -331h-157l153 331h232zM442 614h404l-203 666zM1032 0l-117 387h-542l-117 -387h-240l498 1634h260l496 -1634h-238z" />
    <glyph glyph-name="Acircumflex" unicode="&#xc2;" horiz-adv-x="1286" 
d="M995 1782h-174l-178 198l-178 -198h-174l264 329h176zM442 614h404l-203 666zM1032 0l-117 387h-542l-117 -387h-240l498 1634h260l496 -1634h-238z" />
    <glyph glyph-name="Atilde" unicode="&#xc3;" horiz-adv-x="1286" 
d="M778 1798q-72 0 -146 43t-127 43q-52 0 -114 -61l-98 96q113 113 213 113q72 0 146 -44t125 -44q52 0 116 63l98 -96q-113 -113 -213 -113zM442 614h404l-203 666zM1032 0l-117 387h-542l-117 -387h-240l498 1634h260l496 -1634h-238z" />
    <glyph glyph-name="Adieresis" unicode="&#xc4;" horiz-adv-x="1286" 
d="M516 1784h-188v221h188v-221zM958 1784h-188v221h188v-221zM442 614h404l-203 666zM1032 0l-117 387h-542l-117 -387h-240l498 1634h260l496 -1634h-238z" />
    <glyph glyph-name="Aring" unicode="&#xc5;" horiz-adv-x="1286" 
d="M774 1968q0 53 -39 91t-92 38t-92 -38t-39 -91t39 -91t92 -38t92 38t39 91zM899 1968q0 -106 -75 -181t-181 -75t-181 75t-75 181t75 181t181 75t181 -75t75 -181zM442 614h404l-203 666zM1032 0l-117 387h-542l-117 -387h-240l498 1634h260l496 -1634h-238z" />
    <glyph glyph-name="AE" unicode="&#xc6;" horiz-adv-x="1830" 
d="M803 614v707l-285 -707h285zM1718 1407h-659v-475h555v-227h-555v-478h659v-227h-915v387h-375l-156 -387h-256l658 1634h1044v-227z" />
    <glyph glyph-name="Ccedilla" unicode="&#xc7;" horiz-adv-x="1308" 
d="M809 -131l-104 -301h-207l143 301h168zM661 -12q-208 0 -366 158t-158 378v588q0 221 158 379t370 158q213 0 363 -132t178 -327h-239q-19 104 -101 175t-198 71t-202 -87q-87 -87 -87 -210v-641q0 -123 87 -210q86 -87 198 -87q112 -1 191 61t106 156h241
q-39 -184 -186 -307t-355 -123z" />
    <glyph glyph-name="Egrave" unicode="&#xc8;" horiz-adv-x="1218" 
d="M801 1776h-158l-227 331h231zM1106 1407h-660v-475h555v-227h-555v-478h660v-227h-916v1634h916v-227z" />
    <glyph glyph-name="Eacute" unicode="&#xc9;" horiz-adv-x="1218" 
d="M821 2105l-227 -331h-158l154 331h231zM1106 1407h-660v-475h555v-227h-555v-478h660v-227h-916v1634h916v-227z" />
    <glyph glyph-name="Ecircumflex" unicode="&#xca;" horiz-adv-x="1218" 
d="M961 1782h-175l-178 198l-178 -198h-174l264 329h176zM1106 1407h-660v-475h555v-227h-555v-478h660v-227h-916v1634h916v-227z" />
    <glyph glyph-name="Edieresis" unicode="&#xcb;" horiz-adv-x="1218" 
d="M481 1784h-188v221h188v-221zM924 1784h-189v221h189v-221zM1106 1407h-660v-475h555v-227h-555v-478h660v-227h-916v1634h916v-227z" />
    <glyph glyph-name="Igrave" unicode="&#xcc;" horiz-adv-x="872" 
d="M629 1776h-158l-227 331h231zM739 1427h-182v-1210h182v-217h-606v217h182v1210h-182v218h606v-218z" />
    <glyph glyph-name="Iacute" unicode="&#xcd;" horiz-adv-x="872" 
d="M662 2105l-228 -331h-158l154 331h232zM739 1427h-182v-1210h182v-217h-606v217h182v1210h-182v218h606v-218z" />
    <glyph glyph-name="Icircumflex" unicode="&#xce;" horiz-adv-x="872" 
d="M788 1782h-174l-178 198l-178 -198h-174l264 329h176zM739 1427h-182v-1210h182v-217h-606v217h182v1210h-182v218h606v-218z" />
    <glyph glyph-name="Idieresis" unicode="&#xcf;" horiz-adv-x="872" 
d="M309 1784h-188v221h188v-221zM752 1784h-189v221h189v-221zM739 1427h-182v-1210h182v-217h-606v217h182v1210h-182v218h606v-218z" />
    <glyph glyph-name="Ntilde" unicode="&#xd1;" horiz-adv-x="1523" 
d="M897 1798q-72 0 -147 43q-74 43 -126 43t-114 -61l-98 96q113 113 213 113q71 0 145 -44t126 -44t116 63l98 -96q-113 -113 -213 -113zM1079 1634h254v-1634h-213l-674 1110v-1110h-256v1634h216l673 -1108v1108z" />
    <glyph glyph-name="Ograve" unicode="&#xd2;" 
d="M864 1776h-157l-228 331h232zM969 498v641q0 123 -87 210t-209 87t-210 -87t-88 -210v-641q0 -123 88 -210t210 -87t209 87t87 210zM672 1649q221 0 379 -158t157 -379v-588q0 -221 -158 -379q-158 -157 -378 -157q-221 0 -379 158t-158 378v588q0 221 158 379t379 158z
" />
    <glyph glyph-name="Oacute" unicode="&#xd3;" 
d="M864 2105l-227 -331h-158l154 331h231zM969 498v641q0 123 -87 210t-209 87t-210 -87t-88 -210v-641q0 -123 88 -210t210 -87t209 87t87 210zM672 1649q221 0 379 -158t157 -379v-588q0 -221 -158 -379q-158 -157 -378 -157q-221 0 -379 158t-158 378v588q0 221 158 379
t379 158z" />
    <glyph glyph-name="Ocircumflex" unicode="&#xd4;" 
d="M1024 1782h-174l-178 198l-178 -198h-175l265 329h176zM969 498v641q0 123 -87 210t-209 87t-210 -87t-88 -210v-641q0 -123 88 -210t210 -87t209 87t87 210zM672 1649q221 0 379 -158t157 -379v-588q0 -221 -158 -379q-158 -157 -378 -157q-221 0 -379 158t-158 378v588
q0 221 158 379t379 158z" />
    <glyph glyph-name="Otilde" unicode="&#xd5;" 
d="M807 1798q-72 0 -147 43q-74 43 -126 43t-114 -61l-98 96q113 113 213 113q71 0 145 -44t126 -44t116 63l98 -96q-113 -113 -213 -113zM969 498v641q0 123 -87 210t-209 87t-210 -87t-88 -210v-641q0 -123 88 -210t210 -87t209 87t87 210zM672 1649q221 0 379 -158
t157 -379v-588q0 -221 -158 -379q-158 -157 -378 -157q-221 0 -379 158t-158 378v588q0 221 158 379t379 158z" />
    <glyph glyph-name="Odieresis" unicode="&#xd6;" 
d="M545 1784h-189v221h189v-221zM987 1784h-188v221h188v-221zM969 498v641q0 123 -87 210t-209 87t-210 -87t-88 -210v-641q0 -123 88 -210t210 -87t209 87t87 210zM672 1649q221 0 379 -158t157 -379v-588q0 -221 -158 -379q-158 -157 -378 -157q-221 0 -379 158t-158 378
v588q0 221 158 379t379 158z" />
    <glyph glyph-name="Oslash" unicode="&#xd8;" 
d="M967 498v641q0 90 -54 170l-319 -1098q31 -10 76 -10q123 0 210 87t87 210zM373 498q0 -94 55 -170l317 1097q-37 10 -75 11q-121 0 -209 -87t-88 -210v-641zM1206 1112v-588q0 -221 -158 -379t-378 -157q-66 0 -135 16l-46 -156h-200l69 240q-104 76 -164 190t-61 246
v588q0 221 158 379t379 158q70 0 137 -19l45 156h201l-70 -240q103 -74 163 -188t60 -246z" />
    <glyph glyph-name="Ugrave" unicode="&#xd9;" 
d="M827 1776h-157l-228 331h232zM969 1634h239v-1110q0 -221 -158 -379q-158 -157 -378 -157q-221 0 -379 158t-158 378v1110h240v-1136q0 -123 87 -210t210 -87t210 87t87 210v1136z" />
    <glyph glyph-name="Uacute" unicode="&#xda;" 
d="M901 2105l-227 -331h-158l154 331h231zM969 1634h239v-1110q0 -221 -158 -379q-158 -157 -378 -157q-221 0 -379 158t-158 378v1110h240v-1136q0 -123 87 -210t210 -87t210 87t87 210v1136z" />
    <glyph glyph-name="Ucircumflex" unicode="&#xdb;" 
d="M1024 1782h-174l-178 198l-178 -198h-175l265 329h176zM969 1634h239v-1110q0 -221 -158 -379q-158 -157 -378 -157q-221 0 -379 158t-158 378v1110h240v-1136q0 -123 87 -210t210 -87t210 87t87 210v1136z" />
    <glyph glyph-name="Udieresis" unicode="&#xdc;" 
d="M545 1784h-189v221h189v-221zM987 1784h-188v221h188v-221zM969 1634h239v-1110q0 -221 -158 -379q-158 -157 -378 -157q-221 0 -379 158t-158 378v1110h240v-1136q0 -123 87 -210t210 -87t210 87t87 210v1136z" />
    <glyph glyph-name="germandbls" unicode="&#xdf;" horiz-adv-x="1060" 
d="M948 465q0 -205 -120 -341t-310 -136v213q92 -1 141 71t49 196t-50 192q-52 68 -177 67v215q121 0 163 68t42 182t-51 180q-51 64 -126 64t-128 -58t-53 -133v-1245h-242v1219q0 172 125 301t297 129t295 -128t123 -319t-66 -272q-48 -60 -98 -88q186 -96 186 -377z" />
    <glyph glyph-name="agrave" unicode="&#xe0;" horiz-adv-x="1105" 
d="M705 1257h-158l-228 332h232zM692 377v104h-198q-72 0 -112 -42t-40 -99t40 -99t113 -42t135 51t62 127zM544 1079q156 0 272 -106t116 -277v-696h-223v90q-27 -41 -88 -73t-148 -31q-158 0 -264 100t-107 254q0 154 106 254t265 100h219v33q0 67 -39 103t-109 36
t-109 -28q-40 -28 -40 -64h-245q0 119 119 212q120 93 275 93z" />
    <glyph glyph-name="aacute" unicode="&#xe1;" horiz-adv-x="1105" 
d="M805 1587l-227 -332h-158l153 332h232zM692 377v104h-198q-72 0 -112 -42t-40 -99t40 -99t113 -42t135 51t62 127zM544 1079q156 0 272 -106t116 -277v-696h-223v90q-27 -41 -88 -73t-148 -31q-158 0 -264 100t-107 254q0 154 106 254t265 100h219v33q0 67 -39 103
t-109 36t-109 -28q-40 -28 -40 -64h-245q0 119 119 212q120 93 275 93z" />
    <glyph glyph-name="acircumflex" unicode="&#xe2;" horiz-adv-x="1105" 
d="M905 1227h-174l-178 198l-178 -198h-174l264 329h176zM692 377v104h-198q-72 0 -112 -42t-40 -99t40 -99t113 -42t135 51t62 127zM544 1079q156 0 272 -106t116 -277v-696h-223v90q-27 -41 -88 -73t-148 -31q-158 0 -264 100t-107 254q0 154 106 254t265 100h219v33
q0 67 -39 103t-109 36t-109 -28q-40 -28 -40 -64h-245q0 119 119 212q120 93 275 93z" />
    <glyph glyph-name="atilde" unicode="&#xe3;" horiz-adv-x="1105" 
d="M688 1247q-72 0 -146 43t-127 43q-52 0 -114 -61l-98 96q113 113 213 113q72 0 146 -44t125 -44q52 0 116 63l98 -96q-113 -113 -213 -113zM692 377v104h-198q-72 0 -112 -42t-40 -99t40 -99t113 -42t135 51t62 127zM544 1079q156 0 272 -106t116 -277v-696h-223v90
q-27 -41 -88 -73t-148 -31q-158 0 -264 100t-107 254q0 154 106 254t265 100h219v33q0 67 -39 103t-109 36t-109 -28q-40 -28 -40 -64h-245q0 119 119 212q120 93 275 93z" />
    <glyph glyph-name="adieresis" unicode="&#xe4;" horiz-adv-x="1105" 
d="M422 1264h-189v221h189v-221zM864 1264h-188v221h188v-221zM692 377v104h-198q-72 0 -112 -42t-40 -99t40 -99t113 -42t135 51t62 127zM544 1079q156 0 272 -106t116 -277v-696h-223v90q-27 -41 -88 -73t-148 -31q-158 0 -264 100t-107 254q0 154 106 254t265 100h219v33
q0 67 -39 103t-109 36t-109 -28q-40 -28 -40 -64h-245q0 119 119 212q120 93 275 93z" />
    <glyph glyph-name="aring" unicode="&#xe5;" horiz-adv-x="1105" 
d="M684 1464q0 53 -39 91t-92 38t-92 -38t-39 -91t39 -91t92 -38t92 38t39 91zM809 1464q0 -106 -75 -181t-181 -75t-181 75t-75 181t75 182t181 74q106 0 181 -75t75 -181zM692 377v104h-198q-72 0 -112 -42t-40 -99t40 -99t113 -42t135 51t62 127zM544 1079
q156 0 272 -106t116 -277v-696h-223v90q-27 -41 -88 -73t-148 -31q-158 0 -264 100t-107 254q0 154 106 254t265 100h219v33q0 67 -39 103t-109 36t-109 -28q-40 -28 -40 -64h-245q0 119 119 212q120 93 275 93z" />
    <glyph glyph-name="ae" unicode="&#xe6;" horiz-adv-x="1683" 
d="M1282 662v28q0 72 -52 124t-124 52t-124 -52t-52 -124v-28h352zM692 377v104h-198q-72 0 -112 -42t-40 -99t40 -99t113 -42t135 51t62 127zM1098 1079q180 0 302 -123t122 -292v-179h-592v-110q0 -72 52 -124t121 -52t118 42t59 105h238q-20 -154 -138 -257t-274 -103
q-100 0 -183 55t-112 123q-31 -74 -119 -126t-232 -52t-251 100q-106 100 -107 254q0 154 106 254t265 100h219v33q0 67 -39 103t-109 36t-109 -28q-40 -28 -40 -64h-245q0 119 119 212q120 93 272 93q182 0 270 -149q107 149 287 149z" />
    <glyph glyph-name="ccedilla" unicode="&#xe7;" horiz-adv-x="1095" 
d="M702 -131l-104 -301h-207l144 301h167zM542 -14q-164 0 -286 122q-123 122 -123 293v263q0 170 123 292t286 123q164 0 280 -102t139 -254h-238q-12 61 -61 102t-117 41t-119 -52t-51 -124v-315q0 -72 51 -124t120 -52t118 42t59 105h240q-23 -154 -140 -257t-281 -103z
" />
    <glyph glyph-name="egrave" unicode="&#xe8;" horiz-adv-x="1097" 
d="M700 1255h-157l-228 332h232zM373 662h352v28q0 72 -52 124t-124 52t-124 -52t-52 -124v-28zM549 1079q172 0 294 -123t122 -292v-179h-592v-110q0 -72 52 -124t121 -52t118 42t59 105h238q-19 -154 -137 -257t-282 -103t-287 122q-122 122 -122 293v263q0 170 122 292
t294 123z" />
    <glyph glyph-name="eacute" unicode="&#xe9;" horiz-adv-x="1097" 
d="M782 1587l-227 -332h-158l154 332h231zM373 662h352v28q0 72 -52 124t-124 52t-124 -52t-52 -124v-28zM549 1079q172 0 294 -123t122 -292v-179h-592v-110q0 -72 52 -124t121 -52t118 42t59 105h238q-19 -154 -137 -257t-282 -103t-287 122q-122 122 -122 293v263
q0 170 122 292t294 123z" />
    <glyph glyph-name="ecircumflex" unicode="&#xea;" horiz-adv-x="1097" 
d="M905 1227h-174l-178 198l-178 -198h-174l264 329h176zM373 662h352v28q0 72 -52 124t-124 52t-124 -52t-52 -124v-28zM549 1079q172 0 294 -123t122 -292v-179h-592v-110q0 -72 52 -124t121 -52t118 42t59 105h238q-19 -154 -137 -257t-282 -103t-287 122
q-122 122 -122 293v263q0 170 122 292t294 123z" />
    <glyph glyph-name="edieresis" unicode="&#xeb;" horiz-adv-x="1097" 
d="M422 1264h-189v221h189v-221zM864 1264h-188v221h188v-221zM373 662h352v28q0 72 -52 124t-124 52t-124 -52t-52 -124v-28zM549 1079q172 0 294 -123t122 -292v-179h-592v-110q0 -72 52 -124t121 -52t118 42t59 105h238q-19 -154 -137 -257t-282 -103t-287 122
q-122 122 -122 293v263q0 170 122 292t294 123z" />
    <glyph glyph-name="igrave" unicode="&#xec;" horiz-adv-x="608" 
d="M477 1255h-158l-227 332h232zM184 1065h240v-1065h-240v1065z" />
    <glyph glyph-name="iacute" unicode="&#xed;" horiz-adv-x="608" 
d="M518 1587l-227 -332h-158l154 332h231zM184 1065h240v-1065h-240v1065z" />
    <glyph glyph-name="icircumflex" unicode="&#xee;" horiz-adv-x="608" 
d="M655 1227h-174l-178 198l-178 -198h-174l264 329h176zM184 1065h240v-1065h-240v1065z" />
    <glyph glyph-name="idieresis" unicode="&#xef;" horiz-adv-x="608" 
d="M178 1305h-188v221h188v-221zM621 1305h-189v221h189v-221zM184 1065h240v-1065h-240v1065z" />
    <glyph glyph-name="ntilde" unicode="&#xf1;" horiz-adv-x="1189" 
d="M731 1249q-73 0 -147 43t-126 43t-114 -61l-98 96q113 113 213 113q71 0 145 -44t126 -44t116 63l98 -96q-113 -113 -213 -113zM651 1079q172 0 269 -115q96 -116 96 -292v-672h-240v670q0 197 -155 196q-73 0 -135 -51t-62 -129v-686h-240v1065h222v-92q73 106 245 106z
" />
    <glyph glyph-name="ograve" unicode="&#xf2;" horiz-adv-x="1097" 
d="M700 1255h-157l-228 332h232zM723 375v315q0 72 -51 124t-124 52t-124 -52t-51 -124v-315q0 -72 51 -124t124 -52t124 52t51 124zM133 664q0 170 122 292t293 123q171 0 294 -123t123 -292v-263q0 -171 -123 -293t-294 -122t-293 122t-122 293v263z" />
    <glyph glyph-name="oacute" unicode="&#xf3;" horiz-adv-x="1097" 
d="M782 1589l-227 -332h-158l154 332h231zM723 375v315q0 72 -51 124t-124 52t-124 -52t-51 -124v-315q0 -72 51 -124t124 -52t124 52t51 124zM133 664q0 170 122 292t293 123q171 0 294 -123t123 -292v-263q0 -171 -123 -293t-294 -122t-293 122t-122 293v263z" />
    <glyph glyph-name="ocircumflex" unicode="&#xf4;" horiz-adv-x="1097" 
d="M905 1227h-174l-178 198l-178 -198h-174l264 329h176zM723 375v315q0 72 -51 124t-124 52t-124 -52t-51 -124v-315q0 -72 51 -124t124 -52t124 52t51 124zM133 664q0 170 122 292t293 123q171 0 294 -123t123 -292v-263q0 -171 -123 -293t-294 -122t-293 122t-122 293
v263z" />
    <glyph glyph-name="otilde" unicode="&#xf5;" horiz-adv-x="1097" 
d="M684 1249q-72 0 -147 43t-127 43t-113 -61l-98 96q113 113 213 113q72 0 146 -44t125 -44q52 0 116 63l98 -96q-113 -113 -213 -113zM723 375v315q0 72 -51 124t-124 52t-124 -52t-51 -124v-315q0 -72 51 -124t124 -52t124 52t51 124zM133 664q0 170 122 292t293 123
q171 0 294 -123t123 -292v-263q0 -171 -123 -293t-294 -122t-293 122t-122 293v263z" />
    <glyph glyph-name="odieresis" unicode="&#xf6;" horiz-adv-x="1097" 
d="M422 1264h-189v221h189v-221zM864 1264h-188v221h188v-221zM723 375v315q0 72 -51 124t-124 52t-124 -52t-51 -124v-315q0 -72 51 -124t124 -52t124 52t51 124zM133 664q0 170 122 292t293 123q171 0 294 -123t123 -292v-263q0 -171 -123 -293t-294 -122t-293 122
t-122 293v263z" />
    <glyph glyph-name="divide" unicode="&#xf7;" horiz-adv-x="1091" 
d="M657 932h-223v223h223v-223zM657 152h-223v223h223v-223zM991 555h-893v195h893v-195z" />
    <glyph glyph-name="oslash" unicode="&#xf8;" horiz-adv-x="1097" 
d="M723 375v315q0 23 -2 33l-285 -481q49 -43 117 -43t119 52t51 124zM373 690v-315q0 -10 4 -31l285 481q-47 41 -117 41t-121 -52t-51 -124zM965 401q0 -171 -123 -293t-293 -122q-119 0 -215 61l-82 -137h-141l129 217q-106 121 -107 274v263q0 170 122 292t294 123
q117 0 217 -61l82 137h141l-129 -217q104 -115 105 -274v-263z" />
    <glyph glyph-name="ugrave" unicode="&#xf9;" horiz-adv-x="1189" 
d="M725 1255h-158l-227 332h231zM541 -14q-172 0 -270 115q-97 116 -97 292v672h240v-670q0 -197 155 -196q72 0 134 51t63 127v688h240v-1065h-222v90q-71 -104 -243 -104z" />
    <glyph glyph-name="uacute" unicode="&#xfa;" horiz-adv-x="1189" 
d="M850 1587l-227 -332h-158l153 332h232zM541 -14q-172 0 -270 115q-97 116 -97 292v672h240v-670q0 -197 155 -196q72 0 134 51t63 127v688h240v-1065h-222v90q-71 -104 -243 -104z" />
    <glyph glyph-name="ucircumflex" unicode="&#xfb;" horiz-adv-x="1189" 
d="M946 1227h-174l-178 198l-178 -198h-174l264 329h176zM541 -14q-172 0 -270 115q-97 116 -97 292v672h240v-670q0 -197 155 -196q72 0 134 51t63 127v688h240v-1065h-222v90q-71 -104 -243 -104z" />
    <glyph glyph-name="udieresis" unicode="&#xfc;" horiz-adv-x="1189" 
d="M467 1266h-188v221h188v-221zM909 1266h-188v221h188v-221zM541 -14q-172 0 -270 115q-97 116 -97 292v672h240v-670q0 -197 155 -196q72 0 134 51t63 127v688h240v-1065h-222v90q-71 -104 -243 -104z" />
    <glyph glyph-name="ydieresis" unicode="&#xff;" horiz-adv-x="890" 
d="M319 1264h-188v221h188v-221zM762 1264h-189v221h189v-221zM608 1065h256l-485 -1571h-209l137 490l-332 1081h256l187 -700z" />
    <glyph glyph-name="dotlessi" unicode="&#x131;" horiz-adv-x="608" 
d="M184 0v1065h240v-1065h-240z" />
    <glyph glyph-name="OE" unicode="&#x152;" horiz-adv-x="1996" 
d="M673 201q122 0 209 87t87 210v641q0 123 -87 210t-209 87t-210 -87t-88 -210v-641q0 -123 88 -210t210 -87zM1884 1407h-659v-475h555v-227h-555v-478h659v-227h-915v109q-111 -121 -297 -121q-221 0 -379 158t-158 378v588q0 221 158 379t379 158q186 0 297 -123v108
h915v-227z" />
    <glyph glyph-name="oe" unicode="&#x153;" horiz-adv-x="1685" 
d="M1313 662v28q0 72 -52 124t-124 52t-124 -52t-52 -124v-28h352zM723 375v315q0 72 -51 124t-124 52t-124 -52t-51 -124v-315q0 -72 51 -124t124 -52t124 52t51 124zM1129 1079q180 0 302 -123t121 -294v-177h-591v-110q0 -72 52 -124t121 -52q70 0 118 42t59 105h237
q-20 -154 -137 -257t-274 -103q-186 0 -295 149q-109 -149 -287 -149t-300 122t-122 293v263q0 170 122 292t301 123q179 0 286 -147q107 147 287 147z" />
    <glyph glyph-name="Ydieresis" unicode="&#x178;" horiz-adv-x="1271" 
d="M508 1784h-189v221h189v-221zM950 1784h-188v221h188v-221zM750 0h-228v547l-497 1087h249l363 -790l360 790h250l-497 -1087v-547z" />
    <glyph glyph-name="florin" unicode="&#x192;" horiz-adv-x="849" 
d="M618 1462h173l-33 -190h-125q-45 0 -76 -47t-43 -115l-35 -201h215l-30 -174h-215l-205 -1155h-240l205 1155h-119l31 174h119l43 254q25 147 100 223q76 76 235 76z" />
    <glyph glyph-name="circumflex" unicode="&#x2c6;" horiz-adv-x="1024" 
d="M864 1782h-174l-178 198l-178 -198h-174l264 329h176z" />
    <glyph glyph-name="caron" unicode="&#x2c7;" horiz-adv-x="1024" 
d="M864 2114l-264 -330h-176l-264 330h174l178 -199l178 199h174z" />
    <glyph glyph-name="breve" unicode="&#x2d8;" horiz-adv-x="1024" 
d="M506 1935q74 0 130 36t64 108h148q-8 -150 -97 -224q-89 -73 -240 -73t-240 74t-97 223h148q8 -70 59 -107t125 -37z" />
    <glyph glyph-name="dotaccent" unicode="&#x2d9;" horiz-adv-x="1024" 
d="M412 1833v199h198v-199h-198z" />
    <glyph glyph-name="ring" unicode="&#x2da;" horiz-adv-x="1024" 
d="M643 1968q0 53 -39 91t-92 38t-92 -38t-39 -91t39 -91t92 -38t92 38t39 91zM768 1968q0 -106 -75 -181t-181 -75t-181 75t-75 181t75 181t181 75t181 -75t75 -181z" />
    <glyph glyph-name="ogonek" unicode="&#x2db;" horiz-adv-x="1024" 
d="M797 -131l-105 -301h-207l144 301h168z" />
    <glyph glyph-name="tilde" unicode="&#x2dc;" horiz-adv-x="1099" 
d="M680 1798q-72 0 -147 43t-127 43t-113 -61l-98 96q113 113 213 113q70 0 144 -44t127 -44q52 0 116 63l98 -96q-113 -113 -213 -113z" />
    <glyph glyph-name="hungarumlaut" unicode="&#x2dd;" horiz-adv-x="1024" 
d="M328 1788h-158l156 330h229zM707 1788h-158l156 330h229z" />
    <glyph glyph-name="Omega" unicode="&#x3a9;" horiz-adv-x="1363" 
d="M1229 215v-213h-422v213q162 113 162 277v647q0 119 -84 206t-203 91q-117 -4 -202 -91t-85 -206v-647q0 -162 164 -277v-213h-424v213h187q-90 59 -128 153t-38 189v555q0 219 154 375q155 155 372 155t372 -156t154 -374v-555q0 -233 -164 -342h185z" />
    <glyph glyph-name="pi" unicode="&#x3c0;" horiz-adv-x="1210" 
d="M1030 0h-205v870h-438v-870h-207v1065h850v-1065z" />
    <glyph glyph-name="endash" unicode="&#x2013;" horiz-adv-x="1091" 
d="M987 555h-883v195h883v-195z" />
    <glyph glyph-name="emdash" unicode="&#x2014;" horiz-adv-x="1990" 
d="M1853 553h-1716v199h1716v-199z" />
    <glyph glyph-name="quoteleft" unicode="&#x2018;" horiz-adv-x="536" 
d="M393 1634v-250h-250v281q96 158 152 256l86 -45l-125 -242h137z" />
    <glyph glyph-name="quoteright" unicode="&#x2019;" horiz-adv-x="536" 
d="M143 1384v250h250v-280q-96 -158 -151 -256l-86 45l125 241h-138z" />
    <glyph glyph-name="quotesinglbase" unicode="&#x201a;" horiz-adv-x="536" 
d="M143 0v250h250v-281q-96 -158 -151 -256l-86 45l125 242h-138z" />
    <glyph glyph-name="quotedblleft" unicode="&#x201c;" horiz-adv-x="944" 
d="M393 1634v-250h-250v281q96 158 152 256l86 -45l-125 -242h137zM801 1634v-250h-250v281q96 158 151 256l86 -45l-124 -242h137z" />
    <glyph glyph-name="quotedblright" unicode="&#x201d;" horiz-adv-x="944" 
d="M551 1384v250h250v-280q-96 -158 -152 -256l-86 45l125 241h-137zM143 1384v250h250v-280q-96 -158 -151 -256l-86 45l125 241h-138z" />
    <glyph glyph-name="quotedblbase" unicode="&#x201e;" horiz-adv-x="944" 
d="M551 0v250h250v-281q-96 -158 -152 -256l-86 45l125 242h-137zM143 0v250h250v-281q-96 -158 -151 -256l-86 45l125 242h-138z" />
    <glyph glyph-name="dagger" unicode="&#x2020;" horiz-adv-x="1210" 
d="M1077 874h-368v-874h-209v874h-367v187h367v397h209v-397h368v-187z" />
    <glyph glyph-name="daggerdbl" unicode="&#x2021;" horiz-adv-x="1210" 
d="M1077 -23h-368v-397h-209v397h-367v189h367v708h-367v187h367v397h209v-397h368v-187h-368v-708h368v-189z" />
    <glyph glyph-name="bullet" unicode="&#x2022;" horiz-adv-x="1048" 
d="M858 768q0 -138 -97 -236t-237 -98t-236 98q-98 98 -98 236t98 236t236 98q139 0 237 -98q97 -99 97 -236z" />
    <glyph glyph-name="ellipsis" unicode="&#x2026;" horiz-adv-x="1644" 
d="M942 0h-240v240h240v-240zM399 0h-239v240h239v-240zM1485 0h-240v240h240v-240z" />
    <glyph glyph-name="perthousand" unicode="&#x2030;" horiz-adv-x="2340" 
d="M2038 285v188q0 125 -106 125t-105 -125v-188q-1 -123 105 -123t106 123zM2232 279q0 -133 -85 -213t-214 -80t-214 80t-85 213v200q0 135 85 214t214 79t214 -79t85 -214v-200zM512 1161v191q0 123 -105 123t-106 -123v-191q-1 -121 105 -121t106 121zM1317 285v188
q1 125 -105 125t-106 -125v-188q0 -123 106 -123t105 123zM1255 1634l-686 -1634h-209l691 1634h204zM705 1155q0 -133 -85 -212t-214 -79t-213 79t-84 212v203q0 133 84 212t213 79t214 -79t85 -212v-203zM1511 279q0 -133 -85 -213t-214 -80t-214 80t-85 213v200
q0 135 85 214t214 79t214 -79t85 -214v-200z" />
    <glyph glyph-name="guilsinglleft" unicode="&#x2039;" horiz-adv-x="694" 
d="M547 186l-471 471l471 469v-252l-219 -217l219 -219v-252z" />
    <glyph glyph-name="guilsinglright" unicode="&#x203a;" horiz-adv-x="694" 
d="M621 657l-474 -471v252l222 219l-222 217v252z" />
    <glyph glyph-name="fraction" unicode="&#x2044;" horiz-adv-x="403" 
d="M629 1636l-686 -1636h-168l686 1636h168z" />
    <glyph glyph-name="Euro" unicode="&#x20ac;" horiz-adv-x="1378" 
d="M752 -12q-207 0 -365 158t-158 378v21h-166v182h166v184h-166v183h166v18q0 221 158 379t379 158q125 1 238 -59t167 -156l-102 -228q-31 109 -111 169q-80 61 -196 61t-205 -87q-88 -87 -88 -210v-45h549l-84 -183h-465v-184h381l-82 -182h-299v-47q0 -123 88 -210
q87 -87 199 -87q112 -1 188 61t90 156h242q-27 -184 -172 -307t-352 -123z" />
    <glyph glyph-name="trademark" unicode="&#x2122;" horiz-adv-x="1808" 
d="M715 1298h-232v-723h-174v723h-229v160h635v-160zM1675 575h-174v535l-168 -332h-153l-166 332v-535h-176v883h170l247 -481q84 162 252 481h168v-883z" />
    <glyph glyph-name="partialdiff" unicode="&#x2202;" horiz-adv-x="1124" 
d="M723 375v311q-1 78 -63 129t-134 51q-154 0 -153 -196v-295q0 -72 51 -124t124 -52t124 52t51 124zM489 1653q229 0 353 -135t123 -361v-756q0 -171 -123 -293t-294 -122t-294 122t-123 293v271q0 174 97 291t278 116q86 -1 147 -33t88 -73v223q0 108 -63 188t-197 80
q-80 0 -132 -22t-109 -74l-140 139q88 80 175 113t214 33z" />
    <glyph glyph-name="uni2206" unicode="&#x2206;" horiz-adv-x="1267" 
d="M967 188l-330 1137l-332 -1137h662zM1255 0h-1245l535 1634h178z" />
    <glyph glyph-name="product" unicode="&#x220f;" horiz-adv-x="1413" 
d="M1225 -420h-224v1858h-589v-1858h-222v2054h1035v-2054z" />
    <glyph glyph-name="summation" unicode="&#x2211;" horiz-adv-x="1130" 
d="M1040 -420h-942v180l400 854l-396 840v180h932v-198h-674l330 -721v-205l-336 -731h686v-199z" />
    <glyph glyph-name="radical" unicode="&#x221a;" horiz-adv-x="1218" 
d="M1180 1430h-187l-467 -1430h-172l-344 1038h228l202 -641l387 1231h353v-198z" />
    <glyph glyph-name="infinity" unicode="&#x221e;" horiz-adv-x="1699" 
d="M1374 647q0 72 -46 116t-110 44t-110 -38q-47 -38 -119 -122q49 -59 76 -86q77 -76 147 -76t116 45t46 117zM470 809q-56 0 -100 -45t-44 -117t45 -117t108 -45t112 39q48 39 120 123q-47 57 -76 86t-69 53t-96 23zM1575 651q0 -156 -96 -256t-262 -100q-195 0 -367 203
q-174 -205 -367 -205q-166 0 -262 101t-96 257t96 257q95 102 275 102t354 -205q88 104 175 154t192 51q166 0 262 -102t96 -257z" />
    <glyph glyph-name="integral" unicode="&#x222b;" horiz-adv-x="886" 
d="M788 1456h-90q-147 0 -147 -151v-1387q0 -154 -91 -243t-245 -89h-117v178h90q145 0 146 152v1387q0 155 91 243t247 88h116v-178z" />
    <glyph glyph-name="approxequal" unicode="&#x2248;" horiz-adv-x="1175" 
d="M782 287q-86 0 -204 58t-174 58t-93 -17t-92 -73l-131 131q90 90 156 125t150 35t204 -58q118 -58 174 -58t93 16q36 18 91 74l131 -132q-91 -90 -155 -124t-150 -35zM778 702q-88 0 -204 58t-172 57q-56 0 -92 -16t-91 -72l-131 131q90 90 155 124t151 34t204 -58
q116 -58 172 -57t93 17q36 16 91 71l133 -131q-89 -90 -155 -124t-154 -34z" />
    <glyph glyph-name="notequal" unicode="&#x2260;" horiz-adv-x="1169" 
d="M1065 367h-621l-211 -246l-129 104l125 142h-125v194h283l180 203h-463v194h619l213 246l129 -104l-125 -142h125v-194h-283l-180 -203h463v-194z" />
    <glyph glyph-name="lessequal" unicode="&#x2264;" horiz-adv-x="1091" 
d="M924 51l-756 363v221l756 -363v-221zM924 428l-756 365v184l756 364v-221l-502 -235l502 -236v-221z" />
    <glyph glyph-name="greaterequal" unicode="&#x2265;" horiz-adv-x="1091" 
d="M924 414l-756 -363v221l756 363v-221zM924 793l-756 -365v221l502 236l-502 235v221l756 -364v-184z" />
    <glyph glyph-name="lozenge" unicode="&#x25ca;" horiz-adv-x="1314" 
d="M659 1294l-307 -489l307 -490l306 490zM1186 805l-529 -844l-524 844l524 844z" />
    <glyph glyph-name="fi" unicode="&#xfb01;" horiz-adv-x="1333" 
d="M909 1305v327h240v-327h-240zM909 0v1065h240v-1065h-240zM662 1079v-174h-216v-905h-239v905h-119v174h119v254q0 147 61 223t221 76h173v-190h-125q-45 0 -68 -47t-23 -115v-201h216z" />
    <glyph glyph-name="fl" unicode="&#xfb02;" horiz-adv-x="1333" 
d="M1149 1632v-1347q0 -86 61 -86h107v-199h-174q-113 0 -173 84t-61 205v1343h240zM662 1079v-174h-216v-905h-239v905h-119v174h119v254q0 147 61 223t221 76h173v-190h-125q-45 0 -68 -47t-23 -115v-201h216z" />
    </font>
</defs>
</svg>
